<svg id="_1" data-name="1" xmlns="http://www.w3.org/2000/svg" width="187" height="187" viewBox="0 0 187 187">
  <rect id="Rechteck_5" data-name="Rechteck 5" width="187" height="187" fill="#fff" opacity="0"/>
  <g id="Gruppe_8" data-name="Gruppe 8" transform="translate(8.697 116.431)">
    <path id="Pfad_120" data-name="Pfad 120" d="M53.361,65.256c5.523,3.6,8.983,9.771,10.519,16.181s1.342,13.1.878,19.673c-.36,5.071-.978,10.406-4,14.5-4.153,5.634-11.847,7.458-18.84,7.185-6.81-.266-14.02-2.461-18.124-7.9-2.668-3.539-3.714-8.035-4.261-12.435-.884-7.121-.607-14.5,1.809-21.252C25.774,68.823,40.312,56.765,53.361,65.256Z" transform="translate(-19.077 -62.412)" fill="#be9a49"/>
    <path id="Pfad_1046" data-name="Pfad 1046" d="M7.263-20.649V19H.907v1.15H23.791V19H19.069V-22.889h-4.9L.483-21.013.6-19.8Z" transform="translate(12.016 34.197)" fill="#fff"/>
  </g>
  <path id="Pfad_121" data-name="Pfad 121" d="M111.612,47.887l11.827.826c.028,0,.056,0,.084,0a1.187,1.187,0,0,0,.082-2.372l-8.3-.58,8.364-4.733a1.186,1.186,0,1,0-1.169-2.065l-7.785,4.4,3.371-6.258a1.187,1.187,0,1,0-2.09-1.126l-5.159,9.578-4.819,2.727c.367-1.075.734-2.137,1.1-3.178.692-1.983,1.406-4.032,2.085-6.141a1.187,1.187,0,0,0-2.26-.728c-.67,2.081-1.38,4.119-2.065,6.089-.642,1.842-1.3,3.75-1.939,5.7l-6.513,3.684-9.232-6.254.067-7.587c.026-.02.056-.036.082-.057a58.7,58.7,0,0,0,9.1-9.413,1.187,1.187,0,1,0-1.882-1.449,56.125,56.125,0,0,1-7.27,7.78l.036-4.129a59.073,59.073,0,0,0,8.918-12.081,1.187,1.187,0,0,0-2.075-1.155,56.567,56.567,0,0,1-6.812,9.683l.1-11.143a1.184,1.184,0,0,0-1.175-1.2h-.011a1.187,1.187,0,0,0-1.187,1.175l-.093,10.739-5.915-9.357a1.187,1.187,0,0,0-2.006,1.27l7.883,12.468-.023,2.517L78.69,28.12a1.187,1.187,0,1,0-1.818,1.526l8.013,9.537-.072,8.249-9.54,5.987-7.038-4.145c0-.033,0-.066-.007-.1a58.639,58.639,0,0,0-3.6-12.582,1.187,1.187,0,1,0-2.195.9,56.337,56.337,0,0,1,3.1,10.186l-3.56-2.1a58.908,58.908,0,0,0-6-13.762,1.186,1.186,0,0,0-2.036,1.219,56.569,56.569,0,0,1,4.979,10.74l-9.6-5.656a1.187,1.187,0,1,0-1.2,2.045l9.252,5.45-11.06.446a1.186,1.186,0,0,0,.046,2.372h.049l14.739-.593L63.3,49.123,53.771,50.81a1.188,1.188,0,0,0,.2,2.357,1.291,1.291,0,0,0,.208-.018l12.264-2.172,7.657,4.51V66.346l-7.243,4.1a.766.766,0,0,0-.09-.044,58.7,58.7,0,0,0-12.7-3.171,1.187,1.187,0,1,0-.313,2.354,56.373,56.373,0,0,1,10.373,2.406l-3.6,2.034a59.243,59.243,0,0,0-14.92-1.682,1.187,1.187,0,1,0,.038,2.373,56.766,56.766,0,0,1,11.791,1.059l-9.7,5.487a1.186,1.186,0,1,0,1.169,2.065l9.347-5.287-5.146,9.8a1.187,1.187,0,1,0,2.1,1.1l6.857-13.063,2.19-1.239-3.306,9.1a1.185,1.185,0,0,0,.711,1.519,1.166,1.166,0,0,0,.4.072,1.187,1.187,0,0,0,1.114-.782l4.253-11.707,7.839-4.435,9.3,5.412-.064,7.3L75.112,91.782a1.187,1.187,0,1,0,1.78,1.572l7.6-8.614-.044,5.133c-.01.013-.021.023-.029.036l-6.63,9.829a1.187,1.187,0,0,0,1.968,1.328l4.653-6.9-.084,9.609a1.189,1.189,0,0,0,1.177,1.2h.011A1.188,1.188,0,0,0,86.7,103.8l.077-8.944,3.734,6.048a1.187,1.187,0,1,0,2.021-1.247L86.813,90.4l.048-5.536c.747.854,1.482,1.7,2.2,2.537,1.373,1.59,2.791,3.234,4.278,4.878a1.187,1.187,0,1,0,1.76-1.593c-1.467-1.623-2.876-3.255-4.24-4.835-1.275-1.478-2.6-3-3.968-4.528l.066-7.479,9.39-5.25,6.233,3.671,4.537,13.481a1.188,1.188,0,0,0,1.124.81,1.17,1.17,0,0,0,.379-.064,1.187,1.187,0,0,0,.747-1.5L105.7,74.1l4.424,2.606c.007.015.01.03.016.044l5.2,10.655a1.188,1.188,0,0,0,1.067.667,1.175,1.175,0,0,0,.52-.12,1.188,1.188,0,0,0,.547-1.588l-3.648-7.48,8.28,4.878a1.187,1.187,0,0,0,1.2-2.045l-7.706-4.54,7.1-.21a1.186,1.186,0,1,0-.07-2.372l-10.875.32L107,72.1c1.113-.22,2.214-.431,3.3-.638,2.063-.393,4.2-.8,6.363-1.267a1.187,1.187,0,0,0-.5-2.321c-2.139.461-4.26.865-6.308,1.255-1.916.365-3.9.747-5.9,1.172L97.55,66.542V55.809l6.39-3.616L117.886,55a1.15,1.15,0,0,0,.234.025,1.188,1.188,0,0,0,.234-2.352L107.1,50.407l4.468-2.527C111.581,47.881,111.6,47.886,111.612,47.887ZM95.176,66.524l-9.388,5.248-9.309-5.417V55.466l9.491-5.958,9.206,6.238Z" transform="translate(34.606 23.992)" fill="#e0ca9f"/>
  <g id="Gruppe_9" data-name="Gruppe 9" transform="translate(8.671 5.399)">
    <path id="Pfad_122" data-name="Pfad 122" d="M26.273,38.518c-2.542,0-2.545,3.95,0,3.95S28.82,38.518,26.273,38.518Z" transform="translate(-15.672 17.314)" fill="#e0ca9f"/>
    <path id="Pfad_123" data-name="Pfad 123" d="M35.513,25.4c-2.542,0-2.547,3.952,0,3.952S38.058,25.4,35.513,25.4Z" transform="translate(-1.17 -5.863)" fill="#e0ca9f"/>
    <path id="Pfad_124" data-name="Pfad 124" d="M24.8,23.788c-2.54,0-2.545,3.952,0,3.952S27.346,23.788,24.8,23.788Z" transform="translate(-16.613 -6.89)" fill="#be9a49"/>
    <path id="Pfad_125" data-name="Pfad 125" d="M36.182,16.825c-2.542,0-2.545,3.952,0,3.952S38.729,16.825,36.182,16.825Z" transform="translate(-0.347 -11.339)" fill="#be9a49"/>
    <path id="Pfad_126" data-name="Pfad 126" d="M39.262,41.2c-2.542,0-2.545,3.95,0,3.95S41.809,41.2,39.262,41.2Z" transform="translate(3.442 20.607)" fill="#be9a49"/>
    <path id="Pfad_127" data-name="Pfad 127" d="M49.439,68.512c-2.542,0-2.547,3.952,0,3.952S51.984,68.512,49.439,68.512Z" transform="translate(15.96 54.199)" fill="#e0ca9f"/>
    <path id="Pfad_128" data-name="Pfad 128" d="M59.481,66.5c-2.54,0-2.545,3.95,0,3.95S62.027,66.5,59.481,66.5Z" transform="translate(23.238 63.729)" fill="#be9a49"/>
    <path id="Pfad_129" data-name="Pfad 129" d="M61.222,78.287c-2.542,0-2.545,3.95,0,3.95S63.769,78.287,61.222,78.287Z" transform="translate(30.455 72.706)" fill="#e0ca9f"/>
    <path id="Pfad_130" data-name="Pfad 130" d="M53.59,87.66c-2.542,0-2.547,3.952,0,3.952S56.135,87.66,53.59,87.66Z" transform="translate(21.067 78.695)" fill="#be9a49"/>
    <path id="Pfad_131" data-name="Pfad 131" d="M78.228,89.267c-2.542,0-2.545,3.952,0,3.952S80.773,89.267,78.228,89.267Z" transform="translate(51.375 79.722)" fill="#e0ca9f"/>
    <path id="Pfad_132" data-name="Pfad 132" d="M83.986,68.512c-2.542,0-2.547,3.952,0,3.952S86.531,68.512,83.986,68.512Z" transform="translate(65.978 54.199)" fill="#e0ca9f"/>
    <path id="Pfad_133" data-name="Pfad 133" d="M92.02,76.011c-2.542,0-2.545,3.95,0,3.95S94.567,76.011,92.02,76.011Z" transform="translate(71.112 63.42)" fill="#e0ca9f"/>
    <path id="Pfad_134" data-name="Pfad 134" d="M96.707,86.188c-2.542,0-2.547,3.95,0,3.95S99.252,86.188,96.707,86.188Z" transform="translate(74.106 77.755)" fill="#be9a49"/>
    <path id="Pfad_135" data-name="Pfad 135" d="M80.1,78.957c-2.542,0-2.547,3.95,0,3.95S82.648,78.957,80.1,78.957Z" transform="translate(53.681 73.134)" fill="#be9a49"/>
    <path id="Pfad_136" data-name="Pfad 136" d="M94.966,42.133c-2.542,0-2.547,3.952,0,3.952S97.511,42.133,94.966,42.133Z" transform="translate(72.994 21.76)" fill="#be9a49"/>
    <path id="Pfad_140" data-name="Pfad 140" d="M57.2,15.888c-2.542,0-2.545,3.95,0,3.95S59.752,15.888,57.2,15.888Z" transform="translate(25.514 -11.938)" fill="#be9a49"/>
    <path id="Pfad_141" data-name="Pfad 141" d="M60.687,21.512c-2.542,0-2.547,3.95,0,3.95S63.232,21.512,60.687,21.512Z" transform="translate(29.797 -8.344)" fill="#e0ca9f"/>
    <path id="Pfad_142" data-name="Pfad 142" d="M49.037,19.37c-2.542,0-2.545,3.95,0,3.95S51.582,19.37,49.037,19.37Z" transform="translate(15.466 -9.713)" fill="#e0ca9f"/>
    <path id="Pfad_143" data-name="Pfad 143" d="M20.969,54.318c-2.542,0-2.545,3.952,0,3.952S23.516,54.318,20.969,54.318Z" transform="translate(-19.061 36.744)" fill="#be9a49"/>
    <path id="Pfad_144" data-name="Pfad 144" d="M25.068,47.088c-2.542,0-2.545,3.95,0,3.95S27.615,47.088,25.068,47.088Z" transform="translate(-16.442 27.853)" fill="#e0ca9f"/>
    <path id="Pfad_145" data-name="Pfad 145" d="M34.174,53.649c-2.542,0-2.547,3.95,0,3.95S36.719,53.649,34.174,53.649Z" transform="translate(-10.624 35.921)" fill="#e0ca9f"/>
  </g>
</svg>
