<svg id="_10" data-name="10" xmlns="http://www.w3.org/2000/svg" width="187" height="186.999" viewBox="0 0 187 186.999">
  <rect id="Rechteck_19" data-name="Rechteck 19" width="186.999" height="186.998" transform="translate(0.001)" fill="#fff" opacity="0"/>
  <g id="Gruppe_48" data-name="Gruppe 48" transform="translate(0 0.001)">
    <path id="Pfad_351" data-name="Pfad 351" d="M418.94,197.032q3.476-.32,6.91-.944a.658.658,0,1,0-.236-1.295q-3.267.595-6.581.9l4.288-4.789a.658.658,0,0,0-.982-.877l-3.722,4.155.169-5.553a.658.658,0,0,0-.638-.679.651.651,0,0,0-.679.638l-.19,6.289-3.425-4.432a.658.658,0,0,0-1.042.8L416.4,195.9c-2.537.152-5.081.187-7.618.087a.65.65,0,0,0-.684.633.658.658,0,0,0,.633.683q1.532.061,3.065.061,2.04,0,4.079-.111L413.6,199.79h1.768l1.824-2.039-.061,2.039h1.316l.038-1.2.924,1.2h1.664Z" transform="translate(-393.926 -12.792)" fill="#e0ca9f"/>
    <path id="Pfad_352" data-name="Pfad 352" d="M412.93,108.4l.68.878c-2.537.151-5.081.185-7.618.087a.648.648,0,0,0-.684.631.657.657,0,0,0,.631.683q1.534.061,3.067.061c1.36,0,2.721-.039,4.079-.11l-5.071,5.661a.658.658,0,0,0,.49,1.1.653.653,0,0,0,.49-.22l5.407-6.036-.3,9.935a.66.66,0,0,0,.639.679h.02a.658.658,0,0,0,.657-.639l.277-9.134,4.386,5.674a.656.656,0,0,0,.521.257.659.659,0,0,0,.521-1.062l-4.971-6.431q3.476-.317,6.91-.944a.658.658,0,0,0,.529-.765.632.632,0,0,0-.156-.3h-2.026c-1.714.279-3.435.515-5.166.679l.608-.679Z" transform="translate(-395.708 -108.398)" fill="#e0ca9f"/>
    <path id="Pfad_353" data-name="Pfad 353" d="M400.967,145.263a.65.65,0,0,0,.438.169.657.657,0,0,0,.492-.22l5.407-6.036-.3,9.935a.658.658,0,0,0,.638.679h.02a.659.659,0,0,0,.659-.639l.277-9.134,4.386,5.674a.658.658,0,1,0,1.041-.8l-4.971-6.431c2.317-.211,4.625-.526,6.91-.944a.658.658,0,1,0-.236-1.295q-3.267.595-6.581.9l4.288-4.787a.659.659,0,1,0-.982-.878l-3.722,4.155.169-5.553a.658.658,0,0,0-.638-.679.65.65,0,0,0-.679.638l-.19,6.29-3.426-4.433a.659.659,0,0,0-1.042.806l3.588,4.64q-3.525.211-7.059.1v1.314c.818.025,1.637.048,2.455.048q2.04,0,4.079-.111l-5.071,5.663A.657.657,0,0,0,400.967,145.263Z" transform="translate(-399.451 -82.355)" fill="#e0ca9f"/>
    <path id="Pfad_354" data-name="Pfad 354" d="M464.629,197.032c2.318-.213,4.625-.526,6.91-.944a.658.658,0,1,0-.236-1.295q-3.267.595-6.58.9l4.288-4.789a.658.658,0,1,0-.982-.877l-3.722,4.155.169-5.553a.658.658,0,0,0-.638-.679.65.65,0,0,0-.679.638l-.19,6.289-3.425-4.432a.658.658,0,0,0-1.042.8l3.588,4.642c-2.537.152-5.081.187-7.616.087a.65.65,0,0,0-.685.633.659.659,0,0,0,.633.683q1.532.061,3.065.061,2.04,0,4.079-.111l-2.275,2.542h1.767l1.826-2.039-.062,2.039h1.318l.036-1.2.924,1.2h1.664Z" transform="translate(-332.561 -12.792)" fill="#e0ca9f"/>
    <path id="Pfad_355" data-name="Pfad 355" d="M490.325,140.757a.658.658,0,0,0-.454-.2.651.651,0,0,0-.679.639l-.19,6.289-3.425-4.433a.659.659,0,0,0-1.042.806l3.588,4.64c-2.537.152-5.081.187-7.616.089a.648.648,0,0,0-.685.631.657.657,0,0,0,.633.683q1.532.061,3.065.061c1.36,0,2.721-.039,4.079-.11l-5.071,5.661a.659.659,0,1,0,.982.879l5.407-6.036-.3,9.935a.658.658,0,0,0,.638.679h.02a.66.66,0,0,0,.659-.639l.277-9.134.118.152Z" transform="translate(-303.325 -68.483)" fill="#e0ca9f"/>
    <path id="Pfad_356" data-name="Pfad 356" d="M454.958,119.2a.655.655,0,0,0-.765-.529q-3.267.595-6.582.9l4.288-4.787a.658.658,0,1,0-.98-.878l-3.722,4.155.169-5.553a.66.66,0,0,0-.639-.679.649.649,0,0,0-.677.639l-.192,6.289-3.426-4.433a.658.658,0,1,0-1.041.806l3.586,4.64c-2.535.152-5.079.187-7.616.089a.645.645,0,0,0-.683.631.657.657,0,0,0,.631.683q1.532.061,3.067.061c1.36,0,2.721-.039,4.079-.11l-5.071,5.661a.658.658,0,1,0,.98.878l5.407-6.036-.3,9.935a.659.659,0,0,0,.638.679h.021a.659.659,0,0,0,.657-.639l.277-9.134,4.386,5.674a.658.658,0,0,0,1.042-.8l-4.971-6.431c2.316-.211,4.624-.526,6.91-.944A.658.658,0,0,0,454.958,119.2Z" transform="translate(-353.624 -106.205)" fill="#e0ca9f"/>
    <path id="Pfad_1098" data-name="Pfad 1098" d="M454.958,119.2a.655.655,0,0,0-.765-.529q-3.267.595-6.582.9l4.288-4.787a.658.658,0,1,0-.98-.878l-3.722,4.155.169-5.553a.66.66,0,0,0-.639-.679.649.649,0,0,0-.677.639l-.192,6.289-3.426-4.433a.658.658,0,1,0-1.041.806l3.586,4.64c-2.535.152-5.079.187-7.616.089a.645.645,0,0,0-.683.631.657.657,0,0,0,.631.683q1.532.061,3.067.061c1.36,0,2.721-.039,4.079-.11l-5.071,5.661a.658.658,0,1,0,.98.878l5.407-6.036-.3,9.935a.659.659,0,0,0,.638.679h.021a.659.659,0,0,0,.657-.639l.277-9.134,4.386,5.674a.658.658,0,0,0,1.042-.8l-4.971-6.431c2.316-.211,4.624-.526,6.91-.944A.658.658,0,0,0,454.958,119.2Z" transform="translate(-324.596 -75.013)" fill="#e0ca9f"/>
    <path id="Pfad_357" data-name="Pfad 357" d="M470.987,158.11a.656.656,0,0,0-.767-.529c-2.177.4-4.374.7-6.58.9l4.288-4.787a.658.658,0,1,0-.98-.878l-3.722,4.155.169-5.553a.66.66,0,0,0-.639-.679.649.649,0,0,0-.677.639l-.192,6.289-3.425-4.432a.658.658,0,1,0-1.041.8l3.586,4.642c-2.535.151-5.079.185-7.616.087a.645.645,0,0,0-.683.631.656.656,0,0,0,.631.683q1.532.061,3.067.061c1.359,0,2.719-.039,4.078-.11L455.41,165.7a.659.659,0,1,0,.982.878l5.407-6.036-.3,9.935a.658.658,0,0,0,.638.679h.021a.659.659,0,0,0,.657-.639l.277-9.134,4.386,5.674a.658.658,0,0,0,1.042-.8l-4.971-6.431c2.316-.211,4.624-.526,6.91-.944A.658.658,0,0,0,470.987,158.11Z" transform="translate(-331.479 -68.466)" fill="#e0ca9f"/>
    <path id="Pfad_358" data-name="Pfad 358" d="M484.747,172.1a.658.658,0,0,0-.929.052L480.1,176.31l.169-5.553a.658.658,0,1,0-1.316-.039l-.19,6.289-3.425-4.432a.658.658,0,1,0-1.042.8l3.588,4.64c-2.537.152-5.081.187-7.618.089a.648.648,0,0,0-.683.631.657.657,0,0,0,.633.683q1.532.061,3.065.061c1.36,0,2.721-.039,4.079-.11l-5.071,5.661a.659.659,0,1,0,.982.878l5.405-6.036-.3,9.935a.66.66,0,0,0,.639.679h.02a.66.66,0,0,0,.659-.639l.277-9.134,4.386,5.674a.658.658,0,1,0,1.041-.8l-4.971-6.431q3.476-.317,6.91-.944a.658.658,0,1,0-.236-1.295q-3.267.595-6.581.9l4.288-4.787A.659.659,0,0,0,484.747,172.1Z" transform="translate(-309.872 -24.215)" fill="#e0ca9f"/>
  </g>
  <path id="Pfad_1050" data-name="Pfad 1050" d="M5.477-17.937V11.671H.73v.859H17.817v-.859H14.291V-19.61H10.63L.414-18.209l.09.9ZM20.3-3.336c0,9.448,4.159,16.319,13.652,16.319,7.866,0,13.652-4.43,13.652-16.319S41.957-19.61,33.955-19.61C26.045-19.61,20.3-15.135,20.3-3.336Zm9.267-1.673c0-9.855.045-13.652,4.385-13.652,4.43,0,4.43,3.39,4.43,14.059V-.624c0,9.222-.136,12.657-4.43,12.657-4.385,0-4.385-3.481-4.385-13.019Z" transform="translate(131.525 130.652)"/>
  <g id="Gruppe_50" data-name="Gruppe 50" transform="translate(7.905 9.909)">
    <path id="Pfad_359" data-name="Pfad 359" d="M416.79,257.194a51.511,51.511,0,0,0,34.3-19.708,95.2,95.2,0,0,0,6.354,23.207c3.41,8.187,12.917,10.089,18.275,3.5a42.871,42.871,0,0,0,9.319-23.646c3.94,8.973,11.2,15.97,19.57,18.867.086.03.169.06.253.087,10.369,3.479,18.347-10.58,11.629-20.32-8.666-12.559-18.594-27.933-20.227-30.459q-16.342-25.269-30.587-52.2c-2.159-4.082-8.233-21.972-13.267-18.321-3.69,2.675-4.728,19.152-6.1,24.125a191.506,191.506,0,0,1-20.137,47.342,174.322,174.322,0,0,1-18.622,25.637C400.088,243.809,406.3,258.487,416.79,257.194Z" transform="translate(-404.274 -99.573)"/>
    <path id="Pfad_360" data-name="Pfad 360" d="M418.976,190.323c11.1-.833,21.789-4.383,29.186-10.214a35.676,35.676,0,0,0,5.4,12.028c2.9,4.243,10.992,5.228,15.55,1.816,4.453-3.335,7.375-7.688,7.927-12.256,3.354,4.651,9.528,8.277,16.651,9.78l.215.044c8.821,1.8,15.61-5.484,9.893-10.53-7.373-6.51-15.819-14.479-17.208-15.788a374.38,374.38,0,0,1-26.025-27.056c-1.836-2.114-7-11.386-11.286-9.495-3.139,1.387-4.024,9.927-5.187,12.5a85.707,85.707,0,0,1-17.133,24.537,110.047,110.047,0,0,1-15.842,13.289C404.767,183.387,410.049,190.993,418.976,190.323Z" transform="translate(-401.684 -87.308)"/>
    <path id="Pfad_361" data-name="Pfad 361" d="M417.161,172.794a25.534,25.534,0,0,0,16.218-9.565,40.183,40.183,0,0,0,3.468,10.273,5.251,5.251,0,0,0,8.882,1.182,18.585,18.585,0,0,0,4.089-10.8,16.051,16.051,0,0,0,9.773,8.046l.123.033c5.066,1.339,8.674-5.133,5.261-9.357-4.4-5.45-9.46-12.132-10.291-13.23q-8.327-10.984-15.67-22.759c-1.113-1.783-4.355-9.677-6.721-7.933-1.734,1.277-1.95,8.688-2.524,10.947a83.234,83.234,0,0,1-8.9,21.654,79.3,79.3,0,0,1-8.544,11.891C408.866,167.146,412.12,173.6,417.161,172.794Z" transform="translate(-388.047 -109.893)"/>
    <path id="Pfad_362" data-name="Pfad 362" d="M431.809,122.338c1.1-1.133,2.216-2.213,3.35-3.2a.784.784,0,0,0-.583-1.375l-4.761.421a.787.787,0,0,1-.78-.444q-.681-1.423-1.36-2.844a.788.788,0,0,0-1.487.2l-.506,2.867a.788.788,0,0,1-.706.647l-5.061.449a.786.786,0,0,0-.31,1.472q2.34,1.315,4.632,2.714a.794.794,0,0,1,.369.815q-.475,2.675-.946,5.346a.788.788,0,0,0,1.382.642c.974-1.177,1.985-2.383,3.022-3.584a.8.8,0,0,1,1.036-.144q1.8,1.18,3.565,2.4a.786.786,0,0,0,1.154-.988l-2.152-4.5A.8.8,0,0,1,431.809,122.338Z" transform="translate(-381.503 -113.847)" fill="#be9a49"/>
    <g id="Gruppe_49" data-name="Gruppe 49" transform="translate(17.065 46.604)">
      <path id="Pfad_363" data-name="Pfad 363" d="M415.747,145.449c-.339.5-.677,1.006-1.026,1.5a61.649,61.649,0,0,0,34.556-11.612c-.29-.4-.588-.787-.877-1.185A60.141,60.141,0,0,1,415.747,145.449Z" transform="translate(-402.29 -146.243)" fill="#e0ca9f"/>
      <path id="Pfad_364" data-name="Pfad 364" d="M437.643,177.026q4.6,0,9.2-.29a139.849,139.849,0,0,0,40.018-8.424c-.428-.457-.809-.864-1.147-1.228a137.421,137.421,0,0,1-39.037,8.177A143.852,143.852,0,0,1,411.5,173.14c-.432.429-.871.857-1.312,1.283A146.005,146.005,0,0,0,437.643,177.026Z" transform="translate(-410.187 -103.2)" fill="#e0ca9f"/>
      <path id="Pfad_365" data-name="Pfad 365" d="M443.612,159.054a119.943,119.943,0,0,1-28.187-6.412c-.388.41-.765.826-1.165,1.231a122.131,122.131,0,0,0,29.027,6.643,254.585,254.585,0,0,0,29.047,1.4c3.862,0,7.7-.051,11.525-.111-.491-.487-.977-.974-1.461-1.455C469.541,160.54,456.411,160.529,443.612,159.054Z" transform="translate(-406.584 -121.428)" fill="#e0ca9f"/>
      <path id="Pfad_366" data-name="Pfad 366" d="M421.769,128.106c-.151.474-.3.947-.459,1.418a54.775,54.775,0,0,0,19.012,3.43c.093,0,.187,0,.282,0-.344-.495-.69-.988-1.029-1.485A53.33,53.33,0,0,1,421.769,128.106Z" transform="translate(-398.617 -150.106)" fill="#e0ca9f"/>
    </g>
    <path id="Pfad_367" data-name="Pfad 367" d="M424.579,134.475a1.852,1.852,0,0,0,0,3.7A1.852,1.852,0,0,0,424.579,134.475Z" transform="translate(-379.318 -89.406)" fill="#be9a49"/>
    <path id="Pfad_368" data-name="Pfad 368" d="M415.467,158.272a1.853,1.853,0,0,0,0,3.7A1.853,1.853,0,0,0,415.467,158.272Z" transform="translate(-391.599 -59.664)" fill="#be9a49"/>
    <path id="Pfad_369" data-name="Pfad 369" d="M437.458,153a1.852,1.852,0,0,0,0,3.7A1.852,1.852,0,0,0,437.458,153Z" transform="translate(-361.963 -66.252)" fill="#be9a49"/>
    <path id="Pfad_370" data-name="Pfad 370" d="M442.954,172.355a1.852,1.852,0,0,0,0,3.7A1.852,1.852,0,0,0,442.954,172.355Z" transform="translate(-354.554 -42.062)" fill="#be9a49"/>
    <path id="Pfad_371" data-name="Pfad 371" d="M416.6,175.367a1.852,1.852,0,0,0,0,3.7A1.852,1.852,0,0,0,416.6,175.367Z" transform="translate(-390.077 -30.743)" fill="#be9a49"/>
    <path id="Pfad_372" data-name="Pfad 372" d="M432.637,140.5a1.852,1.852,0,0,0,0,3.7A1.852,1.852,0,0,0,432.637,140.5Z" transform="translate(-368.458 -81.876)" fill="#fff"/>
    <path id="Pfad_373" data-name="Pfad 373" d="M424.052,150.741a1.853,1.853,0,0,0,0,3.7A1.853,1.853,0,0,0,424.052,150.741Z" transform="translate(-380.029 -69.076)" fill="#fff"/>
    <path id="Pfad_374" data-name="Pfad 374" d="M431.055,160.757a1.853,1.853,0,0,0,0,3.7A1.853,1.853,0,0,0,431.055,160.757Z" transform="translate(-370.59 -56.558)" fill="#fff"/>
    <path id="Pfad_375" data-name="Pfad 375" d="M423.021,166.331a1.884,1.884,0,0,0-1.85,1.852v.123a1.851,1.851,0,1,0,3.7,0v-.123A1.874,1.874,0,0,0,423.021,166.331Z" transform="translate(-381.482 -49.56)" fill="#fff"/>
    <path id="Pfad_376" data-name="Pfad 376" d="M432.712,177.325a1.852,1.852,0,0,0,0,3.7A1.852,1.852,0,0,0,432.712,177.325Z" transform="translate(-368.357 -29.492)" fill="#fff"/>
  </g>
  <g id="Gruppe_51" data-name="Gruppe 51" transform="translate(7.745 7.381)">
    <path id="Pfad_377" data-name="Pfad 377" d="M412.729,123.614a1.647,1.647,0,0,0,0,3.291A1.647,1.647,0,0,0,412.729,123.614Z" transform="translate(-399.727 -106.056)" fill="#be9a49"/>
    <path id="Pfad_378" data-name="Pfad 378" d="M405.766,146.913a1.647,1.647,0,0,0,0,3.291A1.647,1.647,0,0,0,405.766,146.913Z" transform="translate(-404.176 -71.182)" fill="#be9a49"/>
    <path id="Pfad_379" data-name="Pfad 379" d="M406.168,165.391a1.647,1.647,0,0,0,0,3.293A1.647,1.647,0,0,0,406.168,165.391Z" transform="translate(-403.92 -48.517)" fill="#be9a49"/>
    <path id="Pfad_380" data-name="Pfad 380" d="M423.441,187.084a1.647,1.647,0,0,0,0,3.291A1.647,1.647,0,0,0,423.441,187.084Z" transform="translate(-382.478 -20.729)" fill="#be9a49"/>
    <path id="Pfad_381" data-name="Pfad 381" d="M441.92,189.092a1.647,1.647,0,0,0,0,3.293A1.647,1.647,0,0,0,441.92,189.092Z" transform="translate(-359.793 -19.446)" fill="#be9a49"/>
    <path id="Pfad_382" data-name="Pfad 382" d="M462.407,174.363a1.647,1.647,0,0,0,0,3.293A1.647,1.647,0,0,0,462.407,174.363Z" transform="translate(-334.642 -27.512)" fill="#be9a49"/>
    <path id="Pfad_383" data-name="Pfad 383" d="M473.655,186.548a1.647,1.647,0,0,0,0,3.293A1.647,1.647,0,0,0,473.655,186.548Z" transform="translate(-316.026 -21.071)" fill="#be9a49"/>
    <path id="Pfad_384" data-name="Pfad 384" d="M476.333,158.3a1.647,1.647,0,0,0,0,3.291A1.647,1.647,0,0,0,476.333,158.3Z" transform="translate(-314.314 -67.222)" fill="#be9a49"/>
    <path id="Pfad_385" data-name="Pfad 385" d="M468.567,146.645a1.647,1.647,0,0,0,0,3.293A1.647,1.647,0,0,0,468.567,146.645Z" transform="translate(-319.277 -71.511)" fill="#be9a49"/>
    <path id="Pfad_386" data-name="Pfad 386" d="M453.3,144.5a1.646,1.646,0,0,0,0,3.291A1.646,1.646,0,0,0,453.3,144.5Z" transform="translate(-345.821 -74.139)" fill="#be9a49"/>
    <path id="Pfad_387" data-name="Pfad 387" d="M447.142,132.183a1.647,1.647,0,0,0,0,3.293A1.647,1.647,0,0,0,447.142,132.183Z" transform="translate(-353.382 -89.25)" fill="#be9a49"/>
    <path id="Pfad_388" data-name="Pfad 388" d="M438.974,126.559a1.647,1.647,0,0,0,0,3.293A1.647,1.647,0,0,0,438.974,126.559Z" transform="translate(-363.409 -96.148)" fill="#be9a49"/>
    <path id="Pfad_389" data-name="Pfad 389" d="M433.886,113.437a1.646,1.646,0,0,0,0,3.291A1.646,1.646,0,0,0,433.886,113.437Z" transform="translate(-369.656 -112.559)" fill="#be9a49"/>
    <path id="Pfad_390" data-name="Pfad 390" d="M460.533,115.312a1.646,1.646,0,0,0,0,3.291A1.646,1.646,0,0,0,460.533,115.312Z" transform="translate(-336.944 -111.36)" fill="#be9a49"/>
    <path id="Pfad_391" data-name="Pfad 391" d="M469.236,112.9a1.647,1.647,0,0,0,0,3.293A1.647,1.647,0,0,0,469.236,112.9Z" transform="translate(-308.849 -62.901)" fill="#be9a49"/>
    <path id="Pfad_392" data-name="Pfad 392" d="M477.538,115.847a1.647,1.647,0,0,0,0,3.293A1.647,1.647,0,0,0,477.538,115.847Z" transform="translate(-343.544 -61.019)" fill="#be9a49"/>
    <path id="Pfad_393" data-name="Pfad 393" d="M481.823,126.693a1.647,1.647,0,0,0,0,3.293A1.647,1.647,0,0,0,481.823,126.693Z" transform="translate(-350.806 -95.984)" fill="#be9a49"/>
  </g>
</svg>
