<svg id="_11" data-name="11" xmlns="http://www.w3.org/2000/svg" width="187" height="186.998" viewBox="0 0 187 186.998">
  <rect id="Rechteck_6" data-name="Rechteck 6" width="186.999" height="186.998" transform="translate(0.001)" opacity="0.004"/>
  <path id="Pfad_1055" data-name="Pfad 1055" d="M6.811-22.307V14.515H.908v1.068h21.25V14.515H17.773v-38.9H13.219L.514-22.644.627-21.52Zm23.892,0V14.515H24.8v1.068H46.05V14.515H41.665v-38.9H37.111l-12.7,1.743.112,1.124Z" transform="translate(30.848 92.035)" fill="#fff"/>
  <g id="Gruppe_11" data-name="Gruppe 11" transform="translate(0 0)">
    <path id="Pfad_146" data-name="Pfad 146" d="M61.19,207.1l-1.428,1.934a.7.7,0,0,0,.575,1.116l2.4-.043a.7.7,0,0,1,.582.292l1.4,1.955a.7.7,0,0,0,1.239-.2l.7-2.3a.7.7,0,0,1,.459-.462l2.291-.726a.7.7,0,0,0,.19-1.241l-1.16-.811H61.322A.7.7,0,0,1,61.19,207.1Z" transform="translate(41.03 -206.611)" fill="#be9a49"/>
    <path id="Pfad_147" data-name="Pfad 147" d="M74.051,232.626a1.759,1.759,0,0,0-.228-3.146L68.229,227.2a1.762,1.762,0,0,1-1.056-1.251l-1.3-5.9a1.759,1.759,0,0,0-3.062-.756l-3.893,4.618a1.757,1.757,0,0,1-1.516.616l-6.011-.589a1.758,1.758,0,0,0-1.665,2.678l3.189,5.129a1.764,1.764,0,0,1,.118,1.633l-2.417,5.534a1.758,1.758,0,0,0,2.033,2.411l5.863-1.448a1.76,1.76,0,0,1,1.588.393l4.516,4.009a1.759,1.759,0,0,0,2.922-1.189l.435-6.023a1.757,1.757,0,0,1,.864-1.39Z" transform="translate(42.333 -198.903)" fill="#e0ca9f"/>
    <path id="Pfad_148" data-name="Pfad 148" d="M58.055,279.156a.7.7,0,0,0-.736-1.018l-2.37.4a.7.7,0,0,1-.62-.2l-1.675-1.724A.7.7,0,0,0,51.46,277l-.349,2.378a.7.7,0,0,1-.384.526l-2.157,1.06a.7.7,0,0,0,0,1.255l2.154,1.067a.7.7,0,0,1,.382.528l.343,2.38a.7.7,0,0,0,1.193.39l1.68-1.719a.706.706,0,0,1,.621-.2l2.368.41a.7.7,0,0,0,.739-1.015l-1.116-2.129a.7.7,0,0,1,0-.651Z" transform="translate(27.306 -117.245)" fill="#be9a49"/>
    <path id="Pfad_149" data-name="Pfad 149" d="M58.6,254.91a.7.7,0,0,0,.577,1.116l2.4-.043a.7.7,0,0,1,.582.292l1.4,1.955a.7.7,0,0,0,1.239-.2l.7-2.3a.7.7,0,0,1,.459-.462l2.291-.726a.7.7,0,0,0,.19-1.241l-1.97-1.378a.7.7,0,0,1-.3-.579l.018-2.4a.7.7,0,0,0-1.123-.565l-1.919,1.449a.694.694,0,0,1-.642.1l-2.28-.76a.7.7,0,0,0-.883.893l.783,2.272a.7.7,0,0,1-.1.644Z" transform="translate(39.639 -156.869)" fill="#be9a49"/>
    <path id="Pfad_150" data-name="Pfad 150" d="M80.809,239.876a.7.7,0,0,0,.575,1.116l2.4-.044a.706.706,0,0,1,.582.293l1.4,1.955a.7.7,0,0,0,1.239-.2l.7-2.3a.7.7,0,0,1,.459-.462l2.291-.726a.7.7,0,0,0,.19-1.241l-1.97-1.378a.7.7,0,0,1-.3-.579l.018-2.4a.7.7,0,0,0-1.121-.564l-1.919,1.449a.7.7,0,0,1-.642.1l-2.28-.76a.7.7,0,0,0-.883.893l.783,2.272a.7.7,0,0,1-.1.644Z" transform="translate(66.182 -174.837)" fill="#be9a49"/>
    <path id="Pfad_152" data-name="Pfad 152" d="M83.694,265.244a.7.7,0,0,0-.641-1.08l-2.4.187a.7.7,0,0,1-.6-.259l-1.511-1.868a.7.7,0,0,0-1.224.275l-.564,2.337a.7.7,0,0,1-.431.488l-2.244.86a.7.7,0,0,0-.116,1.251l2.047,1.259a.7.7,0,0,1,.333.561l.125,2.4a.7.7,0,0,0,1.154.5l1.829-1.559a.7.7,0,0,1,.636-.143l2.321.624a.7.7,0,0,0,.829-.944l-.918-2.222a.707.707,0,0,1,.061-.649Z" transform="translate(57.745 -140.442)" fill="#be9a49"/>
    <path id="Pfad_153" data-name="Pfad 153" d="M21.6,295.257l7.9.126a2.305,2.305,0,0,1,1.88,1.028l4.374,6.582a2.3,2.3,0,0,0,4.093-.528l2.563-7.475a2.3,2.3,0,0,1,1.557-1.47l7.611-2.126a2.3,2.3,0,0,0,.764-4.056l-6.318-4.748a2.3,2.3,0,0,1-.916-1.936l.329-7.895a2.3,2.3,0,0,0-3.62-1.98L35.35,275.32a2.3,2.3,0,0,1-2.124.274l-7.408-2.753a2.3,2.3,0,0,0-3,2.832l2.319,7.554a2.3,2.3,0,0,1-.395,2.106l-4.909,6.194A2.3,2.3,0,0,0,21.6,295.257Z" transform="translate(-10.216 -121.108)" fill="#e0ca9f"/>
    <path id="Pfad_154" data-name="Pfad 154" d="M92.7,302.106l-4.307-6.625a2.306,2.306,0,0,1-.2-2.134l3.016-7.3a2.3,2.3,0,0,0-2.724-3.1l-7.633,2.049a2.3,2.3,0,0,1-2.088-.47L72.748,279.4a2.3,2.3,0,0,0-3.791,1.632l-.41,7.892a2.3,2.3,0,0,1-1.093,1.842L60.722,294.9a2.3,2.3,0,0,0,.382,4.109l7.379,2.827a2.292,2.292,0,0,1,1.054.847H92.969A2.3,2.3,0,0,0,92.7,302.106Z" transform="translate(46.432 -115.685)" fill="#e0ca9f"/>
    <path id="Pfad_155" data-name="Pfad 155" d="M89.34,289.912a.7.7,0,0,0,.865.908l2.295-.715a.7.7,0,0,1,.641.118l1.891,1.485a.7.7,0,0,0,1.133-.543l.028-2.4a.7.7,0,0,1,.31-.572l2-1.339a.7.7,0,0,0-.166-1.246l-2.277-.77a.7.7,0,0,1-.449-.47l-.657-2.313a.7.7,0,0,0-1.234-.228l-1.436,1.927a.7.7,0,0,1-.588.282l-2.4-.09a.7.7,0,0,0-.6,1.1l1.39,1.962a.7.7,0,0,1,.085.646Z" transform="translate(78.792 -113.961)" fill="#be9a49"/>
    <path id="Pfad_156" data-name="Pfad 156" d="M109.244,251.965l-1.075.288a2.3,2.3,0,0,1-2.09-.47l-6.015-5.125a2.3,2.3,0,0,0-3.791,1.632l-.408,7.892a2.3,2.3,0,0,1-1.095,1.841l-6.733,4.137a2.3,2.3,0,0,0,.382,4.111L95.8,269.1a2.3,2.3,0,0,1,1.414,1.609l1.854,7.682a2.3,2.3,0,0,0,4.025.906l4.969-6.143a2.291,2.291,0,0,1,1.183-.756Z" transform="translate(77.756 -154.588)" fill="#e0ca9f"/>
    <path id="Pfad_157" data-name="Pfad 157" d="M44.372,214.637l-2.218-.929a.705.705,0,0,1-.415-.5l-.49-2.354a.7.7,0,0,0-1.216-.313l-1.569,1.821a.7.7,0,0,1-.606.238l-2.39-.259A.7.7,0,0,0,34.8,213.4l1.246,2.055a.7.7,0,0,1,.041.649l-.987,2.193a.7.7,0,0,0,.8.969l2.34-.551a.7.7,0,0,1,.631.162l1.78,1.616a.7.7,0,0,0,1.169-.461l.2-2.4a.7.7,0,0,1,.351-.549l2.086-1.195A.7.7,0,0,0,44.372,214.637Z" transform="translate(11.219 -204.258)" fill="#be9a49"/>
    <path id="Pfad_158" data-name="Pfad 158" d="M13.77,235.385a2.29,2.29,0,0,1,1.5,1.3l3.111,7.264a2.3,2.3,0,0,0,4.12.223l3.875-6.889a2.3,2.3,0,0,1,1.8-1.164l7.87-.713a2.3,2.3,0,0,0,1.485-3.852l-5.353-5.812a2.305,2.305,0,0,1-.552-2.07l1.754-7.7a2.3,2.3,0,0,0-3.2-2.6l-7.184,3.294a2.3,2.3,0,0,1-2.137-.115l-6.787-4.048a2.261,2.261,0,0,0-.3-.149Z" transform="translate(-13.77 -202.948)" fill="#e0ca9f"/>
    <path id="Pfad_159" data-name="Pfad 159" d="M16.652,254.834a.7.7,0,0,0,.8.969l2.34-.551a.7.7,0,0,1,.631.162l1.78,1.616a.7.7,0,0,0,1.169-.461l.2-2.4a.7.7,0,0,1,.351-.549l2.086-1.195a.7.7,0,0,0-.077-1.252l-2.218-.929a.7.7,0,0,1-.415-.5l-.49-2.354a.7.7,0,0,0-1.216-.313L20.021,248.9a.7.7,0,0,1-.606.239l-2.39-.259a.7.7,0,0,0-.675,1.059l1.247,2.055a.7.7,0,0,1,.039.649Z" transform="translate(-12.187 -158.524)" fill="#be9a49"/>
  </g>
  <g id="Gruppe_12" data-name="Gruppe 12" transform="translate(6.074 10.572)">
    <path id="Pfad_160" data-name="Pfad 160" d="M38.449,225.38c-2.967,0-2.971,4.609,0,4.609S41.419,225.38,38.449,225.38Z" transform="translate(5.94 -205.189)" fill="#fff"/>
    <path id="Pfad_161" data-name="Pfad 161" d="M50.768,213.061c-2.967,0-2.971,4.609,0,4.609S53.738,213.061,50.768,213.061Z" transform="translate(21.328 -213.061)" fill="#fff"/>
    <path id="Pfad_162" data-name="Pfad 162" d="M75.808,245.868c-2.967,0-2.971,4.609,0,4.609S78.778,245.868,75.808,245.868Z" transform="translate(52.606 -172.65)" fill="#fff"/>
    <path id="Pfad_164" data-name="Pfad 164" d="M59.07,267.024c-2.967,0-2.971,4.609,0,4.609S62.04,267.024,59.07,267.024Z" transform="translate(31.698 -146.59)" fill="#fff"/>
    <path id="Pfad_165" data-name="Pfad 165" d="M19.7,262.07c-2.965,0-2.97,4.609,0,4.609S22.673,262.07,19.7,262.07Z" transform="translate(-17.476 -152.692)" fill="#fff"/>
    <path id="Pfad_166" data-name="Pfad 166" d="M46.349,288.583c-2.965,0-2.97,4.609,0,4.609S49.318,288.583,46.349,288.583Z" transform="translate(15.809 -120.033)" fill="#fff"/>
    <path id="Pfad_167" data-name="Pfad 167" d="M86.922,271.979c-2.967,0-2.971,4.609,0,4.609S89.892,271.979,86.922,271.979Z" transform="translate(70.247 -140.486)" fill="#fff"/>
  </g>
</svg>
