<svg id="_12" data-name="12" xmlns="http://www.w3.org/2000/svg" width="187" height="187" viewBox="0 0 187 187">
  <rect id="Rechteck_28" data-name="Rechteck 28" width="187" height="187" fill="#e0ca9f" opacity="0"/>
  <path id="Pfad_1056" data-name="Pfad 1056" d="M5.477-17.937V11.671H.73v.859H17.817v-.859H14.291V-19.61H10.63L.414-18.209l.09.9Zm25.5-1.673c-7.323,0-10.442,3.119-10.442,6.916,0,2.215,1.221,4.2,4.023,4.2,2.26,0,3.978-1.4,3.978-3.526a5.285,5.285,0,0,0-.362-2.034H26.813a3.986,3.986,0,0,1-.271-1.311,3.186,3.186,0,0,1,3.436-3.39c3.119,0,3.978,1.944,3.978,6.419,0,6.329-2.712,10.081-8.544,15.415l-4.566,4.2V12.53H42.092L42.544.009h-.768c-.678,3.481-1.853,5.605-6.283,5.605H24.643L27.4,3.625c11.03-7.956,14.511-10.216,14.511-15.46C41.911-17.124,37.888-19.61,30.972-19.61Z" transform="translate(134.785 158.032)" fill="#be9a49"/>
  <g id="Gruppe_101" data-name="Gruppe 101" transform="translate(7.115 114.893)">
    <g id="Gruppe_93" data-name="Gruppe 93" transform="translate(0 6.921)">
      <path id="Pfad_598" data-name="Pfad 598" d="M114.532,256.534s11.579,10.593,5.635,23.647c0,0,19.26-2.218,22.852,12.107,0,0,8.688-7.667,20.066-3.576,0,0-7.37-11.471-4.291-18.789,0,0-18.125-2.337-17.883-16.306C140.911,253.617,127.672,259.97,114.532,256.534Z" transform="translate(-114.532 -253.617)"/>
      <path id="Pfad_599" data-name="Pfad 599" d="M147.685,269.211a.524.524,0,0,0-.636.383,12.728,12.728,0,0,0,.479,7.536c-2.011-1.388-4.066-2.76-6.1-4.081a.729.729,0,0,0-.031-.075,15.816,15.816,0,0,1-2.422-9.052.526.526,0,0,0-1.051-.044,16.89,16.89,0,0,0,1.672,7.99c-1.814-1.162-3.586-2.272-5.273-3.312a10.919,10.919,0,0,1-.956-11.094.526.526,0,1,0-.941-.469,12.034,12.034,0,0,0-.031,10.381c-6.018-3.666-10.476-6.172-10.591-6.236a.526.526,0,0,0-.513.918c.116.064,4.725,2.655,10.888,6.417a21.164,21.164,0,0,0-10.78,4.966.526.526,0,1,0,.692.792,20.1,20.1,0,0,1,11.527-4.864.518.518,0,0,0,.249.143c1.608.992,3.293,2.049,5.019,3.152a12.508,12.508,0,0,0-6.869,2.506.517.517,0,0,0-.1.738.526.526,0,0,0,.736.1,11.452,11.452,0,0,1,7.887-2.277c2.239,1.452,4.509,2.965,6.72,4.5a13,13,0,0,0-7.964,3,.526.526,0,1,0,.675.806,11.932,11.932,0,0,1,8.7-2.719.551.551,0,0,0,.118-.015,89.229,89.229,0,0,1,12.466,10.188.524.524,0,0,0,.742.02l.011-.012a.525.525,0,0,0,.01-.731,91.146,91.146,0,0,0-12.781-10.432,11.672,11.672,0,0,1-1.17-8.478A.524.524,0,0,0,147.685,269.211Z" transform="translate(-110.383 -251.646)"/>
    </g>
    <g id="Gruppe_94" data-name="Gruppe 94" transform="translate(44.144)">
      <path id="Pfad_600" data-name="Pfad 600" d="M168.93,249.394s-8,9.732-18.724,5.518c0,0,2.593,15.349-8.741,18.835,0,0,6.515,6.644,3.716,15.941,0,0,8.888-6.4,14.885-4.237,0,0,1.108-14.631,12.319-15.028C172.385,270.424,166.732,260.075,168.93,249.394Z" transform="translate(-141.466 -249.394)"/>
      <path id="Pfad_601" data-name="Pfad 601" d="M158.178,276.482a.421.421,0,0,0-.336-.495,10.232,10.232,0,0,0-6.022.7c1.028-1.67,2.041-3.376,3.014-5.061a.392.392,0,0,0,.059-.028,12.7,12.7,0,0,1,7.156-2.324.422.422,0,1,0-.008-.844,13.545,13.545,0,0,0-6.336,1.678c.856-1.5,1.67-2.973,2.432-4.368a8.771,8.771,0,0,1,8.857-1.236.422.422,0,0,0,.336-.775,9.663,9.663,0,0,0-8.326.415c2.685-4.981,4.506-8.66,4.553-8.755a.422.422,0,1,0-.757-.374c-.048.1-1.931,3.9-4.686,9a16.987,16.987,0,0,0-4.437-8.433.422.422,0,0,0-.606.588,16.131,16.131,0,0,1,4.389,9.037.41.41,0,0,0-.1.2c-.728,1.331-1.5,2.727-2.314,4.158a10.052,10.052,0,0,0-2.3-5.4.416.416,0,0,0-.595-.048.423.423,0,0,0-.048.595,9.191,9.191,0,0,1,2.159,6.227c-1.069,1.857-2.186,3.74-3.322,5.579a10.431,10.431,0,0,0-2.74-6.259.422.422,0,1,0-.618.575,9.585,9.585,0,0,1,2.549,6.859.445.445,0,0,0,.016.093,71.662,71.662,0,0,1-7.643,10.427.422.422,0,0,0,.016.6l.008.008a.421.421,0,0,0,.588-.025,72.87,72.87,0,0,0,7.823-10.689,9.381,9.381,0,0,1,6.749-1.295A.424.424,0,0,0,158.178,276.482Z" transform="translate(-140.88 -245.952)"/>
    </g>
    <g id="Gruppe_96" data-name="Gruppe 96" transform="translate(47.686 32.324)">
      <path id="Pfad_602" data-name="Pfad 602" d="M147.156,280.328a5.845,5.845,0,1,1,7.684-3.05A5.845,5.845,0,0,1,147.156,280.328Z" transform="translate(-143.627 -269.116)" fill="#be9a49"/>
      <g id="Gruppe_95" data-name="Gruppe 95" transform="translate(3.649 1.323)">
        <path id="Pfad_603" data-name="Pfad 603" d="M151.208,274.661a.677.677,0,0,0,.682-.68,4.059,4.059,0,0,0-3.74-4.056.681.681,0,0,0-.679.41.627.627,0,0,0-.054.216.679.679,0,0,0,.624.731,2.7,2.7,0,0,1,2.486,2.7A.681.681,0,0,0,151.208,274.661Z" transform="translate(-144.855 -269.923)" fill="#e0ca9f"/>
        <path id="Pfad_604" data-name="Pfad 604" d="M147.041,271.325a.681.681,0,0,0,.867-.367l.008-.021a.678.678,0,0,0-.385-.882,1.378,1.378,0,0,0-1.5.338.719.719,0,0,0-.126.192.688.688,0,0,0,1.134.741Z" transform="translate(-145.853 -269.898)" fill="#e0ca9f"/>
      </g>
    </g>
    <g id="Gruppe_98" data-name="Gruppe 98" transform="translate(44.838 39.868)">
      <path id="Pfad_605" data-name="Pfad 605" d="M151.528,275.117a5.845,5.845,0,1,1-8.241.654A5.845,5.845,0,0,1,151.528,275.117Z" transform="translate(-141.889 -273.719)" fill="#be9a49"/>
      <g id="Gruppe_97" data-name="Gruppe 97" transform="translate(0.905 4.385)">
        <path id="Pfad_606" data-name="Pfad 606" d="M143.473,276.425a.68.68,0,0,0-.852.449A4.06,4.06,0,0,0,145,281.853a.683.683,0,0,0,.77-.192.718.718,0,0,0,.115-.19.683.683,0,0,0-.382-.885,2.7,2.7,0,0,1-1.583-3.309A.682.682,0,0,0,143.473,276.425Z" transform="translate(-142.441 -276.394)" fill="#e0ca9f"/>
        <path id="Pfad_607" data-name="Pfad 607" d="M145.915,279.328a.683.683,0,0,0-.936.1l-.015.02a.679.679,0,0,0,.11.956,1.378,1.378,0,0,0,1.531.118.741.741,0,0,0,.177-.146.689.689,0,0,0-.867-1.042Z" transform="translate(-140.924 -274.611)" fill="#e0ca9f"/>
      </g>
    </g>
    <g id="Gruppe_100" data-name="Gruppe 100" transform="translate(38.353 33.415)">
      <path id="Pfad_608" data-name="Pfad 608" d="M149.306,273.727a5.845,5.845,0,1,1-7.428-3.625A5.844,5.844,0,0,1,149.306,273.727Z" transform="translate(-137.932 -269.782)" fill="#be9a49"/>
      <g id="Gruppe_99" data-name="Gruppe 99" transform="translate(0.912 2.405)">
        <path id="Pfad_609" data-name="Pfad 609" d="M140.784,271.473a.678.678,0,0,0-.962-.046,4.06,4.06,0,0,0-.48,5.5.681.681,0,0,0,.76.226.646.646,0,0,0,.2-.1.681.681,0,0,0,.121-.956,2.7,2.7,0,0,1,.318-3.655A.681.681,0,0,0,140.784,271.473Z" transform="translate(-138.489 -271.249)" fill="#e0ca9f"/>
        <path id="Pfad_610" data-name="Pfad 610" d="M141.028,275.245a.68.68,0,0,0-.854-.395l-.021.008a.681.681,0,0,0-.393.88,1.381,1.381,0,0,0,1.26.879.654.654,0,0,0,.226-.036.687.687,0,0,0-.218-1.336Z" transform="translate(-137.706 -268.972)" fill="#e0ca9f"/>
      </g>
    </g>
  </g>
  <g id="Gruppe_111" data-name="Gruppe 111" transform="translate(92.641 56.057)">
    <g id="Gruppe_102" data-name="Gruppe 102" transform="translate(23.66)">
      <path id="Pfad_611" data-name="Pfad 611" d="M191.428,212.747s-6.672,10.689-17.848,7.9c0,0,4.565,14.882-6.22,19.81,0,0,7.323,5.741,5.756,15.321,0,0,7.98-7.5,14.207-6.133,0,0-.8-14.652,10.263-16.5C197.586,233.149,190.637,223.623,191.428,212.747Z" transform="translate(-167.36 -212.747)"/>
      <path id="Pfad_612" data-name="Pfad 612" d="M183.812,240.665a.421.421,0,0,0-.4-.446,10.224,10.224,0,0,0-5.881,1.478c.8-1.79,1.587-3.612,2.332-5.41a.357.357,0,0,0,.056-.036,12.7,12.7,0,0,1,6.792-3.234.422.422,0,0,0-.118-.836,13.551,13.551,0,0,0-6.064,2.488c.652-1.6,1.27-3.165,1.845-4.648A8.769,8.769,0,0,1,191,227.646a.422.422,0,0,0,.233-.811,9.664,9.664,0,0,0-8.2,1.491c2.016-5.287,3.344-9.173,3.378-9.273a.422.422,0,0,0-.8-.27c-.034.1-1.408,4.119-3.476,9.534a16.987,16.987,0,0,0-5.5-7.785.422.422,0,1,0-.524.662,16.126,16.126,0,0,1,5.525,8.39.422.422,0,0,0-.077.216c-.547,1.414-1.136,2.9-1.755,4.424a10.048,10.048,0,0,0-2.981-5.056.414.414,0,0,0-.6.029.422.422,0,0,0,.03.595,9.192,9.192,0,0,1,2.95,5.894c-.819,1.98-1.682,3.994-2.57,5.963a10.447,10.447,0,0,0-3.53-5.85.426.426,0,0,0-.595.057.421.421,0,0,0,.057.593,9.582,9.582,0,0,1,3.417,6.471.417.417,0,0,0,.03.09,71.675,71.675,0,0,1-6.223,11.332.423.423,0,0,0,.093.59l.01.007a.422.422,0,0,0,.579-.1,73.116,73.116,0,0,0,6.369-11.615,9.375,9.375,0,0,1,6.525-2.162A.423.423,0,0,0,183.812,240.665Z" transform="translate(-165.859 -209.073)"/>
    </g>
    <g id="Gruppe_103" data-name="Gruppe 103" transform="translate(0 4.899)">
      <path id="Pfad_613" data-name="Pfad 613" d="M156.6,215.736s5.264,11.991-3.675,19.95c0,0,15.446,4.8,13.356,16.949,0,0,9.218-2.921,16.521,4.038,0,0-1.755-11.24,3.063-15.787,0,0-13.045-7.9-8.147-18.478C177.717,222.408,165.469,222.79,156.6,215.736Z" transform="translate(-152.924 -215.736)"/>
      <path id="Pfad_614" data-name="Pfad 614" d="M178.019,236.107a.439.439,0,0,0-.616.079,10.645,10.645,0,0,0-2.177,5.913c-1.065-1.739-2.172-3.478-3.276-5.171a.48.48,0,0,0,0-.069,13.2,13.2,0,0,1,1.2-7.726.439.439,0,0,0-.787-.388,14.1,14.1,0,0,0-1.419,6.662c-.993-1.5-1.97-2.944-2.906-4.306a9.109,9.109,0,0,1,3.012-8.79.439.439,0,1,0-.561-.675,10.045,10.045,0,0,0-3.525,7.913c-3.357-4.828-5.913-8.246-5.979-8.333a.438.438,0,1,0-.7.526c.067.09,2.711,3.622,6.145,8.57a17.663,17.663,0,0,0-9.9.154.439.439,0,1,0,.261.838,16.762,16.762,0,0,1,10.439.177.439.439,0,0,0,.141.192c.893,1.3,1.824,2.675,2.768,4.1a10.437,10.437,0,0,0-6.087-.4.438.438,0,1,0,.2.852,9.56,9.56,0,0,1,6.787.924c1.219,1.862,2.442,3.783,3.612,5.7a10.852,10.852,0,0,0-7.09-.4.439.439,0,0,0,.244.842,9.963,9.963,0,0,1,7.556.859.374.374,0,0,0,.1.028,74.619,74.619,0,0,1,6.077,11.981.436.436,0,0,0,.561.266l.011,0a.438.438,0,0,0,.254-.556,75.914,75.914,0,0,0-6.236-12.271,9.745,9.745,0,0,1,1.968-6.866A.44.44,0,0,0,178.019,236.107Z" transform="translate(-150.815 -212.346)"/>
    </g>
    <g id="Gruppe_104" data-name="Gruppe 104" transform="translate(25.7 28.174)">
      <path id="Pfad_615" data-name="Pfad 615" d="M201.312,236.1s-8.713,1.1-12.125-6.164c0,0-6.031,9.016-13.441,5.358A11.8,11.8,0,0,1,170,245.148s7.562,1.013,9.567,4.976c0,0,7.564-6.88,13.433-1.718C193,248.407,195.087,240.461,201.312,236.1Z" transform="translate(-167.714 -229.937)"/>
      <path id="Pfad_616" data-name="Pfad 616" d="M182.441,245.244a.291.291,0,0,0,.067-.41,7.127,7.127,0,0,0-3.386-2.527c1.321-.354,2.65-.733,3.948-1.121a.2.2,0,0,0,.044.015,8.847,8.847,0,0,1,4.737,2.247.295.295,0,1,0,.4-.433,9.46,9.46,0,0,0-4.012-2.181c1.152-.352,2.268-.706,3.322-1.049a6.113,6.113,0,0,1,5.078,3.612.294.294,0,1,0,.541-.231,6.74,6.74,0,0,0-4.417-3.775c3.745-1.237,6.428-2.231,6.5-2.257a.294.294,0,1,0-.2-.551c-.07.026-2.845,1.052-6.68,2.318a11.839,11.839,0,0,0,1.788-6.4.294.294,0,0,0-.588.008,11.244,11.244,0,0,1-2.1,6.677.3.3,0,0,0-.151.054c-1,.326-2.067.662-3.162,1a7,7,0,0,0,1.419-3.837.289.289,0,0,0-.279-.308.293.293,0,0,0-.308.277,6.409,6.409,0,0,1-1.886,4.188c-1.431.429-2.9.849-4.353,1.237a7.26,7.26,0,0,0,1.606-4.483.294.294,0,1,0-.588,0,6.674,6.674,0,0,1-1.991,4.694.407.407,0,0,0-.036.056,49.692,49.692,0,0,1-8.86,1.624.294.294,0,0,0-.277.31v.01a.294.294,0,0,0,.31.269,51.031,51.031,0,0,0,9.078-1.672,6.54,6.54,0,0,1,4.038,2.573A.292.292,0,0,0,182.441,245.244Z" transform="translate(-168.605 -228.481)"/>
    </g>
    <g id="Gruppe_106" data-name="Gruppe 106" transform="translate(30.807 41.256)">
      <path id="Pfad_617" data-name="Pfad 617" d="M171.938,245.337a5.845,5.845,0,1,1,7.2,4.056A5.845,5.845,0,0,1,171.938,245.337Z" transform="translate(-171.721 -237.919)" fill="#be9a49"/>
      <g id="Gruppe_105" data-name="Gruppe 105" transform="translate(6.984 1.743)">
        <path id="Pfad_618" data-name="Pfad 618" d="M176.837,245.744a.682.682,0,0,0,.959.1,4.063,4.063,0,0,0,.8-5.461.681.681,0,0,0-1.123.77,2.7,2.7,0,0,1-.534,3.63A.683.683,0,0,0,176.837,245.744Z" transform="translate(-175.531 -238.274)" fill="#e0ca9f"/>
        <path id="Pfad_619" data-name="Pfad 619" d="M176.618,240.354a.68.68,0,0,0,.829.443l.023-.007a.68.68,0,0,0,.444-.854,1.382,1.382,0,0,0-1.206-.952.7.7,0,0,0-.228.023.688.688,0,0,0,.138,1.347Z" transform="translate(-175.982 -238.982)" fill="#e0ca9f"/>
      </g>
    </g>
    <g id="Gruppe_108" data-name="Gruppe 108" transform="translate(22.79 42.013)">
      <path id="Pfad_620" data-name="Pfad 620" d="M178.517,244.378a5.845,5.845,0,1,1-5.691-6A5.844,5.844,0,0,1,178.517,244.378Z" transform="translate(-166.829 -238.381)" fill="#be9a49"/>
      <g id="Gruppe_107" data-name="Gruppe 107" transform="translate(1.059 1.477)">
        <path id="Pfad_621" data-name="Pfad 621" d="M170.914,239.711a.68.68,0,0,0-.885-.38,4.059,4.059,0,0,0-2.373,4.982.685.685,0,0,0,.633.479.694.694,0,0,0,.221-.031.679.679,0,0,0,.446-.852,2.7,2.7,0,0,1,1.578-3.312A.681.681,0,0,0,170.914,239.711Z" transform="translate(-167.475 -239.282)" fill="#e0ca9f"/>
        <path id="Pfad_622" data-name="Pfad 622" d="M169.4,243.482a.681.681,0,0,0-.664-.669h-.023a.682.682,0,0,0-.675.687,1.38,1.38,0,0,0,.872,1.265.676.676,0,0,0,.225.044.688.688,0,0,0,.266-1.328Z" transform="translate(-167.114 -237.026)" fill="#e0ca9f"/>
      </g>
    </g>
    <g id="Gruppe_110" data-name="Gruppe 110" transform="translate(17.002 36.487)">
      <path id="Pfad_623" data-name="Pfad 623" d="M174.1,243.956a5.845,5.845,0,1,1-1.852-8.056A5.846,5.846,0,0,1,174.1,243.956Z" transform="translate(-163.297 -235.009)" fill="#be9a49"/>
      <g id="Gruppe_109" data-name="Gruppe 109" transform="translate(1.268 0.946)">
        <path id="Pfad_624" data-name="Pfad 624" d="M169.391,236.41a.679.679,0,0,0-.569-.777,4.057,4.057,0,0,0-4.576,3.085.68.68,0,0,0,.3.733.617.617,0,0,0,.2.085.679.679,0,0,0,.818-.506,2.7,2.7,0,0,1,3.042-2.05A.683.683,0,0,0,169.391,236.41Z" transform="translate(-163.97 -235.586)" fill="#e0ca9f"/>
        <path id="Pfad_625" data-name="Pfad 625" d="M165.435,239.294a.681.681,0,0,0-.231-.913l-.02-.012a.682.682,0,0,0-.931.247,1.38,1.38,0,0,0,.108,1.532.652.652,0,0,0,.17.152.688.688,0,0,0,.9-1.008Z" transform="translate(-164.071 -233.866)" fill="#e0ca9f"/>
      </g>
    </g>
  </g>
  <g id="Gruppe_118" data-name="Gruppe 118" transform="translate(13.011 44.928)">
    <g id="Gruppe_112" data-name="Gruppe 112" transform="translate(23.541)">
      <path id="Pfad_626" data-name="Pfad 626" d="M132.746,225.924s5.264,8.056-.254,14.9c0,0,11.776,1.616,11.73,10.67a12.92,12.92,0,0,1,12.463.931s-2.631-7.934.311-11.812c0,0-10.409-4.148-8.137-12.409C148.859,228.207,140.028,229.966,132.746,225.924Z" transform="translate(-132.492 -225.924)"/>
      <path id="Pfad_627" data-name="Pfad 627" d="M151.21,238.475a.324.324,0,0,0-.438.131,7.819,7.819,0,0,0-.862,4.55c-.983-1.131-1.995-2.259-3-3.353a.25.25,0,0,0-.007-.049,9.685,9.685,0,0,1-.059-5.745.323.323,0,0,0-.618-.187,10.352,10.352,0,0,0-.225,5c-.9-.967-1.783-1.9-2.627-2.77a6.693,6.693,0,0,1,1.123-6.735.323.323,0,1,0-.488-.423,7.376,7.376,0,0,0-1.6,6.163c-3.017-3.094-5.282-5.263-5.341-5.318a.322.322,0,1,0-.444.467c.059.057,2.4,2.3,5.489,5.469a12.978,12.978,0,0,0-7.157,1.308.323.323,0,0,0,.29.577,12.3,12.3,0,0,1,7.587-1.134.325.325,0,0,0,.126.123c.8.833,1.644,1.718,2.5,2.635a7.67,7.67,0,0,0-4.461.443.319.319,0,0,0-.172.423.323.323,0,0,0,.423.17,7.016,7.016,0,0,1,5.03-.151c1.11,1.2,2.227,2.447,3.307,3.694a7.957,7.957,0,0,0-5.187.569.322.322,0,1,0,.279.58,7.317,7.317,0,0,1,5.581-.29.348.348,0,0,0,.072.008,54.834,54.834,0,0,1,5.853,7.949.323.323,0,0,0,.438.126l.008,0a.323.323,0,0,0,.116-.434,55.794,55.794,0,0,0-6-8.141,7.157,7.157,0,0,1,.6-5.215A.324.324,0,0,0,151.21,238.475Z" transform="translate(-131.031 -224.097)"/>
    </g>
    <g id="Gruppe_113" data-name="Gruppe 113" transform="translate(0 4.583)">
      <path id="Pfad_628" data-name="Pfad 628" d="M118.129,235.363s11.07,6.671,8.393,18.176c0,0,15.187-4.92,20.415,6.061,0,0,5.771-7.6,15.619-6.149,0,0-7.813-8.064-6.518-14.471,0,0-15.011,1.057-17.086-10.26C138.952,228.72,129.3,236,118.129,235.363Z" transform="translate(-118.129 -228.72)"/>
      <path id="Pfad_629" data-name="Pfad 629" d="M146.833,239.294a.432.432,0,0,0-.452.413,10.507,10.507,0,0,0,1.611,6.007c-1.849-.795-3.73-1.569-5.586-2.3a.414.414,0,0,0-.038-.056,13.036,13.036,0,0,1-3.425-6.915.433.433,0,1,0-.856.134,13.908,13.908,0,0,0,2.649,6.179c-1.654-.642-3.265-1.251-4.8-1.816a9,9,0,0,1-2.575-8.8.433.433,0,0,0-.836-.225,9.915,9.915,0,0,0,1.664,8.387c-5.454-1.983-9.462-3.281-9.565-3.316a.433.433,0,0,0-.266.824c.1.034,4.247,1.377,9.832,3.412a17.433,17.433,0,0,0-7.895,5.759.434.434,0,1,0,.688.528,16.529,16.529,0,0,1,8.514-5.8.438.438,0,0,0,.225.075c1.459.539,2.991,1.118,4.565,1.729a10.3,10.3,0,0,0-5.138,3.139.426.426,0,0,0,.039.611.433.433,0,0,0,.611-.041,9.43,9.43,0,0,1,6-3.119c2.042.808,4.122,1.66,6.154,2.539a10.708,10.708,0,0,0-5.941,3.716.433.433,0,1,0,.675.541,9.836,9.836,0,0,1,6.581-3.609.448.448,0,0,0,.093-.031,73.483,73.483,0,0,1,11.719,6.2.433.433,0,0,0,.6-.1l.008-.011a.432.432,0,0,0-.113-.592,74.921,74.921,0,0,0-12.012-6.344,9.619,9.619,0,0,1-2.322-6.656A.432.432,0,0,0,146.833,239.294Z" transform="translate(-114.337 -226.887)"/>
    </g>
    <g id="Gruppe_115" data-name="Gruppe 115" transform="translate(43.287 23.678)">
      <path id="Pfad_630" data-name="Pfad 630" d="M146.694,250.748a5.845,5.845,0,1,1,8.223-.841A5.844,5.844,0,0,1,146.694,250.748Z" transform="translate(-144.54 -240.371)" fill="#be9a49"/>
      <g id="Gruppe_114" data-name="Gruppe 114" transform="translate(4.678 1.224)">
        <path id="Pfad_631" data-name="Pfad 631" d="M151.512,246.872a.678.678,0,0,0,.841-.469,4.059,4.059,0,0,0-2.493-4.922.681.681,0,0,0-.765.208.658.658,0,0,0-.11.193.681.681,0,0,0,.4.875,2.7,2.7,0,0,1,1.657,3.271A.682.682,0,0,0,151.512,246.872Z" transform="translate(-146.405 -240.912)" fill="#e0ca9f"/>
        <path id="Pfad_632" data-name="Pfad 632" d="M148.435,242.484a.684.684,0,0,0,.934-.116l.015-.02a.682.682,0,0,0-.131-.954,1.378,1.378,0,0,0-1.534-.082.671.671,0,0,0-.174.151.688.688,0,0,0,.89,1.021Z" transform="translate(-147.394 -241.117)" fill="#e0ca9f"/>
      </g>
    </g>
    <g id="Gruppe_117" data-name="Gruppe 117" transform="translate(34.849 23.273)">
      <path id="Pfad_633" data-name="Pfad 633" d="M151.073,245.644a5.845,5.845,0,1,1-6.159-5.512A5.847,5.847,0,0,1,151.073,245.644Z" transform="translate(-139.391 -240.123)" fill="#be9a49"/>
      <g id="Gruppe_116" data-name="Gruppe 116" transform="translate(1.018 1.65)">
        <path id="Pfad_634" data-name="Pfad 634" d="M143.176,241.51a.679.679,0,0,0-.913-.308,4.063,4.063,0,0,0-1.959,5.16.679.679,0,0,0,.669.424.651.651,0,0,0,.218-.048.682.682,0,0,0,.375-.887,2.7,2.7,0,0,1,1.3-3.429A.682.682,0,0,0,143.176,241.51Z" transform="translate(-140.013 -241.13)" fill="#e0ca9f"/>
        <path id="Pfad_635" data-name="Pfad 635" d="M142.072,245.323a.683.683,0,0,0-.716-.613l-.023,0a.684.684,0,0,0-.618.739,1.383,1.383,0,0,0,.974,1.19.634.634,0,0,0,.226.026.687.687,0,0,0,.157-1.344Z" transform="translate(-139.565 -238.843)" fill="#e0ca9f"/>
      </g>
    </g>
  </g>
  <g id="Gruppe_119" data-name="Gruppe 119" transform="translate(6.638 6.841)">
    <path id="Pfad_636" data-name="Pfad 636" d="M123.765,247.474a1.647,1.647,0,0,0,0,3.293A1.647,1.647,0,0,0,123.765,247.474Z" transform="translate(-109.171 -166.007)" fill="#fff"/>
    <path id="Pfad_637" data-name="Pfad 637" d="M133,247.474a1.647,1.647,0,0,0,0,3.293A1.647,1.647,0,0,0,133,247.474Z" transform="translate(-93.109 -166.007)" fill="#fff"/>
    <path id="Pfad_638" data-name="Pfad 638" d="M141.306,256.178a1.647,1.647,0,0,0,0,3.293A1.647,1.647,0,0,0,141.306,256.178Z" transform="translate(-82.893 -155.384)" fill="#fff"/>
    <path id="Pfad_639" data-name="Pfad 639" d="M122.56,221.095a1.647,1.647,0,0,0,0,3.293A1.647,1.647,0,0,0,122.56,221.095Z" transform="translate(-109.941 -204.197)" fill="#fff"/>
    <path id="Pfad_640" data-name="Pfad 640" d="M129.791,212.793a1.647,1.647,0,0,0,0,3.293A1.647,1.647,0,0,0,129.791,212.793Z" transform="translate(-97.064 -209.502)" fill="#fff"/>
    <path id="Pfad_641" data-name="Pfad 641" d="M142.779,217.614a1.647,1.647,0,0,0,0,3.291A1.647,1.647,0,0,0,142.779,217.614Z" transform="translate(-81.081 -206.421)" fill="#fff"/>
    <path id="Pfad_642" data-name="Pfad 642" d="M151.751,229.933a1.646,1.646,0,0,0,0,3.291A1.646,1.646,0,0,0,151.751,229.933Z" transform="translate(-70.041 -187.415)" fill="#fff"/>
    <path id="Pfad_643" data-name="Pfad 643" d="M157.911,240.645a1.647,1.647,0,0,0,0,3.293A1.647,1.647,0,0,0,157.911,240.645Z" transform="translate(-66.462 -126.341)" fill="#fff"/>
    <path id="Pfad_644" data-name="Pfad 644" d="M168.757,254.973a1.646,1.646,0,0,0,0,3.291A1.646,1.646,0,0,0,168.757,254.973Z" transform="translate(-49.116 -126.855)" fill="#fff"/>
    <path id="Pfad_645" data-name="Pfad 645" d="M179.737,250.42a1.647,1.647,0,0,0,0,3.293A1.647,1.647,0,0,0,179.737,250.42Z" transform="translate(-28.634 -162.411)" fill="#fff"/>
    <path id="Pfad_646" data-name="Pfad 646" d="M191.52,258.32a1.647,1.647,0,0,0,0,3.293A1.647,1.647,0,0,0,191.52,258.32Z" transform="translate(-21.105 -152.769)" fill="#fff"/>
    <path id="Pfad_647" data-name="Pfad 647" d="M163.8,213.731a1.647,1.647,0,0,0,0,3.291A1.647,1.647,0,0,0,163.8,213.731Z" transform="translate(-60.097 -189.903)" fill="#fff"/>
    <path id="Pfad_648" data-name="Pfad 648" d="M174.381,210.919a1.646,1.646,0,0,0,0,3.291A1.646,1.646,0,0,0,174.381,210.919Z" transform="translate(-48.195 -174.188)" fill="#fff"/>
    <path id="Pfad_649" data-name="Pfad 649" d="M189.244,214.8a1.646,1.646,0,0,0,0,3.291A1.646,1.646,0,0,0,189.244,214.8Z" transform="translate(-80.559 -211.291)" fill="#fff"/>
    <path id="Pfad_650" data-name="Pfad 650" d="M191.253,226.585a1.647,1.647,0,0,0,0,3.293A1.647,1.647,0,0,0,191.253,226.585Z" transform="translate(-36.97 -182.423)" fill="#fff"/>
    <path id="Pfad_651" data-name="Pfad 651" d="M189.244,243.323a1.647,1.647,0,0,0,0,3.293A1.647,1.647,0,0,0,189.244,243.323Z" transform="translate(-22.559 -171.073)" fill="#fff"/>
    <path id="Pfad_652" data-name="Pfad 652" d="M119.212,275.192a1.647,1.647,0,0,0,0,3.293A1.647,1.647,0,0,0,119.212,275.192Z" transform="translate(-112.08 -124.858)" fill="#fff"/>
    <path id="Pfad_653" data-name="Pfad 653" d="M125.033,285.311a1.675,1.675,0,0,0-2.327,0l-.22.22a1.646,1.646,0,0,0,2.327,2.327l.22-.22A1.664,1.664,0,0,0,125.033,285.311Z" transform="translate(-109.276 -118.692)" fill="#fff"/>
    <path id="Pfad_654" data-name="Pfad 654" d="M136.754,281.486a1.646,1.646,0,0,0,0,3.291A1.646,1.646,0,0,0,136.754,281.486Z" transform="translate(-88.496 -120.836)" fill="#fff"/>
    <path id="Pfad_655" data-name="Pfad 655" d="M150.546,287.378a1.646,1.646,0,0,0,0,3.291A1.646,1.646,0,0,0,150.546,287.378Z" transform="translate(-71.525 -117.071)" fill="#fff"/>
    <path id="Pfad_656" data-name="Pfad 656" d="M160.187,274.121a1.647,1.647,0,0,0,0,3.293A1.647,1.647,0,0,0,160.187,274.121Z" transform="translate(-59.661 -125.542)" fill="#fff"/>
    <path id="Pfad_657" data-name="Pfad 657" d="M169.025,287.779a1.647,1.647,0,0,0,0,3.293A1.647,1.647,0,0,0,169.025,287.779Z" transform="translate(-48.786 -116.815)" fill="#fff"/>
    <path id="Pfad_658" data-name="Pfad 658" d="M190.851,275.059a1.646,1.646,0,0,0,0,3.291A1.646,1.646,0,0,0,190.851,275.059Z" transform="translate(-21.533 -124.943)" fill="#fff"/>
    <path id="Pfad_659" data-name="Pfad 659" d="M189.913,287.645a1.647,1.647,0,0,0,0,3.293A1.647,1.647,0,0,0,189.913,287.645Z" transform="translate(-22.132 -116.901)" fill="#fff"/>
    <path id="Pfad_660" data-name="Pfad 660" d="M118.677,210.785a1.646,1.646,0,0,0,0,3.291A1.646,1.646,0,0,0,118.677,210.785Z" transform="translate(-112.423 -210.785)" fill="#fff"/>
    <path id="Pfad_661" data-name="Pfad 661" d="M115.887,238.236a1.674,1.674,0,0,0-1.646,1.646v.22a1.646,1.646,0,1,0,3.291,0v-.22A1.665,1.665,0,0,0,115.887,238.236Z" transform="translate(-114.241 -177.256)" fill="#fff"/>
    <path id="Pfad_662" data-name="Pfad 662" d="M147.734,210.919a1.646,1.646,0,0,0,0,3.291A1.646,1.646,0,0,0,147.734,210.919Z" transform="translate(-74.985 -210.699)" fill="#fff"/>
  </g>
</svg>
