<svg id="_13" data-name="13" xmlns="http://www.w3.org/2000/svg" width="187" height="187" viewBox="0 0 187 187">
  <rect id="Rechteck_11" data-name="Rechteck 11" width="187" height="187" fill="#fff" opacity="0"/>
  <g id="Gruppe_27" data-name="Gruppe 27">
    <path id="Pfad_227" data-name="Pfad 227" d="M320.409,316.9h-10.5c-20.159-16.373-39.845-33.534-58.811-51.267V256.6C273.307,277.59,296.544,297.81,320.409,316.9Z" transform="translate(-251.102 -129.9)" fill="#393939"/>
    <path id="Pfad_228" data-name="Pfad 228" d="M225.721,241.5v-9.545c22.159,23.568,46.96,45.126,70.994,66.011l39.912,34.684H326.59L292.4,302.932C269.95,283.426,246.836,263.339,225.721,241.5Z" transform="translate(-225.721 -145.647)" fill="#393939"/>
    <path id="Pfad_230" data-name="Pfad 230" d="M206.611,206.611h11.2A992.149,992.149,0,0,0,355.848,323.768v9.539A1000.029,1000.029,0,0,1,206.611,206.611Z" transform="translate(-168.848 -206.611)" fill="#393939"/>
    <path id="Pfad_231" data-name="Pfad 231" d="M206.611,218.369V206.611H207.9A1171.914,1171.914,0,0,0,393.611,380.265v10.817A1180.518,1180.518,0,0,1,206.611,218.369Z" transform="translate(-206.611 -206.611)" fill="#393939"/>
    <path id="Pfad_233" data-name="Pfad 233" d="M206.611,206.611h11.165c26.643,27.536,54.738,54.129,83.873,79.39v10.565C268.477,268.127,236.6,237.954,206.611,206.611Z" transform="translate(-114.649 -206.611)" fill="#393939"/>
  </g>
  <g id="Gruppe_28" data-name="Gruppe 28" transform="translate(62.608 61.261)">
    <path id="Pfad_234" data-name="Pfad 234" d="M236.484,244.064a30.875,30.875,0,1,0,50.921-.608C275.185,225.968,248.453,226.565,236.484,244.064Z" transform="translate(-231.152 -230.636)" fill="#e0ca9f"/>
    <path id="Pfad_1057" data-name="Pfad 1057" d="M5.837-20.956v31.33H.814v.909H18.895v-.909H15.164v-33.1H11.29L.479-21.243l.1.957Zm27.312-1.77c-7.366,0-11.049,3.3-11.049,7.318,0,2.344,1.291,4.448,4.257,4.448,2.392,0,4.209-1.483,4.209-3.731a5.593,5.593,0,0,0-.383-2.152H28.8a4.218,4.218,0,0,1-.287-1.387c0-1.531.765-3.635,3.348-3.635,2.774,0,3.54,2.679,3.54,6.84,0,6.362-1.244,7.749-6.84,8.323L28.7-5.65a29.651,29.651,0,0,0,4.161-.622c2.344,1.148,3.874,3.109,3.874,8.227,0,5.549-.861,8.849-4.879,8.849-3.54,0-4.018-2.1-4.018-3.4a4.4,4.4,0,0,1,.287-1.578h1.483a5.593,5.593,0,0,0,.383-2.152c0-2.248-1.722-3.731-4.114-3.731-2.966,0-4.353,2.1-4.353,4.592,0,5.692,5.931,7.223,10.523,7.223,8.9,0,14.015-3.922,14.015-9.949,0-4.735-3.3-8.275-11.575-8.849v-.1c6.362-1.052,9.9-3.827,9.9-7.988C44.39-19.808,41.472-22.726,33.149-22.726Z" transform="translate(8.649 36.583)" fill="#fff"/>
  </g>
  <g id="Gruppe_29" data-name="Gruppe 29" transform="translate(1.707 3.988)">
    <path id="Pfad_237" data-name="Pfad 237" d="M213.093,234.954c2.965,0,2.97,4.609,0,4.609S210.121,234.954,213.093,234.954Z" transform="translate(-36.389 -177.903)" fill="#e0ca9f"/>
    <path id="Pfad_238" data-name="Pfad 238" d="M221.027,227.021c2.965,0,2.97,4.609,0,4.609S218.055,227.021,221.027,227.021Z" transform="translate(-57.327 -187.438)" fill="#e0ca9f"/>
    <path id="Pfad_239" data-name="Pfad 239" d="M229.764,217.279c2.965,0,2.97,4.609,0,4.609S226.792,217.279,229.764,217.279Z" transform="translate(-103.436 -189.161)" fill="#e0ca9f"/>
    <path id="Pfad_240" data-name="Pfad 240" d="M238.7,209.546c2.967,0,2.971,4.609,0,4.609S235.731,209.546,238.7,209.546Z" transform="translate(-119.642 -208.723)" fill="#e0ca9f"/>
    <path id="Pfad_241" data-name="Pfad 241" d="M213.193,257.249c2.965,0,2.97,4.609,0,4.609S210.223,257.249,213.193,257.249Z" transform="translate(-36.655 -151.107)" fill="#e0ca9f"/>
    <path id="Pfad_242" data-name="Pfad 242" d="M224.943,246.2c2.965,0,2.97,4.609,0,4.609S221.973,246.2,224.943,246.2Z" transform="translate(-75.853 -164.385)" fill="#e0ca9f"/>
    <path id="Pfad_243" data-name="Pfad 243" d="M236.391,234.151c2.967,0,2.971,4.609,0,4.609S233.421,234.151,236.391,234.151Z" transform="translate(-112.29 -178.868)" fill="#e0ca9f"/>
    <path id="Pfad_244" data-name="Pfad 244" d="M247.941,221.8c2.965,0,2.97,4.609,0,4.609S244.971,221.8,247.941,221.8Z" transform="translate(-149.048 -200.895)" fill="#e0ca9f"/>
    <path id="Pfad_245" data-name="Pfad 245" d="M258.184,210.952c2.967,0,2.971,4.609,0,4.609S255.214,210.952,258.184,210.952Z" transform="translate(-181.65 -207.825)" fill="#e0ca9f"/>
    <path id="Pfad_246" data-name="Pfad 246" d="M281.183,210.852c2.965,0,2.97,4.609,0,4.609S278.211,210.852,281.183,210.852Z" transform="translate(-260.85 -207.889)" fill="#e0ca9f"/>
    <path id="Pfad_247" data-name="Pfad 247" d="M273.047,219.087c2.967,0,2.971,4.609,0,4.609S270.077,219.087,273.047,219.087Z" transform="translate(-228.954 -202.627)" fill="#e0ca9f"/>
    <path id="Pfad_248" data-name="Pfad 248" d="M262.8,229.13c2.965,0,2.97,4.607,0,4.607S259.833,229.13,262.8,229.13Z" transform="translate(-196.353 -184.903)" fill="#e0ca9f"/>
    <path id="Pfad_249" data-name="Pfad 249" d="M229.262,261.668c2.965,0,2.97,4.609,0,4.609S226.29,261.668,229.262,261.668Z" transform="translate(-89.597 -145.796)" fill="#e0ca9f"/>
    <path id="Pfad_250" data-name="Pfad 250" d="M220.725,268.4c2.965,0,2.97,4.609,0,4.609S217.755,268.4,220.725,268.4Z" transform="translate(-56.532 -137.709)" fill="#e0ca9f"/>
    <path id="Pfad_251" data-name="Pfad 251" d="M209.878,277.737c2.967,0,2.971,4.609,0,4.609S206.908,277.737,209.878,277.737Z" transform="translate(-27.908 -120.378)" fill="#e0ca9f"/>
    <path id="Pfad_252" data-name="Pfad 252" d="M220.022,288.382c2.965,0,2.97,4.609,0,4.609S217.052,288.382,220.022,288.382Z" transform="translate(-54.676 -113.576)" fill="#e0ca9f"/>
    <path id="Pfad_253" data-name="Pfad 253" d="M230.467,280.549c2.965,0,2.97,4.609,0,4.609S227.5,280.549,230.467,280.549Z" transform="translate(-93.432 -118.581)" fill="#e0ca9f"/>
    <path id="Pfad_254" data-name="Pfad 254" d="M242.819,270.2c2.965,0,2.97,4.609,0,4.609S239.849,270.2,242.819,270.2Z" transform="translate(-132.746 -135.537)" fill="#e0ca9f"/>
    <path id="Pfad_255" data-name="Pfad 255" d="M274.152,241.281c2.967,0,2.971,4.609,0,4.609S271.182,241.281,274.152,241.281Z" transform="translate(-232.471 -170.299)" fill="#e0ca9f"/>
    <path id="Pfad_256" data-name="Pfad 256" d="M284.5,230.837c2.967,0,2.971,4.609,0,4.609S281.526,230.837,284.5,230.837Z" transform="translate(-269.596 -182.851)" fill="#e0ca9f"/>
    <path id="Pfad_257" data-name="Pfad 257" d="M292.229,223.907c2.966,0,2.971,4.609,0,4.609S289.259,223.907,292.229,223.907Z" transform="translate(-290.003 -191.18)" fill="#e0ca9f"/>
    <path id="Pfad_258" data-name="Pfad 258" d="M289.417,251.023c2.967,0,2.971,4.609,0,4.609S286.447,251.023,289.417,251.023Z" transform="translate(-282.583 -158.59)" fill="#e0ca9f"/>
    <path id="Pfad_259" data-name="Pfad 259" d="M280.681,258.957c2.965,0,2.97,4.609,0,4.609S277.709,258.957,280.681,258.957Z" transform="translate(-259.525 -149.055)" fill="#e0ca9f"/>
    <path id="Pfad_260" data-name="Pfad 260" d="M272.344,266.69c2.967,0,2.971,4.609,0,4.609S269.374,266.69,272.344,266.69Z" transform="translate(-226.716 -139.761)" fill="#e0ca9f"/>
    <path id="Pfad_261" data-name="Pfad 261" d="M259.29,277.335c2.965,0,2.97,4.609,0,4.609S256.318,277.335,259.29,277.335Z" transform="translate(-185.166 -120.635)" fill="#e0ca9f"/>
    <path id="Pfad_262" data-name="Pfad 262" d="M246.636,286.574c2.965,0,2.97,4.609,0,4.609S243.664,286.574,246.636,286.574Z" transform="translate(-144.893 -114.732)" fill="#e0ca9f"/>
    <path id="Pfad_263" data-name="Pfad 263" d="M270.136,286.976c2.965,0,2.97,4.609,0,4.609S267.164,286.976,270.136,286.976Z" transform="translate(-219.685 -114.475)" fill="#e0ca9f"/>
    <path id="Pfad_264" data-name="Pfad 264" d="M279.978,279.745c2.965,0,2.97,4.609,0,4.609S277.006,279.745,279.978,279.745Z" transform="translate(-257.67 -119.095)" fill="#e0ca9f"/>
    <path id="Pfad_265" data-name="Pfad 265" d="M290.322,271.309c2.965,0,2.97,4.609,0,4.609S287.35,271.309,290.322,271.309Z" transform="translate(-284.968 -134.209)" fill="#e0ca9f"/>
  </g>
</svg>
