<svg id="_14" data-name="14" xmlns="http://www.w3.org/2000/svg" width="389" height="187" viewBox="0 0 389 187">
  <rect id="Rechteck_20" data-name="Rechteck 20" width="389" height="187" fill="#be9a49" opacity="0"/>
  <path id="Pfad_1058" data-name="Pfad 1058" d="M8.358-16.986V29.472H.91v1.348H27.721V29.472H22.188V-19.61H16.443l-16.03,2.2.142,1.419ZM42.4,30.819H67.014V29.472H62.12V18.123h7.022v5.249H70.49V10.25H69.142v6.171H62.12V-18.83H49.85l-20,35.605v1.348H49.07V29.472H42.4Zm-10.284-14.4L49.07-13.439v29.86Z" transform="translate(124.01 132.122)" fill="#fff"/>
  <g id="Gruppe_61" data-name="Gruppe 61" transform="translate(20.49 12.031)">
    <g id="Gruppe_54" data-name="Gruppe 54" transform="translate(0.258)">
      <path id="Pfad_394" data-name="Pfad 394" d="M322.444,226.622a13.33,13.33,0,0,1-2.6-5.992c-.223-1.385-.334-3.948,1.442-5.564a4.782,4.782,0,0,1,5.279-.582,6.471,6.471,0,0,1,3.162,4,11.293,11.293,0,0,1,.218,4.8l-2.06-.287a9.319,9.319,0,0,0-.151-3.92,4.4,4.4,0,0,0-2.1-2.735,2.708,2.708,0,0,0-2.947.264c-1.09.992-.913,2.912-.787,3.693a11.25,11.25,0,0,0,2.191,5.055Z" transform="translate(-313.114 -213.952)" fill="#e0ca9f"/>
      <g id="Gruppe_53" data-name="Gruppe 53" transform="translate(0 7.053)">
        <path id="Pfad_395" data-name="Pfad 395" d="M354.673,232.2c4.137,10.342-1.475,20.625-11.815,24.762s-21.5.559-25.632-9.781.311-23.529,10.653-27.666S350.536,221.864,354.673,232.2Z" transform="translate(-315.69 -218.255)" fill="#393939"/>
        <path id="Pfad_396" data-name="Pfad 396" d="M353.547,226.161a8.61,8.61,0,0,1-1.269,1.85,6.6,6.6,0,0,1-6.221,2.05c.026-.1.051-.2.072-.3a3.738,3.738,0,0,0-.044-2.086,2.121,2.121,0,0,0-2.095-1.437,1.843,1.843,0,0,0-1.308.749,2.27,2.27,0,0,0-.424,1.757,3.343,3.343,0,0,0,1.577,2.124c.047.033.1.062.144.093a7.455,7.455,0,0,1-7.938,4.23,8.82,8.82,0,0,0,.346-.833c.651-1.816.385-4.168-1.388-4.946a2.671,2.671,0,0,0-2.075,0l-.012,0a3.06,3.06,0,0,0-1.691,1.655,3.8,3.8,0,0,0,.792,3.906,5.115,5.115,0,0,0,1.477,1.131,7.643,7.643,0,0,1-7.61,2.6,3.519,3.519,0,0,0,.275-1.888,2.769,2.769,0,0,0-1.583-2.065,2.1,2.1,0,0,0-2.05.1,2.49,2.49,0,0,0-.657,3.27,3.694,3.694,0,0,0,1.459,1.4,10.4,10.4,0,0,1-6.541,3.206q.359.819.775,1.578a12.086,12.086,0,0,0,7.215-3.9c.062-.072.125-.144.184-.215a9.349,9.349,0,0,0,10.185-3.48c.054.013.11.026.166.038a9.2,9.2,0,0,0,5.314-.462,9.073,9.073,0,0,0,1.541-.795,9.217,9.217,0,0,0,3.337-3.848,8.193,8.193,0,0,0,8.015-2.508,9.659,9.659,0,0,0,.815-1.033q-.162-.47-.351-.944C353.841,226.818,353.7,226.489,353.547,226.161Zm-29.039,10.886a1.969,1.969,0,0,1-.2,1.111,2.244,2.244,0,0,1-.985-.849.871.871,0,0,1,.1-1.062.252.252,0,0,1,.056-.028.533.533,0,0,1,.4.041A1.124,1.124,0,0,1,324.508,237.047Zm9.913-2.337a3.586,3.586,0,0,1-1.164-.839,2.2,2.2,0,0,1-.5-2.172,1.436,1.436,0,0,1,.777-.744l0,0a1.037,1.037,0,0,1,.79-.021c.81.356.885,1.762.492,2.862A7.574,7.574,0,0,1,334.421,234.71Zm10.1-5.4a1.612,1.612,0,0,1-.629-.872.619.619,0,0,1,.115-.451.268.268,0,0,1,.1-.092l.028-.008c.11-.01.3.147.384.359A2.089,2.089,0,0,1,344.523,229.311Z" transform="translate(-314.993 -213.203)" fill="#fff"/>
        <path id="Pfad_397" data-name="Pfad 397" d="M322.2,227.044a1.041,1.041,0,0,0,.774,1.931A1.041,1.041,0,0,0,322.2,227.044Z" transform="translate(-311.936 -212.691)" fill="#fff"/>
        <path id="Pfad_398" data-name="Pfad 398" d="M325.049,222.093l-.1.039a1.04,1.04,0,0,0,.772,1.931l.1-.039a1.04,1.04,0,1,0-.772-1.931Z" transform="translate(-310.193 -215.85)" fill="#fff"/>
        <path id="Pfad_399" data-name="Pfad 399" d="M329.713,223.627a1.041,1.041,0,0,0,.772,1.932A1.041,1.041,0,0,0,329.713,223.627Z" transform="translate(-307.134 -214.874)" fill="#fff"/>
        <path id="Pfad_400" data-name="Pfad 400" d="M334.131,222.2a1.04,1.04,0,0,0,.772,1.931A1.04,1.04,0,0,0,334.131,222.2Z" transform="translate(-304.311 -215.785)" fill="#fff"/>
        <path id="Pfad_401" data-name="Pfad 401" d="M317.945,228.54a1.04,1.04,0,0,0,.772,1.931A1.04,1.04,0,0,0,317.945,228.54Z" transform="translate(-314.653 -211.735)" fill="#fff"/>
        <path id="Pfad_402" data-name="Pfad 402" d="M319.947,223.3a1.041,1.041,0,0,0,.774,1.931A1.041,1.041,0,0,0,319.947,223.3Z" transform="translate(-313.374 -215.085)" fill="#fff"/>
        <path id="Pfad_403" data-name="Pfad 403" d="M327.675,220.07a1.04,1.04,0,0,0,.772,1.931A1.04,1.04,0,0,0,327.675,220.07Z" transform="translate(-308.436 -217.147)" fill="#fff"/>
        <path id="Pfad_404" data-name="Pfad 404" d="M322.5,237.375a1.04,1.04,0,0,0,.772,1.931A1.04,1.04,0,0,0,322.5,237.375Z" transform="translate(-311.74 -206.09)" fill="#fff"/>
        <path id="Pfad_405" data-name="Pfad 405" d="M327.122,239.013a1.04,1.04,0,0,0,.772,1.931A1.04,1.04,0,0,0,327.122,239.013Z" transform="translate(-308.789 -205.043)" fill="#fff"/>
        <path id="Pfad_406" data-name="Pfad 406" d="M329.855,234.23a1.04,1.04,0,0,0,.772,1.931A1.04,1.04,0,0,0,329.855,234.23Z" transform="translate(-307.043 -208.099)" fill="#fff"/>
        <path id="Pfad_407" data-name="Pfad 407" d="M335.356,233.122a1.04,1.04,0,0,0,.772,1.931A1.04,1.04,0,0,0,335.356,233.122Z" transform="translate(-303.528 -208.807)" fill="#fff"/>
        <path id="Pfad_408" data-name="Pfad 408" d="M337.842,230.967a1.04,1.04,0,0,0,.772,1.931A1.04,1.04,0,0,0,337.842,230.967Z" transform="translate(-301.939 -210.184)" fill="#fff"/>
        <path id="Pfad_409" data-name="Pfad 409" d="M333.766,237.175a1.04,1.04,0,0,0,.772,1.931A1.04,1.04,0,0,0,333.766,237.175Z" transform="translate(-304.544 -206.217)" fill="#fff"/>
      </g>
    </g>
    <g id="Gruppe_57" data-name="Gruppe 57" transform="translate(0 99.843)">
      <path id="Pfad_410" data-name="Pfad 410" d="M333.009,260.821a17.494,17.494,0,0,1-.267-6.582,8.472,8.472,0,0,1,3.832-5.836,6.024,6.024,0,0,1,7.18.729c2.1,2.141,1.793,5.448.9,7.631a22.317,22.317,0,0,1-2.014,3.6c-.506.788-.987,1.534-1.391,2.314l-2.163-1.121c.459-.883.992-1.711,1.508-2.511a20.368,20.368,0,0,0,1.808-3.209c.665-1.618.8-3.791-.382-5a3.587,3.587,0,0,0-4.212-.331,6.132,6.132,0,0,0-2.668,4.189,15.228,15.228,0,0,0,.264,5.653Z" transform="translate(-304.671 -247.552)" fill="#e0ca9f"/>
      <g id="Gruppe_56" data-name="Gruppe 56" transform="translate(0 8.203)">
        <path id="Pfad_411" data-name="Pfad 411" d="M360.389,287.269c-5.61,11.778-19.169,15.654-30.947,10.044s-17.316-18.579-11.706-30.357,20.24-17.9,32.019-12.3S366,275.491,360.389,287.269Z" transform="translate(-315.533 -252.557)"/>
        <path id="Pfad_412" data-name="Pfad 412" d="M361.952,275.985a15.8,15.8,0,0,0-4-.7,29.685,29.685,0,0,0-4.178.211c-1.86.184-3.616.354-4.6-.185a9.779,9.779,0,0,1-2.462-2.924c-1.454-2.173-3.266-4.876-6.615-6.077a13.852,13.852,0,0,0-6.93-.274,9.474,9.474,0,0,1-2.868.169,5.635,5.635,0,0,1-2.588-1.921c-.408-.459-.815-.964-1.246-1.5a29.342,29.342,0,0,0-2.878-3.211,16.628,16.628,0,0,0-2.5-1.9,24.648,24.648,0,0,0-4.042,6c-.154.323-.3.646-.433.97a8.124,8.124,0,0,1,1.35,1.01,22.372,22.372,0,0,1,2.059,2.331c.472.587.962,1.193,1.5,1.8a13.219,13.219,0,0,0,6.987,4.5,15.854,15.854,0,0,0,5.845-.059,7.809,7.809,0,0,1,2.948-.125c.777.277,1.624,1.544,2.522,2.885a15.99,15.99,0,0,0,5.323,5.558c.192.108.385.207.58.3,3.065,1.459,6.258,1.144,8.854.887a23.606,23.606,0,0,1,3.039-.177,7.548,7.548,0,0,1,2.091.392A24.831,24.831,0,0,0,361.952,275.985Z" transform="translate(-314.843 -249.285)" fill="#fff"/>
        <path id="Pfad_413" data-name="Pfad 413" d="M320.49,260.57a1.219,1.219,0,0,0-1.047,2.2A1.219,1.219,0,0,0,320.49,260.57Z" transform="translate(-313.465 -247.518)"/>
        <path id="Pfad_414" data-name="Pfad 414" d="M323.835,263.4a1.219,1.219,0,0,0-1.047,2.2A1.219,1.219,0,0,0,323.835,263.4Z" transform="translate(-311.327 -245.712)"/>
        <path id="Pfad_415" data-name="Pfad 415" d="M328.244,264.509a1.219,1.219,0,0,0-1.047,2.2A1.219,1.219,0,0,0,328.244,264.509Z" transform="translate(-308.51 -245.001)"/>
        <path id="Pfad_416" data-name="Pfad 416" d="M332.071,264.768a1.219,1.219,0,0,0-1.047,2.2A1.219,1.219,0,0,0,332.071,264.768Z" transform="translate(-306.065 -244.836)"/>
        <path id="Pfad_417" data-name="Pfad 417" d="M334.518,267.58a1.219,1.219,0,0,0-1.047,2.2A1.219,1.219,0,0,0,334.518,267.58Z" transform="translate(-304.501 -243.039)"/>
        <path id="Pfad_418" data-name="Pfad 418" d="M337.058,270.024a1.219,1.219,0,0,0-1.047,2.2A1.219,1.219,0,0,0,337.058,270.024Z" transform="translate(-302.878 -241.477)"/>
        <path id="Pfad_419" data-name="Pfad 419" d="M341.879,270.1a1.219,1.219,0,0,0-1.047,2.2A1.219,1.219,0,0,0,341.879,270.1Z" transform="translate(-299.798 -241.43)"/>
        <g id="Gruppe_55" data-name="Gruppe 55" transform="translate(0.728 6.166)">
          <path id="Pfad_420" data-name="Pfad 420" d="M356.338,282.244a33.531,33.531,0,0,0-4.519-.234c-1.11-.008-2.255-.016-3.373-.11-3.144-.262-5.474-1.239-6.923-2.906a13.982,13.982,0,0,1-1.55-2.385,8.23,8.23,0,0,0-2.986-3.563c-1.626-.872-3.484-.587-5.281-.3a16.642,16.642,0,0,1-2.867.279c-2.75-.062-5.494-1.613-8.387-4.74-.585-.631-1.162-1.3-1.719-1.945-.837-.969-1.69-1.952-2.609-2.867-.054.18-.1.362-.147.543.834.847,1.618,1.752,2.388,2.644.561.649,1.139,1.319,1.731,1.957a17.24,17.24,0,0,0,5.084,3.988,8.858,8.858,0,0,0,3.648.908,16.785,16.785,0,0,0,2.953-.285c1.8-.28,3.493-.546,4.976.252a7.762,7.762,0,0,1,2.79,3.373,14.455,14.455,0,0,0,1.608,2.467c1.536,1.765,3.976,2.8,7.251,3.073,1.136.1,2.293.1,3.411.11a33.241,33.241,0,0,1,4.453.229,12.981,12.981,0,0,1,2.167.5c.092-.138.182-.28.272-.421A13.256,13.256,0,0,0,356.338,282.244Z" transform="translate(-315.977 -251.751)" fill="#fff"/>
          <path id="Pfad_421" data-name="Pfad 421" d="M322.572,259.053c1.595,2.045,3.212,3.953,5.248,4.922a6.781,6.781,0,0,0,1.785.572,12.49,12.49,0,0,0,4.584-.364,10.65,10.65,0,0,1,4.765-.274c2.426.606,4.081,2.8,5.568,4.989,1.373,2.022,3.08,4.54,5.712,5.363,1.945.606,3.986.175,5.961-.241.37-.079.739-.156,1.1-.226a13.24,13.24,0,0,1,2.295-.254c0-.162,0-.325-.011-.487a13.807,13.807,0,0,0-2.375.262c-.369.072-.741.149-1.113.228-1.914.4-3.893.821-5.717.252-2.468-.769-4.122-3.211-5.453-5.171-1.539-2.268-3.26-4.538-5.851-5.189a11.241,11.241,0,0,0-4.981.269,12.1,12.1,0,0,1-4.406.362c-2.758-.474-4.758-2.783-6.73-5.314a31.138,31.138,0,0,0-2.063-2.434c-.125.1-.246.211-.369.321A30.366,30.366,0,0,1,322.572,259.053Z" transform="translate(-313.071 -256.319)" fill="#fff"/>
        </g>
      </g>
    </g>
    <g id="Gruppe_60" data-name="Gruppe 60" transform="translate(103.468 9.741)">
      <path id="Pfad_422" data-name="Pfad 422" d="M371.848,229.785a16.514,16.514,0,0,1,3.311-6.964,8.019,8.019,0,0,1,7.634-2.75,7.153,7.153,0,0,1,5.146,5.609,8.872,8.872,0,0,1-1.991,7.2,11.97,11.97,0,0,1-6.2,3.817l-.634-2.362a9.673,9.673,0,0,0,4.951-3.012,6.414,6.414,0,0,0,1.475-5.184,4.732,4.732,0,0,0-3.322-3.693,5.56,5.56,0,0,0-5.233,2,14.287,14.287,0,0,0-2.768,5.948Z" transform="translate(-338.244 -219.895)" fill="#e0ca9f"/>
      <g id="Gruppe_59" data-name="Gruppe 59" transform="translate(0 5.874)">
        <path id="Pfad_423" data-name="Pfad 423" d="M392.206,263.713c-8.8,9.7-22.859,9.39-32.555.588s-11.361-22.762-2.56-32.46,24.734-11.456,34.43-2.655S401.006,254.017,392.206,263.713Z" transform="translate(-351.345 -223.479)" fill="#fff"/>
        <g id="Gruppe_58" data-name="Gruppe 58" transform="translate(0.005 0.426)">
          <path id="Pfad_424" data-name="Pfad 424" d="M375.351,225.715a6.171,6.171,0,0,0-1.255,1.055q-.465.676-.931,1.351a6.124,6.124,0,0,0-.649,3.053l.028.518a6.289,6.289,0,0,0,6.4,5.81l1.539-.274a6.094,6.094,0,0,0,2.691-1.724l.157-.228a21.6,21.6,0,0,0-5.335-7.52A21.281,21.281,0,0,0,375.351,225.715Z" transform="translate(-337.826 -222.476)" fill="#e0ca9f"/>
          <path id="Pfad_425" data-name="Pfad 425" d="M380.868,238.131a25.019,25.019,0,0,0-.585-4.107,2.35,2.35,0,0,0-.143,3.637A2.568,2.568,0,0,0,380.868,238.131Z" transform="translate(-333.461 -217.167)" fill="#e0ca9f"/>
          <path id="Pfad_426" data-name="Pfad 426" d="M373.761,235.4c-5.825-5.287-14.051,3.757-8.216,9.052S379.594,240.7,373.761,235.4Z" transform="translate(-343.554 -217.311)" fill="#e0ca9f"/>
          <path id="Pfad_427" data-name="Pfad 427" d="M356.937,232.711c5.617,5.1,13.461-3.129,8.782-8.472a25.734,25.734,0,0,0-10.373,6.266A6.159,6.159,0,0,0,356.937,232.711Z" transform="translate(-348.793 -223.42)" fill="#e0ca9f"/>
          <path id="Pfad_428" data-name="Pfad 428" d="M367.143,247.564c2.331,2.114,5.62-1.5,3.286-3.622S364.809,245.445,367.143,247.564Z" transform="translate(-341.766 -211.239)" fill="#e0ca9f"/>
          <path id="Pfad_429" data-name="Pfad 429" d="M369.606,227.24c1.9,1.727,4.443-.367,4.042-2.349a23,23,0,0,0-4.045-1.152A2.325,2.325,0,0,0,369.606,227.24Z" transform="translate(-340.192 -223.739)" fill="#e0ca9f"/>
          <path id="Pfad_430" data-name="Pfad 430" d="M378.416,236.586c-2.329-2.116-5.62,1.5-3.286,3.62S380.75,238.7,378.416,236.586Z" transform="translate(-336.663 -215.94)" fill="#e0ca9f"/>
          <path id="Pfad_431" data-name="Pfad 431" d="M361.272,243.488c-2.329-2.114-5.62,1.5-3.286,3.62S363.606,245.607,361.272,243.488Z" transform="translate(-347.617 -211.529)" fill="#e0ca9f"/>
          <path id="Pfad_432" data-name="Pfad 432" d="M372.151,255.263a5.535,5.535,0,0,0-1.783-5.761c-3.989-3.62-9.1-.518-10.057,3.5A23.214,23.214,0,0,0,372.151,255.263Z" transform="translate(-345.621 -208.301)" fill="#e0ca9f"/>
          <path id="Pfad_433" data-name="Pfad 433" d="M369.017,227.853c-2.331-2.114-5.62,1.5-3.288,3.62S371.351,229.97,369.017,227.853Z" transform="translate(-342.669 -221.52)" fill="#e0ca9f"/>
          <path id="Pfad_434" data-name="Pfad 434" d="M375.185,252.7a6.647,6.647,0,0,0,1.283.915,23.779,23.779,0,0,0,1.783-1.764,25.255,25.255,0,0,0,5-8.329C377.433,238.521,369.4,247.447,375.185,252.7Z" transform="translate(-337.394 -212.04)" fill="#e0ca9f"/>
          <path id="Pfad_435" data-name="Pfad 435" d="M374.354,250.828c-1.831-1.662-4.253.216-4.076,2.124a21.119,21.119,0,0,0,4.327-1.86A2.683,2.683,0,0,0,374.354,250.828Z" transform="translate(-339.258 -206.839)" fill="#e0ca9f"/>
          <path id="Pfad_436" data-name="Pfad 436" d="M362.58,234.5c-2.331-2.114-5.62,1.5-3.288,3.621S364.914,236.618,362.58,234.5Z" transform="translate(-346.782 -217.272)" fill="#e0ca9f"/>
          <path id="Pfad_437" data-name="Pfad 437" d="M353.282,247.8c4.884.185,9.18-6.418,4.525-10.642a5.548,5.548,0,0,0-6.3-1.052A22.376,22.376,0,0,0,353.282,247.8Z" transform="translate(-351.348 -216.187)" fill="#e0ca9f"/>
          <path id="Pfad_438" data-name="Pfad 438" d="M353.249,235.781a2.445,2.445,0,0,0,2.57-3.7l-.28-.42a2.573,2.573,0,0,0-1.4-1.033,21.523,21.523,0,0,0-2.116,4.469A2.5,2.5,0,0,0,353.249,235.781Z" transform="translate(-350.918 -219.338)" fill="#e0ca9f"/>
        </g>
      </g>
    </g>
  </g>
  <g id="Gruppe_290" data-name="Gruppe 290" transform="translate(214.49 11.609)">
    <g id="Gruppe_54-2" data-name="Gruppe 54" transform="translate(11.837 9.633)">
      <path id="Pfad_394-2" data-name="Pfad 394" d="M327.376,226.622a13.33,13.33,0,0,0,2.6-5.992c.223-1.385.334-3.948-1.442-5.564a4.782,4.782,0,0,0-5.279-.582,6.471,6.471,0,0,0-3.162,4,11.293,11.293,0,0,0-.218,4.8l2.06-.287a9.319,9.319,0,0,1,.151-3.92,4.4,4.4,0,0,1,2.1-2.735,2.708,2.708,0,0,1,2.947.264c1.09.992.913,2.912.787,3.693a11.25,11.25,0,0,1-2.191,5.055Z" transform="translate(-296.354 -213.952)" fill="#e0ca9f"/>
      <g id="Gruppe_53-2" data-name="Gruppe 53" transform="translate(0 7.053)">
        <path id="Pfad_395-2" data-name="Pfad 395" d="M317.059,232.2c-4.137,10.342,1.475,20.625,11.815,24.762s21.5.559,25.632-9.781-.311-23.529-10.653-27.666S321.2,221.864,317.059,232.2Z" transform="translate(-315.69 -218.255)" fill="#e0ca9f"/>
        <path id="Pfad_396-2" data-name="Pfad 396" d="M317.561,226.161a8.61,8.61,0,0,0,1.269,1.85,6.6,6.6,0,0,0,6.221,2.05c-.026-.1-.051-.2-.072-.3a3.738,3.738,0,0,1,.044-2.086,2.121,2.121,0,0,1,2.095-1.437,1.843,1.843,0,0,1,1.308.749,2.27,2.27,0,0,1,.424,1.757,3.343,3.343,0,0,1-1.577,2.124c-.047.033-.1.062-.144.093a7.455,7.455,0,0,0,7.938,4.23,8.82,8.82,0,0,1-.346-.833c-.651-1.816-.385-4.168,1.388-4.946a2.671,2.671,0,0,1,2.075,0l.012,0a3.06,3.06,0,0,1,1.691,1.655,3.8,3.8,0,0,1-.792,3.906,5.115,5.115,0,0,1-1.477,1.131,7.643,7.643,0,0,0,7.61,2.6,3.519,3.519,0,0,1-.275-1.888,2.769,2.769,0,0,1,1.583-2.065,2.1,2.1,0,0,1,2.05.1,2.49,2.49,0,0,1,.657,3.27,3.694,3.694,0,0,1-1.459,1.4,10.4,10.4,0,0,0,6.541,3.206q-.359.819-.775,1.578a12.086,12.086,0,0,1-7.215-3.9c-.062-.072-.125-.144-.184-.215a9.349,9.349,0,0,1-10.185-3.48c-.054.013-.11.026-.166.038a9.2,9.2,0,0,1-5.314-.462,9.073,9.073,0,0,1-1.541-.795,9.217,9.217,0,0,1-3.337-3.848,8.193,8.193,0,0,1-8.015-2.508,9.659,9.659,0,0,1-.815-1.033q.162-.47.351-.944C317.267,226.818,317.41,226.489,317.561,226.161ZM346.6,237.047a1.969,1.969,0,0,0,.2,1.111,2.244,2.244,0,0,0,.985-.849.871.871,0,0,0-.1-1.062.252.252,0,0,0-.056-.028.533.533,0,0,0-.4.041A1.124,1.124,0,0,0,346.6,237.047Zm-9.913-2.337a3.586,3.586,0,0,0,1.164-.839,2.2,2.2,0,0,0,.5-2.172,1.436,1.436,0,0,0-.777-.744l0,0a1.037,1.037,0,0,0-.79-.021c-.81.356-.885,1.762-.492,2.862A7.574,7.574,0,0,0,336.687,234.71Zm-10.1-5.4a1.612,1.612,0,0,0,.629-.872.619.619,0,0,0-.115-.451.268.268,0,0,0-.1-.092l-.028-.008c-.11-.01-.3.147-.384.359A2.089,2.089,0,0,0,326.585,229.311Z" transform="translate(-315.764 -213.203)" fill="#fff"/>
        <path id="Pfad_397-2" data-name="Pfad 397" d="M322.971,227.044a1.041,1.041,0,0,1-.774,1.931A1.041,1.041,0,0,1,322.971,227.044Z" transform="translate(-292.88 -212.691)" fill="#fff"/>
        <path id="Pfad_398-2" data-name="Pfad 398" d="M325.725,222.093l.1.039a1.04,1.04,0,0,1-.772,1.931l-.1-.039a1.04,1.04,0,1,1,.772-1.931Z" transform="translate(-300.231 -215.85)" fill="#fff"/>
        <path id="Pfad_399-2" data-name="Pfad 399" d="M330.485,223.627a1.041,1.041,0,0,1-.772,1.932A1.041,1.041,0,0,1,330.485,223.627Z" transform="translate(-312.713 -214.874)" fill="#fff"/>
        <path id="Pfad_400-2" data-name="Pfad 400" d="M334.9,222.2a1.04,1.04,0,0,1-.772,1.931A1.04,1.04,0,0,1,334.9,222.2Z" transform="translate(-324.372 -215.785)" fill="#fff"/>
        <path id="Pfad_401-2" data-name="Pfad 401" d="M318.717,228.54a1.04,1.04,0,0,1-.772,1.931A1.04,1.04,0,0,1,318.717,228.54Z" transform="translate(-281.658 -211.735)" fill="#fff"/>
        <path id="Pfad_402-2" data-name="Pfad 402" d="M320.721,223.3a1.041,1.041,0,0,1-.774,1.931A1.041,1.041,0,0,1,320.721,223.3Z" transform="translate(-286.943 -215.085)" fill="#fff"/>
        <path id="Pfad_403-2" data-name="Pfad 403" d="M328.447,220.07a1.04,1.04,0,0,1-.772,1.931A1.04,1.04,0,0,1,328.447,220.07Z" transform="translate(-307.335 -217.147)" fill="#fff"/>
        <path id="Pfad_404-2" data-name="Pfad 404" d="M323.276,237.375a1.04,1.04,0,0,1-.772,1.931A1.04,1.04,0,0,1,323.276,237.375Z" transform="translate(-293.689 -206.09)" fill="#fff"/>
        <path id="Pfad_405-2" data-name="Pfad 405" d="M327.894,239.013a1.04,1.04,0,0,1-.772,1.931A1.04,1.04,0,0,1,327.894,239.013Z" transform="translate(-305.876 -205.043)" fill="#fff"/>
        <path id="Pfad_406-2" data-name="Pfad 406" d="M330.627,234.23a1.04,1.04,0,0,1-.772,1.931A1.04,1.04,0,0,1,330.627,234.23Z" transform="translate(-313.088 -208.099)" fill="#fff"/>
        <path id="Pfad_407-2" data-name="Pfad 407" d="M336.128,233.122a1.04,1.04,0,0,1-.772,1.931A1.04,1.04,0,0,1,336.128,233.122Z" transform="translate(-327.605 -208.807)" fill="#fff"/>
        <path id="Pfad_408-2" data-name="Pfad 408" d="M338.614,230.967a1.04,1.04,0,0,1-.772,1.931A1.04,1.04,0,0,1,338.614,230.967Z" transform="translate(-334.165 -210.184)" fill="#fff"/>
        <path id="Pfad_409-2" data-name="Pfad 409" d="M334.538,237.175a1.04,1.04,0,0,1-.772,1.931A1.04,1.04,0,0,1,334.538,237.175Z" transform="translate(-323.409 -206.217)" fill="#fff"/>
      </g>
    </g>
    <g id="Gruppe_57-2" data-name="Gruppe 57" transform="translate(97.235 29.892)">
      <path id="Pfad_410-2" data-name="Pfad 410" d="M342.848,258.657a14.642,14.642,0,0,0,.224-5.509,7.09,7.09,0,0,0-3.207-4.885,5.042,5.042,0,0,0-6.009.61c-1.754,1.791-1.5,4.559-.75,6.386a18.678,18.678,0,0,0,1.686,3.015c.424.66.826,1.284,1.165,1.937l1.811-.938c-.384-.739-.83-1.432-1.262-2.1a17.049,17.049,0,0,1-1.513-2.686c-.557-1.354-.672-3.173.32-4.186a3,3,0,0,1,3.525-.277,5.132,5.132,0,0,1,2.233,3.506,12.744,12.744,0,0,1-.221,4.731Z" transform="translate(-327.011 -247.552)" fill="#e0ca9f"/>
      <g id="Gruppe_56-2" data-name="Gruppe 56" transform="translate(0 6.866)">
        <path id="Pfad_411-2" data-name="Pfad 411" d="M317.546,281.608c4.7,9.857,16.043,13.1,25.9,8.406s14.492-15.549,9.8-25.406-16.939-14.984-26.8-10.29S312.851,271.751,317.546,281.608Z" transform="translate(-315.533 -252.557)" fill="#393939"/>
        <path id="Pfad_412-2" data-name="Pfad 412" d="M316.613,273a13.223,13.223,0,0,1,3.351-.583,24.852,24.852,0,0,1,3.5.177c1.557.154,3.026.3,3.848-.155a8.184,8.184,0,0,0,2.06-2.447c1.217-1.819,2.734-4.081,5.536-5.086a11.593,11.593,0,0,1,5.8-.229,7.928,7.928,0,0,0,2.4.141,4.716,4.716,0,0,0,2.166-1.608c.342-.384.682-.807,1.043-1.252a24.56,24.56,0,0,1,2.409-2.687,13.916,13.916,0,0,1,2.092-1.591A20.627,20.627,0,0,1,354.2,262.7c.129.27.247.54.362.812a6.8,6.8,0,0,0-1.13.845,18.725,18.725,0,0,0-1.723,1.951c-.4.491-.805,1-1.259,1.508a11.063,11.063,0,0,1-5.848,3.767,13.268,13.268,0,0,1-4.891-.049,6.535,6.535,0,0,0-2.468-.1c-.65.232-1.359,1.292-2.111,2.414a13.382,13.382,0,0,1-4.455,4.651c-.16.091-.322.173-.486.251-2.565,1.221-5.237.957-7.41.742a19.751,19.751,0,0,0-2.543-.148,6.316,6.316,0,0,0-1.75.328A20.782,20.782,0,0,1,316.613,273Z" transform="translate(-316.485 -250.654)" fill="#fff"/>
        <path id="Pfad_413-2" data-name="Pfad 413" d="M319.333,260.55a1.02,1.02,0,0,1,.877,1.841A1.02,1.02,0,0,1,319.333,260.55Z" transform="translate(-285.658 -249.626)"/>
        <path id="Pfad_414-2" data-name="Pfad 414" d="M322.678,263.377a1.02,1.02,0,0,1,.876,1.841A1.02,1.02,0,0,1,322.678,263.377Z" transform="translate(-293.591 -248.575)"/>
        <path id="Pfad_415-2" data-name="Pfad 415" d="M327.086,264.489a1.02,1.02,0,0,1,.876,1.841A1.02,1.02,0,0,1,327.086,264.489Z" transform="translate(-304.047 -248.162)"/>
        <path id="Pfad_416-2" data-name="Pfad 416" d="M330.914,264.748a1.02,1.02,0,0,1,.876,1.841A1.02,1.02,0,0,1,330.914,264.748Z" transform="translate(-313.124 -248.066)"/>
        <path id="Pfad_417-2" data-name="Pfad 417" d="M333.361,267.56a1.02,1.02,0,0,1,.876,1.841A1.02,1.02,0,0,1,333.361,267.56Z" transform="translate(-318.928 -247.021)"/>
        <path id="Pfad_418-2" data-name="Pfad 418" d="M335.9,270a1.02,1.02,0,0,1,.876,1.841A1.02,1.02,0,0,1,335.9,270Z" transform="translate(-324.952 -246.112)"/>
        <path id="Pfad_419-2" data-name="Pfad 419" d="M340.721,270.078a1.02,1.02,0,0,1,.877,1.841A1.02,1.02,0,0,1,340.721,270.078Z" transform="translate(-336.385 -246.085)"/>
        <g id="Gruppe_55-2" data-name="Gruppe 55" transform="translate(0.01 5.16)">
          <path id="Pfad_420-2" data-name="Pfad 420" d="M317.96,279.182a28.061,28.061,0,0,1,3.782-.2c.929-.007,1.887-.014,2.823-.092,2.631-.219,4.581-1.037,5.794-2.432a11.7,11.7,0,0,0,1.3-2,6.888,6.888,0,0,1,2.5-2.982c1.361-.73,2.916-.491,4.42-.255a13.93,13.93,0,0,0,2.4.233c2.3-.052,4.6-1.35,7.019-3.967.49-.528.973-1.086,1.439-1.628.7-.811,1.414-1.634,2.184-2.4.045.151.084.3.123.454-.7.709-1.354,1.466-2,2.213-.469.543-.953,1.1-1.449,1.638a14.429,14.429,0,0,1-4.255,3.337,7.414,7.414,0,0,1-3.053.76,14.053,14.053,0,0,1-2.472-.239c-1.5-.235-2.923-.457-4.164.211a6.5,6.5,0,0,0-2.335,2.823,12.1,12.1,0,0,1-1.346,2.064c-1.285,1.477-3.328,2.341-6.068,2.572-.951.08-1.919.085-2.854.092a27.827,27.827,0,0,0-3.727.192,10.864,10.864,0,0,0-1.813.42c-.077-.115-.152-.235-.228-.353A11.094,11.094,0,0,1,317.96,279.182Z" transform="translate(-312.804 -253.662)" fill="#fff"/>
          <path id="Pfad_421-2" data-name="Pfad 421" d="M351.508,258.607a13.433,13.433,0,0,1-4.392,4.119,5.675,5.675,0,0,1-1.494.479,10.452,10.452,0,0,1-3.837-.3,8.913,8.913,0,0,0-3.987-.229c-2.03.508-3.415,2.343-4.66,4.175-1.149,1.693-2.577,3.8-4.78,4.488a9.887,9.887,0,0,1-4.989-.2c-.31-.066-.619-.13-.925-.189a11.081,11.081,0,0,0-1.92-.213c0-.136,0-.272.01-.407a11.553,11.553,0,0,1,1.988.219c.309.06.62.125.931.191a9.58,9.58,0,0,0,4.784.211c2.066-.643,3.45-2.687,4.564-4.328,1.288-1.9,2.728-3.8,4.9-4.343a9.407,9.407,0,0,1,4.169.225,10.13,10.13,0,0,0,3.687.3c2.309-.4,3.982-2.329,5.632-4.447a26.06,26.06,0,0,1,1.727-2.037c.1.088.206.177.309.269A25.413,25.413,0,0,0,351.508,258.607Z" transform="translate(-320.525 -256.319)" fill="#fff"/>
        </g>
      </g>
    </g>
    <g id="Gruppe_60-2" data-name="Gruppe 60" transform="translate(19.837 92.741)">
      <path id="Pfad_422-2" data-name="Pfad 422" d="M388.076,229.785a16.514,16.514,0,0,0-3.311-6.964,8.019,8.019,0,0,0-7.634-2.75,7.153,7.153,0,0,0-5.146,5.609,8.872,8.872,0,0,0,1.991,7.2,11.97,11.97,0,0,0,6.2,3.817l.634-2.362a9.673,9.673,0,0,1-4.951-3.012,6.414,6.414,0,0,1-1.475-5.184,4.732,4.732,0,0,1,3.322-3.693,5.56,5.56,0,0,1,5.233,2,14.287,14.287,0,0,1,2.768,5.948Z" transform="translate(-371.848 -219.895)" fill="#e0ca9f"/>
      <g id="Gruppe_59-2" data-name="Gruppe 59" transform="translate(2.376 5.874)">
        <path id="Pfad_423-2" data-name="Pfad 423" d="M357.94,263.713c8.8,9.7,22.859,9.39,32.555.588s11.361-22.762,2.56-32.46-24.734-11.456-34.43-2.655S349.14,254.017,357.94,263.713Z" transform="translate(-351.345 -223.479)" fill="#e0ca9f"/>
        <g id="Gruppe_58-2" data-name="Gruppe 58" transform="translate(0.044 0.426)">
          <path id="Pfad_424-2" data-name="Pfad 424" d="M380.491,225.715a6.171,6.171,0,0,1,1.255,1.055q.465.676.931,1.351a6.124,6.124,0,0,1,.649,3.053l-.028.518a6.289,6.289,0,0,1-6.4,5.81l-1.539-.274a6.094,6.094,0,0,1-2.691-1.724l-.157-.228a21.6,21.6,0,0,1,5.335-7.52A21.281,21.281,0,0,1,380.491,225.715Z" transform="translate(-370.608 -222.476)" fill="#fff"/>
          <path id="Pfad_425-2" data-name="Pfad 425" d="M379.341,238.131a25.019,25.019,0,0,1,.585-4.107,2.35,2.35,0,0,1,.143,3.637A2.568,2.568,0,0,1,379.341,238.131Z" transform="translate(-379.341 -217.167)" fill="#fff"/>
          <path id="Pfad_426-2" data-name="Pfad 426" d="M365.543,235.4c5.825-5.287,14.051,3.757,8.216,9.052S359.71,240.7,365.543,235.4Z" transform="translate(-348.342 -217.311)" fill="#fff"/>
          <path id="Pfad_427-2" data-name="Pfad 427" d="M365.556,232.711c-5.617,5.1-13.461-3.129-8.782-8.472a25.734,25.734,0,0,1,10.373,6.266A6.159,6.159,0,0,1,365.556,232.711Z" transform="translate(-326.292 -223.42)" fill="#fff"/>
          <path id="Pfad_428-2" data-name="Pfad 428" d="M370.429,247.564c-2.331,2.114-5.62-1.5-3.286-3.622S372.763,245.445,370.429,247.564Z" transform="translate(-348.398 -211.239)" fill="#fff"/>
          <path id="Pfad_429-2" data-name="Pfad 429" d="M372.89,227.24c-1.9,1.727-4.443-.367-4.042-2.349a23,23,0,0,1,4.045-1.152A2.325,2.325,0,0,1,372.89,227.24Z" transform="translate(-354.896 -223.739)" fill="#fff"/>
          <path id="Pfad_430-2" data-name="Pfad 430" d="M375.13,236.586c2.329-2.116,5.62,1.5,3.286,3.62S372.8,238.7,375.13,236.586Z" transform="translate(-369.475 -215.94)" fill="#fff"/>
          <path id="Pfad_431-2" data-name="Pfad 431" d="M357.986,243.488c2.329-2.114,5.62,1.5,3.286,3.62S355.652,245.607,357.986,243.488Z" transform="translate(-324.233 -211.529)" fill="#fff"/>
          <path id="Pfad_432-2" data-name="Pfad 432" d="M360.522,255.263A5.535,5.535,0,0,1,362.3,249.5c3.989-3.62,9.1-.518,10.057,3.5A23.214,23.214,0,0,1,360.522,255.263Z" transform="translate(-339.644 -208.301)" fill="#fff"/>
          <path id="Pfad_433-2" data-name="Pfad 433" d="M365.73,227.853c2.331-2.114,5.62,1.5,3.288,3.62S363.4,229.97,365.73,227.853Z" transform="translate(-344.671 -221.52)" fill="#fff"/>
          <path id="Pfad_434-2" data-name="Pfad 434" d="M381.249,252.7a6.647,6.647,0,0,1-1.283.915,23.779,23.779,0,0,1-1.783-1.764,25.255,25.255,0,0,1-5-8.329C379,238.521,387.034,247.447,381.249,252.7Z" transform="translate(-371.631 -212.04)" fill="#fff"/>
          <path id="Pfad_435-2" data-name="Pfad 435" d="M370.519,250.828c1.831-1.662,4.253.216,4.076,2.124a21.119,21.119,0,0,1-4.327-1.86A2.683,2.683,0,0,1,370.519,250.828Z" transform="translate(-358.207 -206.839)" fill="#fff"/>
          <path id="Pfad_436-2" data-name="Pfad 436" d="M359.293,234.5c2.331-2.114,5.62,1.5,3.288,3.621S356.959,236.618,359.293,234.5Z" transform="translate(-327.684 -217.272)" fill="#fff"/>
          <path id="Pfad_437-2" data-name="Pfad 437" d="M357.872,247.8c-4.884.185-9.18-6.418-4.525-10.642a5.548,5.548,0,0,1,6.3-1.052A22.376,22.376,0,0,1,357.872,247.8Z" transform="translate(-312.398 -216.187)" fill="#fff"/>
          <path id="Pfad_438-2" data-name="Pfad 438" d="M354.96,235.781a2.445,2.445,0,0,1-2.57-3.7l.28-.42a2.573,2.573,0,0,1,1.4-1.033,21.523,21.523,0,0,1,2.116,4.469A2.5,2.5,0,0,1,354.96,235.781Z" transform="translate(-309.883 -219.338)" fill="#fff"/>
        </g>
      </g>
    </g>
  </g>
  <g id="Gruppe_62" data-name="Gruppe 62" transform="translate(6.608 6.512)">
    <path id="Pfad_439" data-name="Pfad 439" d="M351.218,217.145c-4.237,0-4.243,6.584,0,6.584S355.461,217.145,351.218,217.145Z" transform="translate(-256.717 -206.392)" fill="#e0ca9f"/>
    <path id="Pfad_440" data-name="Pfad 440" d="M311.047,211.521c-4.237,0-4.243,6.584,0,6.584S315.29,211.521,311.047,211.521Z" transform="translate(-306.549 -209.985)" fill="#e0ca9f"/>
    <path id="Pfad_441" data-name="Pfad 441" d="M314.93,244.328c-4.237,0-4.243,6.584,0,6.584S319.173,244.328,314.93,244.328Z" transform="translate(-304.068 -169.053)" fill="#e0ca9f"/>
    <path id="Pfad_442" data-name="Pfad 442" d="M310.243,281.017c-4.237,0-4.243,6.584,0,6.584S314.486,281.017,310.243,281.017Z" transform="translate(-307.063 -120.806)" fill="#e0ca9f"/>
    <path id="Pfad_443" data-name="Pfad 443" d="M350.643,287.071a3.288,3.288,0,0,0-4.655,0,3.42,3.42,0,0,0-.965,2.327v.22a3.39,3.39,0,0,0,.965,2.327,3.292,3.292,0,0,0,4.655,0,3.418,3.418,0,0,0,.964-2.327v-.22A3.4,3.4,0,0,0,350.643,287.071Z" transform="translate(-260.381 -117.556)" fill="#e0ca9f"/>
    <path id="Pfad_444" data-name="Pfad 444" d="M354.928,264.039a3.292,3.292,0,0,0-4.655,0,3.424,3.424,0,0,0-.965,2.329v.22a3.39,3.39,0,0,0,.965,2.327,3.292,3.292,0,0,0,4.655,0,3.418,3.418,0,0,0,.964-2.327v-.22A3.4,3.4,0,0,0,354.928,264.039Z" transform="translate(-255.112 -145.926)" fill="#e0ca9f"/>
    <path id="Pfad_445" data-name="Pfad 445" d="M353.264,249.251a3.291,3.291,0,0,0-1.513-1.967l-.438-.223a3.5,3.5,0,0,0-2.537-.331,3.358,3.358,0,0,0-1.967,1.513,3.321,3.321,0,0,0-.331,2.537,3.285,3.285,0,0,0,1.513,1.967l.438.221a3.486,3.486,0,0,0,2.535.333,3.362,3.362,0,0,0,1.968-1.513A3.328,3.328,0,0,0,353.264,249.251Z" transform="translate(-258.662 -166.197)" fill="#e0ca9f"/>
    <path id="Pfad_446" data-name="Pfad 446" d="M380.141,252.362c-4.237,0-4.243,6.584,0,6.584S384.384,252.362,380.141,252.362Z" transform="translate(-215.101 -165.148)" fill="#e0ca9f"/>
    <path id="Pfad_447" data-name="Pfad 447" d="M383.622,286.239c-4.235,0-4.243,6.584,0,6.584S387.866,286.239,383.622,286.239Z" transform="translate(-215.402 -117.47)" fill="#e0ca9f"/>
    <path id="Pfad_448" data-name="Pfad 448" d="M386.167,211.655c-4.237,0-4.243,6.584,0,6.584S390.41,211.655,386.167,211.655Z" transform="translate(-213.777 -209.9)" fill="#e0ca9f"/>
    <path id="Pfad_449" data-name="Pfad 449" d="M366.349,216.208c-4.237,0-4.243,6.584,0,6.584S370.592,216.208,366.349,216.208Z" transform="translate(-238.126 -206.99)" fill="#e0ca9f"/>
    <path id="Pfad_450" data-name="Pfad 450" d="M341.711,210.584c-4.237,0-4.243,6.584,0,6.584S345.954,210.584,341.711,210.584Z" transform="translate(-268.399 -210.584)" fill="#e0ca9f"/>
    <path id="Pfad_451" data-name="Pfad 451" d="M310.377,228.259c-4.237,0-4.243,6.584,0,6.584S314.62,228.259,310.377,228.259Z" transform="translate(-306.977 -188.83)" fill="#e0ca9f"/>
    <path id="Pfad_452" data-name="Pfad 452" d="M311.047,259.191c-4.237,0-4.243,6.584,0,6.584S315.29,259.191,311.047,259.191Z" transform="translate(-306.549 -150.76)" fill="#e0ca9f"/>
    <path id="Pfad_453" data-name="Pfad 453" d="M324.169,284.365c-4.237,0-4.243,6.584,0,6.584S328.412,284.365,324.169,284.365Z" transform="translate(-289.952 -118.667)" fill="#e0ca9f"/>
    <path id="Pfad_454" data-name="Pfad 454" d="M348.138,232.544c-4.237,0-4.243,6.584,0,6.584S352.381,232.544,348.138,232.544Z" transform="translate(-260.502 -183.556)" fill="#e0ca9f"/>
  </g>
  <g id="Gruppe_291" data-name="Gruppe 291" transform="translate(200.962 6.512)">
    <path id="Pfad_439-2" data-name="Pfad 439" d="M351.218,217.145c-4.237,0-4.243,6.584,0,6.584S355.461,217.145,351.218,217.145Z" transform="translate(-256.717 -206.392)" fill="#e0ca9f"/>
    <path id="Pfad_440-2" data-name="Pfad 440" d="M311.047,211.521c-4.237,0-4.243,6.584,0,6.584S315.29,211.521,311.047,211.521Z" transform="translate(-306.549 -209.985)" fill="#e0ca9f"/>
    <path id="Pfad_441-2" data-name="Pfad 441" d="M314.93,244.328c-4.237,0-4.243,6.584,0,6.584S319.173,244.328,314.93,244.328Z" transform="translate(-304.068 -169.053)" fill="#e0ca9f"/>
    <path id="Pfad_442-2" data-name="Pfad 442" d="M310.243,281.017c-4.237,0-4.243,6.584,0,6.584S314.486,281.017,310.243,281.017Z" transform="translate(-307.063 -120.806)" fill="#e0ca9f"/>
    <path id="Pfad_443-2" data-name="Pfad 443" d="M350.643,287.071a3.288,3.288,0,0,0-4.655,0,3.42,3.42,0,0,0-.965,2.327v.22a3.39,3.39,0,0,0,.965,2.327,3.292,3.292,0,0,0,4.655,0,3.418,3.418,0,0,0,.964-2.327v-.22A3.4,3.4,0,0,0,350.643,287.071Z" transform="translate(-242.381 -135.556)" fill="#e0ca9f"/>
    <path id="Pfad_444-2" data-name="Pfad 444" d="M354.928,264.039a3.292,3.292,0,0,0-4.655,0,3.424,3.424,0,0,0-.965,2.329v.22a3.39,3.39,0,0,0,.965,2.327,3.292,3.292,0,0,0,4.655,0,3.418,3.418,0,0,0,.964-2.327v-.22A3.4,3.4,0,0,0,354.928,264.039Z" transform="translate(-224.489 -141.926)" fill="#e0ca9f"/>
    <path id="Pfad_445-2" data-name="Pfad 445" d="M353.264,249.251a3.291,3.291,0,0,0-1.513-1.967l-.438-.223a3.5,3.5,0,0,0-2.537-.331,3.358,3.358,0,0,0-1.967,1.513,3.321,3.321,0,0,0-.331,2.537,3.285,3.285,0,0,0,1.513,1.967l.438.221a3.486,3.486,0,0,0,2.535.333,3.362,3.362,0,0,0,1.968-1.513A3.328,3.328,0,0,0,353.264,249.251Z" transform="translate(-258.662 -166.197)" fill="#e0ca9f"/>
    <path id="Pfad_446-2" data-name="Pfad 446" d="M380.141,252.362c-4.237,0-4.243,6.584,0,6.584S384.384,252.362,380.141,252.362Z" transform="translate(-217.627 -159.165)" fill="#e0ca9f"/>
    <path id="Pfad_447-2" data-name="Pfad 447" d="M383.621,286.239c-4.235,0-4.243,6.584,0,6.584S387.866,286.239,383.621,286.239Z" transform="translate(-233.402 -132.612)" fill="#e0ca9f"/>
    <path id="Pfad_449-2" data-name="Pfad 449" d="M366.349,216.208c-4.237,0-4.243,6.584,0,6.584S370.592,216.208,366.349,216.208Z" transform="translate(-238.126 -206.99)" fill="#e0ca9f"/>
    <path id="Pfad_450-2" data-name="Pfad 450" d="M341.711,210.584c-4.237,0-4.243,6.584,0,6.584S345.954,210.584,341.711,210.584Z" transform="translate(-268.399 -210.584)" fill="#e0ca9f"/>
    <path id="Pfad_451-2" data-name="Pfad 451" d="M310.377,228.259c-4.237,0-4.243,6.584,0,6.584S314.62,228.259,310.377,228.259Z" transform="translate(-306.977 -188.83)" fill="#e0ca9f"/>
    <path id="Pfad_452-2" data-name="Pfad 452" d="M311.047,259.191c-4.237,0-4.243,6.584,0,6.584S315.29,259.191,311.047,259.191Z" transform="translate(-306.549 -150.76)" fill="#e0ca9f"/>
    <path id="Pfad_453-2" data-name="Pfad 453" d="M324.169,284.365c-4.237,0-4.243,6.584,0,6.584S328.412,284.365,324.169,284.365Z" transform="translate(-276.952 -117.571)" fill="#e0ca9f"/>
    <path id="Pfad_454-2" data-name="Pfad 454" d="M348.138,232.544c-4.237,0-4.243,6.584,0,6.584S352.381,232.544,348.138,232.544Z" transform="translate(-260.502 -183.556)" fill="#e0ca9f"/>
  </g>
</svg>
