<svg id="_15" data-name="15" xmlns="http://www.w3.org/2000/svg" width="187" height="186.998" viewBox="0 0 187 186.998">
  <rect id="Rechteck_29" data-name="Rechteck 29" width="186.999" height="186.998" transform="translate(0.001)" fill="#393939" opacity="0.002"/>
  <g id="Gruppe_121" data-name="Gruppe 121" transform="translate(12.865 114.024)">
    <path id="Pfad_663" data-name="Pfad 663" d="M440.291,253.271c-4.568-2-9.159-4.643-14.138-4.389-6.289.32-11.461,5.276-14.51,10.786a35.237,35.237,0,0,0,22.913,51.4,28.976,28.976,0,0,0,14.9-.285,27.722,27.722,0,0,0,11.361-7,35.018,35.018,0,0,0,9.8-25.517,28.6,28.6,0,0,0-8.306-19.856c-2.519-2.472-6.315-4.137-9.883-3.443A19.755,19.755,0,0,1,440.291,253.271Z" transform="translate(-407.3 -248.865)" fill="#fff"/>
    <path id="Pfad_1059" data-name="Pfad 1059" d="M5.477-17.937V11.671H.73v.859H17.817v-.859H14.291V-19.61H10.63L.414-18.209l.09.9ZM28.8-5.777c3.616,0,4.068,2.351,4.068,8,0,6.193-.136,9.855-3.978,9.855-2.757,0-3.39-1.718-3.39-2.938a4.155,4.155,0,0,1,.271-1.492h1.492a6.788,6.788,0,0,0,.407-2.305c0-2.305-1.627-3.526-3.888-3.526a3.907,3.907,0,0,0-4.114,4.2c0,5.56,5.741,6.961,9.357,6.961C37.074,12.982,42,9.05,42,2.585c0-4.7-2.577-9.448-11.618-9.448a14.994,14.994,0,0,0-7.1,1.763l.226-8.77,9.855,2.577a16.688,16.688,0,0,0,3.752.768c1.763,0,2.577-1.537,3.3-8.905l-.678-.09c-.362,1.356-.768,1.9-1.808,1.9-1.311,0-11.211-.994-14.963-1.537l-.723.542V-4.2l.768.362A11.333,11.333,0,0,1,28.8-5.777Z" transform="translate(10.883 34.888)" fill="#393939"/>
  </g>
  <g id="Gruppe_122" data-name="Gruppe 122" transform="translate(0 0)">
    <path id="Pfad_664" data-name="Pfad 664" d="M469.989,302.765q1-.2,1.98-.39c.933-.177,1.867-.356,2.827-.562a.329.329,0,1,0-.139-.644c-.956.2-1.883.384-2.811.561-.893.169-1.788.341-2.7.536l-3.011-1.773v-5.01l3.012-1.7,6.282,1.267a.3.3,0,0,0,.066.007.329.329,0,0,0,.064-.652l-5.536-1.116,2.524-1.429a.284.284,0,0,0,.064.018l5.266.369h.025a.329.329,0,0,0,.021-.657l-4.356-.3,4.3-2.432a.329.329,0,1,0-.323-.574l-4.068,2.3,1.827-3.394a.329.329,0,1,0-.579-.313l-2.326,4.315-2.647,1.5q.325-.964.652-1.908c.313-.9.626-1.8.928-2.731a.329.329,0,0,0-.626-.2c-.3.931-.611,1.824-.923,2.717-.3.857-.6,1.718-.885,2.608l-3.076,1.741-4.3-2.916.031-3.6a.355.355,0,0,0,.107-.057,26.038,26.038,0,0,0,4.022-4.16.33.33,0,0,0-.523-.4,25.23,25.23,0,0,1-3.6,3.776l.021-2.357a26.1,26.1,0,0,0,3.994-5.392.329.329,0,1,0-.575-.32,25.4,25.4,0,0,1-3.411,4.728l.048-5.477a.327.327,0,0,0-.326-.331h0a.329.329,0,0,0-.329.326l-.048,5.458-3-4.738a.33.33,0,1,0-.557.352l3.543,5.6-.015,1.719-3.121-3.714a.329.329,0,1,0-.5.423l3.616,4.3-.033,3.857-4.443,2.789-3.342-1.968a.334.334,0,0,0,0-.121,25.738,25.738,0,0,0-1.593-5.561.329.329,0,1,0-.608.251,25.189,25.189,0,0,1,1.47,5l-2.031-1.2a26.056,26.056,0,0,0-2.672-6.156.33.33,0,0,0-.565.339,25.344,25.344,0,0,1,2.388,5.317l-4.719-2.778a.329.329,0,0,0-.334.567l4.706,2.77-5.6.226a.329.329,0,0,0,.013.657h.015l6.623-.266,1.482.872-4.778.846a.329.329,0,0,0,.057.652.225.225,0,0,0,.057,0l5.535-.978,3.571,2.1v5.066l-3.43,1.94a.334.334,0,0,0-.1-.064,25.934,25.934,0,0,0-5.614-1.4.33.33,0,0,0-.087.654,25.171,25.171,0,0,1,5.069,1.229l-.372.21h1.337l3.525-1.995,3.429,1.995h2.531l3.422-1.914,2.939,1.732.062.182h1.546Zm-4.517-2.278-4.383,2.45-4.342-2.527v-5.074l4.428-2.781,4.3,2.911Z" transform="translate(-341.553 -115.975)" fill="#fff"/>
    <path id="Pfad_665" data-name="Pfad 665" d="M491.7,233.481a.334.334,0,0,0,.108-.059,25.948,25.948,0,0,0,2.853-2.762v-1.006a25.406,25.406,0,0,1-2.955,2.983l.021-2.357a26.3,26.3,0,0,0,2.934-3.666v-1.229a25.674,25.674,0,0,1-2.926,3.911l.048-5.476a.33.33,0,0,0-.326-.333h0a.33.33,0,0,0-.329.328l-.048,5.458-3-4.738a.329.329,0,1,0-.556.352l3.542,5.6-.015,1.721-3.121-3.714a.329.329,0,1,0-.5.423l3.617,4.3-.034,3.857-4.443,2.79-3.342-1.968a.3.3,0,0,0,0-.121,25.828,25.828,0,0,0-1.591-5.561.33.33,0,0,0-.61.251,25.189,25.189,0,0,1,1.47,5l-2.031-1.2a26.056,26.056,0,0,0-2.672-6.156.329.329,0,1,0-.564.339,25.428,25.428,0,0,1,2.388,5.317l-4.72-2.78a.329.329,0,0,0-.334.567l4.706,2.772-5.6.226a.329.329,0,0,0,.015.657h.013l6.623-.266,1.482.872-4.778.846a.329.329,0,0,0,.057.652.323.323,0,0,0,.057,0l5.535-.978,3.571,2.1v5.066l-3.43,1.941a.336.336,0,0,0-.1-.066,26.011,26.011,0,0,0-5.612-1.4.332.332,0,0,0-.37.284.329.329,0,0,0,.282.37,25.138,25.138,0,0,1,5.069,1.229l-2.05,1.159a26.036,26.036,0,0,0-6.667-.764.33.33,0,0,0-.324.334.335.335,0,0,0,.334.325,25.725,25.725,0,0,1,5.8.592l-4.765,2.7a.329.329,0,0,0,.161.615.336.336,0,0,0,.162-.041l4.753-2.69-2.608,4.964a.33.33,0,0,0,.139.444.318.318,0,0,0,.152.038.33.33,0,0,0,.292-.175l3.081-5.869,1.5-.846-1.657,4.558a.329.329,0,0,0,.2.423.325.325,0,0,0,.111.02.331.331,0,0,0,.31-.216l1.919-5.284,3.653-2.067,4.342,2.526-.031,3.439-4.238,4.807a.331.331,0,0,0,.03.465.329.329,0,0,0,.464-.03l3.737-4.237-.025,2.9a.252.252,0,0,0-.048.046l-2.952,4.376a.329.329,0,0,0,.544.369l2.444-3.624-.043,4.945a.329.329,0,0,0,.326.331h0a.33.33,0,0,0,.329-.326l.041-4.674,2.024,3.281a.331.331,0,0,0,.454.107.326.326,0,0,0,.107-.452l-2.575-4.171.026-3.04q.678.765,1.331,1.524c.59.682,1.18,1.365,1.8,2.055V255.7c-.443-.5-.875-1-1.3-1.493-.6-.688-1.193-1.378-1.821-2.077l.031-3.524,3.093-1.729v-.754l-3.417,1.911-4.343-2.527v-5.076l4.43-2.78,3.33,2.257v-.8l-2.993-2.027Z" transform="translate(-307.661 -163.843)" fill="#fff"/>
    <path id="Pfad_666" data-name="Pfad 666" d="M400.046,249.964a.342.342,0,0,0,.113.02.328.328,0,0,0,.308-.216l1.919-5.284,3.655-2.067,4.34,2.526-.029,3.439-4.238,4.807a.329.329,0,1,0,.493.436l3.735-4.237-.025,2.9a.2.2,0,0,0-.046.046l-2.953,4.376a.329.329,0,0,0,.546.369l2.444-3.624-.044,4.943a.331.331,0,0,0,.328.333h0a.33.33,0,0,0,.329-.326l.041-4.674,2.026,3.281a.327.327,0,0,0,.28.156.33.33,0,0,0,.28-.5l-2.575-4.173.026-3.039q.676.765,1.331,1.524c.62.718,1.239,1.436,1.9,2.162a.329.329,0,0,0,.244.11.338.338,0,0,0,.221-.085.331.331,0,0,0,.023-.465c-.654-.723-1.27-1.437-1.886-2.152-.595-.688-1.192-1.378-1.821-2.077l.031-3.524,4.383-2.45,2.939,1.731,2.044,6.074a.328.328,0,0,0,.311.225.334.334,0,0,0,.1-.016.329.329,0,0,0,.207-.418l-1.8-5.355,2.5,1.473a.308.308,0,0,0,.016.064l2.316,4.745a.328.328,0,0,0,.3.185.322.322,0,0,0,.144-.034.327.327,0,0,0,.151-.439l-1.916-3.927,4.26,2.508a.329.329,0,0,0,.334-.567l-4.027-2.372,3.853-.113a.33.33,0,0,0,.32-.339.342.342,0,0,0-.338-.32l-4.9.144-2.619-1.544q1-.2,1.98-.388c.934-.179,1.867-.356,2.829-.562a.33.33,0,0,0-.139-.644c-.956.2-1.885.382-2.812.559-.893.17-1.786.343-2.7.538l-3.011-1.773v-5.01l3.014-1.7,6.282,1.267a.285.285,0,0,0,.065.007.329.329,0,0,0,.064-.652l-5.536-1.116,2.524-1.429a.3.3,0,0,0,.062.018l5.268.369h.023a.329.329,0,0,0,.023-.657l-4.358-.3,4.3-2.434a.33.33,0,0,0-.325-.574l-4.068,2.3,1.829-3.394a.33.33,0,1,0-.58-.313l-2.324,4.315-2.647,1.5c.215-.644.433-1.278.652-1.908.313-.9.626-1.8.926-2.732a.329.329,0,0,0-.626-.2c-.3.931-.61,1.824-.921,2.717-.3.857-.6,1.718-.885,2.608l-3.076,1.741-4.3-2.916.031-3.6a.317.317,0,0,0,.108-.059,25.879,25.879,0,0,0,4.02-4.158.329.329,0,0,0-.521-.4,25.234,25.234,0,0,1-3.6,3.776l.02-2.357a26.09,26.09,0,0,0,4-5.392.329.329,0,0,0-.575-.32,25.414,25.414,0,0,1-3.412,4.727l.049-5.476a.332.332,0,0,0-.328-.333h0a.329.329,0,0,0-.329.326l-.048,5.458-3-4.737a.33.33,0,1,0-.557.352l3.542,5.6-.015,1.719-3.121-3.714a.329.329,0,1,0-.5.423l3.616,4.3-.034,3.857-4.443,2.79-3.342-1.968a.343.343,0,0,0,0-.123,25.979,25.979,0,0,0-1.593-5.561.329.329,0,1,0-.608.252,25.193,25.193,0,0,1,1.47,5l-2.032-1.2c-.146-.506-.31-1.008-.487-1.506v2.2l.339-.013,1.48.872-1.819.321v.669l2.693-.477,3.571,2.1v5.064l-3.43,1.942a.343.343,0,0,0-.1-.066,25.88,25.88,0,0,0-2.729-.847v.692c.708.185,1.41.393,2.1.638l-2.05,1.159-.048-.01v1.539l.557-1.06,1.5-.846-1.655,4.558A.33.33,0,0,0,400.046,249.964Zm6.326-13.192,4.43-2.78,4.3,2.911v5.022l-4.383,2.45-4.343-2.527Z" transform="translate(-399.451 -188.78)" fill="#fff"/>
    <path id="Pfad_667" data-name="Pfad 667" d="M416.152,207.083a.33.33,0,0,0,.329.316h.013l6.623-.267L424.6,208l-4.778.846a.33.33,0,0,0,.057.654.229.229,0,0,0,.057-.007l5.535-.978,3.571,2.1v5.066l-3.43,1.941a.333.333,0,0,0-.1-.064,25.821,25.821,0,0,0-5.612-1.4.329.329,0,0,0-.088.652,25.14,25.14,0,0,1,5.069,1.229l-2.052,1.16a26.018,26.018,0,0,0-6.666-.765.331.331,0,0,0-.325.334.335.335,0,0,0,.334.325,25.727,25.727,0,0,1,5.8.592l-4.765,2.7a.331.331,0,0,0-.126.449.334.334,0,0,0,.287.167.32.32,0,0,0,.162-.043l4.753-2.69-2.608,4.964a.33.33,0,0,0,.139.444.318.318,0,0,0,.152.038.33.33,0,0,0,.292-.175l3.081-5.868,1.5-.847-1.657,4.56a.329.329,0,0,0,.2.421.343.343,0,0,0,.113.02.332.332,0,0,0,.31-.216l1.919-5.282,3.653-2.068,4.342,2.526-.031,3.439-4.238,4.809a.329.329,0,1,0,.493.436l3.737-4.238-.025,2.9a.249.249,0,0,0-.047.046l-2.952,4.378a.326.326,0,0,0,.089.456.316.316,0,0,0,.184.057.325.325,0,0,0,.272-.146l2.444-3.622-.043,4.943a.329.329,0,0,0,.326.331h0a.329.329,0,0,0,.329-.326l.041-4.674,2.024,3.281a.329.329,0,0,0,.28.157.329.329,0,0,0,.28-.5l-2.575-4.171.026-3.04c.452.51.893,1.018,1.331,1.524.621.718,1.239,1.436,1.9,2.163a.329.329,0,0,0,.488-.441c-.654-.724-1.27-1.439-1.888-2.154-.595-.688-1.192-1.378-1.819-2.077l.03-3.522,4.384-2.45,2.937,1.731,2.045,6.074a.328.328,0,0,0,.311.225.336.336,0,0,0,.1-.018.329.329,0,0,0,.207-.416l-1.8-5.355,2.5,1.472a.3.3,0,0,0,.016.064l2.314,4.745a.331.331,0,0,0,.3.185.342.342,0,0,0,.143-.033.328.328,0,0,0,.152-.441l-1.916-3.927,4.26,2.509a.34.34,0,0,0,.167.044.328.328,0,0,0,.167-.611l-4.029-2.373,3.855-.113a.33.33,0,0,0,.32-.339.343.343,0,0,0-.339-.32l-4.9.144-2.619-1.542c.665-.136,1.324-.264,1.98-.39.933-.177,1.867-.356,2.827-.562a.33.33,0,1,0-.139-.644c-.955.2-1.883.384-2.811.561-.893.169-1.788.341-2.7.536l-3.011-1.773v-5.01l3.012-1.7,6.282,1.267a.307.307,0,0,0,.066.007.329.329,0,0,0,.064-.652l-5.536-1.116,2.526-1.428a.349.349,0,0,0,.062.016l5.266.369h.025a.329.329,0,0,0,.023-.657l-3.614-.252h-2.173L442.7,207.96c.152-.454.308-.9.462-1.349h-.7c-.208.6-.416,1.21-.618,1.832l-3.076,1.741-4.3-2.916,0-.657h-.659l0,.647-4.443,2.79-3.342-1.967a.309.309,0,0,0,0-.123c-.075-.451-.165-.9-.266-1.347h-.685c.079.346.156.692.22,1.041l-1.767-1.041h-3.847l-3.217.129A.329.329,0,0,0,416.152,207.083Zm13.549,3.534,4.43-2.781,4.294,2.911v5.022l-4.381,2.45-4.343-2.527Z" transform="translate(-377.733 -206.611)" fill="#fff"/>
  </g>
  <path id="Pfad_679" data-name="Pfad 679" d="M428.931,234.754a1.647,1.647,0,0,0,0,3.291A1.647,1.647,0,0,0,428.931,234.754Z" transform="translate(-366.911 -173.765)" fill="#be9a49"/>
  <path id="Pfad_680" data-name="Pfad 680" d="M438.439,226.184a1.646,1.646,0,0,0,0,3.291A1.646,1.646,0,0,0,438.439,226.184Z" transform="translate(-355.819 -183.767)" fill="#be9a49"/>
  <path id="Pfad_681" data-name="Pfad 681" d="M444.2,243.993a1.647,1.647,0,0,0,0,3.291A1.647,1.647,0,0,0,444.2,243.993Z" transform="translate(-349.102 -162.982)" fill="#be9a49"/>
  <path id="Pfad_682" data-name="Pfad 682" d="M455.177,243.859a1.647,1.647,0,0,0,0,3.293A1.647,1.647,0,0,0,455.177,243.859Z" transform="translate(-336.291 -163.138)" fill="#be9a49"/>
  <path id="Pfad_683" data-name="Pfad 683" d="M454.641,252.429a1.646,1.646,0,0,0,0,3.291A1.646,1.646,0,0,0,454.641,252.429Z" transform="translate(-336.917 -153.136)" fill="#be9a49"/>
  <path id="Pfad_684" data-name="Pfad 684" d="M447.41,211.053a1.647,1.647,0,0,0,0,3.291A1.647,1.647,0,0,0,447.41,211.053Z" transform="translate(-345.352 -203.773)" fill="#be9a49"/>
  <path id="Pfad_685" data-name="Pfad 685" d="M469.1,209.847a1.647,1.647,0,0,0,0,3.293A1.647,1.647,0,0,0,469.1,209.847Z" transform="translate(-374.008 -95.823)" fill="#be9a49"/>
  <path id="Pfad_686" data-name="Pfad 686" d="M471.111,218.685a1.647,1.647,0,0,0,0,3.293A1.647,1.647,0,0,0,471.111,218.685Z" transform="translate(-399.907 -128.896)" fill="#be9a49"/>
  <path id="Pfad_687" data-name="Pfad 687" d="M477.94,252.563a1.647,1.647,0,0,0,0,3.291A1.647,1.647,0,0,0,477.94,252.563Z" transform="translate(-305.543 -152.979)" fill="#be9a49"/>
  <path id="Pfad_688" data-name="Pfad 688" d="M478.744,265.551a1.647,1.647,0,0,0,0,3.293A1.647,1.647,0,0,0,478.744,265.551Z" transform="translate(-305.03 -137.82)" fill="#be9a49"/>
  <path id="Pfad_689" data-name="Pfad 689" d="M480.484,276.665a1.647,1.647,0,0,0,0,3.293A1.647,1.647,0,0,0,480.484,276.665Z" transform="translate(-303.917 -117.077)" fill="#be9a49"/>
  <path id="Pfad_690" data-name="Pfad 690" d="M455.043,263.944a1.647,1.647,0,0,0,0,3.293A1.647,1.647,0,0,0,455.043,263.944Z" transform="translate(-336.448 -139.696)" fill="#be9a49"/>
  <path id="Pfad_691" data-name="Pfad 691" d="M458.524,271.577a1.647,1.647,0,0,0,0,3.293A1.647,1.647,0,0,0,458.524,271.577Z" transform="translate(-332.385 -130.787)" fill="#be9a49"/>
  <path id="Pfad_692" data-name="Pfad 692" d="M479.279,285.9a1.647,1.647,0,0,0,0,3.291A1.647,1.647,0,0,0,479.279,285.9Z" transform="translate(-304.687 -111.173)" fill="#be9a49"/>
  <g id="Gruppe_283" data-name="Gruppe 283" transform="matrix(0.998, -0.07, 0.07, 0.998, -369.357, -158.624)">
    <path id="Pfad_1070" data-name="Pfad 1070" d="M501.946,368.231a7.711,7.711,0,0,1-8.356-6.746l-12.967-106.4c-.817-6.7-1.659-13.632-4.935-18.723-2.28-3.547-7.029-6.5-10.446-5.238-2.459.9-4.534,4.05-5.165,7.829-.77,4.615.23,9.943,1.2,15.093a7.71,7.71,0,0,1-15.155,2.849c-1.16-6.174-2.476-13.167-1.254-20.483,1.561-9.352,7.33-16.925,15.057-19.764,11.374-4.18,23.065,2.555,28.734,11.37,5.187,8.062,6.345,17.565,7.275,25.2l12.967,106.4a7.711,7.711,0,0,1-6.722,8.586Q502.062,368.221,501.946,368.231Z" transform="translate(0 0)" fill="#fcfcff"/>
    <g id="Gruppe_282" data-name="Gruppe 282" transform="translate(444.383 215.42)">
      <path id="Pfad_1071" data-name="Pfad 1071" d="M457.329,238.491c.043-.608.111-1.2.209-1.791a11.736,11.736,0,0,1,3.3-6.654L452,217.362a23.852,23.852,0,0,0-5.377,5.771Z" transform="translate(-441.844 -213.169)" fill="#be9a49"/>
      <path id="Pfad_1072" data-name="Pfad 1072" d="M462.372,243.936q5.749-8.244,11.252-16.678a35.076,35.076,0,0,0-2.431-4.483A27.632,27.632,0,0,0,469.146,220q-4.575,7.1-9.35,14.1A40.794,40.794,0,0,1,462.372,243.936Z" transform="translate(-426.919 -210.18)" fill="#be9a49"/>
      <path id="Pfad_1073" data-name="Pfad 1073" d="M481.341,275.745q-6.916,5.394-14.3,10.139l.879,7.219a7.857,7.857,0,0,0,.252,1.2q7.332-4.523,14.251-9.674Z" transform="translate(-418.712 -147.038)" fill="#be9a49"/>
      <path id="Pfad_1074" data-name="Pfad 1074" d="M459.925,232.066l-15.466-5.127a46.928,46.928,0,0,0,.26,8.211l16.492,5.464A84.347,84.347,0,0,1,459.925,232.066Z" transform="translate(-444.38 -202.321)" fill="#be9a49"/>
      <path id="Pfad_1075" data-name="Pfad 1075" d="M463.781,261.169,477.615,247.2l-1.189-9.756-13.834,13.965Z" transform="translate(-423.751 -190.417)" fill="#be9a49"/>
      <path id="Pfad_1076" data-name="Pfad 1076" d="M456.426,215.4l-1.467,15.415c2.517-.015,5.359,1.61,7.383,3.79L464,217.243A23.231,23.231,0,0,0,456.426,215.4Z" transform="translate(-432.398 -215.396)" fill="#be9a49"/>
      <path id="Pfad_1077" data-name="Pfad 1077" d="M461.49,242.448l1.162,9.529q7.163-6.664,13.848-13.839c-.373-3.054-.8-6.387-1.5-9.8Q468.509,235.625,461.49,242.448Z" transform="translate(-425 -200.741)" fill="#be9a49"/>
      <path id="Pfad_1078" data-name="Pfad 1078" d="M464.736,268.248l1.137,9.333,14.007-12.543-1.137-9.332Z" transform="translate(-421.323 -169.737)" fill="#be9a49"/>
      <path id="Pfad_1079" data-name="Pfad 1079" d="M480.021,265.759l-14.106,11.726,1.109,9.1,14.106-11.727Z" transform="translate(-419.988 -158.35)" fill="#be9a49"/>
      <path id="Pfad_1080" data-name="Pfad 1080" d="M477.554,246.361l-13.913,13.314,1.165,9.558,13.913-13.314Z" transform="translate(-422.563 -180.322)" fill="#be9a49"/>
    </g>
  </g>
</svg>
