<svg id="_16" data-name="16" xmlns="http://www.w3.org/2000/svg" xmlns:xlink="http://www.w3.org/1999/xlink" width="187" height="187" viewBox="0 0 187 187">
  <defs>
    <clipPath id="clip-path">
      <rect id="Rechteck_33" data-name="Rechteck 33" width="187" height="187" fill="none"/>
    </clipPath>
  </defs>
  <rect id="Rechteck_32" data-name="Rechteck 32" width="187" height="187" fill="#be9a49" opacity="0"/>
  <path id="Pfad_1060" data-name="Pfad 1060" d="M6.709-17.53V19.286H.807v1.068H22.054V19.286H17.67v-38.9H13.117L.414-17.868l.112,1.124ZM25.37,3.042c0,12.591,5.958,17.874,16.019,17.874,9.387,0,15.514-5.34,15.514-13.94,0-7.757-5-11.635-11.579-11.635-4.553,0-7.195,1.911-8.881,4.553.112-13.884,2.642-18.38,7.644-18.38,3.148,0,4.1,1.518,4.1,3.541a7.226,7.226,0,0,1-.337,2.024h-1.8a7.094,7.094,0,0,0-.45,2.586c0,2.642,2.08,4.384,4.778,4.384a5,5,0,0,0,5.171-5.227c0-4.778-3.991-8.431-11.972-8.431C32.453-19.61,25.37-11.628,25.37,3.042Zm11.579-.731C37.68-.443,39.423-2.8,42.008-2.8c3.71,0,3.878,3.148,3.878,11.017,0,6.857-.225,11.523-4.722,11.523-4.553,0-4.609-4.328-4.609-11.916A22.511,22.511,0,0,1,36.949,2.311Z" transform="translate(70.032 40.547)" fill="#fff"/>
  <g id="Gruppe_246" data-name="Gruppe 246">
    <g id="Gruppe_245" data-name="Gruppe 245" clip-path="url(#clip-path)">
      <g id="Gruppe_244" data-name="Gruppe 244" transform="translate(-10.007 -7.381)">
        <path id="Pfad_861" data-name="Pfad 861" d="M59.38,376.084a.718.718,0,0,1-.58.836q-3.753.688-7.562,1.034l5.439,7.038A.718.718,0,0,1,56.549,386a.711.711,0,0,1-.44.151.722.722,0,0,1-.571-.28l-4.8-6.208-.3,9.995a.721.721,0,0,1-.72.7H49.7a.72.72,0,0,1-.7-.741l.33-10.872-5.917,6.6a.714.714,0,0,1-.537.239.72.72,0,0,1-.537-1.2l5.549-6.2c-1.487.078-2.976.123-4.463.123q-1.678,0-3.355-.067a.722.722,0,0,1-.692-.748.707.707,0,0,1,.75-.692c2.773.108,5.558.071,8.333-.095l-3.924-5.079a.72.72,0,0,1,1.14-.881l3.747,4.849.209-6.879a.72.72,0,1,1,1.439.043l-.185,6.077,4.073-4.547a.72.72,0,1,1,1.073.961l-4.691,5.236q3.62-.339,7.2-.989A.718.718,0,0,1,59.38,376.084Zm96.047,31.126q-3.575.65-7.2.989l4.691-5.239a.72.72,0,1,0-1.073-.961l-4.073,4.547.183-6.077a.72.72,0,1,0-1.439-.043l-.209,6.881-3.747-4.849a.72.72,0,0,0-1.14.881l3.924,5.077c-2.776.168-5.56.2-8.333.1a.705.705,0,0,0-.748.69.72.72,0,0,0,.69.75q1.678.065,3.355.065c1.487,0,2.976-.043,4.463-.121l-5.547,6.2a.72.72,0,0,0,1.073.961l5.915-6.6-.33,10.872a.72.72,0,0,0,.7.741h.022a.72.72,0,0,0,.72-.7l.3-9.995,4.8,6.208a.72.72,0,0,0,1.14-.881l-5.439-7.036q3.8-.349,7.559-1.034a.72.72,0,1,0-.259-1.416Zm56.241-40.217q-3.575.653-7.2.991l4.691-5.239a.72.72,0,1,0-1.073-.961l-4.073,4.547.185-6.077a.72.72,0,1,0-1.439-.043l-.209,6.881-3.747-4.849a.72.72,0,0,0-1.14.879l3.924,5.079c-2.776.166-5.56.2-8.335.095a.706.706,0,0,0-.748.692.72.72,0,0,0,.692.748q1.674.068,3.353.067c1.489,0,2.978-.043,4.465-.121l-5.549,6.193a.72.72,0,1,0,1.073.961l5.917-6.6-.332,10.872a.721.721,0,0,0,.7.741h.024a.721.721,0,0,0,.72-.7l.3-9.995,4.8,6.208a.72.72,0,1,0,1.14-.879l-5.439-7.038q3.8-.346,7.562-1.032a.721.721,0,1,0-.259-1.418ZM70.993,308.879q-3.575.653-7.2.991l4.691-5.239a.72.72,0,0,0-1.073-.961l-4.073,4.547.183-6.077a.72.72,0,0,0-.7-.741.727.727,0,0,0-.741.7l-.209,6.881-3.747-4.849a.72.72,0,0,0-1.14.881l3.924,5.077c-2.776.166-5.56.2-8.333.095a.708.708,0,0,0-.748.692.717.717,0,0,0,.692.748q1.674.068,3.353.067c1.489,0,2.976-.043,4.463-.121l-5.547,6.2a.72.72,0,0,0,.534,1.2.727.727,0,0,0,.539-.239l5.915-6.607-.33,10.872a.721.721,0,0,0,.7.743h.022a.72.72,0,0,0,.72-.7l.3-9.992,4.8,6.208a.72.72,0,0,0,1.14-.881l-5.439-7.038q3.8-.346,7.559-1.032a.721.721,0,0,0-.259-1.418Zm-42.7,114.2q-3.575.653-7.2.991l4.693-5.239a.72.72,0,1,0-1.073-.961l-4.073,4.547.183-6.077a.72.72,0,0,0-1.439-.043l-.209,6.881-3.747-4.849a.72.72,0,0,0-1.14.881l3.924,5.077c-2.776.166-5.56.2-8.333.095a.707.707,0,0,0-.748.692.717.717,0,0,0,.69.748q1.678.068,3.355.067c1.487,0,2.976-.043,4.463-.121l-5.547,6.2a.72.72,0,0,0,.534,1.2.727.727,0,0,0,.539-.239l5.915-6.607-.33,10.872a.72.72,0,0,0,.7.743h.022a.721.721,0,0,0,.72-.7l.3-9.995,4.8,6.208a.72.72,0,1,0,1.14-.881l-5.439-7.036q3.8-.349,7.559-1.034a.721.721,0,0,0-.259-1.418Zm186.127-3.387q-3.575.653-7.2.991l4.691-5.239a.72.72,0,1,0-1.073-.961l-4.073,4.547.185-6.077a.721.721,0,0,0-1.442-.043l-.207,6.879-3.747-4.849a.721.721,0,0,0-1.142.881l3.926,5.079c-2.776.166-5.56.2-8.335.095a.706.706,0,0,0-.748.692.72.72,0,0,0,.692.748q1.674.068,3.353.067c1.489,0,2.978-.045,4.465-.123l-5.549,6.2a.72.72,0,0,0,.537,1.2.714.714,0,0,0,.537-.239l5.915-6.6-.33,10.872a.723.723,0,0,0,.7.741h.024a.722.722,0,0,0,.72-.7l.3-9.995,4.8,6.208a.72.72,0,1,0,1.14-.879l-5.439-7.038c2.534-.233,5.06-.575,7.562-1.032a.721.721,0,0,0-.259-1.418Z" transform="translate(-9.127 -301.399)" fill="#fff"/>
        <g id="Gruppe_243" data-name="Gruppe 243" transform="translate(23.225 90.112)">
          <g id="Gruppe_234" data-name="Gruppe 234" transform="translate(52.602)">
            <g id="Gruppe_231" data-name="Gruppe 231" transform="translate(22.102 70.755)">
              <path id="Pfad_862" data-name="Pfad 862" d="M67,411.07q-.7-17.277-1.411-34.556L55.5,376.05q-.465,18.625-.933,37.248l10.7.263a1.557,1.557,0,0,0,1.338-.412A3.153,3.153,0,0,0,67,411.07Z" transform="translate(-54.571 -376.05)" fill="#e0ca9f"/>
            </g>
            <path id="Pfad_863" data-name="Pfad 863" d="M46.154,410.441c-1.319,3.739-2.64,7.863-1.241,11.572,2.211,5.859,9.639,7.389,15.867,8.044,6.9.724,13.832,1.252,20.728.547,7.113-.726,13.664.121,16.571-6.174,4.047-8.762-.472-18.94-3.976-28.977-2.752-7.885-7.353-19.888-10.852-27.473L77.9,356.389c-1.539-3.334-2.946-7.476-5.353-11.613-2.174-3.737-3.235-.026-4.448,3.416q-2.1,5.96-4.2,11.919-4.125,11.7-8.251,23.4Q50.9,396.977,46.154,410.441Z" transform="translate(-44.315 -343.216)"/>
            <g id="Gruppe_232" data-name="Gruppe 232" transform="translate(2.395 18.218)">
              <path id="Pfad_864" data-name="Pfad 864" d="M71.891,351.67a69.689,69.689,0,0,1-20.006,9.1l-.349.989a70.543,70.543,0,0,0,20.722-9.292Z" transform="translate(-38.369 -351.67)" fill="#fff"/>
              <path id="Pfad_865" data-name="Pfad 865" d="M77.232,356.971c-.114-.269-.233-.543-.347-.806a55.155,55.155,0,0,1-25.551,2.6l-.293.832a55.4,55.4,0,0,0,7.65.532A56.072,56.072,0,0,0,77.232,356.971Z" transform="translate(-38.941 -346.479)" fill="#fff"/>
              <path id="Pfad_866" data-name="Pfad 866" d="M60.437,375.088a52.525,52.525,0,0,0,9.38-.84,53.511,53.511,0,0,0,19.836-8.033c-.1-.278-.2-.556-.306-.838a51.858,51.858,0,0,1-42.017,7.2l-.289.823A53.992,53.992,0,0,0,60.437,375.088Z" transform="translate(-43.56 -335.841)" fill="#fff"/>
              <path id="Pfad_867" data-name="Pfad 867" d="M98.39,382.105a43.38,43.38,0,0,1-17.785,2.3c-8.743-.59-17.069-3.269-24.06-5.81a41.19,41.19,0,0,1-10.818-5.316l-.3.858a42.762,42.762,0,0,0,10.822,5.273c7.049,2.562,15.446,5.26,24.3,5.859,1.08.073,2.239.119,3.465.119a42.681,42.681,0,0,0,14.354-2.355C98.379,382.728,98.387,382.418,98.39,382.105Z" transform="translate(-45.426 -326.709)" fill="#fff"/>
              <path id="Pfad_868" data-name="Pfad 868" d="M84.5,367.122c-.106-.28-.213-.565-.319-.847a80.074,80.074,0,0,1-33.925-5.851l-.289.817A80.9,80.9,0,0,0,84.5,367.122Z" transform="translate(-40.183 -341.559)" fill="#fff"/>
              <path id="Pfad_869" data-name="Pfad 869" d="M90.523,371.874a37.7,37.7,0,0,0,3.31-2.235l-.31-.862a35.186,35.186,0,0,1-3.448,2.355,56.768,56.768,0,0,1-44.092,5.762l-.291.821A56.787,56.787,0,0,0,90.523,371.874Z" transform="translate(-45.119 -331.913)" fill="#fff"/>
            </g>
            <g id="Gruppe_233" data-name="Gruppe 233" transform="translate(10.547 17.654)">
              <path id="Pfad_870" data-name="Pfad 870" d="M52.857,364.2a.867.867,0,0,0,0,1.733A.867.867,0,0,0,52.857,364.2Z" transform="translate(-45.961 -336.64)" fill="#fff"/>
              <path id="Pfad_871" data-name="Pfad 871" d="M60.758,360.848a.866.866,0,0,0,0,1.73A.866.866,0,0,0,60.758,360.848Z" transform="translate(-36.836 -340.506)" fill="#fff"/>
              <path id="Pfad_872" data-name="Pfad 872" d="M57.276,351.408a.866.866,0,0,0,0,1.73A.866.866,0,0,0,57.276,351.408Z" transform="translate(-40.858 -351.408)" fill="#fff"/>
              <path id="Pfad_873" data-name="Pfad 873" d="M60.222,365.534a.867.867,0,0,0,0,1.733A.867.867,0,0,0,60.222,365.534Z" transform="translate(-37.455 -335.094)" fill="#fff"/>
              <path id="Pfad_874" data-name="Pfad 874" d="M59.552,355.09a.866.866,0,0,0,0,1.73A.866.866,0,0,0,59.552,355.09Z" transform="translate(-38.229 -347.155)" fill="#fff"/>
              <path id="Pfad_875" data-name="Pfad 875" d="M50.045,371.091a.867.867,0,0,0,0,1.733A.867.867,0,0,0,50.045,371.091Z" transform="translate(-49.209 -328.676)" fill="#fff"/>
              <path id="Pfad_876" data-name="Pfad 876" d="M55.736,371.024a.867.867,0,0,0,0,1.733A.867.867,0,0,0,55.736,371.024Z" transform="translate(-42.636 -328.753)" fill="#fff"/>
              <path id="Pfad_877" data-name="Pfad 877" d="M63.837,368.949a.866.866,0,0,0,0,1.73A.866.866,0,0,0,63.837,368.949Z" transform="translate(-33.28 -331.15)" fill="#fff"/>
              <path id="Pfad_878" data-name="Pfad 878" d="M66.447,373.569a.866.866,0,0,0,0,1.73A.866.866,0,0,0,66.447,373.569Z" transform="translate(-30.264 -325.814)" fill="#fff"/>
              <path id="Pfad_879" data-name="Pfad 879" d="M61.025,374.841a.866.866,0,0,0,0,1.73A.866.866,0,0,0,61.025,374.841Z" transform="translate(-36.527 -324.345)" fill="#fff"/>
              <path id="Pfad_880" data-name="Pfad 880" d="M50.045,378.523a.867.867,0,0,0,0,1.732A.867.867,0,0,0,50.045,378.523Z" transform="translate(-49.209 -320.092)" fill="#fff"/>
              <path id="Pfad_881" data-name="Pfad 881" d="M57.008,381a.867.867,0,0,0,0,1.733A.867.867,0,0,0,57.008,381Z" transform="translate(-41.167 -317.232)" fill="#fff"/>
              <path id="Pfad_882" data-name="Pfad 882" d="M63.369,380.8a.867.867,0,0,0,0,1.733A.867.867,0,0,0,63.369,380.8Z" transform="translate(-33.821 -317.464)" fill="#fff"/>
              <path id="Pfad_883" data-name="Pfad 883" d="M54.6,359.576a.866.866,0,0,0,0,1.73A.866.866,0,0,0,54.6,359.576Z" transform="translate(-43.951 -341.975)" fill="#fff"/>
            </g>
          </g>
          <g id="Gruppe_238" data-name="Gruppe 238" transform="translate(0 21.636)">
            <g id="Gruppe_235" data-name="Gruppe 235" transform="translate(18.458 59.092)">
              <path id="Pfad_884" data-name="Pfad 884" d="M38.848,409.924q-.588-14.432-1.179-28.861l-8.419-.386q-.391,15.551-.78,31.106l8.936.22a1.3,1.3,0,0,0,1.116-.345A2.624,2.624,0,0,0,38.848,409.924Z" transform="translate(-28.47 -380.678)" fill="#e0ca9f"/>
            </g>
            <path id="Pfad_885" data-name="Pfad 885" d="M21.44,409.4c-1.1,3.122-2.2,6.566-1.037,9.663,1.847,4.894,8.049,6.172,13.251,6.719a84.147,84.147,0,0,0,17.313.457c5.939-.608,11.41.1,13.839-5.157,3.379-7.316-.4-15.817-3.321-24.2-2.3-6.585-6.142-16.61-9.064-22.943q-2.234-4.839-4.465-9.68a99.956,99.956,0,0,0-4.469-9.7c-1.817-3.12-2.7-.021-3.715,2.853l-3.51,9.954L29.37,386.909Q25.4,398.154,21.44,409.4Z" transform="translate(-19.904 -353.256)"/>
            <g id="Gruppe_236" data-name="Gruppe 236" transform="translate(1.999 15.215)">
              <path id="Pfad_886" data-name="Pfad 886" d="M42.935,360.317a58.192,58.192,0,0,1-16.709,7.6c-.1.274-.194.55-.291.825a58.908,58.908,0,0,0,17.306-7.76Z" transform="translate(-14.938 -360.317)" fill="#fff"/>
              <path id="Pfad_887" data-name="Pfad 887" d="M47.394,364.743c-.1-.224-.194-.453-.289-.672a46.043,46.043,0,0,1-21.338,2.168l-.246.694a45.913,45.913,0,0,0,6.387.446A46.782,46.782,0,0,0,47.394,364.743Z" transform="translate(-15.415 -355.981)" fill="#fff"/>
              <path id="Pfad_888" data-name="Pfad 888" d="M33.368,379.874a43.906,43.906,0,0,0,7.835-.7,44.741,44.741,0,0,0,16.565-6.71l-.254-.7a43.312,43.312,0,0,1-35.091,6.012c-.08.228-.162.457-.241.687A45.114,45.114,0,0,0,33.368,379.874Z" transform="translate(-19.273 -347.098)" fill="#fff"/>
              <path id="Pfad_889" data-name="Pfad 889" d="M65.064,385.735a36.235,36.235,0,0,1-14.85,1.924c-7.3-.493-14.257-2.73-20.095-4.853a34.428,34.428,0,0,1-9.036-4.439l-.252.715a35.723,35.723,0,0,0,9.04,4.4c5.887,2.138,12.9,4.392,20.293,4.894.9.06,1.87.1,2.894.1a35.674,35.674,0,0,0,11.986-1.965C65.057,386.254,65.064,385.993,65.064,385.735Z" transform="translate(-20.832 -339.471)" fill="#fff"/>
              <path id="Pfad_890" data-name="Pfad 890" d="M53.465,373.222l-.269-.707a66.827,66.827,0,0,1-28.331-4.887l-.241.683A67.571,67.571,0,0,0,53.465,373.222Z" transform="translate(-16.453 -351.873)" fill="#fff"/>
              <path id="Pfad_891" data-name="Pfad 891" d="M58.495,377.19a31.2,31.2,0,0,0,2.763-1.868L61,374.6a29.773,29.773,0,0,1-2.879,1.967,47.411,47.411,0,0,1-36.823,4.81c-.08.228-.162.459-.241.687A47.435,47.435,0,0,0,58.495,377.19Z" transform="translate(-20.574 -343.817)" fill="#fff"/>
            </g>
            <g id="Gruppe_237" data-name="Gruppe 237" transform="translate(8.809 14.744)">
              <path id="Pfad_892" data-name="Pfad 892" d="M27.04,370.777a.723.723,0,0,0,0,1.446A.723.723,0,0,0,27.04,370.777Z" transform="translate(-21.28 -347.765)" fill="#fff"/>
              <path id="Pfad_893" data-name="Pfad 893" d="M33.636,367.982a.723.723,0,0,0,0,1.446A.723.723,0,0,0,33.636,367.982Z" transform="translate(-13.66 -350.993)" fill="#fff"/>
              <path id="Pfad_894" data-name="Pfad 894" d="M30.73,360.1a.723.723,0,0,0,0,1.446A.723.723,0,0,0,30.73,360.1Z" transform="translate(-17.018 -360.098)" fill="#fff"/>
              <path id="Pfad_895" data-name="Pfad 895" d="M33.189,371.9a.723.723,0,0,0,0,1.446A.723.723,0,0,0,33.189,371.9Z" transform="translate(-14.176 -346.472)" fill="#fff"/>
              <path id="Pfad_896" data-name="Pfad 896" d="M32.631,363.173a.723.723,0,0,0,0,1.446A.723.723,0,0,0,32.631,363.173Z" transform="translate(-14.822 -356.547)" fill="#fff"/>
              <path id="Pfad_897" data-name="Pfad 897" d="M24.69,376.536a.723.723,0,0,0,0,1.446A.723.723,0,0,0,24.69,376.536Z" transform="translate(-23.992 -341.113)" fill="#fff"/>
              <path id="Pfad_898" data-name="Pfad 898" d="M29.444,376.481a.722.722,0,0,0,0,1.444A.722.722,0,0,0,29.444,376.481Z" transform="translate(-18.503 -341.177)" fill="#fff"/>
              <path id="Pfad_899" data-name="Pfad 899" d="M36.208,374.747a.723.723,0,0,0,0,1.446A.723.723,0,0,0,36.208,374.747Z" transform="translate(-10.689 -343.18)" fill="#fff"/>
              <path id="Pfad_900" data-name="Pfad 900" d="M38.389,378.605a.723.723,0,0,0,0,1.446A.723.723,0,0,0,38.389,378.605Z" transform="translate(-8.171 -338.724)" fill="#fff"/>
              <path id="Pfad_901" data-name="Pfad 901" d="M33.86,379.668a.723.723,0,0,0,0,1.446A.723.723,0,0,0,33.86,379.668Z" transform="translate(-13.401 -337.496)" fill="#fff"/>
              <path id="Pfad_902" data-name="Pfad 902" d="M24.69,382.743a.723.723,0,0,0,0,1.446A.723.723,0,0,0,24.69,382.743Z" transform="translate(-23.992 -333.945)" fill="#fff"/>
              <path id="Pfad_903" data-name="Pfad 903" d="M30.505,384.812a.723.723,0,0,0,0,1.446A.723.723,0,0,0,30.505,384.812Z" transform="translate(-17.276 -331.555)" fill="#fff"/>
              <path id="Pfad_904" data-name="Pfad 904" d="M35.817,384.644a.723.723,0,0,0,0,1.446A.723.723,0,0,0,35.817,384.644Z" transform="translate(-11.141 -331.749)" fill="#fff"/>
              <path id="Pfad_905" data-name="Pfad 905" d="M28.492,366.919a.723.723,0,0,0,0,1.446A.723.723,0,0,0,28.492,366.919Z" transform="translate(-19.601 -352.22)" fill="#fff"/>
            </g>
          </g>
          <g id="Gruppe_242" data-name="Gruppe 242" transform="translate(113.918 21.636)">
            <g id="Gruppe_239" data-name="Gruppe 239" transform="translate(17.387 59.092)">
              <path id="Pfad_906" data-name="Pfad 906" d="M80.846,409.924q.592-14.432,1.179-28.861l8.419-.386q.391,15.551.78,31.106L82.29,412a1.306,1.306,0,0,1-1.118-.345A2.637,2.637,0,0,1,80.846,409.924Z" transform="translate(-80.837 -380.678)" fill="#e0ca9f"/>
            </g>
            <path id="Pfad_907" data-name="Pfad 907" d="M117.467,409.4c1.1,3.122,2.2,6.566,1.034,9.663-1.847,4.894-8.049,6.172-13.251,6.719a84.123,84.123,0,0,1-17.31.457c-5.941-.608-11.412.1-13.841-5.157-3.379-7.316.4-15.817,3.323-24.2,2.3-6.585,6.139-16.61,9.061-22.943l4.467-9.68a99.958,99.958,0,0,1,4.469-9.7c1.817-3.12,2.7-.021,3.715,2.853q1.755,4.978,3.51,9.954,3.446,9.772,6.889,19.543Z" transform="translate(-72.768 -353.256)"/>
            <g id="Gruppe_240" data-name="Gruppe 240" transform="translate(0.002 15.215)">
              <path id="Pfad_908" data-name="Pfad 908" d="M80.469,360.317a58.153,58.153,0,0,0,16.707,7.6l.291.825a58.908,58.908,0,0,1-17.306-7.76Z" transform="translate(-64.232 -360.317)" fill="#fff"/>
              <path id="Pfad_909" data-name="Pfad 909" d="M78.455,364.743c.1-.224.194-.453.289-.672a46.049,46.049,0,0,0,21.34,2.168l.246.694a45.967,45.967,0,0,1-6.389.446A46.791,46.791,0,0,1,78.455,364.743Z" transform="translate(-66.202 -355.981)" fill="#fff"/>
              <path id="Pfad_910" data-name="Pfad 910" d="M99.831,379.874a43.882,43.882,0,0,1-7.833-.7,44.736,44.736,0,0,1-16.567-6.71l.254-.7a43.312,43.312,0,0,0,35.091,6.012c.082.228.162.457.243.687A45.131,45.131,0,0,1,99.831,379.874Z" transform="translate(-69.695 -347.098)" fill="#fff"/>
              <path id="Pfad_911" data-name="Pfad 911" d="M72.769,385.735a36.241,36.241,0,0,0,14.852,1.924c7.3-.493,14.255-2.73,20.095-4.853a34.415,34.415,0,0,0,9.033-4.439l.252.715a35.723,35.723,0,0,1-9.04,4.4c-5.885,2.138-12.9,4.392-20.293,4.894-.9.06-1.868.1-2.892.1a35.686,35.686,0,0,1-11.988-1.965C72.778,386.254,72.769,385.993,72.769,385.735Z" transform="translate(-72.769 -339.471)" fill="#fff"/>
              <path id="Pfad_912" data-name="Pfad 912" d="M76.12,373.222c.088-.233.179-.47.267-.707a66.821,66.821,0,0,0,28.331-4.887l.241.683A67.561,67.561,0,0,1,76.12,373.222Z" transform="translate(-68.899 -351.873)" fill="#fff"/>
              <path id="Pfad_913" data-name="Pfad 913" d="M77.181,377.19a31.254,31.254,0,0,1-2.765-1.868l.259-.718a29.773,29.773,0,0,0,2.879,1.967,47.411,47.411,0,0,0,36.823,4.81l.243.687A47.433,47.433,0,0,1,77.181,377.19Z" transform="translate(-70.867 -343.817)" fill="#fff"/>
            </g>
            <g id="Gruppe_241" data-name="Gruppe 241" transform="translate(6.508 14.744)">
              <path id="Pfad_914" data-name="Pfad 914" d="M87.838,370.777a.723.723,0,0,1,0,1.446A.723.723,0,0,1,87.838,370.777Z" transform="translate(-62.68 -347.765)" fill="#fff"/>
              <path id="Pfad_915" data-name="Pfad 915" d="M81.239,367.982a.723.723,0,0,1,0,1.446A.723.723,0,0,1,81.239,367.982Z" transform="translate(-70.299 -350.993)" fill="#fff"/>
              <path id="Pfad_916" data-name="Pfad 916" d="M84.148,360.1a.723.723,0,0,1,0,1.446A.723.723,0,0,1,84.148,360.1Z" transform="translate(-66.941 -360.098)" fill="#fff"/>
              <path id="Pfad_917" data-name="Pfad 917" d="M81.686,371.9a.723.723,0,0,1,0,1.446A.723.723,0,0,1,81.686,371.9Z" transform="translate(-69.783 -346.472)" fill="#fff"/>
              <path id="Pfad_918" data-name="Pfad 918" d="M82.245,363.173a.723.723,0,0,1,0,1.446A.723.723,0,0,1,82.245,363.173Z" transform="translate(-69.137 -356.547)" fill="#fff"/>
              <path id="Pfad_919" data-name="Pfad 919" d="M90.185,376.536a.723.723,0,0,1,0,1.446A.723.723,0,0,1,90.185,376.536Z" transform="translate(-59.967 -341.113)" fill="#fff"/>
              <path id="Pfad_920" data-name="Pfad 920" d="M85.434,376.481a.722.722,0,0,1,0,1.444A.722.722,0,0,1,85.434,376.481Z" transform="translate(-65.456 -341.177)" fill="#fff"/>
              <path id="Pfad_921" data-name="Pfad 921" d="M78.668,374.747a.723.723,0,0,1,0,1.446A.723.723,0,0,1,78.668,374.747Z" transform="translate(-73.27 -343.18)" fill="#fff"/>
              <path id="Pfad_922" data-name="Pfad 922" d="M76.486,378.605a.723.723,0,0,1,0,1.446A.723.723,0,0,1,76.486,378.605Z" transform="translate(-75.788 -338.724)" fill="#fff"/>
              <path id="Pfad_923" data-name="Pfad 923" d="M81.015,379.668a.723.723,0,0,1,0,1.446A.723.723,0,0,1,81.015,379.668Z" transform="translate(-70.558 -337.496)" fill="#fff"/>
              <path id="Pfad_924" data-name="Pfad 924" d="M90.185,382.743a.723.723,0,0,1,0,1.446A.723.723,0,0,1,90.185,382.743Z" transform="translate(-59.967 -333.945)" fill="#fff"/>
              <path id="Pfad_925" data-name="Pfad 925" d="M84.37,384.812a.723.723,0,0,1,0,1.446A.723.723,0,0,1,84.37,384.812Z" transform="translate(-66.683 -331.555)" fill="#fff"/>
              <path id="Pfad_926" data-name="Pfad 926" d="M79.058,384.644a.723.723,0,0,1,0,1.446A.723.723,0,0,1,79.058,384.644Z" transform="translate(-72.818 -331.749)" fill="#fff"/>
              <path id="Pfad_927" data-name="Pfad 927" d="M86.383,366.919a.723.723,0,0,1,0,1.446A.723.723,0,0,1,86.383,366.919Z" transform="translate(-64.359 -352.22)" fill="#fff"/>
            </g>
          </g>
        </g>
      </g>
    </g>
  </g>
</svg>
