<svg id="_17" data-name="17" xmlns="http://www.w3.org/2000/svg" width="187" height="187" viewBox="0 0 187 187">
  <rect id="Rechteck_7" data-name="Rechteck 7" width="187" height="187" fill="#393939" opacity="0"/>
  <g id="Gruppe_14" data-name="Gruppe 14" transform="translate(0.001 32.114)">
    <path id="Pfad_168" data-name="Pfad 168" d="M154.694,376.782a37.018,37.018,0,0,0,5.34,1.8,96.993,96.993,0,0,0,24.773,3.194q2.246,0,4.48-.1c3.9-.184,8.883-.661,12.811-2.747.194-.1.386-.21.573-.323.489.149.97.289,1.433.415a78.758,78.758,0,0,0,32.649,1.832,33.458,33.458,0,0,0,10.966-3.271,58.4,58.4,0,0,0,10.512,1.5c9.464.767,19.25,1.56,28.79,0a46.1,46.1,0,0,0,10.169-2.842v-.746a44.863,44.863,0,0,1-10.352,2.944c-9.4,1.541-19.118.752-28.514-.01a60.894,60.894,0,0,1-9.777-1.323c.142-.087.282-.175.42-.267,3.78-2.49,5.56-6.135,4.532-9.288a7.692,7.692,0,0,0-4.622-4.376,9.392,9.392,0,0,0-6.025-.4c-4.116,1.174-5.732,5.058-4.661,7.947,1.024,2.753,4.043,5.123,8.288,6.5.086.029.175.057.263.085a33.731,33.731,0,0,1-10.158,2.911,77.614,77.614,0,0,1-32.184-1.8c-.321-.09-.651-.182-.987-.282,2.862-2.019,4.793-5.241,3.446-8.283-.78-1.759-2.967-3.2-5.573-3.67a7.406,7.406,0,0,0-5.743,1.054c-2.685,2.018-2.159,5.422-.1,7.547a15.85,15.85,0,0,0,6.307,3.54c-.047.026-.1.054-.149.08-3.752,1.991-8.581,2.452-12.369,2.629a96.108,96.108,0,0,1-28.913-3.055,38.011,38.011,0,0,1-4.715-1.542c3.48-1.534,5.659-4.129,5.6-6.743a5.5,5.5,0,0,0-2.909-4.312,7.35,7.35,0,0,0-4.991-.98,5.78,5.78,0,0,0-4.105,2.685,5.332,5.332,0,0,0,.222,5.843,11.7,11.7,0,0,0,4.383,3.457,32.732,32.732,0,0,1-10.061,1.214,102.337,102.337,0,0,1-33.556-5.661v.719a103.494,103.494,0,0,0,33.556,5.6A32.374,32.374,0,0,0,154.694,376.782Zm84.331-6.256a5.614,5.614,0,0,1,4.131-7.151,7.486,7.486,0,0,1,2.043-.279,8.84,8.84,0,0,1,3.275.649,6.959,6.959,0,0,1,4.185,3.952c.95,2.916-.722,6.305-4.258,8.634-.265.174-.537.341-.819.5-.256-.075-.511-.152-.765-.234C242.815,375.3,239.975,373.088,239.025,370.526Zm-42.885,3.848c-1.8-1.86-2.308-4.946.013-6.69a5.7,5.7,0,0,1,3.439-1.018,8.458,8.458,0,0,1,1.493.138c2.321.42,4.267,1.691,4.952,3.239,1.276,2.878-.707,5.953-3.515,7.8A15.648,15.648,0,0,1,196.14,374.374Zm-45.956-1.782a4.8,4.8,0,0,1-.192-5.255,4.943,4.943,0,0,1,3.5-2.314,6.036,6.036,0,0,1,.972-.08,6.435,6.435,0,0,1,3.3.936,4.857,4.857,0,0,1,2.577,3.8c.06,2.816-2.745,5.2-5.611,6.348A11.443,11.443,0,0,1,150.184,372.593Z" transform="translate(-110.191 -264.915)" fill="#fff"/>
    <path id="Pfad_169" data-name="Pfad 169" d="M143.765,350.31a32.314,32.314,0,0,0,10.93-1.457,36.811,36.811,0,0,0,5.34,1.8,96.954,96.954,0,0,0,24.773,3.2q2.243,0,4.48-.1c3.9-.184,8.883-.659,12.811-2.745.194-.1.386-.211.573-.325.491.149.97.288,1.433.415a78.7,78.7,0,0,0,32.649,1.832,33.4,33.4,0,0,0,10.966-3.271,58.317,58.317,0,0,0,10.514,1.5c9.462.769,19.25,1.562,28.788,0A46.277,46.277,0,0,0,297.19,348.3v-.747a44.784,44.784,0,0,1-10.352,2.945c-9.4,1.539-19.116.752-28.514-.01a61.167,61.167,0,0,1-9.777-1.323c.142-.089.282-.177.42-.267,3.78-2.49,5.56-6.136,4.532-9.29a7.7,7.7,0,0,0-4.622-4.376,9.392,9.392,0,0,0-6.025-.4c-4.116,1.174-5.732,5.056-4.661,7.946,1.021,2.754,4.043,5.123,8.288,6.5.086.028.175.057.263.084a33.655,33.655,0,0,1-10.158,2.911,77.613,77.613,0,0,1-32.184-1.8c-.321-.089-.651-.182-.985-.282,2.86-2.019,4.79-5.241,3.444-8.283-.78-1.757-2.967-3.2-5.573-3.668a7.4,7.4,0,0,0-5.743,1.052c-2.685,2.018-2.159,5.422-.1,7.549a15.86,15.86,0,0,0,6.31,3.539l-.151.08c-3.752,1.993-8.581,2.452-12.369,2.629a96.107,96.107,0,0,1-28.913-3.055,37.718,37.718,0,0,1-4.715-1.542c3.48-1.534,5.659-4.127,5.6-6.741a5.5,5.5,0,0,0-2.907-4.312,7.352,7.352,0,0,0-4.993-.982,5.78,5.78,0,0,0-4.105,2.685,5.332,5.332,0,0,0,.222,5.843,11.687,11.687,0,0,0,4.383,3.457,32.639,32.639,0,0,1-10.044,1.216h-.017a102.3,102.3,0,0,1-33.556-5.663v.719a103.461,103.461,0,0,0,33.556,5.6Zm95.26-7.711a5.613,5.613,0,0,1,4.131-7.151,7.425,7.425,0,0,1,2.045-.279,8.83,8.83,0,0,1,3.273.649,6.955,6.955,0,0,1,4.185,3.952c.95,2.914-.722,6.3-4.258,8.633-.265.174-.537.343-.819.5-.256-.074-.511-.151-.765-.234C242.815,347.373,239.975,345.158,239.025,342.6Zm-42.885,3.847c-1.8-1.859-2.308-4.946.013-6.69a5.712,5.712,0,0,1,3.437-1.016,8.458,8.458,0,0,1,1.5.138c2.323.42,4.267,1.69,4.952,3.239,1.276,2.876-.707,5.949-3.515,7.8A15.648,15.648,0,0,1,196.14,346.445Zm-45.956-1.78a4.8,4.8,0,0,1-.192-5.255,4.934,4.934,0,0,1,3.5-2.314,5.881,5.881,0,0,1,.974-.082,6.422,6.422,0,0,1,3.3.938,4.854,4.854,0,0,1,2.577,3.8c.06,2.814-2.745,5.194-5.611,6.346A11.425,11.425,0,0,1,150.184,344.665Z" transform="translate(-110.191 -296.365)" fill="#fff"/>
    <path id="Pfad_170" data-name="Pfad 170" d="M154.565,363.166c1.556.518,3.14.922,4.609,1.258a115.954,115.954,0,0,0,25.635,2.838q2.324,0,4.635-.093c4.068-.163,9.24-.59,13.593-2.419l.183.042a95.217,95.217,0,0,0,34.05,1.641,44.083,44.083,0,0,0,10.848-2.6,80.2,80.2,0,0,0,9.839,1.1c9.667.673,19.666,1.368,29.609-.03a56.926,56.926,0,0,0,9.624-2.185V358.2a45.67,45.67,0,0,1-10.9,2.84c-8.995,1.264-18.5.6-27.693-.037-1.7-.118-3.428-.239-5.116-.424,2.51-2.316,3.5-5.115,2.536-7.64-.767-2.022-2.985-3.836-5.933-4.849a14.667,14.667,0,0,0-8.148-.435c-5.027,1.231-7.829,5.212-6.247,8.871.849,1.97,2.8,3.737,5.56,5.1a50.628,50.628,0,0,1-5.187.931,86.489,86.489,0,0,1-28.3-.939c1.907-1.99,2.788-4.455,1.556-6.844-1.06-2.052-3.978-3.722-7.434-4.258a11.914,11.914,0,0,0-8.167,1.347c-3.685,2.377-3.079,6.287-.366,8.693a13.377,13.377,0,0,0,2.909,1.909,45.421,45.421,0,0,1-7.187.756,107.371,107.371,0,0,1-27.893-2.53c-.22-.051-.442-.1-.668-.156,2.125-1.537,3.34-3.448,3.293-5.384-.047-1.9-1.5-3.771-3.9-5a12.164,12.164,0,0,0-7.163-1.168,8.475,8.475,0,0,0-5.907,3.26,5.2,5.2,0,0,0,.306,6.528,9.83,9.83,0,0,0,1.364,1.333c-1.608.141-3.241.172-4.762.172a113.424,113.424,0,0,1-33.556-5.046v4.352a123.141,123.141,0,0,0,33.556,4.651A44.212,44.212,0,0,0,154.565,363.166Zm89.5-11.809a4.749,4.749,0,0,1,1.125-.131,6.556,6.556,0,0,1,2.071.362,4.594,4.594,0,0,1,2.873,2.3c.765,2.014-.9,4.137-3.008,5.465-2.864-.919-4.935-2.353-5.6-3.9C240.816,353.807,242.027,351.857,244.07,351.357Zm-46.094,3.318a2.994,2.994,0,0,1,1.6-.384,6.1,6.1,0,0,1,.907.072,4.3,4.3,0,0,1,3.09,1.673c.72,1.4-.157,2.944-1.618,4.108a11.13,11.13,0,0,1-3.726-1.936C197.09,357.2,196.7,355.5,197.976,354.675Zm-45.62-.8a2.437,2.437,0,0,1,1.7-1.033,2.682,2.682,0,0,1,.407-.03,3.812,3.812,0,0,1,1.692.439,2.6,2.6,0,0,1,1.59,1.963c.034,1.357-1.31,2.575-2.952,3.39a7.438,7.438,0,0,1-2.329-1.734A2.477,2.477,0,0,1,152.356,353.875Z" transform="translate(-110.191 -279.976)" fill="#be9a49"/>
    <path id="Pfad_172" data-name="Pfad 172" d="M297.19,386.224a45.274,45.274,0,0,1-10.9,2.866c-9,1.277-18.5.611-27.693-.037-1.7-.119-3.428-.24-5.116-.426,2.51-2.339,3.493-5.162,2.536-7.71-.767-2.042-2.985-3.871-5.933-4.894a14.539,14.539,0,0,0-8.148-.439c-5.027,1.243-7.829,5.259-6.247,8.952.849,1.988,2.8,3.772,5.56,5.146a49.82,49.82,0,0,1-5.187.94,85.679,85.679,0,0,1-28.3-.946c1.907-2.009,2.788-4.5,1.556-6.909-1.06-2.069-3.978-3.756-7.434-4.3a11.846,11.846,0,0,0-8.167,1.359c-3.685,2.4-3.079,6.345-.366,8.773a13.365,13.365,0,0,0,2.909,1.927,45.2,45.2,0,0,1-7.187.764,106.506,106.506,0,0,1-27.893-2.553l-.668-.158c2.125-1.551,3.34-3.479,3.293-5.433-.047-1.919-1.5-3.807-3.894-5.051a12.082,12.082,0,0,0-7.165-1.177,8.459,8.459,0,0,0-5.907,3.288,5.289,5.289,0,0,0,.306,6.591,9.866,9.866,0,0,0,1.364,1.343c-1.61.143-3.241.173-4.762.173a112.485,112.485,0,0,1-33.556-5.091v4.392a122.106,122.106,0,0,0,33.556,4.692,43.753,43.753,0,0,0,10.818-1.071c1.556.523,3.142.93,4.609,1.27a114.982,114.982,0,0,0,25.637,2.866q2.321,0,4.635-.094c4.068-.165,9.24-.6,13.593-2.443l.181.043a94.37,94.37,0,0,0,34.05,1.656,43.628,43.628,0,0,0,10.848-2.627,79.56,79.56,0,0,0,9.839,1.113c9.214.649,19.661,1.38,29.609-.028a56.617,56.617,0,0,0,9.624-2.205Zm-142.4.413a7.443,7.443,0,0,1-2.329-1.75,2.52,2.52,0,0,1-.108-3.025,2.444,2.444,0,0,1,1.7-1.042,2.837,2.837,0,0,1,.407-.028,3.8,3.8,0,0,1,1.692.442,2.629,2.629,0,0,1,1.59,1.981C157.78,384.585,156.436,385.815,154.794,386.637Zm47.165,1.554a11.128,11.128,0,0,1-3.728-1.955c-1.14-1.02-1.526-2.735-.254-3.563a2.973,2.973,0,0,1,1.6-.389,6.019,6.019,0,0,1,.907.074,4.289,4.289,0,0,1,3.09,1.688C204.3,385.454,203.419,387.017,201.958,388.191Zm45.171-.8c-2.864-.927-4.935-2.374-5.6-3.941-.709-1.656.5-3.624,2.545-4.128a4.639,4.639,0,0,1,1.125-.132,6.464,6.464,0,0,1,2.071.365,4.6,4.6,0,0,1,2.873,2.32C250.9,383.911,249.235,386.052,247.13,387.393Z" transform="translate(-110.191 -247.2)" fill="#be9a49"/>
    <path id="Pfad_173" data-name="Pfad 173" d="M154.565,334.387c1.556.49,3.142.872,4.609,1.191a122.268,122.268,0,0,0,25.637,2.688q2.324,0,4.635-.088c4.068-.155,9.24-.559,13.593-2.291l.181.04a100.477,100.477,0,0,0,34.05,1.553,46.016,46.016,0,0,0,10.848-2.464,84.613,84.613,0,0,0,9.839,1.044c9.217.609,19.661,1.3,29.609-.027a59.612,59.612,0,0,0,9.624-2.07v-4.281a47.677,47.677,0,0,1-10.9,2.688c-9,1.2-18.5.573-27.693-.035-1.7-.112-3.428-.225-5.116-.4,2.51-2.194,3.493-4.842,2.536-7.231-.767-1.915-2.985-3.631-5.933-4.59a15.428,15.428,0,0,0-8.148-.412c-5.027,1.165-7.829,4.932-6.247,8.4.849,1.865,2.8,3.538,5.56,4.827-1.513.346-3.23.637-5.187.882a91.218,91.218,0,0,1-28.3-.887c1.907-1.885,2.788-4.218,1.556-6.48-1.06-1.941-3.978-3.523-7.434-4.03a12.517,12.517,0,0,0-8.167,1.275c-3.685,2.251-3.079,5.951-.366,8.229a13.419,13.419,0,0,0,2.909,1.807,48.087,48.087,0,0,1-7.187.717,113.269,113.269,0,0,1-27.893-2.395l-.668-.148c2.125-1.454,3.34-3.263,3.293-5.1-.047-1.8-1.5-3.57-3.894-4.736a12.782,12.782,0,0,0-7.165-1.1,8.6,8.6,0,0,0-5.907,3.083,4.724,4.724,0,0,0,.306,6.182,9.6,9.6,0,0,0,1.364,1.26c-1.61.135-3.241.163-4.762.163a119.394,119.394,0,0,1-33.556-4.775v4.12a129.707,129.707,0,0,0,33.556,4.4A46.548,46.548,0,0,0,154.565,334.387Zm89.5-11.176a4.932,4.932,0,0,1,1.125-.124,6.846,6.846,0,0,1,2.071.342,4.543,4.543,0,0,1,2.873,2.176c.765,1.906-.9,3.916-3.008,5.175-2.864-.871-4.935-2.228-5.6-3.7C240.816,325.53,242.027,323.684,244.07,323.211Zm-46.094,3.139a3.144,3.144,0,0,1,1.6-.364,6.194,6.194,0,0,1,.905.069,4.35,4.35,0,0,1,3.092,1.584c.722,1.321-.157,2.786-1.618,3.888a11.415,11.415,0,0,1-3.728-1.834C197.09,328.737,196.7,327.128,197.976,326.35Zm-45.62-.758a2.464,2.464,0,0,1,1.7-.978,3.043,3.043,0,0,1,.407-.027,3.993,3.993,0,0,1,1.692.414,2.494,2.494,0,0,1,1.59,1.858c.034,1.285-1.31,2.439-2.952,3.21a7.417,7.417,0,0,1-2.329-1.641A2.248,2.248,0,0,1,152.356,325.592Z" transform="translate(-110.191 -306.976)" fill="#be9a49"/>
  </g>
  <path id="Pfad_174" data-name="Pfad 174" d="M118.9,359.587c-4.473,7.033-5.2,15.826-4.592,24.139a44.046,44.046,0,0,0,2.873,13.728,22.34,22.34,0,0,0,8.752,10.732c6.523,3.93,14.843,3.276,22.166,1.187,4.761-1.359,9.465-3.329,13.138-6.653,4.453-4.03,7.062-9.791,8.236-15.683a34.784,34.784,0,0,0-3.344-23.664c-7.2-12.807-24.84-19.36-38.046-12.219A24.874,24.874,0,0,0,118.9,359.587Z" transform="translate(-105.677 -343.327)" fill="#fff"/>
  <path id="Pfad_1061" data-name="Pfad 1061" d="M5.885-19.274V12.541H.785v.923H19.145v-.923H15.356V-21.071H11.422L.445-19.566l.1.971ZM26.14,9.19c0,2.331,1.894,4.76,5.634,4.76a13.946,13.946,0,0,0,3.012-.34l.34-.583a7.066,7.066,0,0,1-1.457-4.372c0-3.254.437-5.489,5.586-14.523l5.392-9.423v-5.246H22.885L22.351-8.2h.777c.826-4.274,1.7-4.906,6.266-4.906H41.829L33.814-3.828C27.014,4.041,26.14,6.275,26.14,9.19Z" transform="translate(13.943 40.861)" fill="#393939"/>
  <g id="Gruppe_15" data-name="Gruppe 15" transform="translate(11.764 8.275)">
    <path id="Pfad_1103" data-name="Pfad 1103" d="M141.956,324.067c-2.965,0-2.97,4.609,0,4.609S144.927,324.067,141.956,324.067Z" transform="translate(-88.561 -231.994)" fill="#fff"/>
    <path id="Pfad_1105" data-name="Pfad 1105" d="M141.956,324.067c-2.965,0-2.97,4.609,0,4.609S144.927,324.067,141.956,324.067Z" transform="translate(-133.561 -198.544)" fill="#fff"/>
    <path id="Pfad_179" data-name="Pfad 179" d="M119.594,335.047c-2.965,0-2.97,4.609,0,4.609S122.565,335.047,119.594,335.047Z" transform="translate(-117.368 -274.348)" fill="#fff"/>
    <path id="Pfad_180" data-name="Pfad 180" d="M162.711,339.064c-2.965,0-2.97,4.609,0,4.609S165.682,339.064,162.711,339.064Z" transform="translate(-61.824 -272.158)" fill="#fff"/>
    <path id="Pfad_181" data-name="Pfad 181" d="M185.073,350.045c-2.965,0-2.97,4.607,0,4.607S188.044,350.045,185.073,350.045Z" transform="translate(-30.756 -257.97)" fill="#fff"/>
    <path id="Pfad_182" data-name="Pfad 182" d="M163.649,366.649c-2.967,0-2.971,4.609,0,4.609S166.619,366.649,163.649,366.649Z" transform="translate(-60.616 -236.517)" fill="#fff"/>
    <path id="Pfad_1104" data-name="Pfad 1104" d="M163.649,366.649c-2.967,0-2.971,4.609,0,4.609S166.619,366.649,163.649,366.649Z" transform="translate(-105.801 -209.51)" fill="#fff"/>
    <path id="Pfad_183" data-name="Pfad 183" d="M187.082,378.432c-2.967,0-2.971,4.609,0,4.609S190.052,378.432,187.082,378.432Z" transform="translate(-29.473 -221.293)" fill="#fff"/>
  </g>
</svg>
