<svg id="_18" data-name="18" xmlns="http://www.w3.org/2000/svg" xmlns:xlink="http://www.w3.org/1999/xlink" width="187" height="187" viewBox="0 0 187 187">
  <defs>
    <clipPath id="clip-path">
      <rect id="Rechteck_22" data-name="Rechteck 22" width="187" height="187" fill="none"/>
    </clipPath>
  </defs>
  <rect id="Rechteck_21" data-name="Rechteck 21" width="187" height="187" fill="#fff" opacity="0"/>
  <path id="Pfad_1062" data-name="Pfad 1062" d="M6.677-16.621V20.122H.787v1.066h21.2V20.122H17.616V-18.7H13.072L.394-16.958l.112,1.122ZM37.362.544V.712C28.779,1.273,24.8,5.032,24.8,11.034c0,6.9,4.936,10.714,15.875,10.714,10.827,0,15.595-3.7,15.595-10.771,0-5.722-3.478-9.536-12.117-10.266V.544C51.5-.017,55.257-3.607,55.257-8.824c0-6.171-4.824-9.873-14.585-9.873-9.985,0-14.809,4.1-14.809,10.21C25.862-3.439,29.957.152,37.362.544Zm3.31.729c3.983,0,4.88,3.2,4.88,9.593,0,6.507-.729,9.7-4.88,9.7-4.207,0-4.936-3.141-4.936-9.536C35.735,4.527,36.577,1.273,40.672,1.273ZM36.8-8.824c0-5.5.28-8.695,3.871-8.695s3.871,3.2,3.871,8.695c0,5.89-.056,8.807-3.7,8.807C36.969-.017,36.8-2.934,36.8-8.824Z" transform="translate(93.106 108.481)" fill="#393939"/>
  <g id="Gruppe_66" data-name="Gruppe 66">
    <g id="Gruppe_65" data-name="Gruppe 65" clip-path="url(#clip-path)">
      <g id="Gruppe_64" data-name="Gruppe 64" transform="translate(-7.327 -9.312)">
        <path id="Pfad_455" data-name="Pfad 455" d="M234.882,327.347a10.24,10.24,0,1,1-10.24-10.24A10.239,10.239,0,0,1,234.882,327.347Z" transform="translate(-190.286 -281.327)" fill="#be9a49"/>
        <path id="Pfad_456" data-name="Pfad 456" d="M249.569,361.691a10.241,10.241,0,1,1-10.242-10.24A10.242,10.242,0,0,1,249.569,361.691Z" transform="translate(-173.326 -241.662)" fill="#be9a49"/>
        <path id="Pfad_457" data-name="Pfad 457" d="M226.382,350.357a10.241,10.241,0,1,1-10.24-10.242A10.241,10.241,0,0,1,226.382,350.357Z" transform="translate(-200.107 -254.754)" fill="#be9a49"/>
        <path id="Pfad_458" data-name="Pfad 458" d="M282.986,327.486a10.24,10.24,0,1,1-10.24-10.24A10.239,10.239,0,0,1,282.986,327.486Z" transform="translate(-145.403 -282.259)" fill="#be9a49"/>
        <path id="Pfad_459" data-name="Pfad 459" d="M308.382,361.691a10.241,10.241,0,1,1-10.242-10.24A10.242,10.242,0,0,1,308.382,361.691Z" transform="translate(-105.402 -241.662)" fill="#be9a49"/>
        <path id="Pfad_460" data-name="Pfad 460" d="M288.392,394.9a10.241,10.241,0,1,1-10.24-10.242A10.241,10.241,0,0,1,288.392,394.9Z" transform="translate(-128.49 -203.317)" fill="#be9a49"/>
        <path id="Pfad_461" data-name="Pfad 461" d="M235.5,397.092a10.241,10.241,0,1,1-10.24-10.242A10.242,10.242,0,0,1,235.5,397.092Z" transform="translate(-189.576 -200.779)" fill="#be9a49"/>
        <path id="Pfad_462" data-name="Pfad 462" d="M261.5,310.743a10.241,10.241,0,1,1-10.242-10.24A10.241,10.241,0,0,1,261.5,310.743Z" transform="translate(-159.55 -300.503)" fill="#be9a49"/>
        <path id="Pfad_464" data-name="Pfad 464" d="M235.932,338a7.327,7.327,0,1,1,7.325-7.327A7.334,7.334,0,0,1,235.932,338Zm0-13.787a6.461,6.461,0,1,0,6.46,6.46A6.468,6.468,0,0,0,235.932,324.216Z" transform="translate(-173.883 -274.117)" fill="#be9a49"/>
        <path id="Pfad_465" data-name="Pfad 465" d="M223.7,316.076a7.326,7.326,0,1,1,7.327-7.327A7.334,7.334,0,0,1,223.7,316.076Zm0-13.787a6.462,6.462,0,1,0,6.46,6.461A6.468,6.468,0,0,0,223.7,302.289Z" transform="translate(-188.013 -299.438)" fill="#be9a49"/>
        <path id="Pfad_466" data-name="Pfad 466" d="M210.538,340.9a7.327,7.327,0,1,1,7.327-7.327A7.334,7.334,0,0,1,210.538,340.9Zm0-13.787A6.46,6.46,0,1,0,217,333.57,6.468,6.468,0,0,0,210.538,327.109Z" transform="translate(-203.211 -270.775)" fill="#be9a49"/>
        <path id="Pfad_467" data-name="Pfad 467" d="M257.646,344.1a7.327,7.327,0,1,1,7.327-7.327A7.336,7.336,0,0,1,257.646,344.1Zm0-13.787a6.46,6.46,0,1,0,6.461,6.461A6.468,6.468,0,0,0,257.646,330.308Z" transform="translate(-163.025 -259.321)" fill="#be9a49"/>
        <path id="Pfad_468" data-name="Pfad 468" d="M269.632,317.176a7.326,7.326,0,1,1,7.325-7.325A7.334,7.334,0,0,1,269.632,317.176Zm0-13.787a6.462,6.462,0,1,0,6.461,6.463A6.47,6.47,0,0,0,269.632,303.389Z" transform="translate(-134.962 -298.168)" fill="#be9a49"/>
        <path id="Pfad_469" data-name="Pfad 469" d="M287.867,341.6a7.326,7.326,0,1,1,7.327-7.327A7.334,7.334,0,0,1,287.867,341.6Zm0-13.787a6.462,6.462,0,1,0,6.46,6.46A6.468,6.468,0,0,0,287.867,327.814Z" transform="translate(-113.902 -269.959)" fill="#be9a49"/>
        <path id="Pfad_470" data-name="Pfad 470" d="M221.723,374.7a7.326,7.326,0,1,1,7.327-7.325A7.334,7.334,0,0,1,221.723,374.7Zm0-13.787a6.462,6.462,0,1,0,6.46,6.463A6.47,6.47,0,0,0,221.723,360.914Z" transform="translate(-190.293 -231.731)" fill="#be9a49"/>
        <path id="Pfad_471" data-name="Pfad 471" d="M241.743,383.911a7.326,7.326,0,1,1,7.327-7.324A7.334,7.334,0,0,1,241.743,383.911Zm0-13.787a6.461,6.461,0,1,0,6.46,6.463A6.468,6.468,0,0,0,241.743,370.124Z" transform="translate(-167.172 -221.094)" fill="#be9a49"/>
        <path id="Pfad_472" data-name="Pfad 472" d="M254.447,402.854a7.326,7.326,0,1,1,7.327-7.327A7.334,7.334,0,0,1,254.447,402.854Zm0-13.787a6.462,6.462,0,1,0,6.46,6.46A6.469,6.469,0,0,0,254.447,389.067Z" transform="translate(-152.5 -199.217)" fill="#be9a49"/>
        <path id="Pfad_473" data-name="Pfad 473" d="M211.38,394.29a7.327,7.327,0,1,1,7.327-7.327A7.334,7.334,0,0,1,211.38,394.29Zm0-13.787a6.46,6.46,0,1,0,6.46,6.46A6.469,6.469,0,0,0,211.38,380.5Z" transform="translate(-202.239 -209.11)" fill="#be9a49"/>
        <path id="Pfad_474" data-name="Pfad 474" d="M287.867,382.569a7.327,7.327,0,1,1,7.327-7.327A7.336,7.336,0,0,1,287.867,382.569Zm0-13.787a6.46,6.46,0,1,0,6.46,6.46A6.467,6.467,0,0,0,287.867,368.782Z" transform="translate(-113.902 -222.646)" fill="#be9a49"/>
        <path id="Pfad_475" data-name="Pfad 475" d="M296.578,402.213a7.327,7.327,0,1,1,7.327-7.327A7.335,7.335,0,0,1,296.578,402.213Zm0-13.787a6.46,6.46,0,1,0,6.463,6.461A6.468,6.468,0,0,0,296.578,388.425Z" transform="translate(-103.839 -199.96)" fill="#be9a49"/>
      </g>
    </g>
  </g>
</svg>
