<svg id="_19" data-name="19" xmlns="http://www.w3.org/2000/svg" xmlns:xlink="http://www.w3.org/1999/xlink" width="187" height="187" viewBox="0 0 187 187">
  <defs>
    <clipPath id="clip-path">
      <rect id="Rechteck_31" data-name="Rechteck 31" width="187" height="187" fill="none"/>
    </clipPath>
  </defs>
  <rect id="Rechteck_30" data-name="Rechteck 30" width="187" height="187" fill="#fff" opacity="0"/>
  <path id="Pfad_1063" data-name="Pfad 1063" d="M6.612-21.657V14.092H.882v1.037h20.63V14.092H17.255V-23.676H12.834L.5-21.984l.109,1.092ZM54.75-6.32c0-12.225-5.785-17.356-15.173-17.356-8.3,0-15.445,3.711-15.445,12.989,0,7.532,4.857,11.843,11.243,11.843C39.8,1.157,42.361-.7,44-3.264c-.109,13.481-2.292,17.847-7.041,17.847-3.275,0-4.639-1.746-4.639-3.438A5.653,5.653,0,0,1,32.7,9.18h1.637a6.889,6.889,0,0,0,.437-2.511c0-2.565-1.91-4.257-4.639-4.257-3.329,0-5.021,2.729-5.021,5.4,0,4.585,4.475,7.859,12.225,7.859C48.146,15.674,54.75,7.924,54.75-6.32Zm-11.243.71c-.71,2.674-2.4,4.967-4.912,4.967-3.6,0-3.766-3.056-3.766-10.7,0-6.658.218-11.188,4.8-11.188,4.2,0,4.257,4.2,4.257,11.57A21.858,21.858,0,0,1,43.507-5.611Z" transform="translate(66.322 93.116)" fill="#393939"/>
  <g id="Gruppe_228" data-name="Gruppe 228">
    <g id="Gruppe_227" data-name="Gruppe 227" clip-path="url(#clip-path)">
      <g id="Gruppe_226" data-name="Gruppe 226" transform="translate(-6.12 -11.406)">
        <g id="Gruppe_138" data-name="Gruppe 138" transform="translate(0 56.567)">
          <path id="Pfad_693" data-name="Pfad 693" d="M346.328,358a26.8,26.8,0,0,1-10.962-12.432,41.575,41.575,0,0,1,15.22,5.6.608.608,0,0,0,.644-1.03l-.007,0a42.922,42.922,0,0,0-19.69-6.223,19.523,19.523,0,0,1,17.244-4.924.607.607,0,1,0,.252-1.187,20.683,20.683,0,0,0-13.723,1.959,16.59,16.59,0,0,1,3.564-11.565.607.607,0,1,0-.942-.765,17.579,17.579,0,0,0-3.795,12.988,19.837,19.837,0,0,0-4.232,3.422,40.932,40.932,0,0,0-12.287,1.53,22.72,22.72,0,0,1,7.969-11.777.607.607,0,1,0-.735-.965,23.935,23.935,0,0,0-8.613,13.156,42.855,42.855,0,0,0-15.843,8.958.607.607,0,0,0-.047.858.667.667,0,0,0,.127.108.6.6,0,0,0,.731-.063,41.539,41.539,0,0,1,12.871-7.822,21.352,21.352,0,0,0,7.579,8.281,20.98,20.98,0,0,0,7.514,2.954.608.608,0,0,0,.215-1.2,20.231,20.231,0,0,1-14.175-10.482,40.237,40.237,0,0,1,18.75-2,27.96,27.96,0,0,0,10.93,13.158c.271.172.547.341.825.5a.608.608,0,0,0,.83-.218A.625.625,0,0,0,346.328,358Z" transform="translate(-300.191 -324.138)" fill="#e0ca9f"/>
          <g id="Gruppe_127" data-name="Gruppe 127" transform="translate(21.378 4.618)">
            <path id="Pfad_694" data-name="Pfad 694" d="M316.138,332.942a3.267,3.267,0,1,1-1.008-4.508A3.268,3.268,0,0,1,316.138,332.942Z" transform="translate(-310.111 -327.924)" fill="#be9a49"/>
            <g id="Gruppe_126" data-name="Gruppe 126" transform="translate(0.702 0.54)">
              <path id="Pfad_695" data-name="Pfad 695" d="M313.8,328.666a.4.4,0,0,0-.334-.457,2.8,2.8,0,0,0-2.97,1.567.4.4,0,0,0,.147.509l.043.024a.4.4,0,0,0,.532-.19A2.008,2.008,0,0,1,313.342,329,.4.4,0,0,0,313.8,328.666Z" transform="translate(-310.412 -328.175)" fill="#e0ca9f"/>
              <path id="Pfad_696" data-name="Pfad 696" d="M311.228,329.653a.4.4,0,0,0-.78.174l.058.259a.4.4,0,1,0,.78-.175Z" transform="translate(-310.437 -326.828)" fill="#e0ca9f"/>
            </g>
          </g>
          <g id="Gruppe_129" data-name="Gruppe 129" transform="translate(35.068)">
            <path id="Pfad_697" data-name="Pfad 697" d="M322.491,330.8a3.267,3.267,0,1,1-1.008-4.508A3.268,3.268,0,0,1,322.491,330.8Z" transform="translate(-316.464 -325.781)" fill="#be9a49"/>
            <g id="Gruppe_128" data-name="Gruppe 128" transform="translate(0.702 0.541)">
              <path id="Pfad_698" data-name="Pfad 698" d="M320.154,326.523a.4.4,0,0,0-.334-.457,2.808,2.808,0,0,0-2.97,1.567.4.4,0,0,0,.147.509l.043.024a.4.4,0,0,0,.532-.19,2.008,2.008,0,0,1,2.123-1.118A.4.4,0,0,0,320.154,326.523Z" transform="translate(-316.765 -326.033)" fill="#e0ca9f"/>
              <path id="Pfad_699" data-name="Pfad 699" d="M317.581,327.51a.4.4,0,0,0-.78.175l.056.261a.41.41,0,0,0,.177.25.4.4,0,0,0,.605-.427Z" transform="translate(-316.79 -324.686)" fill="#e0ca9f"/>
            </g>
          </g>
          <g id="Gruppe_131" data-name="Gruppe 131" transform="translate(44.934 10.661)">
            <path id="Pfad_700" data-name="Pfad 700" d="M324.187,337.261a3.267,3.267,0,1,1,3.388-3.14A3.268,3.268,0,0,1,324.187,337.261Z" transform="translate(-321.043 -330.729)" fill="#be9a49"/>
            <g id="Gruppe_130" data-name="Gruppe 130" transform="translate(1.422 0.548)">
              <path id="Pfad_701" data-name="Pfad 701" d="M325.249,333.288a.4.4,0,0,0,.228-.517,2.807,2.807,0,0,0-2.849-1.778.4.4,0,0,0-.366.384.346.346,0,0,0,0,.047.4.4,0,0,0,.431.366,2.005,2.005,0,0,1,2.036,1.269A.4.4,0,0,0,325.249,333.288Z" transform="translate(-321.057 -330.983)" fill="#e0ca9f"/>
              <path id="Pfad_702" data-name="Pfad 702" d="M322.569,331.927a.4.4,0,0,0-.543-.586l-.194.181a.392.392,0,0,0-.129.278.408.408,0,0,0,.108.287.4.4,0,0,0,.565.022Z" transform="translate(-321.703 -330.693)" fill="#e0ca9f"/>
            </g>
          </g>
          <g id="Gruppe_133" data-name="Gruppe 133" transform="translate(47.464 22.259)">
            <path id="Pfad_703" data-name="Pfad 703" d="M325.359,342.643a3.267,3.267,0,1,1,3.39-3.14A3.265,3.265,0,0,1,325.359,342.643Z" transform="translate(-322.217 -336.111)" fill="#be9a49"/>
            <g id="Gruppe_132" data-name="Gruppe 132" transform="translate(1.422 0.548)">
              <path id="Pfad_704" data-name="Pfad 704" d="M326.423,338.67a.4.4,0,0,0,.228-.517,2.807,2.807,0,0,0-2.849-1.778.4.4,0,0,0-.366.384v.047a.4.4,0,0,0,.433.366,2,2,0,0,1,2.034,1.269A.4.4,0,0,0,326.423,338.67Z" transform="translate(-322.231 -336.365)" fill="#e0ca9f"/>
              <path id="Pfad_705" data-name="Pfad 705" d="M323.743,337.309a.4.4,0,1,0-.543-.586l-.2.181a.4.4,0,0,0-.127.278.406.406,0,0,0,.106.287.4.4,0,0,0,.567.022Z" transform="translate(-322.877 -336.075)" fill="#e0ca9f"/>
            </g>
          </g>
          <g id="Gruppe_135" data-name="Gruppe 135" transform="translate(42.339 30.336)">
            <path id="Pfad_706" data-name="Pfad 706" d="M320.727,345.365a3.267,3.267,0,1,1,4.618.14A3.268,3.268,0,0,1,320.727,345.365Z" transform="translate(-319.839 -339.859)" fill="#be9a49"/>
            <g id="Gruppe_134" data-name="Gruppe 134" transform="translate(2.957 0.716)">
              <path id="Pfad_707" data-name="Pfad 707" d="M322.754,343.914a.4.4,0,0,0,.526-.209,2.806,2.806,0,0,0-.782-3.265.4.4,0,0,0-.53.015l-.032.037a.4.4,0,0,0,.052.562,2.008,2.008,0,0,1,.558,2.334A.4.4,0,0,0,322.754,343.914Z" transform="translate(-320.482 -340.011)" fill="#e0ca9f"/>
              <path id="Pfad_708" data-name="Pfad 708" d="M321.864,341a.4.4,0,1,0,.026-.8l-.265-.007a.387.387,0,0,0-.287.108.4.4,0,0,0-.127.278.4.4,0,0,0,.388.414Z" transform="translate(-321.211 -340.191)" fill="#e0ca9f"/>
            </g>
          </g>
          <g id="Gruppe_137" data-name="Gruppe 137" transform="translate(25.916 31.622)">
            <path id="Pfad_709" data-name="Pfad 709" d="M313.106,345.962a3.267,3.267,0,1,1,4.618.14A3.268,3.268,0,0,1,313.106,345.962Z" transform="translate(-312.218 -340.456)" fill="#be9a49"/>
            <g id="Gruppe_136" data-name="Gruppe 136" transform="translate(2.957 0.716)">
              <path id="Pfad_710" data-name="Pfad 710" d="M315.133,344.51a.4.4,0,0,0,.526-.209,2.806,2.806,0,0,0-.782-3.265.4.4,0,0,0-.53.015l-.032.037a.4.4,0,0,0,.052.562,2.01,2.01,0,0,1,.558,2.334A.4.4,0,0,0,315.133,344.51Z" transform="translate(-312.861 -340.608)" fill="#e0ca9f"/>
              <path id="Pfad_711" data-name="Pfad 711" d="M314.243,341.6a.4.4,0,0,0,.026-.8l-.267-.006a.394.394,0,0,0-.284.108.4.4,0,0,0,.261.692Z" transform="translate(-313.59 -340.788)" fill="#e0ca9f"/>
            </g>
          </g>
        </g>
        <g id="Gruppe_164" data-name="Gruppe 164" transform="translate(146.734 108.914)">
          <path id="Pfad_731" data-name="Pfad 731" d="M382.234,351.845a26.8,26.8,0,0,1,3.066,16.289,41.575,41.575,0,0,1-10.216-12.6.607.607,0,0,0-1.079.556l0,.009a42.934,42.934,0,0,0,13.744,15.412,19.537,19.537,0,0,1-17.341-4.581.607.607,0,1,0-.823.892,20.69,20.69,0,0,0,12.8,5.331,16.591,16.591,0,0,1-8.975,8.118.607.607,0,1,0,.42,1.14,17.592,17.592,0,0,0,9.9-9.225,19.848,19.848,0,0,0,5.385-.778,40.8,40.8,0,0,0,11.343,4.965,22.729,22.729,0,0,1-12.869,6.049.607.607,0,0,0,.138,1.207,23.944,23.944,0,0,0,14.128-6.907,42.858,42.858,0,0,0,18.2.4.609.609,0,0,0,.478-.715.628.628,0,0,0-.054-.155.609.609,0,0,0-.659-.321,41.5,41.5,0,0,1-15.063.144,21.364,21.364,0,0,0-2.28-10.99,20.971,20.971,0,0,0-4.95-6.381.608.608,0,1,0-.8.92,20.22,20.22,0,0,1,6.825,16.252,40.28,40.28,0,0,1-17.136-7.87,27.94,27.94,0,0,0-2.668-16.892c-.144-.289-.3-.573-.453-.855a.6.6,0,0,0-.823-.239A.622.622,0,0,0,382.234,351.845Z" transform="translate(-367.004 -349.068)" fill="#e0ca9f"/>
          <g id="Gruppe_153" data-name="Gruppe 153" transform="translate(17.159 32.817)">
            <path id="Pfad_732" data-name="Pfad 732" d="M378.039,365.655a3.267,3.267,0,1,1-1.44,4.392A3.266,3.266,0,0,1,378.039,365.655Z" transform="translate(-376.246 -365.302)" fill="#be9a49"/>
            <g id="Gruppe_152" data-name="Gruppe 152" transform="translate(1.325 3.563)">
              <path id="Pfad_733" data-name="Pfad 733" d="M376.953,367.592a.4.4,0,0,0,.052.565,2.8,2.8,0,0,0,3.353.17.4.4,0,0,0,.136-.513l-.026-.041a.4.4,0,0,0-.554-.11,2.006,2.006,0,0,1-2.4-.123A.4.4,0,0,0,376.953,367.592Z" transform="translate(-376.861 -366.387)" fill="#e0ca9f"/>
              <path id="Pfad_734" data-name="Pfad 734" d="M378.5,367.484a.4.4,0,1,0,.761.248l.082-.252a.4.4,0,0,0-.257-.5.4.4,0,0,0-.5.256Z" transform="translate(-374.986 -366.956)" fill="#e0ca9f"/>
            </g>
          </g>
          <g id="Gruppe_155" data-name="Gruppe 155" transform="translate(3.032 29.789)">
            <path id="Pfad_735" data-name="Pfad 735" d="M371.483,364.25a3.267,3.267,0,1,1-1.439,4.392A3.269,3.269,0,0,1,371.483,364.25Z" transform="translate(-369.69 -363.897)" fill="#be9a49"/>
            <g id="Gruppe_154" data-name="Gruppe 154" transform="translate(1.326 3.563)">
              <path id="Pfad_736" data-name="Pfad 736" d="M370.4,366.188a.4.4,0,0,0,.054.565,2.8,2.8,0,0,0,3.353.17.4.4,0,0,0,.134-.513l-.026-.041a.4.4,0,0,0-.554-.11,2.006,2.006,0,0,1-2.4-.123A.4.4,0,0,0,370.4,366.188Z" transform="translate(-370.306 -364.982)" fill="#e0ca9f"/>
              <path id="Pfad_737" data-name="Pfad 737" d="M371.949,366.077a.4.4,0,1,0,.761.25l.082-.252a.4.4,0,0,0-.254-.5.4.4,0,0,0-.5.254Z" transform="translate(-368.431 -365.551)" fill="#e0ca9f"/>
            </g>
          </g>
          <g id="Gruppe_157" data-name="Gruppe 157" transform="translate(0 15.582)">
            <path id="Pfad_738" data-name="Pfad 738" d="M373.327,357.829a3.268,3.268,0,1,1-4.519.968A3.268,3.268,0,0,1,373.327,357.829Z" transform="translate(-368.283 -357.304)" fill="#be9a49"/>
            <g id="Gruppe_156" data-name="Gruppe 156" transform="translate(0.541 2.42)">
              <path id="Pfad_739" data-name="Pfad 739" d="M369.033,358.433a.4.4,0,0,0-.461.328,2.8,2.8,0,0,0,1.541,2.985.4.4,0,0,0,.511-.142l.024-.043a.4.4,0,0,0-.185-.534,2,2,0,0,1-1.1-2.133A.4.4,0,0,0,369.033,358.433Z" transform="translate(-368.534 -358.427)" fill="#e0ca9f"/>
              <path id="Pfad_740" data-name="Pfad 740" d="M370.008,359.679a.4.4,0,1,0,.168.782l.259-.054a.4.4,0,0,0,.252-.175.4.4,0,0,0-.418-.608Z" transform="translate(-367.199 -357.055)" fill="#e0ca9f"/>
            </g>
          </g>
          <g id="Gruppe_159" data-name="Gruppe 159" transform="translate(3.754 4.321)">
            <path id="Pfad_741" data-name="Pfad 741" d="M375.069,352.605a3.267,3.267,0,1,1-4.519.965A3.266,3.266,0,0,1,375.069,352.605Z" transform="translate(-370.025 -352.079)" fill="#be9a49"/>
            <g id="Gruppe_158" data-name="Gruppe 158" transform="translate(0.541 2.419)">
              <path id="Pfad_742" data-name="Pfad 742" d="M370.775,353.207a.4.4,0,0,0-.461.327,2.812,2.812,0,0,0,1.541,2.985.4.4,0,0,0,.511-.142l.024-.043a.4.4,0,0,0-.185-.534,2,2,0,0,1-1.1-2.131A.4.4,0,0,0,370.775,353.207Z" transform="translate(-370.276 -353.201)" fill="#e0ca9f"/>
              <path id="Pfad_743" data-name="Pfad 743" d="M371.749,354.453a.4.4,0,0,0,.168.782l.259-.054a.4.4,0,0,0,.252-.175.4.4,0,0,0-.418-.608Z" transform="translate(-368.94 -351.829)" fill="#e0ca9f"/>
            </g>
          </g>
          <g id="Gruppe_161" data-name="Gruppe 161" transform="translate(12.287)">
            <path id="Pfad_744" data-name="Pfad 744" d="M380.443,352.633a3.267,3.267,0,1,1-3.9-2.48A3.268,3.268,0,0,1,380.443,352.633Z" transform="translate(-373.985 -350.073)" fill="#be9a49"/>
            <g id="Gruppe_160" data-name="Gruppe 160" transform="translate(0.557 0.939)">
              <path id="Pfad_745" data-name="Pfad 745" d="M375.957,350.673a.4.4,0,0,0-.558-.088,2.809,2.809,0,0,0-1,3.207.4.4,0,0,0,.463.256l.047-.013a.4.4,0,0,0,.243-.511,2,2,0,0,1,.711-2.291A.4.4,0,0,0,375.957,350.673Z" transform="translate(-374.244 -350.509)" fill="#e0ca9f"/>
              <path id="Pfad_746" data-name="Pfad 746" d="M375.281,352.238a.4.4,0,1,0-.431.674l.224.142a.4.4,0,0,0,.3.054.41.41,0,0,0,.252-.177.4.4,0,0,0-.123-.552Z" transform="translate(-373.757 -348.585)" fill="#e0ca9f"/>
            </g>
          </g>
          <g id="Gruppe_163" data-name="Gruppe 163" transform="translate(27.06 7.288)">
            <path id="Pfad_747" data-name="Pfad 747" d="M387.3,356.014a3.268,3.268,0,1,1-3.9-2.48A3.269,3.269,0,0,1,387.3,356.014Z" transform="translate(-380.841 -353.455)" fill="#be9a49"/>
            <g id="Gruppe_162" data-name="Gruppe 162" transform="translate(0.557 0.939)">
              <path id="Pfad_748" data-name="Pfad 748" d="M382.814,354.055a.4.4,0,0,0-.558-.088,2.8,2.8,0,0,0-1,3.207.4.4,0,0,0,.463.256l.047-.013a.4.4,0,0,0,.241-.511,2,2,0,0,1,.713-2.291A.4.4,0,0,0,382.814,354.055Z" transform="translate(-381.099 -353.891)" fill="#e0ca9f"/>
              <path id="Pfad_749" data-name="Pfad 749" d="M382.135,355.62a.4.4,0,1,0-.429.674l.224.142a.4.4,0,0,0,.3.054.405.405,0,0,0,.25-.177.4.4,0,0,0-.123-.552Z" transform="translate(-380.612 -351.967)" fill="#e0ca9f"/>
            </g>
          </g>
        </g>
        <g id="Gruppe_177" data-name="Gruppe 177" transform="translate(69.693 152.268)">
          <path id="Pfad_750" data-name="Pfad 750" d="M370.364,380a26.789,26.789,0,0,1-15.074,6.891,41.559,41.559,0,0,1,9.775-12.945.608.608,0,0,0-.8-.916l-.006.007a42.911,42.911,0,0,0-11.66,17.043,19.531,19.531,0,0,1,.282-17.933.608.608,0,0,0-1.065-.586,20.687,20.687,0,0,0-2.1,13.7,16.6,16.6,0,0,1-10.038-6.762.607.607,0,1,0-1,.681,17.591,17.591,0,0,0,11.333,7.4,19.779,19.779,0,0,0,2.049,5.04,40.859,40.859,0,0,0-2.1,12.2A22.722,22.722,0,0,1,341,392.781a.608.608,0,0,0-1.14.422,23.949,23.949,0,0,0,10.1,12.055,42.862,42.862,0,0,0,3.984,17.761.607.607,0,1,0,1.1-.515,41.537,41.537,0,0,1-3.758-14.587,21.365,21.365,0,0,0,10.122-4.853,20.975,20.975,0,0,0,5-6.338.607.607,0,0,0-1.082-.552A20.224,20.224,0,0,1,351.188,406.7a40.211,40.211,0,0,1,3.523-18.524,27.957,27.957,0,0,0,15.757-6.648c.243-.211.485-.427.722-.644a.609.609,0,0,0,.034-.858A.626.626,0,0,0,370.364,380Z" transform="translate(-335.56 -368.978)" fill="#e0ca9f"/>
          <g id="Gruppe_166" data-name="Gruppe 166" transform="translate(0.453 20.797)">
            <path id="Pfad_751" data-name="Pfad 751" d="M343.126,380.977a3.267,3.267,0,1,1-4.607-.341A3.267,3.267,0,0,1,343.126,380.977Z" transform="translate(-337.383 -379.843)" fill="#be9a49"/>
            <g id="Gruppe_165" data-name="Gruppe 165" transform="translate(0.553 1.792)">
              <path id="Pfad_752" data-name="Pfad 752" d="M338.453,380.714a.4.4,0,0,0-.534.185,2.8,2.8,0,0,0,.64,3.3.4.4,0,0,0,.53.007l.034-.035a.4.4,0,0,0-.028-.565,2,2,0,0,1-.455-2.355A.4.4,0,0,0,338.453,380.714Z" transform="translate(-337.64 -380.674)" fill="#e0ca9f"/>
              <path id="Pfad_753" data-name="Pfad 753" d="M338.933,382.162a.4.4,0,0,0-.058.8l.265.019a.4.4,0,1,0,.058-.8Z" transform="translate(-336.64 -378.958)" fill="#e0ca9f"/>
            </g>
          </g>
          <g id="Gruppe_168" data-name="Gruppe 168" transform="translate(0 6.357)">
            <path id="Pfad_754" data-name="Pfad 754" d="M342.914,374.275a3.267,3.267,0,1,1-4.607-.34A3.266,3.266,0,0,1,342.914,374.275Z" transform="translate(-337.173 -373.142)" fill="#be9a49"/>
            <g id="Gruppe_167" data-name="Gruppe 167" transform="translate(0.552 1.792)">
              <path id="Pfad_755" data-name="Pfad 755" d="M338.241,374.013a.4.4,0,0,0-.534.185,2.812,2.812,0,0,0,.64,3.3.4.4,0,0,0,.53.006l.034-.034a.4.4,0,0,0-.026-.565,2,2,0,0,1-.457-2.355A.4.4,0,0,0,338.241,374.013Z" transform="translate(-337.429 -373.973)" fill="#e0ca9f"/>
              <path id="Pfad_756" data-name="Pfad 756" d="M338.724,375.461a.4.4,0,1,0-.06.8l.265.019a.39.39,0,0,0,.291-.1.4.4,0,0,0-.231-.7Z" transform="translate(-336.429 -372.257)" fill="#e0ca9f"/>
            </g>
          </g>
          <g id="Gruppe_170" data-name="Gruppe 170" transform="translate(13.061)">
            <path id="Pfad_757" data-name="Pfad 757" d="M349.591,374.526a3.267,3.267,0,1,1-2.023-4.155A3.267,3.267,0,0,1,349.591,374.526Z" transform="translate(-343.234 -370.192)" fill="#be9a49"/>
            <g id="Gruppe_169" data-name="Gruppe 169" transform="translate(0.586 0.534)">
              <path id="Pfad_758" data-name="Pfad 758" d="M346.471,370.809a.4.4,0,0,0-.429-.368,2.8,2.8,0,0,0-2.528,2.211.4.4,0,0,0,.261.461l.047.013a.4.4,0,0,0,.474-.306,2.007,2.007,0,0,1,1.806-1.582A.4.4,0,0,0,346.471,370.809Z" transform="translate(-343.506 -370.44)" fill="#e0ca9f"/>
              <path id="Pfad_759" data-name="Pfad 759" d="M344.368,372.065a.4.4,0,1,0-.72.349l.116.239a.4.4,0,0,0,.534.183.4.4,0,0,0,.183-.534Z" transform="translate(-343.389 -368.823)" fill="#e0ca9f"/>
            </g>
          </g>
          <g id="Gruppe_172" data-name="Gruppe 172" transform="translate(24.894 0.94)">
            <path id="Pfad_760" data-name="Pfad 760" d="M355.082,374.962a3.268,3.268,0,1,1-2.023-4.155A3.269,3.269,0,0,1,355.082,374.962Z" transform="translate(-348.725 -370.628)" fill="#be9a49"/>
            <g id="Gruppe_171" data-name="Gruppe 171" transform="translate(0.586 0.534)">
              <path id="Pfad_761" data-name="Pfad 761" d="M351.962,371.245a.4.4,0,0,0-.429-.368,2.8,2.8,0,0,0-2.528,2.211.4.4,0,0,0,.261.461l.047.013a.4.4,0,0,0,.474-.306,2.016,2.016,0,0,1,.642-1.093,2.043,2.043,0,0,1,1.164-.489A.4.4,0,0,0,351.962,371.245Z" transform="translate(-348.997 -370.876)" fill="#e0ca9f"/>
              <path id="Pfad_762" data-name="Pfad 762" d="M349.859,372.5a.4.4,0,1,0-.72.349l.116.239a.4.4,0,0,0,.228.2.39.39,0,0,0,.306-.019.4.4,0,0,0,.185-.534Z" transform="translate(-348.88 -369.259)" fill="#e0ca9f"/>
            </g>
          </g>
          <g id="Gruppe_174" data-name="Gruppe 174" transform="translate(31.139 8.185)">
            <path id="Pfad_763" data-name="Pfad 763" d="M356.344,380.183a3.267,3.267,0,1,1,1.472-4.379A3.266,3.266,0,0,1,356.344,380.183Z" transform="translate(-351.623 -373.99)" fill="#be9a49"/>
            <g id="Gruppe_173" data-name="Gruppe 173" transform="translate(0.835 0.557)">
              <path id="Pfad_764" data-name="Pfad 764" d="M355.921,375.471a.4.4,0,0,0-.047-.562,2.807,2.807,0,0,0-3.351-.2.4.4,0,0,0-.138.513l.024.043a.4.4,0,0,0,.554.112,2.042,2.042,0,0,1,1.222-.328,2.02,2.02,0,0,1,1.174.47A.4.4,0,0,0,355.921,375.471Z" transform="translate(-351.628 -374.249)" fill="#e0ca9f"/>
              <path id="Pfad_765" data-name="Pfad 765" d="M352.874,375.4a.4.4,0,0,0-.759-.254l-.084.252a.4.4,0,0,0,.759.254Z" transform="translate(-352.011 -373.526)" fill="#e0ca9f"/>
            </g>
          </g>
          <g id="Gruppe_176" data-name="Gruppe 176" transform="translate(27.614 24.276)">
            <path id="Pfad_766" data-name="Pfad 766" d="M354.708,387.652a3.268,3.268,0,1,1,1.472-4.381A3.266,3.266,0,0,1,354.708,387.652Z" transform="translate(-349.987 -381.457)" fill="#be9a49"/>
            <g id="Gruppe_175" data-name="Gruppe 175" transform="translate(0.833 0.558)">
              <path id="Pfad_767" data-name="Pfad 767" d="M354.286,382.94a.4.4,0,0,0-.047-.565,2.8,2.8,0,0,0-3.351-.2.4.4,0,0,0-.14.511l.026.043a.4.4,0,0,0,.554.114,2.01,2.01,0,0,1,1.222-.328,2.031,2.031,0,0,1,1.174.468A.4.4,0,0,0,354.286,382.94Z" transform="translate(-349.99 -381.716)" fill="#e0ca9f"/>
              <path id="Pfad_768" data-name="Pfad 768" d="M351.238,382.868a.4.4,0,0,0-.759-.254l-.084.252a.387.387,0,0,0,.022.306.4.4,0,0,0,.231.2.4.4,0,0,0,.506-.252Z" transform="translate(-350.374 -380.993)" fill="#e0ca9f"/>
            </g>
          </g>
        </g>
        <g id="Gruppe_190" data-name="Gruppe 190" transform="translate(88.902)">
          <path id="Pfad_769" data-name="Pfad 769" d="M373.469,345.721A26.789,26.789,0,0,0,361.3,334.473a41.578,41.578,0,0,0,5.247,15.347.607.607,0,0,1-1.045.618l0-.007a42.931,42.931,0,0,1-5.76-19.83,19.531,19.531,0,0,0-5.327,17.125.607.607,0,0,1-1.194.224,20.683,20.683,0,0,1,2.28-13.675,16.6,16.6,0,0,0-11.647,3.295.607.607,0,0,1-.741-.961,17.586,17.586,0,0,1,13.074-3.491,19.871,19.871,0,0,1,3.519-4.15,41,41,0,0,1,1.817-12.249,22.718,22.718,0,0,0-11.958,7.693.608.608,0,0,1-.95-.759,23.935,23.935,0,0,1,13.356-8.3,42.822,42.822,0,0,1,9.327-15.63.606.606,0,0,1,.858-.026.594.594,0,0,1,.1.129.606.606,0,0,1-.078.728,41.487,41.487,0,0,0-8.122,12.686,21.359,21.359,0,0,1,8.1,7.768,20.944,20.944,0,0,1,2.778,7.583.607.607,0,1,1-1.2.185,20.231,20.231,0,0,0-10.148-14.414,40.277,40.277,0,0,0-2.433,18.7,27.973,27.973,0,0,1,12.9,11.234q.249.414.485.836a.608.608,0,0,1-.237.825A.623.623,0,0,1,373.469,345.721Z" transform="translate(-339.801 -299.531)" fill="#e0ca9f"/>
          <g id="Gruppe_179" data-name="Gruppe 179" transform="translate(4.937 20.829)">
            <circle id="Ellipse_1" data-name="Ellipse 1" cx="3.267" cy="3.267" r="3.267" fill="#be9a49"/>
            <g id="Gruppe_178" data-name="Gruppe 178" transform="translate(0.539 0.707)">
              <path id="Pfad_770" data-name="Pfad 770" d="M344.46,312.845a.4.4,0,0,1-.448-.343,2.8,2.8,0,0,1,1.636-2.933.4.4,0,0,1,.5.159l.024.043a.4.4,0,0,1-.2.528,2,2,0,0,0-1.168,2.1A.4.4,0,0,1,344.46,312.845Z" transform="translate(-343.988 -309.515)" fill="#e0ca9f"/>
              <path id="Pfad_771" data-name="Pfad 771" d="M345.48,310.313a.4.4,0,1,1,.194-.776l.256.062a.4.4,0,0,1,.293.485.4.4,0,0,1-.485.293Z" transform="translate(-342.614 -309.525)" fill="#e0ca9f"/>
            </g>
          </g>
          <g id="Gruppe_181" data-name="Gruppe 181" transform="translate(0 34.407)">
            <path id="Pfad_772" data-name="Pfad 772" d="M346.4,321.566a3.268,3.268,0,1,0-4.484-1.114A3.271,3.271,0,0,0,346.4,321.566Z" transform="translate(-341.446 -315.498)" fill="#be9a49"/>
            <g id="Gruppe_180" data-name="Gruppe 180" transform="translate(0.539 0.707)">
              <path id="Pfad_773" data-name="Pfad 773" d="M342.169,319.146a.4.4,0,0,1-.448-.343,2.8,2.8,0,0,1,1.636-2.933.4.4,0,0,1,.5.159l.024.043a.4.4,0,0,1-.2.528,2,2,0,0,0-1.168,2.1A.4.4,0,0,1,342.169,319.146Z" transform="translate(-341.697 -315.816)" fill="#e0ca9f"/>
              <path id="Pfad_774" data-name="Pfad 774" d="M343.192,316.614a.4.4,0,1,1,.192-.776l.256.065a.4.4,0,0,1,.248.181.406.406,0,0,1,.045.3.4.4,0,0,1-.485.293Z" transform="translate(-340.323 -315.826)" fill="#e0ca9f"/>
            </g>
          </g>
          <g id="Gruppe_183" data-name="Gruppe 183" transform="translate(10.429 44.522)">
            <path id="Pfad_775" data-name="Pfad 775" d="M352.82,323.41a3.267,3.267,0,1,0-3.219,3.316A3.267,3.267,0,0,0,352.82,323.41Z" transform="translate(-346.286 -320.192)" fill="#be9a49"/>
            <g id="Gruppe_182" data-name="Gruppe 182" transform="translate(0.548 1.386)">
              <path id="Pfad_776" data-name="Pfad 776" d="M348.79,324.416a.4.4,0,0,1-.524.215,2.809,2.809,0,0,1-1.711-2.89.4.4,0,0,1,.392-.356.2.2,0,0,1,.05,0,.4.4,0,0,1,.355.44,2.007,2.007,0,0,0,.267,1.237,2.03,2.03,0,0,0,.955.828A.4.4,0,0,1,348.79,324.416Z" transform="translate(-346.54 -320.199)" fill="#e0ca9f"/>
              <path id="Pfad_777" data-name="Pfad 777" d="M347.491,321.7a.4.4,0,1,1-.573-.558l.185-.19a.4.4,0,0,1,.565-.009.4.4,0,0,1,.009.567Z" transform="translate(-346.234 -320.835)" fill="#e0ca9f"/>
            </g>
          </g>
          <g id="Gruppe_185" data-name="Gruppe 185" transform="translate(21.964 47.321)">
            <path id="Pfad_778" data-name="Pfad 778" d="M358.173,324.711a3.267,3.267,0,1,0-3.219,3.314A3.268,3.268,0,0,0,358.173,324.711Z" transform="translate(-351.639 -321.491)" fill="#be9a49"/>
            <g id="Gruppe_184" data-name="Gruppe 184" transform="translate(0.549 1.386)">
              <path id="Pfad_779" data-name="Pfad 779" d="M354.142,325.715a.4.4,0,0,1-.524.215,2.8,2.8,0,0,1-1.709-2.89.4.4,0,0,1,.39-.356.191.191,0,0,1,.05,0,.4.4,0,0,1,.355.44,2,2,0,0,0,1.222,2.064A.4.4,0,0,1,354.142,325.715Z" transform="translate(-351.894 -321.498)" fill="#e0ca9f"/>
              <path id="Pfad_780" data-name="Pfad 780" d="M352.845,323a.4.4,0,0,1-.575-.558l.185-.19a.391.391,0,0,1,.28-.121.4.4,0,0,1,.287.112.4.4,0,0,1,.007.567Z" transform="translate(-351.588 -322.134)" fill="#e0ca9f"/>
            </g>
          </g>
          <g id="Gruppe_187" data-name="Gruppe 187" transform="translate(30.156 42.385)">
            <path id="Pfad_781" data-name="Pfad 781" d="M361,320.141a3.268,3.268,0,1,0,.03,4.622A3.27,3.27,0,0,0,361,320.141Z" transform="translate(-355.44 -319.2)" fill="#be9a49"/>
            <g id="Gruppe_186" data-name="Gruppe 186" transform="translate(0.714 2.908)">
              <path id="Pfad_782" data-name="Pfad 782" d="M359.467,322.171a.4.4,0,0,1-.222.521,2.8,2.8,0,0,1-3.245-.86.4.4,0,0,1,.028-.53l.037-.032a.4.4,0,0,1,.562.065,2,2,0,0,0,2.321.614A.4.4,0,0,1,359.467,322.171Z" transform="translate(-355.609 -319.818)" fill="#e0ca9f"/>
              <path id="Pfad_783" data-name="Pfad 783" d="M356.574,321.214a.4.4,0,1,1-.8,0l0-.265a.4.4,0,0,1,.114-.284.416.416,0,0,1,.282-.119.4.4,0,0,1,.4.4Z" transform="translate(-355.772 -320.55)" fill="#e0ca9f"/>
            </g>
          </g>
          <g id="Gruppe_189" data-name="Gruppe 189" transform="translate(31.827 25.997)">
            <path id="Pfad_784" data-name="Pfad 784" d="M361.778,312.536a3.268,3.268,0,1,0,.03,4.622A3.267,3.267,0,0,0,361.778,312.536Z" transform="translate(-356.216 -311.595)" fill="#be9a49"/>
            <g id="Gruppe_188" data-name="Gruppe 188" transform="translate(0.713 2.908)">
              <path id="Pfad_785" data-name="Pfad 785" d="M360.243,314.566a.405.405,0,0,1-.222.521,2.8,2.8,0,0,1-3.247-.86.4.4,0,0,1,.03-.528l.037-.034a.4.4,0,0,1,.56.065,2,2,0,0,0,2.321.614A.4.4,0,0,1,360.243,314.566Z" transform="translate(-356.384 -312.213)" fill="#e0ca9f"/>
              <path id="Pfad_786" data-name="Pfad 786" d="M357.349,313.609a.4.4,0,1,1-.8,0l0-.265a.4.4,0,0,1,.4-.4.4.4,0,0,1,.4.4Z" transform="translate(-356.547 -312.945)" fill="#e0ca9f"/>
            </g>
          </g>
        </g>
        <g id="Gruppe_197" data-name="Gruppe 197" transform="translate(2.744 117.639)">
          <path id="Pfad_787" data-name="Pfad 787" d="M339.584,371.942a.612.612,0,0,0-1.1-.541,16.556,16.556,0,0,1-18.767,8.788,62.132,62.132,0,0,0,13.2-23.609.612.612,0,0,0-1.174-.343,59.83,59.83,0,0,1-8.294,17.218,20.665,20.665,0,0,1-1.34-16.91.611.611,0,1,0-1.149-.416,21.913,21.913,0,0,0,1.7,18.45,61.013,61.013,0,0,1-20.87,18.218.61.61,0,0,0-.256.823.644.644,0,0,0,.151.187.611.611,0,0,0,.672.071,61.346,61.346,0,0,0,16.425-12.66,17.809,17.809,0,0,0,20.8-9.277Z" transform="translate(-301.464 -352.27)" fill="#e0ca9f"/>
          <g id="Gruppe_192" data-name="Gruppe 192" transform="translate(17.034 0.483)">
            <path id="Pfad_788" data-name="Pfad 788" d="M315.183,359.733a3.286,3.286,0,1,1-.427-4.627A3.285,3.285,0,0,1,315.183,359.733Z" transform="translate(-309.369 -354.346)" fill="#be9a49"/>
            <g id="Gruppe_191" data-name="Gruppe 191" transform="translate(0.7 0.55)">
              <path id="Pfad_789" data-name="Pfad 789" d="M313.286,355.212a.4.4,0,0,0-.274-.5,2.822,2.822,0,0,0-3.166,1.181.4.4,0,0,0,.082.528l.041.028a.4.4,0,0,0,.554-.121,2.022,2.022,0,0,1,2.263-.845A.4.4,0,0,0,313.286,355.212Z" transform="translate(-309.591 -354.602)" fill="#e0ca9f"/>
              <path id="Pfad_790" data-name="Pfad 790" d="M310.5,356.006a.4.4,0,0,0-.8.075l.024.265a.4.4,0,0,0,.144.272.392.392,0,0,0,.293.093.4.4,0,0,0,.364-.437Z" transform="translate(-309.694 -353.4)" fill="#e0ca9f"/>
            </g>
          </g>
          <g id="Gruppe_194" data-name="Gruppe 194" transform="translate(28.291)">
            <path id="Pfad_791" data-name="Pfad 791" d="M320.407,359.509a3.286,3.286,0,1,1-.427-4.629A3.288,3.288,0,0,1,320.407,359.509Z" transform="translate(-314.593 -354.122)" fill="#be9a49"/>
            <g id="Gruppe_193" data-name="Gruppe 193" transform="translate(0.7 0.55)">
              <path id="Pfad_792" data-name="Pfad 792" d="M318.508,354.988a.4.4,0,0,0-.274-.5,2.825,2.825,0,0,0-3.163,1.183.4.4,0,0,0,.082.528l.039.028a.4.4,0,0,0,.556-.121,2.022,2.022,0,0,1,2.263-.845A.4.4,0,0,0,318.508,354.988Z" transform="translate(-314.815 -354.378)" fill="#e0ca9f"/>
              <path id="Pfad_793" data-name="Pfad 793" d="M315.72,355.783a.4.4,0,1,0-.8.075l.024.265a.406.406,0,0,0,.437.364.4.4,0,0,0,.364-.437Z" transform="translate(-314.918 -353.177)" fill="#e0ca9f"/>
            </g>
          </g>
          <g id="Gruppe_196" data-name="Gruppe 196" transform="translate(35.035 15.942)">
            <path id="Pfad_794" data-name="Pfad 794" d="M323.538,366.909a3.287,3.287,0,1,1-.427-4.629A3.289,3.289,0,0,1,323.538,366.909Z" transform="translate(-317.722 -361.52)" fill="#be9a49"/>
            <g id="Gruppe_195" data-name="Gruppe 195" transform="translate(0.7 0.55)">
              <path id="Pfad_795" data-name="Pfad 795" d="M321.639,362.386a.4.4,0,0,0-.274-.5,2.82,2.82,0,0,0-3.163,1.181.4.4,0,0,0,.082.528l.039.03a.4.4,0,0,0,.556-.123,2.02,2.02,0,0,1,2.261-.845A.4.4,0,0,0,321.639,362.386Z" transform="translate(-317.943 -361.776)" fill="#e0ca9f"/>
              <path id="Pfad_796" data-name="Pfad 796" d="M318.851,363.182a.4.4,0,0,0-.8.073l.026.265a.393.393,0,0,0,.142.274.4.4,0,0,0,.659-.347Z" transform="translate(-318.047 -360.574)" fill="#e0ca9f"/>
            </g>
          </g>
        </g>
        <g id="Gruppe_211" data-name="Gruppe 211" transform="translate(20.588 2.797)">
          <path id="Pfad_807" data-name="Pfad 807" d="M333.143,338.122a.611.611,0,0,0,.5-1.116,16.555,16.555,0,0,1-9.484-18.425,62.129,62.129,0,0,0,24.085,12.307.612.612,0,0,0,.3-1.187,59.907,59.907,0,0,1-17.517-7.641,20.67,20.67,0,0,1,16.847-1.974.611.611,0,1,0,.375-1.164,21.91,21.91,0,0,0-18.375,2.388,61.047,61.047,0,0,1-18.987-20.172.61.61,0,0,0-.834-.226.631.631,0,0,0-.179.157.609.609,0,0,0-.045.677,61.334,61.334,0,0,0,13.266,15.938,17.805,17.805,0,0,0,10.051,20.439Z" transform="translate(-309.745 -300.829)" fill="#e0ca9f"/>
          <g id="Gruppe_206" data-name="Gruppe 206" transform="translate(35.334 15.623)">
            <path id="Pfad_808" data-name="Pfad 808" d="M327.424,313.97a3.286,3.286,0,1,1,4.609-.6A3.287,3.287,0,0,1,327.424,313.97Z" transform="translate(-326.142 -308.079)" fill="#be9a49"/>
            <g id="Gruppe_205" data-name="Gruppe 205" transform="translate(2.631 0.698)">
              <path id="Pfad_809" data-name="Pfad 809" d="M329.432,311.938a.4.4,0,0,0,.489-.291,2.82,2.82,0,0,0-1.3-3.118.4.4,0,0,0-.524.1l-.028.041a.4.4,0,0,0,.14.549,2.013,2.013,0,0,1,.929,2.228A.4.4,0,0,0,329.432,311.938Z" transform="translate(-326.611 -308.323)" fill="#e0ca9f"/>
              <path id="Pfad_810" data-name="Pfad 810" d="M328.081,309.2a.4.4,0,0,0-.1-.8l-.265.034a.4.4,0,0,0-.267.153.41.41,0,0,0-.08.3.4.4,0,0,0,.453.347Z" transform="translate(-327.363 -308.403)" fill="#e0ca9f"/>
            </g>
          </g>
          <g id="Gruppe_208" data-name="Gruppe 208" transform="translate(36.239 26.854)">
            <path id="Pfad_811" data-name="Pfad 811" d="M327.844,319.182a3.287,3.287,0,1,1,4.609-.6A3.288,3.288,0,0,1,327.844,319.182Z" transform="translate(-326.562 -313.291)" fill="#be9a49"/>
            <g id="Gruppe_207" data-name="Gruppe 207" transform="translate(2.63 0.697)">
              <path id="Pfad_812" data-name="Pfad 812" d="M329.852,317.15a.4.4,0,0,0,.489-.291,2.826,2.826,0,0,0-1.3-3.118.4.4,0,0,0-.524.1l-.026.041a.4.4,0,0,0,.14.55,2.013,2.013,0,0,1,.929,2.228A.4.4,0,0,0,329.852,317.15Z" transform="translate(-327.03 -313.533)" fill="#e0ca9f"/>
              <path id="Pfad_813" data-name="Pfad 813" d="M328.5,314.417a.4.4,0,0,0-.1-.8l-.265.034a.405.405,0,0,0-.267.155.4.4,0,0,0,.371.644Z" transform="translate(-327.782 -313.615)" fill="#e0ca9f"/>
            </g>
          </g>
          <g id="Gruppe_210" data-name="Gruppe 210" transform="translate(20.56 34.19)">
            <path id="Pfad_814" data-name="Pfad 814" d="M320.568,322.588a3.287,3.287,0,1,1,4.609-.6A3.29,3.29,0,0,1,320.568,322.588Z" transform="translate(-319.286 -316.695)" fill="#be9a49"/>
            <g id="Gruppe_209" data-name="Gruppe 209" transform="translate(2.63 0.698)">
              <path id="Pfad_815" data-name="Pfad 815" d="M322.576,320.555a.406.406,0,0,0,.489-.293,2.819,2.819,0,0,0-1.3-3.116.4.4,0,0,0-.524.1l-.028.043a.4.4,0,0,0,.14.549,2.013,2.013,0,0,1,.929,2.228A.4.4,0,0,0,322.576,320.555Z" transform="translate(-319.755 -316.938)" fill="#e0ca9f"/>
              <path id="Pfad_816" data-name="Pfad 816" d="M321.225,317.822a.4.4,0,0,0-.1-.8l-.265.035a.41.41,0,0,0-.267.155.4.4,0,0,0,.373.644Z" transform="translate(-320.507 -317.019)" fill="#e0ca9f"/>
            </g>
          </g>
        </g>
        <g id="Gruppe_218" data-name="Gruppe 218" transform="translate(147.29 66.564)">
          <path id="Pfad_817" data-name="Pfad 817" d="M378.527,332.106a.618.618,0,0,0-.465.728.61.61,0,0,0,.728.465,16.553,16.553,0,0,1,18.573,9.189,62.139,62.139,0,0,0-26.687,4.409.607.607,0,0,0-.334.8.614.614,0,0,0,.8.334,59.93,59.93,0,0,1,18.629-4.256,20.661,20.661,0,0,1-12.38,11.6.611.611,0,1,0,.39,1.157,21.907,21.907,0,0,0,13.363-12.835,61.016,61.016,0,0,1,27.258,4.95.611.611,0,0,0,.491-1.118,61.341,61.341,0,0,0-20.14-4.941,17.807,17.807,0,0,0-20.226-10.473Z" transform="translate(-366.515 -328.938)" fill="#e0ca9f"/>
          <g id="Gruppe_213" data-name="Gruppe 213" transform="translate(7.398 23.713)">
            <path id="Pfad_818" data-name="Pfad 818" d="M375.326,341.425a3.287,3.287,0,1,1-3.351,3.222A3.286,3.286,0,0,1,375.326,341.425Z" transform="translate(-371.975 -341.425)" fill="#be9a49"/>
            <g id="Gruppe_212" data-name="Gruppe 212" transform="translate(0.687 3.716)">
              <path id="Pfad_819" data-name="Pfad 819" d="M372.542,343.179a.4.4,0,0,0-.22.526,2.818,2.818,0,0,0,2.9,1.735.4.4,0,0,0,.362-.39.414.414,0,0,0,0-.052.4.4,0,0,0-.442-.358,2.015,2.015,0,0,1-2.071-1.241A.4.4,0,0,0,372.542,343.179Z" transform="translate(-372.293 -343.149)" fill="#e0ca9f"/>
              <path id="Pfad_820" data-name="Pfad 820" d="M374.037,343.795a.4.4,0,1,0,.556.58l.194-.185a.4.4,0,0,0,.123-.282.4.4,0,0,0-.112-.287.4.4,0,0,0-.569-.011Z" transform="translate(-370.424 -342.748)" fill="#e0ca9f"/>
            </g>
          </g>
          <g id="Gruppe_215" data-name="Gruppe 215" transform="translate(0 15.216)">
            <path id="Pfad_821" data-name="Pfad 821" d="M371.893,337.482a3.287,3.287,0,1,1-3.351,3.222A3.288,3.288,0,0,1,371.893,337.482Z" transform="translate(-368.542 -337.482)" fill="#be9a49"/>
            <g id="Gruppe_214" data-name="Gruppe 214" transform="translate(0.685 3.716)">
              <path id="Pfad_822" data-name="Pfad 822" d="M369.109,339.236a.4.4,0,0,0-.22.526,2.823,2.823,0,0,0,2.9,1.735.4.4,0,0,0,.36-.392.2.2,0,0,0,0-.05.4.4,0,0,0-.44-.358,2.018,2.018,0,0,1-2.071-1.241A.4.4,0,0,0,369.109,339.236Z" transform="translate(-368.859 -339.206)" fill="#e0ca9f"/>
              <path id="Pfad_823" data-name="Pfad 823" d="M370.6,339.85a.4.4,0,0,0,.558.582l.192-.185a.4.4,0,0,0,.123-.282.4.4,0,0,0-.112-.287.4.4,0,0,0-.569-.013Z" transform="translate(-366.989 -338.805)" fill="#e0ca9f"/>
            </g>
          </g>
          <g id="Gruppe_217" data-name="Gruppe 217" transform="translate(8.253)">
            <path id="Pfad_824" data-name="Pfad 824" d="M375.723,330.421a3.287,3.287,0,1,1-3.351,3.222A3.286,3.286,0,0,1,375.723,330.421Z" transform="translate(-372.372 -330.421)" fill="#be9a49"/>
            <g id="Gruppe_216" data-name="Gruppe 216" transform="translate(0.687 3.716)">
              <path id="Pfad_825" data-name="Pfad 825" d="M372.94,332.175a.4.4,0,0,0-.22.526,2.818,2.818,0,0,0,2.9,1.735.4.4,0,0,0,.362-.392.4.4,0,0,0-.444-.407,2.023,2.023,0,0,1-2.071-1.241A.4.4,0,0,0,372.94,332.175Z" transform="translate(-372.69 -332.145)" fill="#e0ca9f"/>
              <path id="Pfad_826" data-name="Pfad 826" d="M374.434,332.789a.4.4,0,1,0,.556.58l.194-.183a.4.4,0,0,0,.123-.282.4.4,0,0,0-.681-.3Z" transform="translate(-370.821 -331.744)" fill="#e0ca9f"/>
            </g>
          </g>
        </g>
        <g id="Gruppe_225" data-name="Gruppe 225" transform="translate(131.596 158.071)">
          <path id="Pfad_827" data-name="Pfad 827" d="M381.95,374.606a.611.611,0,1,0-.735.976,16.557,16.557,0,0,1,5.092,20.086,62.179,62.179,0,0,0-20.7-17.414.612.612,0,1,0-.558,1.088A59.906,59.906,0,0,1,380.4,390.733a20.669,20.669,0,0,1-16.86-1.87.611.611,0,1,0-.627,1.049,21.906,21.906,0,0,0,18.442,1.81,61.02,61.02,0,0,1,13.957,23.928.61.61,0,1,0,1.168-.351,61.279,61.279,0,0,0-9.337-18.515,17.8,17.8,0,0,0-5.191-22.178Z" transform="translate(-359.694 -371.037)" fill="#e0ca9f"/>
          <g id="Gruppe_220" data-name="Gruppe 220" transform="translate(0 14.766)">
            <path id="Pfad_828" data-name="Pfad 828" d="M367.084,380.937a3.286,3.286,0,1,1-4.624-.453A3.287,3.287,0,0,1,367.084,380.937Z" transform="translate(-361.259 -379.737)" fill="#be9a49"/>
            <g id="Gruppe_219" data-name="Gruppe 219" transform="translate(0.556 1.753)">
              <path id="Pfad_829" data-name="Pfad 829" d="M362.368,380.595a.4.4,0,0,0-.541.175,2.821,2.821,0,0,0,.565,3.331.4.4,0,0,0,.532.019l.037-.035a.4.4,0,0,0-.015-.569,2.015,2.015,0,0,1-.4-2.379A.4.4,0,0,0,362.368,380.595Z" transform="translate(-361.517 -380.551)" fill="#e0ca9f"/>
              <path id="Pfad_830" data-name="Pfad 830" d="M362.806,382.065a.4.4,0,1,0-.08.8l.267.028a.409.409,0,0,0,.293-.09.4.4,0,0,0-.215-.711Z" transform="translate(-360.538 -378.804)" fill="#e0ca9f"/>
            </g>
          </g>
          <g id="Gruppe_222" data-name="Gruppe 222" transform="translate(1.646 3.618)">
            <path id="Pfad_831" data-name="Pfad 831" d="M367.85,375.764a3.287,3.287,0,1,1-4.627-.453A3.289,3.289,0,0,1,367.85,375.764Z" transform="translate(-362.023 -374.564)" fill="#be9a49"/>
            <g id="Gruppe_221" data-name="Gruppe 221" transform="translate(0.556 1.754)">
              <path id="Pfad_832" data-name="Pfad 832" d="M363.134,375.423a.4.4,0,0,0-.543.175,2.819,2.819,0,0,0,.565,3.329.4.4,0,0,0,.532.019l.037-.032a.4.4,0,0,0-.013-.569,2.019,2.019,0,0,1-.4-2.381A.4.4,0,0,0,363.134,375.423Z" transform="translate(-362.281 -375.378)" fill="#e0ca9f"/>
              <path id="Pfad_833" data-name="Pfad 833" d="M363.57,376.892a.4.4,0,0,0-.078.8l.265.026a.4.4,0,0,0,.44-.362.4.4,0,0,0-.362-.44Z" transform="translate(-361.302 -373.632)" fill="#e0ca9f"/>
            </g>
          </g>
          <g id="Gruppe_224" data-name="Gruppe 224" transform="translate(18.575)">
            <path id="Pfad_834" data-name="Pfad 834" d="M375.7,374.085a3.286,3.286,0,1,1-4.627-.453A3.287,3.287,0,0,1,375.7,374.085Z" transform="translate(-369.879 -372.885)" fill="#be9a49"/>
            <g id="Gruppe_223" data-name="Gruppe 223" transform="translate(0.556 1.753)">
              <path id="Pfad_835" data-name="Pfad 835" d="M370.988,373.743a.4.4,0,0,0-.541.175,2.821,2.821,0,0,0,.565,3.332.4.4,0,0,0,.532.019l.037-.035a.4.4,0,0,0-.015-.569,2.015,2.015,0,0,1-.4-2.379A.4.4,0,0,0,370.988,373.743Z" transform="translate(-370.137 -373.699)" fill="#e0ca9f"/>
              <path id="Pfad_836" data-name="Pfad 836" d="M371.426,375.213a.4.4,0,0,0-.08.8l.267.026a.4.4,0,0,0,.078-.8Z" transform="translate(-369.158 -371.952)" fill="#e0ca9f"/>
            </g>
          </g>
        </g>
      </g>
    </g>
  </g>
  <g id="Gruppe_229" data-name="Gruppe 229" transform="translate(5.784 4.82)">
    <path id="Pfad_837" data-name="Pfad 837" d="M309.757,315.8a1.647,1.647,0,0,0,0,3.291A1.647,1.647,0,0,0,309.757,315.8Z" transform="translate(-305.533 -302.631)"/>
    <path id="Pfad_838" data-name="Pfad 838" d="M327.834,322.628a1.646,1.646,0,0,0,0,3.291A1.646,1.646,0,0,0,327.834,322.628Z" transform="translate(-282.674 -289.805)"/>
    <path id="Pfad_839" data-name="Pfad 839" d="M333.96,312.685a1.647,1.647,0,0,0,0,3.293A1.647,1.647,0,0,0,333.96,312.685Z" transform="translate(-275.24 -304.621)"/>
    <path id="Pfad_840" data-name="Pfad 840" d="M338.781,326.143a1.646,1.646,0,0,0,0,3.291A1.646,1.646,0,0,0,338.781,326.143Z" transform="translate(-269.391 -285.558)"/>
    <path id="Pfad_841" data-name="Pfad 841" d="M308.15,348.337a1.647,1.647,0,0,0,0,3.293A1.647,1.647,0,0,0,308.15,348.337Z" transform="translate(-306.56 -258.74)"/>
    <path id="Pfad_842" data-name="Pfad 842" d="M324.52,346.73a1.647,1.647,0,0,0,0,3.293A1.647,1.647,0,0,0,324.52,346.73Z" transform="translate(-286.696 -260.682)"/>
    <path id="Pfad_843" data-name="Pfad 843" d="M325.524,358.079a1.647,1.647,0,0,0,0,3.291A1.647,1.647,0,0,0,325.524,358.079Z" transform="translate(-285.477 -246.968)"/>
    <path id="Pfad_844" data-name="Pfad 844" d="M314.678,373.645a1.647,1.647,0,0,0,0,3.293A1.647,1.647,0,0,0,314.678,373.645Z" transform="translate(-282.389 -220.897)"/>
    <path id="Pfad_845" data-name="Pfad 845" d="M308.853,381.98a1.647,1.647,0,0,0,0,3.293A1.647,1.647,0,0,0,308.853,381.98Z" transform="translate(-306.111 -215.571)"/>
    <path id="Pfad_846" data-name="Pfad 846" d="M329.441,384.19a1.647,1.647,0,0,0,0,3.293A1.647,1.647,0,0,0,329.441,384.19Z" transform="translate(-280.724 -214.159)"/>
    <path id="Pfad_847" data-name="Pfad 847" d="M358.587,386.3a1.673,1.673,0,0,0-1.646,1.646v.166a1.646,1.646,0,0,0,3.291,0v-.166A1.665,1.665,0,0,0,358.587,386.3Z" transform="translate(-245.399 -212.812)"/>
    <path id="Pfad_848" data-name="Pfad 848" d="M337.977,366.916a1.647,1.647,0,0,0,0,3.293A1.647,1.647,0,0,0,337.977,366.916Z" transform="translate(-275.366 -246.29)"/>
    <path id="Pfad_849" data-name="Pfad 849" d="M348.824,361.292a1.647,1.647,0,0,0,0,3.293A1.647,1.647,0,0,0,348.824,361.292Z" transform="translate(-257.204 -243.086)"/>
    <path id="Pfad_850" data-name="Pfad 850" d="M359.168,364.707a1.647,1.647,0,0,0,0,3.293A1.647,1.647,0,0,0,359.168,364.707Z" transform="translate(-244.652 -238.959)"/>
    <path id="Pfad_851" data-name="Pfad 851" d="M386.082,377.461a1.647,1.647,0,0,0,0,3.293A1.647,1.647,0,0,0,386.082,377.461Z" transform="translate(-211.991 -218.458)"/>
    <path id="Pfad_852" data-name="Pfad 852" d="M382.768,383.788a1.647,1.647,0,0,0,0,3.293A1.647,1.647,0,0,0,382.768,383.788Z" transform="translate(-214.109 -214.416)"/>
    <path id="Pfad_853" data-name="Pfad 853" d="M384.275,342.914a1.647,1.647,0,0,0,0,3.293A1.647,1.647,0,0,0,384.275,342.914Z" transform="translate(-213.146 -265.293)"/>
    <path id="Pfad_854" data-name="Pfad 854" d="M366.9,348.839a1.647,1.647,0,0,0,0,3.293A1.647,1.647,0,0,0,366.9,348.839Z" transform="translate(-235.268 -258.133)"/>
    <path id="Pfad_855" data-name="Pfad 855" d="M365.093,337.792a1.647,1.647,0,0,0,0,3.293A1.647,1.647,0,0,0,365.093,337.792Z" transform="translate(-237.462 -271.482)"/>
    <path id="Pfad_856" data-name="Pfad 856" d="M367.905,326.042a1.647,1.647,0,0,0,0,3.293A1.647,1.647,0,0,0,367.905,326.042Z" transform="translate(-234.049 -285.68)"/>
    <path id="Pfad_857" data-name="Pfad 857" d="M383.17,328.854a1.647,1.647,0,0,0,0,3.293A1.647,1.647,0,0,0,383.17,328.854Z" transform="translate(-213.852 -282.282)"/>
    <path id="Pfad_858" data-name="Pfad 858" d="M364.992,307.765a1.647,1.647,0,0,0,0,3.291A1.647,1.647,0,0,0,364.992,307.765Z" transform="translate(-237.583 -307.765)"/>
    <path id="Pfad_859" data-name="Pfad 859" d="M363.787,320.418a1.647,1.647,0,0,0,0,3.293A1.647,1.647,0,0,0,363.787,320.418Z" transform="translate(-239.046 -299.68)"/>
    <path id="Pfad_860" data-name="Pfad 860" d="M352.238,327.85a1.647,1.647,0,0,0,0,3.293A1.647,1.647,0,0,0,352.238,327.85Z" transform="translate(-253.06 -283.495)"/>
  </g>
</svg>
