<svg id="_2" data-name="2" xmlns="http://www.w3.org/2000/svg" width="187" height="187" viewBox="0 0 187 187">
  <rect id="Rechteck_15" data-name="Rechteck 15" width="187" height="187" fill="#e0ca9f" opacity="0.003"/>
  <path id="Pfad_1045" data-name="Pfad 1045" d="M18.648-32.057c-11.971,0-17.07,5.1-17.07,11.306,0,3.621,2,6.872,6.577,6.872,3.695,0,6.5-2.291,6.5-5.764a8.64,8.64,0,0,0-.591-3.325H11.85a6.516,6.516,0,0,1-.443-2.143c0-2.365,1.256-5.542,5.616-5.542,5.1,0,6.5,3.178,6.5,10.493,0,10.346-4.434,16.479-13.967,25.2L2.1,11.912v8.572H36.827L37.566.014H36.31C35.2,5.7,33.28,9.177,26.038,9.177H8.3L12.81,5.926C30.841-7.08,36.531-10.775,36.531-19.347,36.531-27.993,29.955-32.057,18.648-32.057Z" transform="translate(135.529 153.605)" fill="#393939"/>
  <g id="Gruppe_45" data-name="Gruppe 45" transform="translate(10.796 0)">
    <g id="Gruppe_39" data-name="Gruppe 39" transform="translate(23.885 33.81)">
      <path id="Pfad_290" data-name="Pfad 290" d="M134.839,34.25a4.567,4.567,0,0,1,1.691-2.809,3.569,3.569,0,0,1,4.1.039,4.655,4.655,0,0,1,1.662,3.085,13.83,13.83,0,0,1-.1,3.584c0-.052-5.843.051-6.372-.074C134.282,37.712,134.6,35.4,134.839,34.25Z" transform="translate(-129.25 -30.813)" fill="#393939"/>
      <g id="Gruppe_38" data-name="Gruppe 38" transform="translate(0 5.473)">
        <path id="Pfad_291" data-name="Pfad 291" d="M141.064,34.152c-6.454,0-9.713,4.032-9.713,11.275,0,5.568,1.654,13.287,6.915,17.47a4.491,4.491,0,0,0,5.594,0c5.261-4.183,6.915-11.9,6.915-17.47C150.775,38.184,147.518,34.152,141.064,34.152Z" transform="translate(-131.351 -34.152)" fill="#fff"/>
        <path id="Pfad_292" data-name="Pfad 292" d="M131.355,41.675a30.29,30.29,0,0,0,.526,5.312,32.537,32.537,0,0,1,18.327.162,30.219,30.219,0,0,0,.556-5.328A37.861,37.861,0,0,0,131.355,41.675Z" transform="translate(-131.348 -30.107)" fill="#be9a49"/>
        <path id="Pfad_293" data-name="Pfad 293" d="M133.33,41.78a.988.988,0,0,0,0,1.975A.988.988,0,0,0,133.33,41.78Z" transform="translate(-130.696 -29.278)" fill="#fff"/>
        <path id="Pfad_294" data-name="Pfad 294" d="M136.377,41.445a.988.988,0,0,0,0,1.975A.988.988,0,0,0,136.377,41.445Z" transform="translate(-128.749 -29.492)" fill="#fff"/>
        <path id="Pfad_295" data-name="Pfad 295" d="M139.021,41.545a.988.988,0,0,0,0,1.975A.988.988,0,0,0,139.021,41.545Z" transform="translate(-127.06 -29.428)" fill="#fff"/>
        <path id="Pfad_296" data-name="Pfad 296" d="M141.9,42.014a.988.988,0,0,0,0,1.975A.988.988,0,0,0,141.9,42.014Z" transform="translate(-125.22 -29.128)" fill="#fff"/>
        <g id="Gruppe_37" data-name="Gruppe 37" transform="translate(1.898 0.002)">
          <path id="Pfad_297" data-name="Pfad 297" d="M132.624,38.809q.339.015.679.015c.323,0,.647-.013.97-.031L133.1,40.1a.119.119,0,0,0,.089.2.117.117,0,0,0,.089-.039l1.249-1.395-.069,2.278a.119.119,0,0,0,.115.123h0a.12.12,0,0,0,.12-.115l.064-2.1,1.018,1.319a.124.124,0,0,0,.1.046.12.12,0,0,0,.072-.025.118.118,0,0,0,.021-.167l-1.133-1.465c.529-.048,1.057-.118,1.58-.215a.119.119,0,0,0,.1-.138.117.117,0,0,0-.138-.1c-.5.092-1.015.156-1.527.2l.993-1.108a.118.118,0,0,0-.01-.167.119.119,0,0,0-.167.01l-.875.977.039-1.306a.119.119,0,0,0-.115-.123.122.122,0,0,0-.123.115l-.044,1.472-.806-1.044a.119.119,0,1,0-.187.146l.824,1.069a17.137,17.137,0,0,1-1.741.023.113.113,0,0,0-.125.115A.119.119,0,0,0,132.624,38.809Z" transform="translate(-132.509 -32.467)" fill="#e0ca9f"/>
          <path id="Pfad_298" data-name="Pfad 298" d="M135.976,49.69c-.5.092-1.015.156-1.528.2l.993-1.108a.119.119,0,1,0-.177-.159l-.875.977.039-1.306a.118.118,0,0,0-.115-.121.12.12,0,0,0-.123.115l-.044,1.47-.806-1.042a.116.116,0,0,0-.166-.021.118.118,0,0,0-.021.167l.824,1.067c-.1.007-.21.008-.313.013.048.077.09.157.138.234l.074,0-.044.051c.043.069.093.133.138.2l.162-.182-.012.4c.075.11.149.221.228.329l.016-.541,1.018,1.318a.124.124,0,0,0,.1.046.12.12,0,0,0,.072-.025.118.118,0,0,0,.021-.167l-1.133-1.465c.529-.048,1.057-.118,1.58-.213a.119.119,0,0,0-.043-.234Z" transform="translate(-132.113 -25.193)" fill="#e0ca9f"/>
          <path id="Pfad_299" data-name="Pfad 299" d="M142.138,49.524l-.875.977.039-1.306a.12.12,0,0,0-.115-.123.123.123,0,0,0-.123.116l-.044,1.47-.806-1.042a.119.119,0,0,0-.188.144l.826,1.069a17.163,17.163,0,0,1-1.742.025.11.11,0,0,0-.123.113.118.118,0,0,0,.115.123c.226.01.451.015.679.015.323,0,.647-.013.97-.031l-1.17,1.306a.121.121,0,0,0,.008.169.125.125,0,0,0,.08.029.12.12,0,0,0,.089-.039l1.249-1.395-.008.239c.17-.2.338-.4.5-.611-.059,0-.116.013-.174.018l.754-.841c.085-.128.174-.251.256-.38a.112.112,0,0,0-.026-.054A.119.119,0,0,0,142.138,49.524Z" transform="translate(-128.37 -24.62)" fill="#e0ca9f"/>
          <path id="Pfad_300" data-name="Pfad 300" d="M137.472,47.972a.12.12,0,0,0,.093.046.116.116,0,0,0,.072-.025.118.118,0,0,0,.021-.167l-1.133-1.465c.529-.048,1.057-.118,1.58-.215a.118.118,0,0,0,.1-.138.116.116,0,0,0-.138-.1c-.5.092-1.015.156-1.526.2l.992-1.108a.119.119,0,0,0-.008-.167.122.122,0,0,0-.169.008l-.875.978.041-1.306a.12.12,0,0,0-.116-.123.122.122,0,0,0-.121.115l-.046,1.47-.8-1.042a.119.119,0,1,0-.188.146l.826,1.069a17.165,17.165,0,0,1-1.742.023.111.111,0,0,0-.123.115.117.117,0,0,0,.113.123c.226.01.452.013.679.013.325,0,.647-.011.972-.03L134.8,47.7a.117.117,0,0,0,.008.167.117.117,0,0,0,.167-.008l1.249-1.395-.069,2.278a.121.121,0,0,0,.116.123h0a.119.119,0,0,0,.118-.116l.064-2.1Z" transform="translate(-131.427 -27.607)" fill="#e0ca9f"/>
          <path id="Pfad_301" data-name="Pfad 301" d="M138.124,37.578a.118.118,0,0,0,.118-.115l.064-2.1,1.019,1.318a.12.12,0,0,0,.093.046.124.124,0,0,0,.074-.025.121.121,0,0,0,.021-.167l-1.134-1.465q.8-.071,1.58-.213a.119.119,0,0,0-.043-.234c-.5.092-1.015.156-1.526.2l.57-.636c-.1-.007-.2-.008-.308-.011l-.321.359.01-.372c-.08,0-.156-.01-.236-.01l-.016.539-.406-.526-.292.011.529.685a17.161,17.161,0,0,1-1.742.025.109.109,0,0,0-.123.113.117.117,0,0,0,.113.123q.339.015.679.015c.325,0,.649-.013.972-.031l-1.17,1.306a.118.118,0,0,0,.089.2.122.122,0,0,0,.089-.039l1.249-1.395L138,37.456a.12.12,0,0,0,.116.123Z" transform="translate(-130.243 -34.153)" fill="#e0ca9f"/>
          <path id="Pfad_302" data-name="Pfad 302" d="M141.541,36.961q.339.015.679.015c.233,0,.464-.013.7-.023-.043-.08-.092-.154-.136-.233-.41.015-.819.02-1.229,0a.111.111,0,0,0-.123.115A.117.117,0,0,0,141.541,36.961Z" transform="translate(-126.81 -32.513)" fill="#e0ca9f"/>
          <path id="Pfad_303" data-name="Pfad 303" d="M141.81,38.255a.122.122,0,0,0,.08.03.12.12,0,0,0,.089-.039l.921-1.029c-.036-.079-.069-.161-.107-.238l-.992,1.108A.121.121,0,0,0,141.81,38.255Z" transform="translate(-126.591 -32.348)" fill="#e0ca9f"/>
          <path id="Pfad_304" data-name="Pfad 304" d="M142.655,37.535l-.038,1.237a.12.12,0,0,0,.116.123h0a.118.118,0,0,0,.118-.116l.018-.6C142.8,37.959,142.735,37.742,142.655,37.535Z" transform="translate(-126.05 -31.992)" fill="#e0ca9f"/>
          <path id="Pfad_305" data-name="Pfad 305" d="M140.446,49.8a.121.121,0,0,0,.116.123h0a.119.119,0,0,0,.118-.116l.064-2.1,1.019,1.319a.12.12,0,0,0,.093.046.124.124,0,0,0,.074-.025.121.121,0,0,0,.021-.167l-1.134-1.465c.531-.048,1.057-.118,1.58-.215a.118.118,0,0,0-.043-.233c-.5.092-1.015.156-1.526.2l.992-1.108a.117.117,0,0,0-.008-.167.12.12,0,0,0-.167.008l-.875.978.039-1.306a.12.12,0,0,0-.115-.123.122.122,0,0,0-.123.115l-.044,1.47-.806-1.042a.12.12,0,0,0-.167-.021.121.121,0,0,0-.021.167l.826,1.069a17.165,17.165,0,0,1-1.742.023.11.11,0,0,0-.123.115.117.117,0,0,0,.113.123c.226.01.452.013.68.013.323,0,.647-.011.97-.03l-1.17,1.306a.119.119,0,0,0,.008.167.115.115,0,0,0,.08.031.12.12,0,0,0,.089-.039l1.249-1.395Z" transform="translate(-128.683 -26.936)" fill="#e0ca9f"/>
          <path id="Pfad_306" data-name="Pfad 306" d="M142.011,38.755a.117.117,0,0,0-.138-.1c-.5.092-1.015.156-1.526.2l.992-1.108a.117.117,0,0,0-.01-.167.12.12,0,0,0-.167.008l-.875.977.039-1.3a.118.118,0,0,0-.115-.123.124.124,0,0,0-.123.115l-.044,1.47-.806-1.042a.116.116,0,0,0-.166-.021.118.118,0,0,0-.021.167l.824,1.069a17.126,17.126,0,0,1-1.741.023.112.112,0,0,0-.125.115.12.12,0,0,0,.115.123c.226.008.452.013.679.013.325,0,.647-.011.97-.029l-1.17,1.306a.119.119,0,0,0,.01.167.122.122,0,0,0,.079.031.119.119,0,0,0,.089-.041l1.249-1.393-.069,2.278a.118.118,0,0,0,.115.121h0a.118.118,0,0,0,.12-.115l.064-2.1,1.019,1.319a.116.116,0,0,0,.093.044.117.117,0,0,0,.093-.19l-1.133-1.467c.529-.046,1.057-.118,1.58-.213A.119.119,0,0,0,142.011,38.755Z" transform="translate(-128.994 -32.242)" fill="#e0ca9f"/>
        </g>
      </g>
    </g>
    <g id="Gruppe_42" data-name="Gruppe 42" transform="translate(0 68.75)">
      <path id="Pfad_307" data-name="Pfad 307" d="M121.371,53.483a3.428,3.428,0,0,1,2.878-1.347,3.476,3.476,0,0,1,2.732,1.629,6.588,6.588,0,0,1,.6,3.871q-1.723.084-3.445.17c-.818.039-2.178.385-2.937,0C119.845,57.121,120.717,54.363,121.371,53.483Z" transform="translate(-114.409 -52.131)" fill="#393939"/>
      <g id="Gruppe_41" data-name="Gruppe 41" transform="translate(0 3.982)">
        <path id="Pfad_308" data-name="Pfad 308" d="M126.491,54.561c-6.454,0-9.713,4.032-9.713,11.275,0,5.568,1.654,13.287,6.915,17.47a4.491,4.491,0,0,0,5.594,0c5.261-4.183,6.915-11.9,6.915-17.47C136.2,58.593,132.945,54.561,126.491,54.561Z" transform="translate(-116.778 -54.561)" fill="#be9a49"/>
        <g id="Gruppe_40" data-name="Gruppe 40" transform="translate(0.015)">
          <path id="Pfad_309" data-name="Pfad 309" d="M121.729,67.974c-.695.128-1.4.215-2.1.279l1.365-1.524a.163.163,0,1,0-.243-.218l-1.2,1.344.054-1.8a.163.163,0,0,0-.157-.169.168.168,0,0,0-.169.159l-.062,2.022L118.1,66.636a.164.164,0,0,0-.259.2l1.136,1.47q-.59.037-1.183.046c.039.107.077.213.118.32.308-.007.618-.013.926-.03l-.647.723c.046.11.1.22.143.329l.856-.956-.077,2.557c.1.179.207.351.311.524l.085-2.827,1.4,1.814a.161.161,0,0,0,.128.062.159.159,0,0,0,.1-.033.165.165,0,0,0,.03-.231l-1.559-2.016c.729-.066,1.455-.162,2.173-.293a.164.164,0,1,0-.057-.323Z" transform="translate(-116.142 -47.323)" fill="#fff"/>
          <path id="Pfad_310" data-name="Pfad 310" d="M124.381,68.255h0a.164.164,0,0,0,.164-.159l.087-2.891,1.4,1.814a.164.164,0,0,0,.129.064.168.168,0,0,0,.1-.034.166.166,0,0,0,.029-.229l-1.56-2.018q1.094-.1,2.175-.293a.163.163,0,0,0-.059-.321c-.695.126-1.4.213-2.1.277l1.365-1.524a.163.163,0,0,0-.011-.231.167.167,0,0,0-.231.013l-1.2,1.346.054-1.8a.163.163,0,0,0-.157-.169.169.169,0,0,0-.169.159l-.061,2.022-1.11-1.434a.164.164,0,0,0-.259.2l1.136,1.47a23.38,23.38,0,0,1-2.4.033.153.153,0,0,0-.17.157.163.163,0,0,0,.157.169q.467.02.934.02c.446,0,.89-.018,1.336-.043l-1.611,1.8a.165.165,0,0,0,.013.231.162.162,0,0,0,.108.041.164.164,0,0,0,.123-.054l1.718-1.918-.1,3.134A.166.166,0,0,0,124.381,68.255Z" transform="translate(-113.751 -49.743)" fill="#fff"/>
          <path id="Pfad_311" data-name="Pfad 311" d="M128.816,68.425a.163.163,0,0,0-.011-.231.166.166,0,0,0-.231.011l-1.2,1.346.054-1.8a.163.163,0,0,0-.157-.169.169.169,0,0,0-.169.159l-.062,2.024-1.108-1.436a.164.164,0,1,0-.259.2L126.8,70a23.375,23.375,0,0,1-2.4.033.153.153,0,0,0-.17.157.166.166,0,0,0,.157.17c.311.011.621.018.934.018.444,0,.89-.016,1.336-.043l-1.611,1.8a.165.165,0,0,0,.121.274.16.16,0,0,0,.121-.056l1.719-1.918-.062,2.057c.116-.151.229-.3.341-.459l.041-1.346.47.608c.062-.1.118-.2.18-.3l-.549-.71c.346-.031.69-.07,1.034-.115.066-.118.121-.241.184-.361-.4.054-.8.1-1.2.138Z" transform="translate(-112.027 -46.24)" fill="#fff"/>
          <path id="Pfad_312" data-name="Pfad 312" d="M118.424,64.5h0a.163.163,0,0,0,.162-.157l.089-2.893,1.4,1.814a.164.164,0,0,0,.129.064.161.161,0,0,0,.1-.034.163.163,0,0,0,.03-.229l-1.559-2.018c.729-.064,1.455-.162,2.173-.293a.163.163,0,1,0-.059-.321c-.693.128-1.395.215-2.1.279l1.365-1.524a.163.163,0,1,0-.243-.218l-1.2,1.344.054-1.8a.161.161,0,0,0-.157-.167.167.167,0,0,0-.169.157l-.062,2.024-1.108-1.436-.01,0c-.033.134-.069.266-.1.4l.985,1.273c-.4.026-.811.041-1.216.048-.015.1-.021.216-.033.325.369,0,.739-.015,1.11-.036l-1.21,1.349c-.007.167-.01.336-.013.506L118.36,61.2l-.1,3.135A.162.162,0,0,0,118.424,64.5Z" transform="translate(-116.787 -52.142)" fill="#fff"/>
          <path id="Pfad_313" data-name="Pfad 313" d="M130.328,61.574q-.6.084-1.2.138l1.1-1.229c-.016-.146-.033-.292-.052-.433l-1.133,1.265.054-1.8a.163.163,0,0,0-.157-.169.168.168,0,0,0-.169.159l-.061,2.022-1.11-1.434a.164.164,0,1,0-.259.2l1.136,1.47a23.377,23.377,0,0,1-2.4.033.153.153,0,0,0-.17.157.163.163,0,0,0,.157.169c.311.013.623.018.934.018.446,0,.89-.016,1.336-.041l-1.611,1.8a.164.164,0,0,0,.244.218L128.7,62.2l-.1,3.134a.166.166,0,0,0,.159.169h0a.164.164,0,0,0,.164-.159l.087-2.891,1.31,1.695c.008-.17.016-.341.021-.508l-1.229-1.59c.408-.036.815-.085,1.219-.143C130.332,61.8,130.332,61.682,130.328,61.574Z" transform="translate(-110.953 -51.502)" fill="#fff"/>
          <path id="Pfad_314" data-name="Pfad 314" d="M122.541,68.54a.658.658,0,0,0,0,1.316A.658.658,0,0,0,122.541,68.54Z" transform="translate(-113.516 -45.629)" fill="#e0ca9f"/>
          <path id="Pfad_315" data-name="Pfad 315" d="M119.2,63.343a.658.658,0,0,0,0,1.316A.658.658,0,0,0,119.2,63.343Z" transform="translate(-115.65 -48.95)" fill="#e0ca9f"/>
          <path id="Pfad_316" data-name="Pfad 316" d="M126.508,66.845a.659.659,0,0,0,0-1.318A.659.659,0,0,0,126.508,66.845Z" transform="translate(-110.982 -47.554)" fill="#e0ca9f"/>
          <path id="Pfad_317" data-name="Pfad 317" d="M126.659,58.483a.658.658,0,0,0,0-1.316A.658.658,0,0,0,126.659,58.483Z" transform="translate(-110.886 -52.896)" fill="#e0ca9f"/>
          <path id="Pfad_318" data-name="Pfad 318" d="M122.692,59.426a.659.659,0,0,0,0,1.318h.041a.659.659,0,0,0,0-1.318Z" transform="translate(-113.42 -51.452)" fill="#e0ca9f"/>
          <path id="Pfad_319" data-name="Pfad 319" d="M124.106,55.928a22.919,22.919,0,0,1-2.4.033.153.153,0,0,0-.17.157.166.166,0,0,0,.157.17c.311.011.623.018.934.018.446,0,.89-.016,1.336-.043l-1.611,1.8a.165.165,0,0,0,.121.274.17.17,0,0,0,.123-.054l1.718-1.919-.1,3.135a.163.163,0,0,0,.159.167h0a.164.164,0,0,0,.164-.157l.087-2.893,1.4,1.814a.159.159,0,0,0,.129.064.168.168,0,0,0,.1-.034.166.166,0,0,0,.029-.229l-1.56-2.018q1.094-.1,2.175-.293a.163.163,0,1,0-.059-.321c-.695.128-1.4.215-2.1.279l1-1.119c-.126-.021-.262-.034-.392-.052l-.693.774.026-.859c-.107-.01-.218-.013-.326-.02l-.033,1.095-.875-1.133h-.015c-.134,0-.257.011-.387.015Z" transform="translate(-113.751 -54.561)" fill="#fff"/>
          <path id="Pfad_320" data-name="Pfad 320" d="M120.056,56.639a.659.659,0,0,0,0,1.318A.659.659,0,0,0,120.056,56.639Z" transform="translate(-115.105 -53.233)" fill="#e0ca9f"/>
        </g>
      </g>
    </g>
    <g id="Gruppe_44" data-name="Gruppe 44" transform="translate(43.298 83.708)">
      <path id="Pfad_321" data-name="Pfad 321" d="M147.3,64.05a3.621,3.621,0,0,1,1.677-2.467,3.153,3.153,0,0,1,3.029.136,4.551,4.551,0,0,1,1.908,2.449,8.268,8.268,0,0,1,.369,3.129l-4.365.315c-.792.057-2.127.174-2.6-.652A4.984,4.984,0,0,1,147.3,64.05Z" transform="translate(-140.716 -61.257)" fill="#393939"/>
      <path id="Pfad_322" data-name="Pfad 322" d="M152.907,64.039c-6.454,0-9.711,4.032-9.711,11.275,0,5.568,1.652,13.287,6.913,17.47a4.5,4.5,0,0,0,5.594,0c5.261-4.183,6.915-11.9,6.915-17.47C162.618,68.071,159.361,64.039,152.907,64.039Z" transform="translate(-143.196 -59.48)"/>
      <g id="Gruppe_43" data-name="Gruppe 43" transform="translate(0.031 6.423)">
        <path id="Pfad_323" data-name="Pfad 323" d="M151.543,76.407a19.5,19.5,0,0,0-7.252,1.1c.079.2.159.41.244.611a18.8,18.8,0,0,1,6.989-1.057,41.5,41.5,0,0,1,8.262,1.272c.089-.2.179-.408.259-.615A42.271,42.271,0,0,0,151.543,76.407Z" transform="translate(-142.527 -58.005)" fill="#fff"/>
        <path id="Pfad_324" data-name="Pfad 324" d="M147.1,80.616c-.236.056-.487.121-.742.2.166.184.341.359.515.534.129-.034.256-.067.379-.1a16.056,16.056,0,0,1,7.659.1c.175-.179.352-.356.52-.543A16.715,16.715,0,0,0,147.1,80.616Z" transform="translate(-141.209 -55.587)" fill="#fff"/>
        <path id="Pfad_325" data-name="Pfad 325" d="M143.765,76.023c.056.213.108.428.169.641a26.047,26.047,0,0,1,17.25-.118c.059-.211.113-.424.167-.638A26.746,26.746,0,0,0,143.765,76.023Z" transform="translate(-142.864 -59.232)" fill="#fff"/>
        <path id="Pfad_326" data-name="Pfad 326" d="M145.211,79.469c.115.193.226.39.349.579a21.362,21.362,0,0,1,12.376-.424c.118-.2.238-.39.349-.59A22.021,22.021,0,0,0,145.211,79.469Z" transform="translate(-141.94 -56.825)" fill="#fff"/>
        <path id="Pfad_327" data-name="Pfad 327" d="M143.221,72.293c.011.22.021.439.038.664a55.69,55.69,0,0,1,9.493-1.233,22.017,22.017,0,0,1,9.724,1.772c.021-.231.041-.461.056-.688a22.884,22.884,0,0,0-9.793-1.742A56,56,0,0,0,143.221,72.293Z" transform="translate(-143.211 -61.417)" fill="#fff"/>
        <path id="Pfad_328" data-name="Pfad 328" d="M162.107,74.524c.034-.22.066-.438.1-.656a34.3,34.3,0,0,0-18.809.3c.031.218.07.436.108.656A33.6,33.6,0,0,1,162.107,74.524Z" transform="translate(-143.1 -60.37)" fill="#fff"/>
        <path id="Pfad_329" data-name="Pfad 329" d="M145.061,66.061a8.1,8.1,0,0,0-.716.906,23.721,23.721,0,0,1,15.972.536,8.748,8.748,0,0,0-.628-.951A24.507,24.507,0,0,0,145.061,66.061Z" transform="translate(-142.493 -65.176)" fill="#fff"/>
        <path id="Pfad_330" data-name="Pfad 330" d="M162.009,69.309c-.057-.254-.115-.511-.184-.752a31.064,31.064,0,0,0-18.134-.225c-.075.244-.143.5-.2.754A30.378,30.378,0,0,1,162.009,69.309Z" transform="translate(-143.041 -63.953)" fill="#fff"/>
        <path id="Pfad_331" data-name="Pfad 331" d="M143.263,70.294c-.018.225-.036.449-.048.68a55.535,55.535,0,0,1,9.667-1.18,28.264,28.264,0,0,1,9.7,1.378c-.01-.239-.021-.477-.039-.71a29.238,29.238,0,0,0-9.673-1.328A55.552,55.552,0,0,0,143.263,70.294Z" transform="translate(-143.215 -62.65)" fill="#fff"/>
      </g>
    </g>
    <rect id="Rechteck_16" data-name="Rechteck 16" width="0.658" height="35.465" transform="translate(33.266)" fill="#393939"/>
    <rect id="Rechteck_17" data-name="Rechteck 17" width="0.658" height="85.277" transform="translate(52.683)" fill="#393939"/>
    <rect id="Rechteck_18" data-name="Rechteck 18" width="0.658" height="70.14" transform="translate(8.978)" fill="#393939"/>
  </g>
  <g id="Gruppe_46" data-name="Gruppe 46" transform="translate(7.133 7.483)">
    <path id="Pfad_332" data-name="Pfad 332" d="M165.007,31.622a1.647,1.647,0,0,0,0,3.291A1.647,1.647,0,0,0,165.007,31.622Z" transform="translate(-82.183 -3.42)" fill="#fff"/>
    <path id="Pfad_333" data-name="Pfad 333" d="M180.272,21.981a1.647,1.647,0,0,0,0,3.291A1.647,1.647,0,0,0,180.272,21.981Z" transform="translate(-128.786 100.87)" fill="#fff"/>
    <path id="Pfad_334" data-name="Pfad 334" d="M182.817,36.71a1.647,1.647,0,0,0,0,3.293A1.647,1.647,0,0,0,182.817,36.71Z" transform="translate(-160.051 82.849)" fill="#fff"/>
    <path id="Pfad_335" data-name="Pfad 335" d="M188.307,42.066a1.647,1.647,0,0,0,0,3.293A1.647,1.647,0,0,0,188.307,42.066Z" transform="translate(-153.404 97.2)" fill="#fff"/>
    <path id="Pfad_336" data-name="Pfad 336" d="M166.614,47.958a1.647,1.647,0,0,0,0,3.293A1.647,1.647,0,0,0,166.614,47.958Z" transform="translate(-80.61 44.469)" fill="#fff"/>
    <path id="Pfad_337" data-name="Pfad 337" d="M170.364,36.844a1.646,1.646,0,0,0,0,3.291A1.646,1.646,0,0,0,170.364,36.844Z" transform="translate(-98.568 8.038)" fill="#fff"/>
    <path id="Pfad_338" data-name="Pfad 338" d="M157.509,23.454a1.646,1.646,0,0,0,0,3.291A1.646,1.646,0,0,0,157.509,23.454Z" transform="translate(-121.016 52.812)" fill="#fff"/>
    <path id="Pfad_339" data-name="Pfad 339" d="M142.512,18.231a1.647,1.647,0,0,0,0,3.293A1.647,1.647,0,0,0,142.512,18.231Z" transform="translate(-81.965 -12.526)" fill="#fff"/>
    <path id="Pfad_340" data-name="Pfad 340" d="M130.326,21.043a1.647,1.647,0,0,0,0,3.293A1.647,1.647,0,0,0,130.326,21.043Z" transform="translate(-97.013 -10.729)" fill="#fff"/>
    <path id="Pfad_341" data-name="Pfad 341" d="M116.8,23.855a1.647,1.647,0,0,0,0,3.293A1.647,1.647,0,0,0,116.8,23.855Z" transform="translate(-114.115 -8.932)" fill="#fff"/>
    <path id="Pfad_342" data-name="Pfad 342" d="M118.811,16.357a1.646,1.646,0,0,0,0,3.291A1.646,1.646,0,0,0,118.811,16.357Z" transform="translate(-112.831 -13.723)" fill="#fff"/>
    <path id="Pfad_343" data-name="Pfad 343" d="M116.133,35.371a1.647,1.647,0,0,0,0,3.293A1.647,1.647,0,0,0,116.133,35.371Z" transform="translate(-114.542 -1.574)" fill="#fff"/>
    <path id="Pfad_344" data-name="Pfad 344" d="M129.121,30.952a1.647,1.647,0,0,0,0,3.293A1.647,1.647,0,0,0,129.121,30.952Z" transform="translate(-106.243 -4.397)" fill="#fff"/>
    <path id="Pfad_345" data-name="Pfad 345" d="M127.113,43.138a1.646,1.646,0,0,0,0,3.291A1.646,1.646,0,0,0,127.113,43.138Z" transform="translate(-107.527 3.389)" fill="#fff"/>
    <path id="Pfad_346" data-name="Pfad 346" d="M143.315,27.069a1.647,1.647,0,0,0,0,3.293A1.647,1.647,0,0,0,143.315,27.069Z" transform="translate(-80.973 -6.878)" fill="#fff"/>
    <path id="Pfad_347" data-name="Pfad 347" d="M159.785,15.285a1.647,1.647,0,0,0,0,3.293A1.647,1.647,0,0,0,159.785,15.285Z" transform="translate(-120.112 98.592)" fill="#fff"/>
    <path id="Pfad_348" data-name="Pfad 348" d="M170.23,19.035a1.646,1.646,0,0,0,0,3.291A1.646,1.646,0,0,0,170.23,19.035Z" transform="translate(-152.234 84.988)" fill="#fff"/>
    <path id="Pfad_349" data-name="Pfad 349" d="M184.29,14.75a1.646,1.646,0,0,0,0,3.291A1.646,1.646,0,0,0,184.29,14.75Z" transform="translate(-172.219 113.25)" fill="#fff"/>
    <path id="Pfad_350" data-name="Pfad 350" d="M191.253,23.454a1.646,1.646,0,0,0,0,3.291A1.646,1.646,0,0,0,191.253,23.454Z" transform="translate(-127.32 115.812)" fill="#fff"/>
  </g>
</svg>
