<svg id="_20" data-name="20" xmlns="http://www.w3.org/2000/svg" width="187" height="186.998" viewBox="0 0 187 186.998">
  <rect id="Rechteck_3" data-name="Rechteck 3" width="186.999" height="186.998" transform="translate(0.001)" fill="#e0ca9f" opacity="0"/>
  <g id="Gruppe_3" data-name="Gruppe 3" transform="translate(0 5.03)">
    <path id="Pfad_27" data-name="Pfad 27" d="M573.955,335.629c-9.016-1.721-17.5,2.634-24.736,6.848-6.422,3.737-13.88,7.6-21.137,6.089-4.068-.844-7.394-3.262-10.912-5.82-4.323-3.144-8.79-6.392-14.983-6.772-7.378-.459-13,3.322-18.442,6.976-4.861,3.262-9.471,6.358-14.908,6.3s-9.742-3.181-14.293-6.5c-3.758-2.742-7.646-5.577-12.55-6.977-9.117-2.6-18.827.583-25.339,3.208-1.177.475-2.353.967-3.534,1.459a74.623,74.623,0,0,1-13.669,4.705v3.488c5.583-.974,10.712-3.112,15.707-5.2,1.159-.484,2.317-.969,3.476-1.434,9.2-3.707,16.153-4.671,21.879-3.039,4.079,1.165,7.639,3.763,11.083,6.274,4.952,3.614,10.074,7.351,17.2,7.41h.168c7,0,12.386-3.617,17.6-7.116,4.993-3.348,9.708-6.515,15.289-6.169,4.691.289,8.424,3,12.378,5.876,3.754,2.731,7.635,5.553,12.746,6.613,8.684,1.809,17.065-2.126,24.829-6.644,6.452-3.755,13.934-7.644,21.131-6.274,3.868.738,7.2,2.94,10.563,5.327l.211.151c.9.641,1.81,1.285,2.745,1.911v-4.54l-.05-.034C582.613,339.048,578.81,336.555,573.955,335.629Z" transform="translate(-399.451 -264.388)" fill="#fff"/>
    <path id="Pfad_29" data-name="Pfad 29" d="M586.451,378.344a31.8,31.8,0,0,0-11.268-4.715c-12.141-2.318-23.148,4.094-29.061,7.534-5.851,3.406-11.923,6.418-16.709,5.423-2.816-.583-5.68-2.667-8.712-4.871-4.506-3.276-10.115-7.352-18.108-7.844-9.527-.6-16.567,4.142-22.228,7.941-4.077,2.735-7.93,5.322-11.417,5.322h-.056c-3.433-.029-6.853-2.522-10.809-5.41s-8.419-6.141-14.313-7.823c-11.029-3.148-22.114.439-29.492,3.412-1.2.484-2.4.987-3.607,1.49a79.492,79.492,0,0,1-11.221,4.063v11.869c6.762-1.008,12.755-3.506,18.146-5.759,1.138-.475,2.273-.951,3.411-1.408,7.715-3.109,13.513-4.035,17.726-2.832,3.088.882,6.116,3.089,9.32,5.427,5.413,3.95,11.548,8.426,20.683,8.5h.228c8.911,0,15.315-4.3,20.971-8.093,4.329-2.906,8.068-5.407,11.5-5.2,2.89.177,5.838,2.321,9.251,4.8,4.025,2.926,8.587,6.241,14.949,7.564,12.3,2.56,23.331-3.863,29.257-7.311,5.5-3.2,11.794-6.538,16.808-5.587,2.685.511,5.458,2.367,8.3,4.388l.211.149a66.417,66.417,0,0,0,6.234,4.071Z" transform="translate(-399.451 -221.727)" fill="#be9a49"/>
    <path id="Pfad_30" data-name="Pfad 30" d="M418.634,368.9c9.2-3.707,16.149-4.671,21.879-3.037,4.077,1.164,7.639,3.761,11.083,6.272,4.952,3.616,10.074,7.351,17.2,7.41.056,0,.112,0,.168,0,7,0,12.386-3.617,17.6-7.116,4.993-3.35,9.7-6.518,15.289-6.171,4.691.288,8.424,3,12.378,5.877,3.754,2.729,7.635,5.551,12.746,6.613,8.684,1.808,17.067-2.127,24.829-6.646,6.45-3.753,13.936-7.646,21.133-6.272,3.866.736,7.2,2.939,10.561,5.325l.209.149c.9.641,1.812,1.287,2.748,1.913v-4.54l-.05-.034c-3.788-2.691-7.592-5.184-12.447-6.108-9.016-1.723-17.5,2.632-24.736,6.846-6.422,3.738-13.875,7.6-21.137,6.09-4.068-.846-7.394-3.263-10.912-5.822-4.321-3.142-8.79-6.39-14.983-6.772-7.378-.459-13,3.322-18.442,6.975-4.861,3.263-9.471,6.354-14.908,6.3s-9.742-3.18-14.293-6.5c-3.758-2.742-7.646-5.579-12.55-6.979-9.12-2.6-18.827.585-25.339,3.209-1.179.474-2.355.967-3.538,1.46a74.687,74.687,0,0,1-13.664,4.7v3.488c5.581-.974,10.71-3.111,15.7-5.2C416.315,369.854,417.475,369.371,418.634,368.9Z" transform="translate(-399.451 -236.963)" fill="#fff"/>
    <path id="Pfad_31" data-name="Pfad 31" d="M546.122,327.345c-5.851,3.406-11.923,6.415-16.709,5.423-2.816-.585-5.68-2.668-8.712-4.871-4.506-3.276-10.113-7.354-18.108-7.846-9.523-.6-16.567,4.142-22.228,7.941-4.077,2.737-7.93,5.322-11.417,5.322h-.056c-3.433-.028-6.853-2.522-10.809-5.409s-8.419-6.141-14.313-7.823c-11.029-3.15-22.114.439-29.492,3.411-1.2.485-2.4.987-3.607,1.49a79.5,79.5,0,0,1-11.221,4.063v11.869c6.762-1.006,12.755-3.5,18.146-5.758,1.138-.477,2.273-.951,3.411-1.41,7.715-3.107,13.513-4.034,17.726-2.83,3.088.88,6.116,3.089,9.32,5.427,5.413,3.95,11.548,8.424,20.683,8.5h.228c8.911,0,15.315-4.3,20.971-8.095,4.331-2.906,8.072-5.407,11.5-5.2,2.89.177,5.838,2.321,9.251,4.8,4.025,2.926,8.587,6.243,14.949,7.564,12.3,2.56,23.331-3.861,29.257-7.312,5.5-3.2,11.794-6.535,16.808-5.587,2.683.511,5.458,2.367,8.3,4.386l.207.148a66.484,66.484,0,0,0,6.239,4.076v-15.1a31.763,31.763,0,0,0-11.268-4.714C563.042,317.492,552.035,323.9,546.122,327.345Z" transform="translate(-399.451 -277.984)" fill="#be9a49"/>
    <path id="Pfad_32" data-name="Pfad 32" d="M421.009,360.659c7.715-3.109,13.513-4.034,17.726-2.834,3.088.882,6.116,3.091,9.32,5.428,5.413,3.95,11.548,8.426,20.683,8.5h.228c8.911,0,15.315-4.3,20.971-8.095,4.331-2.906,8.085-5.4,11.5-5.2,2.89.179,5.838,2.321,9.251,4.8,4.025,2.926,8.587,6.241,14.951,7.564,12.3,2.557,23.331-3.865,29.255-7.311,5.5-3.206,11.8-6.543,16.808-5.587,2.683.51,5.458,2.367,8.3,4.386l.215.152a66.328,66.328,0,0,0,6.23,4.07v-15.1a31.719,31.719,0,0,0-11.268-4.714c-12.139-2.318-23.148,4.092-29.061,7.533-5.848,3.4-11.923,6.42-16.709,5.423-2.816-.585-5.68-2.667-8.712-4.871-4.506-3.276-10.113-7.354-18.108-7.846-9.527-.593-16.567,4.143-22.228,7.943-4.077,2.735-7.93,5.322-11.417,5.322h-.056c-3.433-.029-6.853-2.522-10.809-5.41s-8.419-6.141-14.313-7.824c-11.031-3.145-22.114.441-29.492,3.414-1.2.484-2.4.983-3.6,1.487a79.254,79.254,0,0,1-11.225,4.065v11.871c6.764-1.008,12.759-3.507,18.151-5.761C418.74,361.59,419.873,361.114,421.009,360.659Z" transform="translate(-399.451 -253.965)" fill="#be9a49"/>
  </g>
  <g id="Gruppe_4" data-name="Gruppe 4" transform="translate(10.358 119.698)">
    <path id="Pfad_33" data-name="Pfad 33" d="M412.548,359.618a26.628,26.628,0,0,0,6.4,40.751c5.261,3.076,11.433,4.26,17.519,4.56,4.948.243,10.017-.087,14.623-1.909a25.248,25.248,0,0,0,15.267-20.2,27.819,27.819,0,0,0-9.395-23.752c-9.572-8.337-24.326-11.2-35.943-5.725A26.615,26.615,0,0,0,412.548,359.618Z" transform="translate(-405.771 -350.54)" fill="#fff"/>
    <path id="Pfad_1064" data-name="Pfad 1064" d="M10.11-17.379c-6.49,0-9.254,2.764-9.254,6.13A3.4,3.4,0,0,0,4.421-7.524c2,0,3.525-1.242,3.525-3.125a4.684,4.684,0,0,0-.321-1.8h-1.2a3.533,3.533,0,0,1-.24-1.162,2.824,2.824,0,0,1,3.045-3c2.764,0,3.525,1.723,3.525,5.689,0,5.609-2.4,8.934-7.572,13.661L1.136,6.458v4.647H19.965l.4-11.1h-.681c-.6,3.085-1.643,4.968-5.569,4.968H4.5L6.945,3.213c9.775-7.051,12.86-9.054,12.86-13.7C19.805-15.176,16.24-17.379,10.11-17.379ZM22.77-2.957c0,8.373,3.686,14.463,12.1,14.463,6.971,0,12.1-3.926,12.1-14.463s-5.008-14.422-12.1-14.422C27.858-17.379,22.77-13.413,22.77-2.957Zm8.213-1.482c0-8.734.04-12.1,3.886-12.1,3.926,0,3.926,3,3.926,12.459V-.553c0,8.173-.12,11.217-3.926,11.217-3.886,0-3.886-3.085-3.886-11.538Z" transform="translate(6.986 30.286)" fill="#e0ca9f"/>
  </g>
</svg>
