<svg id="_21" data-name="21" xmlns="http://www.w3.org/2000/svg" width="187" height="187" viewBox="0 0 187 187">
  <rect id="Rechteck_34" data-name="Rechteck 34" width="187" height="187" fill="#393939" opacity="0"/>
  <g id="Gruppe_256" data-name="Gruppe 256" transform="translate(9.7 7.343)">
    <g id="Gruppe_248" data-name="Gruppe 248" transform="translate(0 2.66)">
      <path id="Pfad_928" data-name="Pfad 928" d="M21.607,409.141s2.362,11.2-1.918,18.021c0,0,10.65,2.722,12.017,9.639,0,0,9.681.087,10.17,7.526,0,0,6.862-4.368,12.84-.3,0,0-5.51-6.185-3.216-12.242,0,0-8.618-2.2-6.562-9.665,0,0-9.527-2.732-8.2-9.111A22.367,22.367,0,0,1,21.607,409.141Z" transform="translate(-19.689 -409.141)" fill="#e0ca9f"/>
      <path id="Pfad_929" data-name="Pfad 929" d="M21.749,409.736c-.3-.188-.595-.385-.89-.595,0,0,.179.847.347,2.213,2.835,6.113,10.891,20.182,28.649,31.06a9.813,9.813,0,0,1,4.112,1.611s-.325-.365-.783-1C32.437,431.37,24.053,415.1,21.749,409.736Z" transform="translate(-18.941 -409.141)" fill="#e0ca9f"/>
    </g>
    <g id="Gruppe_249" data-name="Gruppe 249" transform="translate(127.118 74.4)">
      <path id="Pfad_930" data-name="Pfad 930" d="M110.412,469.032s-4.8-10.591-2.05-18.291c0,0-11.157-.362-14.03-6.923,0,0-9.619,2.039-11.735-5.232,0,0-5.848,5.835-12.666,3.116,0,0,6.82,4.925,5.874,11.433,0,0,9.029.293,8.626,8.144,0,0,10.047.62,10.126,7.236A22.715,22.715,0,0,1,110.412,469.032Z" transform="translate(-69.931 -438.586)" fill="#e0ca9f"/>
      <path id="Pfad_931" data-name="Pfad 931" d="M109.4,467.422c.336.121.674.251,1.013.4,0,0-.362-.8-.829-2.118-4.153-5.441-15.226-17.626-35.22-24.517a9.993,9.993,0,0,1-4.432-.695s.4.292,1,.823C94.057,448.311,105.938,462.605,109.4,467.422Z" transform="translate(-69.931 -437.371)" fill="#e0ca9f"/>
    </g>
    <g id="Gruppe_251" data-name="Gruppe 251" transform="translate(69.962)">
      <path id="Pfad_934" data-name="Pfad 934" d="M59.309,407.518s-3.845,8-9.7,10.171c0,0,5.261,6.71,2.829,11.609,0,0,5.912,4.63,2.694,9.434,0,0,6.284.562,8.036,5.887,0,0-.462-6.408,3.812-9.047,0,0-4.256-5.428.534-9.044,0,0-4.565-6.186-.729-9.477A17.347,17.347,0,0,1,59.309,407.518Z" transform="translate(-49.608 -407.518)" fill="#e0ca9f"/>
      <path id="Pfad_935" data-name="Pfad 935" d="M56.567,408.3c-.093-.257-.184-.518-.266-.787,0,0-.292.6-.833,1.524-1.149,5.1-2.849,17.557,2.924,32.642a7.616,7.616,0,0,1,1.767,2.935s-.026-.379-.007-.988C52.907,426.66,55.446,412.694,56.567,408.3Z" transform="translate(-46.601 -407.518)" fill="#e0ca9f"/>
    </g>
    <g id="Gruppe_253" data-name="Gruppe 253" transform="translate(2.922 85.286)">
      <path id="Pfad_938" data-name="Pfad 938" d="M49.354,445.5s-8.744,1.547-13.921-1.944c0,0-2.38,8.187-7.777,9.072,0,0-.311,7.5-6.09,7.692,0,0,3.211,5.43-.093,9.96,0,0,4.935-4.114,9.572-2.181,0,0,1.926-6.625,7.657-4.842,0,0,2.362-7.316,7.27-6.123A17.351,17.351,0,0,1,49.354,445.5Z" transform="translate(-21.472 -443.552)" fill="#e0ca9f"/>
      <path id="Pfad_939" data-name="Pfad 939" d="M48.869,445.413c.154-.226.315-.451.485-.675,0,0-.662.116-1.724.213-4.812,2.044-15.921,7.931-24.8,21.42a7.62,7.62,0,0,1-1.354,3.147s.293-.243.8-.582C31.827,453.149,44.65,447.064,48.869,445.413Z" transform="translate(-21.472 -442.794)" fill="#e0ca9f"/>
    </g>
    <g id="Gruppe_254" data-name="Gruppe 254" transform="translate(80.615 137.091)">
      <path id="Pfad_940" data-name="Pfad 940" d="M83.46,487.346s-3.57-8.131-1.4-13.987c0,0-8.518-.377-10.652-5.414,0,0-7.364,1.47-8.914-4.1,0,0-4.519,4.4-9.7,2.265,0,0,5.164,3.822,4.383,8.783,0,0,6.892.306,6.513,6.3,0,0,7.667.565,7.667,5.618A17.343,17.343,0,0,1,83.46,487.346Z" transform="translate(-52.793 -463.845)" fill="#e0ca9f"/>
      <path id="Pfad_941" data-name="Pfad 941" d="M82.69,486.152c.256.1.513.2.77.311,0,0-.269-.616-.615-1.626-3.122-4.192-11.468-13.6-26.674-19.04a7.616,7.616,0,0,1-3.378-.57s.3.226.754.638C71.146,471.421,80.09,482.441,82.69,486.152Z" transform="translate(-52.793 -462.962)" fill="#e0ca9f"/>
    </g>
    <g id="Gruppe_255" data-name="Gruppe 255" transform="translate(144.154 135.013)">
      <path id="Pfad_942" data-name="Pfad 942" d="M86.732,499.878s4.684-7.544,10.739-9.072c0,0-4.509-7.234-1.565-11.845,0,0-5.379-5.238-1.664-9.668,0,0-6.187-1.234-7.357-6.716,0,0-.229,6.42-4.763,8.585,0,0,3.648,5.854-1.5,8.932,0,0,3.873,6.641-.293,9.5A17.345,17.345,0,0,1,86.732,499.878Z" transform="translate(-80.325 -462.577)" fill="#e0ca9f"/>
      <path id="Pfad_943" data-name="Pfad 943" d="M84.125,499.067c.066.266.126.534.179.811,0,0,.356-.57.993-1.428,1.688-4.946,4.719-17.149.6-32.766a7.617,7.617,0,0,1-1.441-3.107s-.015.379-.1.982C89.737,481.212,85.712,494.824,84.125,499.067Z" transform="translate(-77.897 -462.577)" fill="#e0ca9f"/>
    </g>
  </g>
  <g id="Gruppe_271" data-name="Gruppe 271" transform="translate(14.273 12.903)">
    <g id="Gruppe_258" data-name="Gruppe 258" transform="translate(34.541 105.629)">
      <path id="Pfad_944" data-name="Pfad 944" d="M46.57,463.612a5,5,0,1,1-2.042-6.767A5,5,0,0,1,46.57,463.612Z" transform="translate(-37.166 -456.25)" fill="#be9a49"/>
      <g id="Gruppe_257" data-name="Gruppe 257" transform="translate(1.121 0.831)">
        <path id="Pfad_945" data-name="Pfad 945" d="M42.175,457.4a.58.58,0,0,0-.529-.629,3.475,3.475,0,0,0-3.729,2.893.587.587,0,0,0,.3.61.545.545,0,0,0,.18.061.581.581,0,0,0,.669-.479,2.31,2.31,0,0,1,2.478-1.926A.581.581,0,0,0,42.175,457.4Z" transform="translate(-37.813 -456.757)" fill="#e0ca9f"/>
        <path id="Pfad_946" data-name="Pfad 946" d="M39.017,460.013a.582.582,0,0,0-.251-.765l-.018-.008a.581.581,0,0,0-.779.264,1.18,1.18,0,0,0,.18,1.3.521.521,0,0,0,.154.121.589.589,0,0,0,.713-.913Z" transform="translate(-37.85 -455.21)" fill="#e0ca9f"/>
      </g>
    </g>
    <g id="Gruppe_260" data-name="Gruppe 260" transform="translate(60.362 151.006)">
      <path id="Pfad_947" data-name="Pfad 947" d="M48.569,482.737a5,5,0,1,1,6.587,2.567A5,5,0,0,1,48.569,482.737Z" transform="translate(-48.146 -475.727)" fill="#be9a49"/>
      <g id="Gruppe_259" data-name="Gruppe 259" transform="translate(5.547 1.299)">
        <path id="Pfad_948" data-name="Pfad 948" d="M52.78,482.261a.581.581,0,0,0,.823-.028,3.473,3.473,0,0,0,.021-4.72.584.584,0,0,0-.664-.139.524.524,0,0,0-.159.1.583.583,0,0,0-.036.823,2.309,2.309,0,0,1-.013,3.137A.582.582,0,0,0,52.78,482.261Z" transform="translate(-50.85 -476.005)" fill="#e0ca9f"/>
        <path id="Pfad_949" data-name="Pfad 949" d="M52.158,477.694a.581.581,0,0,0,.756.275l.018-.008a.584.584,0,0,0,.274-.777,1.185,1.185,0,0,0-1.136-.662.569.569,0,0,0-.192.047.589.589,0,0,0,.28,1.124Z" transform="translate(-51.53 -476.52)" fill="#e0ca9f"/>
      </g>
    </g>
    <g id="Gruppe_262" data-name="Gruppe 262" transform="translate(112.327 111.905)">
      <path id="Pfad_950" data-name="Pfad 950" d="M80.237,464.122a5,5,0,1,1-4.815-5.174A5,5,0,0,1,80.237,464.122Z" transform="translate(-70.243 -458.944)" fill="#be9a49"/>
      <g id="Gruppe_261" data-name="Gruppe 261" transform="translate(0.91 1.248)">
        <path id="Pfad_951" data-name="Pfad 951" d="M73.769,460.078a.58.58,0,0,0-.754-.333,3.473,3.473,0,0,0-2.072,4.24.582.582,0,0,0,.538.415.574.574,0,0,0,.188-.025.584.584,0,0,0,.39-.726,2.306,2.306,0,0,1,1.377-2.819A.582.582,0,0,0,73.769,460.078Z" transform="translate(-70.798 -459.705)" fill="#e0ca9f"/>
        <path id="Pfad_952" data-name="Pfad 952" d="M72.432,463.3a.582.582,0,0,0-.561-.577h-.02a.582.582,0,0,0-.583.582A1.181,1.181,0,0,0,72,464.389a.621.621,0,0,0,.192.041.589.589,0,0,0,.238-1.134Z" transform="translate(-70.498 -457.78)" fill="#e0ca9f"/>
      </g>
    </g>
    <g id="Gruppe_264" data-name="Gruppe 264" transform="translate(147.727 50.265)">
      <path id="Pfad_953" data-name="Pfad 953" d="M91.807,442.25a5,5,0,1,1,3.253-6.277A5,5,0,0,1,91.807,442.25Z" transform="translate(-85.295 -432.486)" fill="#be9a49"/>
      <g id="Gruppe_263" data-name="Gruppe 263" transform="translate(1.438 0.786)">
        <path id="Pfad_954" data-name="Pfad 954" d="M91.955,434.987a.58.58,0,0,0,.059-.821,3.474,3.474,0,0,0-4.691-.523.585.585,0,0,0-.208.646.548.548,0,0,0,.085.169.583.583,0,0,0,.815.123,2.309,2.309,0,0,1,3.119.347A.582.582,0,0,0,91.955,434.987Z" transform="translate(-85.588 -432.965)" fill="#e0ca9f"/>
        <path id="Pfad_955" data-name="Pfad 955" d="M87.347,435.1a.582.582,0,0,0,.354-.721l-.007-.02a.582.582,0,0,0-.744-.354,1.18,1.18,0,0,0-.777,1.059.551.551,0,0,0,.026.2.589.589,0,0,0,1.147-.159Z" transform="translate(-86.173 -432.322)" fill="#e0ca9f"/>
      </g>
    </g>
    <g id="Gruppe_266" data-name="Gruppe 266" transform="translate(48.495 27.426)">
      <path id="Pfad_956" data-name="Pfad 956" d="M49.612,432.447a5,5,0,1,1,3.253-6.277A5,5,0,0,1,49.612,432.447Z" transform="translate(-43.1 -422.682)" fill="#be9a49"/>
      <g id="Gruppe_265" data-name="Gruppe 265" transform="translate(1.438 0.786)">
        <path id="Pfad_957" data-name="Pfad 957" d="M49.76,425.184a.58.58,0,0,0,.059-.821,3.474,3.474,0,0,0-4.691-.523.585.585,0,0,0-.208.646.547.547,0,0,0,.085.169.583.583,0,0,0,.815.123,2.309,2.309,0,0,1,3.119.347A.582.582,0,0,0,49.76,425.184Z" transform="translate(-43.393 -423.162)" fill="#e0ca9f"/>
        <path id="Pfad_958" data-name="Pfad 958" d="M45.152,425.3a.582.582,0,0,0,.354-.721l-.007-.02a.582.582,0,0,0-.744-.354,1.18,1.18,0,0,0-.777,1.059.551.551,0,0,0,.026.2.589.589,0,0,0,1.147-.159Z" transform="translate(-43.978 -422.519)" fill="#e0ca9f"/>
      </g>
    </g>
    <g id="Gruppe_268" data-name="Gruppe 268" transform="translate(112.327 27.426)">
      <path id="Pfad_959" data-name="Pfad 959" d="M81.118,418.279a5,5,0,1,1-2.034-6.771A5,5,0,0,1,81.118,418.279Z" transform="translate(-71.717 -410.91)" fill="#be9a49"/>
      <g id="Gruppe_267" data-name="Gruppe 267" transform="translate(1.12 0.83)">
        <path id="Pfad_960" data-name="Pfad 960" d="M76.731,412.061a.581.581,0,0,0-.529-.631,3.472,3.472,0,0,0-3.732,2.89.581.581,0,0,0,.3.608.6.6,0,0,0,.18.062.583.583,0,0,0,.67-.479,2.307,2.307,0,0,1,2.48-1.921A.584.584,0,0,0,76.731,412.061Z" transform="translate(-72.362 -411.417)" fill="#e0ca9f"/>
        <path id="Pfad_961" data-name="Pfad 961" d="M73.567,414.671a.584.584,0,0,0-.249-.765L73.3,413.9a.583.583,0,0,0-.78.262,1.185,1.185,0,0,0,.179,1.3.635.635,0,0,0,.154.121.589.589,0,0,0,.715-.913Z" transform="translate(-72.4 -409.87)" fill="#e0ca9f"/>
      </g>
    </g>
    <g id="Gruppe_270" data-name="Gruppe 270" transform="translate(0 53.726)">
      <path id="Pfad_962" data-name="Pfad 962" d="M32.319,437.726a5,5,0,1,1-6.086-3.6A5,5,0,0,1,32.319,437.726Z" transform="translate(-22.479 -433.971)" fill="#be9a49"/>
      <g id="Gruppe_269" data-name="Gruppe 269" transform="translate(0.801 1.851)">
        <path id="Pfad_963" data-name="Pfad 963" d="M25.135,435.328a.582.582,0,0,0-.818-.1,3.473,3.473,0,0,0-.782,4.655.582.582,0,1,0,.974-.639,2.307,2.307,0,0,1,.521-3.093A.584.584,0,0,0,25.135,435.328Z" transform="translate(-22.968 -435.1)" fill="#e0ca9f"/>
        <path id="Pfad_964" data-name="Pfad 964" d="M25.018,438.589a.581.581,0,0,0-.7-.393l-.02,0a.583.583,0,0,0-.395.723,1.182,1.182,0,0,0,1.015.836.553.553,0,0,0,.2-.016.588.588,0,0,0-.093-1.154Z" transform="translate(-22.386 -433.135)" fill="#e0ca9f"/>
      </g>
    </g>
  </g>
  <g id="Gruppe_272" data-name="Gruppe 272" transform="translate(9.88 7.845)">
    <path id="Pfad_965" data-name="Pfad 965" d="M42.362,417.2a1.318,1.318,0,0,0,0,2.634A1.318,1.318,0,0,0,42.362,417.2Z" transform="translate(6.518 -401.835)" fill="#fff"/>
    <path id="Pfad_966" data-name="Pfad 966" d="M45.977,411.038a1.317,1.317,0,0,0,0,2.632A1.317,1.317,0,0,0,45.977,411.038Z" transform="translate(10.986 -405.77)" fill="#fff"/>
    <path id="Pfad_967" data-name="Pfad 967" d="M67.669,419.875a1.318,1.318,0,0,0,0,2.634A1.318,1.318,0,0,0,67.669,419.875Z" transform="translate(37.799 -400.124)" fill="#fff"/>
    <path id="Pfad_968" data-name="Pfad 968" d="M66.2,425.365a1.318,1.318,0,0,0,0,2.634A1.318,1.318,0,0,0,66.2,425.365Z" transform="translate(35.979 -386.398)" fill="#fff"/>
    <path id="Pfad_972" data-name="Pfad 972" d="M95.655,428.311a1.318,1.318,0,0,0,0,2.634A1.318,1.318,0,0,0,95.655,428.311Z" transform="translate(72.631 -382.799)" fill="#fff"/>
    <path id="Pfad_973" data-name="Pfad 973" d="M73.427,435.542a1.318,1.318,0,0,0,0,2.634A1.318,1.318,0,0,0,73.427,435.542Z" transform="translate(44.916 -373.966)" fill="#fff"/>
    <path id="Pfad_974" data-name="Pfad 974" d="M76.239,454.69a1.318,1.318,0,0,0,0,2.634A1.318,1.318,0,0,0,76.239,454.69Z" transform="translate(48.392 -350.577)" fill="#fff"/>
    <path id="Pfad_975" data-name="Pfad 975" d="M80.256,456.7a1.318,1.318,0,0,0,0,2.634A1.318,1.318,0,0,0,80.256,456.7Z" transform="translate(53.357 -348.123)" fill="#fff"/>
    <path id="Pfad_976" data-name="Pfad 976" d="M75.454,469.554a1.339,1.339,0,0,0-1.318,1.316v.22a1.317,1.317,0,0,0,2.634,0v-.22A1.33,1.33,0,0,0,75.454,469.554Z" transform="translate(47.389 -332.359)" fill="#fff"/>
    <path id="Pfad_977" data-name="Pfad 977" d="M76.641,478.123a1.318,1.318,0,0,0,0,2.634A1.318,1.318,0,0,0,76.641,478.123Z" transform="translate(48.889 -318.132)" fill="#fff"/>
    <path id="Pfad_978" data-name="Pfad 978" d="M69.142,482.676a1.318,1.318,0,0,0,0,2.634A1.318,1.318,0,0,0,69.142,482.676Z" transform="translate(39.62 -315.223)" fill="#fff"/>
    <path id="Pfad_979" data-name="Pfad 979" d="M92.843,462.457a1.317,1.317,0,0,0,0,2.632A1.317,1.317,0,0,0,92.843,462.457Z" transform="translate(70.835 -341.09)" fill="#fff"/>
    <path id="Pfad_980" data-name="Pfad 980" d="M96.057,469.42a1.317,1.317,0,0,0,0,2.632A1.317,1.317,0,0,0,96.057,469.42Z" transform="translate(72.888 -332.585)" fill="#fff"/>
    <path id="Pfad_981" data-name="Pfad 981" d="M93.915,484.149a1.318,1.318,0,0,0,0,2.634A1.318,1.318,0,0,0,93.915,484.149Z" transform="translate(71.519 -314.281)" fill="#fff"/>
    <path id="Pfad_982" data-name="Pfad 982" d="M39.818,481.337a1.318,1.318,0,0,0,0,2.634A1.318,1.318,0,0,0,39.818,481.337Z" transform="translate(3.373 -316.078)" fill="#fff"/>
    <path id="Pfad_983" data-name="Pfad 983" d="M44.772,484.684a1.318,1.318,0,0,0,0,2.634A1.318,1.318,0,0,0,44.772,484.684Z" transform="translate(9.497 -313.94)" fill="#fff"/>
    <path id="Pfad_984" data-name="Pfad 984" d="M58.832,482.542a1.318,1.318,0,0,0,0,2.634A1.318,1.318,0,0,0,58.832,482.542Z" transform="translate(26.876 -315.308)" fill="#fff"/>
    <path id="Pfad_985" data-name="Pfad 985" d="M50.53,470.357a1.318,1.318,0,0,0,0,2.634A1.318,1.318,0,0,0,50.53,470.357Z" transform="translate(16.614 -331.44)" fill="#fff"/>
    <path id="Pfad_986" data-name="Pfad 986" d="M50.262,460.314a1.318,1.318,0,0,0,0,2.634A1.318,1.318,0,0,0,50.262,460.314Z" transform="translate(16.283 -343.708)" fill="#fff"/>
    <path id="Pfad_987" data-name="Pfad 987" d="M59.9,457.5a1.318,1.318,0,0,0,0,2.634A1.318,1.318,0,0,0,59.9,457.5Z" transform="translate(28.2 -347.142)" fill="#fff"/>
    <path id="Pfad_988" data-name="Pfad 988" d="M30.042,461.787a1.318,1.318,0,0,0,0,2.634A1.318,1.318,0,0,0,30.042,461.787Z" transform="translate(-14.066 -341.908)" fill="#fff"/>
    <path id="Pfad_1100" data-name="Pfad 1100" d="M30.042,461.787a1.318,1.318,0,0,0,0,2.634A1.318,1.318,0,0,0,30.042,461.787Z" transform="translate(6.113 -323.055)" fill="#fff"/>
    <path id="Pfad_1101" data-name="Pfad 1101" d="M30.042,461.787a1.318,1.318,0,0,0,0,2.634A1.318,1.318,0,0,0,30.042,461.787Z" transform="translate(-19.289 -316.055)" fill="#fff"/>
    <path id="Pfad_1102" data-name="Pfad 1102" d="M30.042,461.787a1.318,1.318,0,0,0,0,2.634A1.318,1.318,0,0,0,30.042,461.787Z" transform="translate(-7.071 -304.162)" fill="#fff"/>
    <path id="Pfad_989" data-name="Pfad 989" d="M22.276,465.4a1.318,1.318,0,0,0,0,2.634A1.318,1.318,0,0,0,22.276,465.4Z" transform="translate(-19.029 -337.493)" fill="#fff"/>
    <path id="Pfad_990" data-name="Pfad 990" d="M21.607,445.183a1.318,1.318,0,0,0,0,2.634A1.318,1.318,0,0,0,21.607,445.183Z" transform="translate(-19.456 -362.19)" fill="#fff"/>
    <path id="Pfad_991" data-name="Pfad 991" d="M21.071,427.374a1.318,1.318,0,0,0,0,2.634A1.318,1.318,0,0,0,21.071,427.374Z" transform="translate(-19.799 -383.944)" fill="#fff"/>
    <path id="Pfad_992" data-name="Pfad 992" d="M27.632,430.052a1.318,1.318,0,0,0,0,2.634A1.318,1.318,0,0,0,27.632,430.052Z" transform="translate(-15.606 -380.673)" fill="#fff"/>
    <path id="Pfad_993" data-name="Pfad 993" d="M37.809,434.069a1.318,1.318,0,0,0,0,2.634A1.318,1.318,0,0,0,37.809,434.069Z" transform="translate(0.89 -375.766)" fill="#fff"/>
    <path id="Pfad_994" data-name="Pfad 994" d="M33.256,439.559a1.318,1.318,0,0,0,0,2.634A1.318,1.318,0,0,0,33.256,439.559Z" transform="translate(-12.013 -369.06)" fill="#fff"/>
    <path id="Pfad_995" data-name="Pfad 995" d="M37.943,408.493a1.318,1.318,0,0,0,0,2.634A1.318,1.318,0,0,0,37.943,408.493Z" transform="translate(1.056 -407.397)" fill="#fff"/>
    <path id="Pfad_996" data-name="Pfad 996" d="M66.33,407.824a1.318,1.318,0,0,0,0,2.634A1.318,1.318,0,0,0,66.33,407.824Z" transform="translate(36.144 -407.824)" fill="#fff"/>
  </g>
  <path id="Pfad_1069" data-name="Pfad 1069" d="M12.538-21.553c-8.049,0-11.477,3.428-11.477,7.6,0,2.435,1.341,4.621,4.422,4.621,2.484,0,4.372-1.54,4.372-3.875a5.809,5.809,0,0,0-.4-2.236H7.967a4.381,4.381,0,0,1-.3-1.441,3.5,3.5,0,0,1,3.776-3.726c3.428,0,4.372,2.136,4.372,7.055,0,6.956-2.981,11.08-9.39,16.942L1.409,8.009v5.763H24.76L25.257.01h-.845c-.745,3.826-2.037,6.161-6.906,6.161H5.582L8.613,3.984C20.736-4.76,24.562-7.244,24.562-13.008,24.562-18.821,20.14-21.553,12.538-21.553Zm20.52,1.838V12.828H27.841v.944H46.622v-.944H42.746V-21.553H38.722l-11.229,1.54.1.994Z" transform="translate(71.148 90.975)" fill="#fff"/>
</svg>
