<svg xmlns="http://www.w3.org/2000/svg" xmlns:xlink="http://www.w3.org/1999/xlink" width="187" height="187" viewBox="0 0 187 187">
  <defs>
    <clipPath id="clip-path">
      <rect id="Rechteck_14" data-name="Rechteck 14" width="187" height="187" fill="none"/>
    </clipPath>
  </defs>
  <g id="_22" data-name="22" transform="translate(0 0)">
    <rect id="Rechteck_13" data-name="Rechteck 13" width="187" height="187" transform="translate(0 0)" fill="#fff" opacity="0"/>
    <g id="Gruppe_35" data-name="Gruppe 35" transform="translate(0 0)">
      <g id="Gruppe_34" data-name="Gruppe 34" clip-path="url(#clip-path)">
        <g id="Gruppe_33" data-name="Gruppe 33" transform="translate(-12.996 -6.727)">
          <path id="Pfad_1068" data-name="Pfad 1068" d="M11.811-15.762c-7.739,0-11.036,3.3-11.036,7.309,0,2.341,1.29,4.443,4.252,4.443,2.389,0,4.2-1.481,4.2-3.726a5.586,5.586,0,0,0-.382-2.15H7.416a4.212,4.212,0,0,1-.287-1.385,3.367,3.367,0,0,1,3.631-3.583c3.3,0,4.2,2.054,4.2,6.784,0,6.688-2.866,10.653-9.029,16.291L1.11,12.663V18.2H23.564l.478-13.233h-.812C22.513,8.65,21.27,10.9,16.589,10.9H5.123l2.914-2.1C19.694.385,23.372-2,23.372-7.545,23.372-13.135,19.121-15.762,11.811-15.762Zm26.371,0c-7.739,0-11.036,3.3-11.036,7.309,0,2.341,1.29,4.443,4.252,4.443,2.389,0,4.2-1.481,4.2-3.726a5.586,5.586,0,0,0-.382-2.15H33.787a4.212,4.212,0,0,1-.287-1.385,3.367,3.367,0,0,1,3.631-3.583c3.3,0,4.2,2.054,4.2,6.784,0,6.688-2.866,10.653-9.029,16.291l-4.825,4.443V18.2H49.934l.478-13.233H49.6c-.717,3.679-1.959,5.924-6.64,5.924H31.494l2.914-2.1C46.065.385,49.743-2,49.743-7.545,49.743-13.135,45.491-15.762,38.182-15.762Z" transform="translate(32.663 150.038)" fill="#393939"/>
          <path id="Pfad_279" data-name="Pfad 279" d="M121.832,477.875h-.06a.865.865,0,0,1-.06-1.728l4.624-.323-4.719-2.672a.865.865,0,1,1,.851-1.506l4.349,2.461-1.836-3.409a.865.865,0,0,1,1.524-.821l3.142,5.831,2.6,1.47q-.278-.8-.556-1.6c-.431-1.235-.86-2.472-1.276-3.76a.866.866,0,1,1,1.649-.53c.409,1.274.836,2.5,1.263,3.722.394,1.133.789,2.271,1.17,3.446l3.868,2.187,5.521-3.741-.039-4.5h0a36.065,36.065,0,0,1-5.592-5.786.866.866,0,1,1,1.371-1.058,34.387,34.387,0,0,0,4.2,4.527l-.019-2.164a36.2,36.2,0,0,1-5.443-7.374.865.865,0,0,1,1.513-.84,34.573,34.573,0,0,0,3.909,5.622l-.058-6.45a.868.868,0,0,1,.86-.873h.006a.867.867,0,0,1,.866.858l.054,6.1,3.37-5.331a.865.865,0,0,1,1.463.924l-4.808,7.6.011,1.123,3.571-4.25a.866.866,0,1,1,1.325,1.114l-4.872,5.8.043,4.926,5.706,3.581L155.5,478v0a36.2,36.2,0,0,1,2.217-7.736.865.865,0,0,1,1.6.659,34.487,34.487,0,0,0-1.819,5.9l1.864-1.1a36.277,36.277,0,0,1,3.663-8.4.866.866,0,0,1,1.487.89,34.579,34.579,0,0,0-2.918,6.2l5.558-3.273a.866.866,0,1,1,.879,1.491l-5.26,3.1,6.3.254a.866.866,0,0,1-.034,1.73H169l-8.988-.362-.97.571,5.469.968a.865.865,0,0,1-.151,1.717.913.913,0,0,1-.151-.013l-7.46-1.321-4.577,2.7v6.488l4.3,2.435h0a35.9,35.9,0,0,1,7.807-1.95.865.865,0,0,1,.228,1.715,34.423,34.423,0,0,0-6.021,1.375l1.881,1.065a36.926,36.926,0,0,1,9.111-1.026.866.866,0,0,1-.015,1.733h-.013a34.022,34.022,0,0,0-6.827.571l5.616,3.176a.865.865,0,0,1-.427,1.618.877.877,0,0,1-.427-.112l-5.312-3.006,2.931,5.583a.866.866,0,1,1-1.532.806l-4.181-7.962-.978-.554,1.9,5.217a.867.867,0,0,1-.519,1.11.88.88,0,0,1-.3.052.868.868,0,0,1-.815-.569L156,492.606l-4.687-2.651-5.555,3.232.037,4.338,5.728,6.495a.866.866,0,0,1-1.3,1.144l-4.4-5,.024,2.726,4.056,6.012a.865.865,0,0,1-1.435.968l-2.592-3.842.047,5.422a.868.868,0,0,1-.858.875h-.009a.867.867,0,0,1-.866-.858l-.043-5-2.034,3.295a.866.866,0,0,1-1.474-.909l3.48-5.637-.026-2.982c-.373.427-.741.851-1.108,1.278-.855.991-1.713,1.982-2.623,2.989a.866.866,0,0,1-1.284-1.161c.9-1,1.748-1.976,2.6-2.959.782-.909,1.571-1.817,2.394-2.735l-.039-4.448-5.611-3.137-3.7,2.183-2.763,8.208a.865.865,0,0,1-1.64-.554l2.125-6.314-2.347,1.383-3.181,6.519a.868.868,0,0,1-.78.487.842.842,0,0,1-.377-.088.863.863,0,0,1-.4-1.157l2.032-4.168-4.674,2.754a.866.866,0,1,1-.879-1.491l4.306-2.536-3.87-.114a.865.865,0,0,1-.838-.892.881.881,0,0,1,.89-.84l6.62.2,2.571-1.515q-.824-.162-1.646-.317c-1.293-.246-2.584-.493-3.913-.78a.865.865,0,0,1,.364-1.692c1.317.284,2.595.528,3.872.769,1.174.226,2.351.453,3.553.707l3.8-2.239v-6.413l-3.8-2.148-8.49,1.711a.767.767,0,0,1-.17.017.866.866,0,0,1-.17-1.715l6.529-1.317-2.37-1.34Zm17.438,10.686,5.609,3.135,5.562-3.237v-6.514l-5.67-3.558-5.5,3.728Z" transform="translate(6.57 -332.831)" fill="#e0ca9f"/>
          <path id="Pfad_280" data-name="Pfad 280" d="M135.2,429.195h-.062a.865.865,0,0,1-.06-1.728l4.627-.323-4.721-2.672a.865.865,0,1,1,.851-1.506l4.351,2.461-1.838-3.409a.866.866,0,0,1,1.526-.821l3.142,5.831,2.6,1.47c-.185-.536-.368-1.071-.554-1.6-.431-1.235-.862-2.472-1.278-3.76a.866.866,0,1,1,1.649-.53c.412,1.276.838,2.5,1.263,3.722.394,1.133.789,2.271,1.172,3.446l3.868,2.189,5.521-3.741-.041-4.5h0a36.06,36.06,0,0,1-5.592-5.786.866.866,0,1,1,1.371-1.058,34.261,34.261,0,0,0,4.2,4.527l-.019-2.164a36.28,36.28,0,0,1-5.443-7.374.866.866,0,0,1,1.515-.84,34.431,34.431,0,0,0,3.907,5.622l-.056-6.45a.865.865,0,0,1,.858-.873h.009a.865.865,0,0,1,.864.858l.054,6.1,3.37-5.331a.865.865,0,0,1,1.463.924l-4.805,7.6.009,1.123,3.573-4.249a.866.866,0,1,1,1.325,1.114l-4.874,5.8.043,4.926,5.706,3.581,4.176-2.459v0a36.016,36.016,0,0,1,2.215-7.734.866.866,0,1,1,1.6.659,34.215,34.215,0,0,0-1.821,5.9l1.864-1.1a36.193,36.193,0,0,1,3.665-8.4.866.866,0,1,1,1.485.89,34.579,34.579,0,0,0-2.918,6.2l5.56-3.273a.865.865,0,1,1,.877,1.491l-5.26,3.1,6.3.254a.866.866,0,0,1-.035,1.73h-.034l-8.986-.362-.97.571,5.467.968a.865.865,0,0,1-.149,1.717.739.739,0,0,1-.153-.015l-7.46-1.319-4.577,2.7v6.491l4.3,2.433h0a35.9,35.9,0,0,1,7.807-1.95.865.865,0,1,1,.228,1.715,34.523,34.523,0,0,0-6.021,1.375l1.883,1.065a36.906,36.906,0,0,1,9.109-1.026.866.866,0,0,1-.013,1.733h-.015a34.031,34.031,0,0,0-6.827.571l5.616,3.176a.865.865,0,1,1-.851,1.506l-5.314-3.006,2.931,5.586a.863.863,0,0,1-.362,1.168.877.877,0,0,1-.4.1.866.866,0,0,1-.767-.463l-4.181-7.962-.978-.554,1.9,5.217a.866.866,0,0,1-.517,1.11.847.847,0,0,1-.3.052.864.864,0,0,1-.812-.569l-2.588-7.122-4.685-2.651-5.558,3.232.039,4.338,5.726,6.495a.865.865,0,1,1-1.3,1.144l-4.407-5,.024,2.726,4.056,6.012a.865.865,0,0,1-1.435.968l-2.592-3.842.047,5.422a.865.865,0,0,1-.858.875h-.009a.866.866,0,0,1-.864-.86l-.045-5-2.032,3.295a.866.866,0,0,1-.739.409.851.851,0,0,1-.453-.129.863.863,0,0,1-.282-1.19l3.478-5.637-.026-2.982c-.371.427-.739.851-1.108,1.278-.856.991-1.711,1.982-2.62,2.989a.873.873,0,0,1-.642.284.865.865,0,0,1-.642-1.446c.9-1,1.748-1.976,2.595-2.959.784-.909,1.571-1.817,2.4-2.735l-.039-4.448-5.611-3.135-3.7,2.181-2.76,8.208a.868.868,0,0,1-.821.588.881.881,0,0,1-.276-.045.869.869,0,0,1-.545-1.1l2.125-6.312-2.347,1.381-3.181,6.519a.865.865,0,1,1-1.556-.759l2.032-4.168-4.674,2.754a.865.865,0,1,1-.877-1.491l4.305-2.536-3.872-.114a.866.866,0,0,1-.838-.892.882.882,0,0,1,.89-.84l6.62.2,2.573-1.515c-.552-.106-1.1-.213-1.649-.317-1.291-.246-2.584-.493-3.913-.778a.866.866,0,0,1,.366-1.694c1.314.284,2.592.528,3.87.771,1.174.224,2.353.45,3.556.7l3.8-2.239v-6.413l-3.8-2.148-8.488,1.711a.8.8,0,0,1-.172.017.866.866,0,0,1-.17-1.715l6.529-1.317-2.37-1.34Zm17.435,10.686,5.609,3.135,5.564-3.237v-6.514l-5.67-3.558-5.5,3.728Z" transform="translate(-35.603 -389.053)" fill="#e0ca9f"/>
          <path id="Pfad_281" data-name="Pfad 281" d="M178.532,419.786l-.062,0a.865.865,0,0,1-.058-1.728l4.625-.325-4.721-2.67a.866.866,0,1,1,.853-1.506l4.349,2.461-1.836-3.409a.866.866,0,1,1,1.523-.823l3.142,5.833,2.6,1.47q-.275-.8-.554-1.6c-.431-1.237-.862-2.474-1.276-3.76a.865.865,0,1,1,1.646-.532c.412,1.276.838,2.5,1.265,3.724.394,1.133.787,2.271,1.17,3.446l3.868,2.187,5.521-3.741-.039-4.5h0a36.173,36.173,0,0,1-5.592-5.788.866.866,0,0,1,1.373-1.056,34.376,34.376,0,0,0,4.2,4.527l-.017-2.164a36.2,36.2,0,0,1-5.443-7.374.866.866,0,1,1,1.513-.843,34.361,34.361,0,0,0,3.907,5.624l-.056-6.45a.866.866,0,0,1,.858-.873h.009a.866.866,0,0,1,.866.858l.052,6.1,3.37-5.331a.865.865,0,1,1,1.463.924l-4.805,7.6.011,1.125,3.571-4.252a.866.866,0,1,1,1.325,1.114l-4.874,5.8.043,4.926,5.708,3.581,4.174-2.459v0a36,36,0,0,1,2.215-7.736.866.866,0,0,1,1.6.659,34.372,34.372,0,0,0-1.821,5.9l1.864-1.1a36.3,36.3,0,0,1,3.666-8.4.866.866,0,1,1,1.485.89,34.647,34.647,0,0,0-2.916,6.2l5.558-3.273a.866.866,0,1,1,.879,1.491l-5.262,3.1,6.3.254a.866.866,0,0,1-.032,1.73l-.037,0-8.986-.362-.97.571,5.469.968a.867.867,0,0,1-.151,1.72.938.938,0,0,1-.153-.015l-7.46-1.321-4.575,2.7v6.491l4.3,2.435h0a35.856,35.856,0,0,1,7.805-1.95.865.865,0,1,1,.231,1.715,34.311,34.311,0,0,0-6.023,1.375L217.073,435a36.917,36.917,0,0,1,9.109-1.026.865.865,0,0,1-.013,1.73h-.015a34.325,34.325,0,0,0-6.825.571l5.616,3.178a.866.866,0,0,1-.853,1.506l-5.314-3.006,2.933,5.583a.866.866,0,1,1-1.532.806L216,436.386l-.978-.554,1.894,5.217a.866.866,0,0,1-.517,1.11.889.889,0,0,1-.3.052.866.866,0,0,1-.815-.569L212.7,434.52l-4.687-2.653-5.558,3.234.039,4.336,5.728,6.495a.868.868,0,0,1-.078,1.222.862.862,0,0,1-1.222-.078l-4.4-5,.024,2.724,4.056,6.012a.867.867,0,0,1-1.437.97l-2.592-3.844.047,5.424a.864.864,0,0,1-.858.873h-.006a.864.864,0,0,1-.866-.858l-.043-5-2.034,3.3a.87.87,0,0,1-.737.409.857.857,0,0,1-.455-.129.866.866,0,0,1-.282-1.192l3.48-5.635-.028-2.984q-.556.64-1.105,1.278c-.858.993-1.713,1.985-2.623,2.989a.866.866,0,1,1-1.284-1.161c.9-.993,1.748-1.976,2.6-2.959.782-.907,1.571-1.817,2.394-2.732l-.039-4.448-5.611-3.138-3.7,2.181-2.763,8.208a.866.866,0,0,1-.821.591.891.891,0,0,1-.276-.045.866.866,0,0,1-.543-1.1l2.123-6.314-2.347,1.383-3.178,6.519a.868.868,0,0,1-.78.487.889.889,0,0,1-.379-.088.867.867,0,0,1-.4-1.157l2.034-4.168-4.674,2.752a.857.857,0,0,1-.44.121.866.866,0,0,1-.44-1.612l4.305-2.534-3.87-.116a.865.865,0,0,1-.84-.89.883.883,0,0,1,.892-.84l6.62.2,2.571-1.515c-.552-.108-1.1-.213-1.648-.317-1.291-.248-2.582-.493-3.911-.78a.865.865,0,0,1,.364-1.692c1.315.282,2.595.526,3.872.769,1.174.224,2.351.453,3.553.7l3.8-2.237v-6.413l-3.8-2.151-8.49,1.713a.938.938,0,0,1-.172.017.866.866,0,0,1-.17-1.715l6.529-1.317-2.37-1.34Zm17.438,10.686,5.609,3.138,5.562-3.239v-6.512l-5.67-3.558-5.5,3.726Z" transform="translate(-172.312 -399.916)" fill="#e0ca9f"/>
          <path id="Pfad_282" data-name="Pfad 282" d="M153.37,460.556c1.383.252,2.782.437,4.181.59l-2.72-3.036a.866.866,0,0,1,1.291-1.155l2.256,2.521-.1-3.366a.866.866,0,0,1,.838-.892.883.883,0,0,1,.892.84l.119,3.92L162.2,457.3a.865.865,0,0,1,1.368,1.058l-2.373,3.071c1.739.086,3.482.116,5.224.047a.853.853,0,0,1,.9.832.866.866,0,0,1-.832.9q-1.2.049-2.407.047c-.787,0-1.573-.024-2.36-.054l3.4,3.795a.865.865,0,0,1-1.289,1.155l-3.573-3.989.207,6.782a.868.868,0,0,1-.84.892h-.026a.863.863,0,0,1-.864-.838l-.187-6.139-2.819,3.646a.866.866,0,0,1-.685.336.852.852,0,0,1-.528-.181.863.863,0,0,1-.155-1.213l3.493-4.521c-1.605-.164-3.2-.379-4.79-.668a.865.865,0,1,1,.312-1.7Z" transform="translate(-58.165 -336.047)" fill="#be9a49"/>
          <path id="Pfad_283" data-name="Pfad 283" d="M121.486,422.937c.788.143,1.582.249,2.378.337l-1.546-1.728a.492.492,0,0,1,.734-.657l1.283,1.433-.058-1.914a.493.493,0,0,1,.477-.507.5.5,0,0,1,.507.478l.067,2.23,1.177-1.523a.492.492,0,1,1,.778.6l-1.35,1.747c.99.048,1.981.065,2.97.026a.485.485,0,0,1,.512.473.493.493,0,0,1-.473.511q-.684.028-1.369.027c-.447,0-.894-.013-1.342-.031l1.932,2.158a.493.493,0,0,1-.366.821.5.5,0,0,1-.368-.164l-2.03-2.268.118,3.857a.493.493,0,0,1-.478.506h-.015a.491.491,0,0,1-.491-.477l-.107-3.491-1.6,2.073a.492.492,0,0,1-.778-.6l1.986-2.571c-.913-.093-1.822-.214-2.724-.38a.492.492,0,1,1,.176-.968Z" transform="translate(41.49 -360.001)" fill="#be9a49"/>
          <path id="Pfad_284" data-name="Pfad 284" d="M161.983,434.766c.693.127,1.391.219,2.091.3l-1.36-1.519a.433.433,0,0,1,.645-.577l1.128,1.261-.051-1.682a.432.432,0,0,1,.419-.446.44.44,0,0,1,.446.419l.059,1.961,1.035-1.339a.432.432,0,0,1,.684.529l-1.187,1.536c.871.042,1.742.057,2.612.024a.425.425,0,0,1,.45.415.433.433,0,0,1-.416.449q-.6.024-1.2.024c-.393,0-.787-.011-1.18-.027l1.7,1.9a.433.433,0,1,1-.645.578l-1.785-1.993.1,3.391a.434.434,0,0,1-.42.446H165.1a.432.432,0,0,1-.432-.42l-.094-3.07-1.409,1.823a.432.432,0,1,1-.684-.529l1.747-2.259c-.8-.082-1.6-.19-2.4-.335a.433.433,0,0,1,.155-.851Z" transform="translate(-78.398 -351.767)" fill="#be9a49"/>
          <path id="Pfad_285" data-name="Pfad 285" d="M165.968,417c1.386.252,2.782.437,4.183.59l-2.722-3.036a.866.866,0,0,1,1.291-1.155l2.258,2.521-.1-3.366a.868.868,0,0,1,.838-.892.883.883,0,0,1,.892.84l.119,3.922,2.071-2.679a.865.865,0,1,1,1.368,1.058l-2.373,3.073c1.741.084,3.485.114,5.224.045a.853.853,0,0,1,.9.832.865.865,0,0,1-.832.9q-1.2.049-2.407.047c-.787,0-1.573-.024-2.36-.054l3.4,3.795a.865.865,0,0,1-1.289,1.155l-3.573-3.989.207,6.784a.866.866,0,0,1-.84.89h-.026a.863.863,0,0,1-.864-.838l-.187-6.139-2.819,3.646a.866.866,0,0,1-.685.336.865.865,0,0,1-.683-1.394l3.493-4.521c-1.6-.164-3.2-.379-4.79-.668a.865.865,0,1,1,.312-1.7Z" transform="translate(-97.91 -386.345)" fill="#be9a49"/>
          <path id="Pfad_286" data-name="Pfad 286" d="M190.094,442.53c1.386.254,2.782.44,4.183.593l-2.72-3.038a.865.865,0,1,1,1.291-1.153l2.256,2.519-.1-3.364a.865.865,0,0,1,.838-.892.879.879,0,0,1,.892.838l.118,3.922,2.071-2.679a.866.866,0,1,1,1.368,1.06l-2.375,3.071c1.741.084,3.485.114,5.224.047a.853.853,0,0,1,.9.83.865.865,0,0,1-.832.9q-1.2.048-2.407.047c-.787,0-1.573-.022-2.36-.052l3.4,3.793a.866.866,0,1,1-1.291,1.155l-3.571-3.987.207,6.781a.868.868,0,0,1-.84.892h-.026a.865.865,0,0,1-.864-.84l-.187-6.139-2.819,3.648a.866.866,0,1,1-1.368-1.06l3.493-4.519c-1.605-.164-3.2-.379-4.79-.67a.865.865,0,1,1,.31-1.7Z" transform="translate(-174.032 -356.863)" fill="#be9a49"/>
          <path id="Pfad_287" data-name="Pfad 287" d="M149.386,479.212c.693.127,1.391.219,2.092.3l-1.36-1.519a.433.433,0,0,1,.644-.578l1.129,1.261-.051-1.682a.432.432,0,0,1,.419-.446.44.44,0,0,1,.446.419l.059,1.961,1.035-1.339a.433.433,0,0,1,.685.529l-1.188,1.537c.871.042,1.742.057,2.612.024a.425.425,0,0,1,.449.415.431.431,0,0,1-.415.449q-.6.024-1.2.024c-.393,0-.787-.011-1.18-.027l1.7,1.9a.432.432,0,0,1-.034.611.427.427,0,0,1-.288.111.434.434,0,0,1-.323-.144l-1.786-1.994.1,3.391a.434.434,0,0,1-.42.446H152.5a.434.434,0,0,1-.433-.42l-.093-3.07-1.41,1.823a.433.433,0,1,1-.684-.529l1.747-2.26c-.8-.082-1.6-.19-2.4-.335a.433.433,0,0,1,.155-.851Z" transform="translate(-47.209 -311.417)" fill="#be9a49"/>
          <path id="Pfad_288" data-name="Pfad 288" d="M115.145,454.063c1.386.252,2.782.437,4.183.591l-2.72-3.036a.865.865,0,1,1,1.289-1.155l2.258,2.521-.1-3.366a.865.865,0,0,1,.838-.892.882.882,0,0,1,.892.84l.119,3.92,2.069-2.676a.866.866,0,0,1,1.371,1.058l-2.375,3.071c1.741.084,3.485.114,5.224.047a.851.851,0,0,1,.9.832.865.865,0,0,1-.83.9q-1.2.048-2.407.047c-.787,0-1.573-.024-2.36-.054l3.4,3.795a.864.864,0,0,1-.069,1.222.852.852,0,0,1-.575.22.869.869,0,0,1-.646-.287l-3.571-3.989.2,6.782a.865.865,0,0,1-.838.892h-.026a.868.868,0,0,1-.866-.838l-.185-6.139-2.819,3.646a.865.865,0,1,1-1.368-1.058l3.493-4.521c-1.605-.164-3.2-.379-4.79-.668a.865.865,0,1,1,.31-1.7Z" transform="translate(62.428 -343.546)" fill="#be9a49"/>
          <path id="Pfad_289" data-name="Pfad 289" d="M117.389,484.735c10.182-8.559,23.226-11.876,34.785-18,1.218-.646,2.459-1.338,3.687-2.079-4.374-4.48-7.169-10.426-6.719-16.815.646-9.195,10.063-18.261,19.256-12.69,9.721,5.892,7.426,18.491,1.185,25.928a36.331,36.331,0,0,1-3.489,3.6,27.079,27.079,0,0,0,12.152,2.467c15.121-.241,28.156-9.311,42.073-14.031,8.376-2.838,18.476-4.349,27.208-1.752,6.831-7.982,17.552-12.261,27.982-12.432,14.681-.237,28.137,7.32,39.079,16.47,3,2.5-1.31,6.771-4.284,4.284-9.719-8.126-21.773-14.888-34.8-14.694-7.9.121-16.438,3.181-22.129,8.9a24.158,24.158,0,0,1,3.338,2.358c3.812,3.219,6.45,8.074,5.54,13.16-.8,4.469-4.068,8.641-8.717,9.411-4.943.819-9.51-2.554-11.374-6.98-2.064-4.907-.748-10.5,1.681-15.091-.506-.112-1-.209-1.461-.284-14.121-2.312-27.452,5.392-39.969,10.682-11.318,4.784-24.575,8.62-36.619,4.049a27.206,27.206,0,0,1-4.946-2.491c-8.187,5.426-18.011,8.6-26.755,12.779-12.326,5.887-26.962,17.464-21.377,32.992,1.321,3.676-4.532,5.26-5.844,1.612C102.732,504.556,108.449,492.254,117.389,484.735Zm130.8-22.877c-1.207,3.25-1.748,7.79,1.472,10.091,3.4,2.435,6.736-1.013,6.736-4.6,0-4-3.1-6.794-6.736-8.585A21.458,21.458,0,0,0,248.189,461.859Zm-80.331-9.072c1.534-3.271,1.8-7.15-.327-10.234-2.258-3.278-6.2-3.95-9.178-1.239-5.5,5.008-3.133,13.524,1.151,18.4a20.012,20.012,0,0,0,1.418,1.446A24.029,24.029,0,0,0,167.858,452.786Z" transform="translate(-105.501 -361.2)" fill="#be9a49"/>
        </g>
      </g>
    </g>
  </g>
</svg>
