<svg id="_23" data-name="23" xmlns="http://www.w3.org/2000/svg" width="187" height="187.001" viewBox="0 0 187 187.001">
  <rect id="Rechteck_4" data-name="Rechteck 4" width="187" height="187" fill="#e0ca9f" opacity="0"/>
  <g id="Gruppe_6" data-name="Gruppe 6" transform="translate(9.26 0.001)">
    <path id="Pfad_36" data-name="Pfad 36" d="M240.966,473.484h0a.656.656,0,0,0-.656.66l.034,8.088a.659.659,0,0,0,.659.656h0a.656.656,0,0,0,.656-.661l-.033-8.088A.658.658,0,0,0,240.966,473.484Z" transform="translate(-177.293 -313.252)" fill="#be9a49"/>
    <path id="Pfad_37" data-name="Pfad 37" d="M233.688,460.1q0-3.491-.008-6.984a.658.658,0,0,0-.659-.656h0a.655.655,0,0,0-.656.659q.007,3.491.008,6.98v1.218a.656.656,0,0,0,.657.659h0a.658.658,0,0,0,.659-.657Z" transform="translate(-187.199 -344.129)" fill="#be9a49"/>
    <path id="Pfad_39" data-name="Pfad 39" d="M233.648,473.139a.657.657,0,0,0-.652-.664h0a.658.658,0,0,0-.659.652q-.037,4.1-.087,8.2a.661.661,0,0,0,.651.667h.008a.659.659,0,0,0,.659-.651Q233.612,477.239,233.648,473.139Z" transform="translate(-187.339 -313.897)" fill="#be9a49"/>
    <path id="Pfad_42" data-name="Pfad 42" d="M232.9,482.481a.673.673,0,0,0-.669.649q-.061,4.1-.133,8.2a.66.66,0,0,0,.647.67h.011a.659.659,0,0,0,.657-.647q.074-4.1.133-8.2A.658.658,0,0,0,232.9,482.481Z" transform="translate(-187.518 -307.503)" fill="#be9a49"/>
    <path id="Pfad_45" data-name="Pfad 45" d="M240.678,404.389h0a.658.658,0,0,0-.656.66l.034,8.09a.658.658,0,0,0,.659.656h0a.659.659,0,0,0,.656-.661l-.033-8.09A.659.659,0,0,0,240.678,404.389Z" transform="translate(-177.652 -402.175)" fill="#be9a49"/>
    <path id="Pfad_46" data-name="Pfad 46" d="M249.845,469.438h-.011a.658.658,0,0,0-.647.669l.121,7.6a.659.659,0,0,0,.657.649h.011a.659.659,0,0,0,.647-.67l-.121-7.6A.66.66,0,0,0,249.845,469.438Z" transform="translate(-166.206 -324.059)" fill="#be9a49"/>
    <path id="Pfad_47" data-name="Pfad 47" d="M240.76,424.13h0a.66.66,0,0,0-.656.662l.034,8.088a.659.659,0,0,0,.659.656h0a.656.656,0,0,0,.656-.66l-.033-8.088A.66.66,0,0,0,240.76,424.13Z" transform="translate(-177.55 -377.908)" fill="#be9a49"/>
    <path id="Pfad_48" data-name="Pfad 48" d="M249.334,479.385l.121,7.6a.66.66,0,0,0,.659.649h.01a.659.659,0,0,0,.647-.669l-.121-7.6a.641.641,0,0,0-.669-.649A.659.659,0,0,0,249.334,479.385Z" transform="translate(-166.022 -309.909)" fill="#be9a49"/>
    <path id="Pfad_50" data-name="Pfad 50" d="M240.925,463.613h0a.659.659,0,0,0-.656.66l.034,8.09a.658.658,0,0,0,.657.656h0a.658.658,0,0,0,.656-.661l-.034-8.09A.658.658,0,0,0,240.925,463.613Z" transform="translate(-177.344 -330.865)" fill="#be9a49"/>
    <path id="Pfad_53" data-name="Pfad 53" d="M240.841,443.872h0a.658.658,0,0,0-.656.661l.033,8.09a.659.659,0,0,0,.659.656h0a.659.659,0,0,0,.656-.66l-.034-8.09A.658.658,0,0,0,240.841,443.872Z" transform="translate(-177.446 -354.386)" fill="#be9a49"/>
    <path id="Pfad_55" data-name="Pfad 55" d="M222.109,413.164a.659.659,0,0,0,.647-.669l-.138-8.075a.646.646,0,0,0-.67-.647.66.66,0,0,0-.647.669l.138,8.075a.659.659,0,0,0,.659.647Z" transform="translate(-206.485 -402.569)" fill="#be9a49"/>
    <path id="Pfad_56" data-name="Pfad 56" d="M214.462,489a.659.659,0,0,0-.608.7c.016.213.034.426.051.639h1.319c-.018-.246-.039-.492-.057-.738A.658.658,0,0,0,214.462,489Z" transform="translate(-211.244 -303.341)" fill="#be9a49"/>
    <path id="Pfad_60" data-name="Pfad 60" d="M222.432,432.871h.011a.659.659,0,0,0,.647-.67l-.138-8.075a.673.673,0,0,0-.669-.646.657.657,0,0,0-.647.669l.138,8.075A.659.659,0,0,0,222.432,432.871Z" transform="translate(-206.27 -378.683)" fill="#be9a49"/>
    <path id="Pfad_61" data-name="Pfad 61" d="M268.98,489.467h0a.652.652,0,0,0-.639.572h1.283A.652.652,0,0,0,268.98,489.467Z" transform="translate(-142.361 -303.039)" fill="#be9a49"/>
    <path id="Pfad_62" data-name="Pfad 62" d="M286.52,484.616a.658.658,0,0,0-.649.667l.115,7.856H287.3l-.115-7.874A.649.649,0,0,0,286.52,484.616Z" transform="translate(-120.453 -306.139)" fill="#be9a49"/>
    <path id="Pfad_63" data-name="Pfad 63" d="M259.106,487.813h0a.656.656,0,0,0-.657.659l0,2.624h1.316l0-2.627A.657.657,0,0,0,259.106,487.813Z" transform="translate(-154.68 -304.096)" fill="#be9a49"/>
    <path id="Pfad_64" data-name="Pfad 64" d="M250.129,487.994a.659.659,0,0,0-.647.669l.038,2.318h1.316l-.038-2.337A.655.655,0,0,0,250.129,487.994Z" transform="translate(-165.853 -303.98)" fill="#be9a49"/>
    <path id="Pfad_65" data-name="Pfad 65" d="M212.79,424.362q-.147,3.823-.262,7.646a.658.658,0,0,0,.638.679h.021a.659.659,0,0,0,.657-.638q.116-3.82.262-7.638a.659.659,0,0,0-.633-.682A.65.65,0,0,0,212.79,424.362Z" transform="translate(-212.091 -378.425)" fill="#be9a49"/>
    <path id="Pfad_66" data-name="Pfad 66" d="M213.544,423.362a.659.659,0,0,0,.657-.628q.177-3.818.384-7.631a.658.658,0,0,0-.621-.693.649.649,0,0,0-.693.621q-.209,3.82-.385,7.643a.658.658,0,0,0,.628.687Z" transform="translate(-211.863 -395.774)" fill="#be9a49"/>
    <path id="Pfad_67" data-name="Pfad 67" d="M212.32,441.347a.658.658,0,0,0,.649.669h.01a.658.658,0,0,0,.657-.649q.057-3.82.139-7.639a.658.658,0,0,0-.642-.674.682.682,0,0,0-.674.644Q212.376,437.524,212.32,441.347Z" transform="translate(-212.223 -367.33)" fill="#be9a49"/>
    <path id="Pfad_68" data-name="Pfad 68" d="M212.948,451.713h-.007a.659.659,0,0,0-.652.665q.039,3.825.107,7.651a.658.658,0,0,0,.657.646h.013a.657.657,0,0,0,.646-.669q-.066-3.82-.1-7.641A.659.659,0,0,0,212.948,451.713Z" transform="translate(-212.243 -345.133)" fill="#be9a49"/>
    <path id="Pfad_69" data-name="Pfad 69" d="M213.343,470h.021a.657.657,0,0,0,.636-.68q-.128-3.818-.228-7.638a.658.658,0,0,0-1.316.034q.1,3.825.228,7.649A.659.659,0,0,0,213.343,470Z" transform="translate(-212.137 -334.037)" fill="#be9a49"/>
    <path id="Pfad_70" data-name="Pfad 70" d="M222.937,462.434h.011a.66.66,0,0,0,.647-.67l-.138-8.075a.679.679,0,0,0-.67-.647.659.659,0,0,0-.647.67l.138,8.075A.66.66,0,0,0,222.937,462.434Z" transform="translate(-205.949 -343.464)" fill="#be9a49"/>
    <path id="Pfad_72" data-name="Pfad 72" d="M223.271,482.14h.011a.657.657,0,0,0,.647-.669l-.138-8.075a.67.67,0,0,0-.669-.647.659.659,0,0,0-.647.67l.138,8.074A.657.657,0,0,0,223.271,482.14Z" transform="translate(-205.734 -313.722)" fill="#be9a49"/>
    <path id="Pfad_73" data-name="Pfad 73" d="M223.1,472.287h.011a.659.659,0,0,0,.647-.669l-.138-8.075a.646.646,0,0,0-.669-.647.658.658,0,0,0-.647.669l.138,8.075A.658.658,0,0,0,223.1,472.287Z" transform="translate(-205.841 -331.725)" fill="#be9a49"/>
    <path id="Pfad_74" data-name="Pfad 74" d="M223.44,491.995h.011a.659.659,0,0,0,.647-.669l-.138-8.077a.659.659,0,0,0-1.318.023l.138,8.075A.659.659,0,0,0,223.44,491.995Z" transform="translate(-205.627 -307.425)" fill="#be9a49"/>
    <path id="Pfad_75" data-name="Pfad 75" d="M214.368,488.633l.044,0a.66.66,0,0,0,.615-.7q-.253-3.813-.474-7.626a.658.658,0,1,0-1.314.075q.221,3.82.474,7.638A.658.658,0,0,0,214.368,488.633Z" transform="translate(-211.637 -309.29)" fill="#be9a49"/>
    <path id="Pfad_76" data-name="Pfad 76" d="M232.691,422.443h-.013a.659.659,0,0,0-.646.672q.081,4.1.149,8.2a.659.659,0,0,0,.659.647h.011a.66.66,0,0,0,.647-.669q-.069-4.1-.149-8.2A.659.659,0,0,0,232.691,422.443Z" transform="translate(-187.599 -379.909)" fill="#be9a49"/>
    <path id="Pfad_77" data-name="Pfad 77" d="M279.369,443.128a.659.659,0,0,0-.641.677l.207,7.918a.658.658,0,0,0,.657.641h.018a.658.658,0,0,0,.641-.675l-.207-7.918A.668.668,0,0,0,279.369,443.128Z" transform="translate(-125.018 -355.301)" fill="#be9a49"/>
    <path id="Pfad_78" data-name="Pfad 78" d="M279.621,452.792a.658.658,0,0,0-.641.675l.206,7.918a.657.657,0,0,0,.657.642h.018a.66.66,0,0,0,.641-.677l-.207-7.918A.648.648,0,0,0,279.621,452.792Z" transform="translate(-124.857 -343.795)" fill="#be9a49"/>
    <path id="Pfad_79" data-name="Pfad 79" d="M279.872,462.454a.659.659,0,0,0-.641.675l.207,7.918a.66.66,0,0,0,.659.641h.016a.658.658,0,0,0,.641-.675l-.207-7.918A.668.668,0,0,0,279.872,462.454Z" transform="translate(-124.696 -332.289)" fill="#be9a49"/>
    <path id="Pfad_80" data-name="Pfad 80" d="M268.739,423.586h0a.658.658,0,0,0-.656.661l.03,7.713a.658.658,0,0,0,.657.656h0a.657.657,0,0,0,.656-.661l-.029-7.713A.657.657,0,0,0,268.739,423.586Z" transform="translate(-142.667 -378.588)" fill="#be9a49"/>
    <path id="Pfad_83" data-name="Pfad 83" d="M279.735,482.454l.207,7.918a.658.658,0,0,0,.657.643h.018a.659.659,0,0,0,.641-.677l-.207-7.918a.674.674,0,0,0-.675-.641A.658.658,0,0,0,279.735,482.454Z" transform="translate(-124.374 -307.952)" fill="#be9a49"/>
    <path id="Pfad_84" data-name="Pfad 84" d="M268.668,404.763h0a.657.657,0,0,0-.656.66l.03,7.713a.658.658,0,0,0,.657.656h0a.657.657,0,0,0,.656-.661l-.029-7.713A.657.657,0,0,0,268.668,404.763Z" transform="translate(-142.755 -401.936)" fill="#be9a49"/>
    <path id="Pfad_86" data-name="Pfad 86" d="M249.536,450.882a.659.659,0,0,0-.647.669l.121,7.6a.66.66,0,0,0,.659.649h.01a.662.662,0,0,0,.649-.67l-.123-7.6A.655.655,0,0,0,249.536,450.882Z" transform="translate(-166.576 -346.13)" fill="#be9a49"/>
    <path id="Pfad_87" data-name="Pfad 87" d="M278.866,423.8a.658.658,0,0,0-.641.677l.2,7.918a.659.659,0,0,0,.659.641h.016a.659.659,0,0,0,.641-.677l-.2-7.918A.664.664,0,0,0,278.866,423.8Z" transform="translate(-125.339 -378.312)" fill="#be9a49"/>
    <path id="Pfad_88" data-name="Pfad 88" d="M285.8,435.35a.656.656,0,0,0-.647.667l.116,8.075a.66.66,0,0,0,.659.647h.01a.658.658,0,0,0,.649-.667L286.469,436A.677.677,0,0,0,285.8,435.35Z" transform="translate(-120.912 -364.542)" fill="#be9a49"/>
    <path id="Pfad_89" data-name="Pfad 89" d="M285.668,425.5h-.01a.658.658,0,0,0-.649.667l.118,8.075a.659.659,0,0,0,.657.649h.01a.66.66,0,0,0,.649-.669l-.118-8.075A.657.657,0,0,0,285.668,425.5Z" transform="translate(-121.004 -376.28)" fill="#be9a49"/>
    <path id="Pfad_93" data-name="Pfad 93" d="M231.765,410.926a.659.659,0,0,0,.657.639h.02a.66.66,0,0,0,.639-.677q-.111-3.926-.233-7.851h-1.318Q231.654,406.981,231.765,410.926Z" transform="translate(-188.215 -403.038)" fill="#be9a49"/>
    <path id="Pfad_94" data-name="Pfad 94" d="M286.243,464.909h-.01a.659.659,0,0,0-.649.669l.118,8.074a.658.658,0,0,0,.657.649h.01a.659.659,0,0,0,.649-.669l-.118-8.074A.658.658,0,0,0,286.243,464.909Z" transform="translate(-120.637 -329.325)" fill="#be9a49"/>
    <path id="Pfad_95" data-name="Pfad 95" d="M285.727,475.431l.118,8.074a.659.659,0,0,0,.659.649h.01a.659.659,0,0,0,.649-.669l-.118-8.074a.669.669,0,0,0-.669-.649A.659.659,0,0,0,285.727,475.431Z" transform="translate(-120.545 -312.436)" fill="#be9a49"/>
    <path id="Pfad_96" data-name="Pfad 96" d="M286.1,455.056h-.01a.659.659,0,0,0-.649.669l.118,8.074a.658.658,0,0,0,.657.649h.01a.658.658,0,0,0,.649-.667l-.118-8.075A.658.658,0,0,0,286.1,455.056Z" transform="translate(-120.729 -341.064)" fill="#be9a49"/>
    <path id="Pfad_99" data-name="Pfad 99" d="M259.089,478.554a.658.658,0,0,0-.657.659l.013,7.587a.66.66,0,0,0,.659.657h0a.657.657,0,0,0,.657-.659l-.013-7.588a.659.659,0,0,0-.659-.656Z" transform="translate(-154.699 -310.012)" fill="#be9a49"/>
    <path id="Pfad_100" data-name="Pfad 100" d="M259.073,469.3h0a.657.657,0,0,0-.657.659l.013,7.587a.658.658,0,0,0,.659.657h0a.656.656,0,0,0,.657-.659l-.013-7.587A.658.658,0,0,0,259.073,469.3Z" transform="translate(-154.719 -324.232)" fill="#be9a49"/>
    <path id="Pfad_101" data-name="Pfad 101" d="M259.058,460.037h0a.658.658,0,0,0-.657.659l.013,7.587a.66.66,0,0,0,.659.657h0a.658.658,0,0,0,.657-.659l-.013-7.587A.66.66,0,0,0,259.058,460.037Z" transform="translate(-154.74 -335.245)" fill="#be9a49"/>
    <path id="Pfad_102" data-name="Pfad 102" d="M259.04,450.779h0a.656.656,0,0,0-.657.659l.013,7.587a.658.658,0,0,0,.659.657h0a.656.656,0,0,0,.656-.659l-.013-7.587A.658.658,0,0,0,259.04,450.779Z" transform="translate(-154.76 -346.256)" fill="#be9a49"/>
    <path id="Pfad_103" data-name="Pfad 103" d="M248.8,404.493a.657.657,0,0,0-.647.669l.121,7.6a.658.658,0,0,0,.657.647h.011a.656.656,0,0,0,.647-.669l-.121-7.6A.67.67,0,0,0,248.8,404.493Z" transform="translate(-167.501 -402.108)" fill="#be9a49"/>
    <path id="Pfad_104" data-name="Pfad 104" d="M248.955,413.771h-.011a.658.658,0,0,0-.647.669l.121,7.6a.66.66,0,0,0,.659.647h.01a.66.66,0,0,0,.649-.669l-.123-7.6A.656.656,0,0,0,248.955,413.771Z" transform="translate(-167.316 -396.18)" fill="#be9a49"/>
    <path id="Pfad_105" data-name="Pfad 105" d="M249.241,432.327a.659.659,0,0,0-.649.669l.123,7.6a.658.658,0,0,0,.657.649h.011a.658.658,0,0,0,.647-.669l-.121-7.6A.651.651,0,0,0,249.241,432.327Z" transform="translate(-166.947 -368.201)" fill="#be9a49"/>
    <path id="Pfad_110" data-name="Pfad 110" d="M268.845,451.82h0a.661.661,0,0,0-.657.662l.03,7.711a.658.658,0,0,0,.659.656h0a.659.659,0,0,0,.656-.661l-.03-7.711A.66.66,0,0,0,268.845,451.82Z" transform="translate(-142.534 -344.993)" fill="#be9a49"/>
    <path id="Pfad_111" data-name="Pfad 111" d="M268.881,461.232h0a.658.658,0,0,0-.656.661l.029,7.713a.658.658,0,0,0,.657.656h0a.658.658,0,0,0,.656-.661l-.03-7.713A.657.657,0,0,0,268.881,461.232Z" transform="translate(-142.49 -333.793)" fill="#be9a49"/>
    <path id="Pfad_112" data-name="Pfad 112" d="M268.949,480.056a.657.657,0,0,0-.656.661l.03,7.713a.658.658,0,0,0,.659.656h0a.659.659,0,0,0,.656-.662l-.028-7.711a.659.659,0,0,0-.659-.656Z" transform="translate(-142.401 -309.053)" fill="#be9a49"/>
    <path id="Pfad_113" data-name="Pfad 113" d="M268.81,442.409h0a.658.658,0,0,0-.656.661l.03,7.713a.658.658,0,0,0,.657.656h0a.657.657,0,0,0,.656-.66l-.029-7.713A.657.657,0,0,0,268.81,442.409Z" transform="translate(-142.578 -356.191)" fill="#be9a49"/>
    <path id="Pfad_114" data-name="Pfad 114" d="M258.976,413.744h0a.66.66,0,0,0-.657.661l.013,7.587a.66.66,0,0,0,.659.657h0a.66.66,0,0,0,.657-.661l-.015-7.587A.658.658,0,0,0,258.976,413.744Z" transform="translate(-154.842 -396.197)" fill="#be9a49"/>
    <path id="Pfad_115" data-name="Pfad 115" d="M268.915,470.643h0a.659.659,0,0,0-.656.662l.028,7.711a.659.659,0,0,0,.659.656h0a.658.658,0,0,0,.656-.661l-.03-7.713A.658.658,0,0,0,268.915,470.643Z" transform="translate(-142.445 -322.595)" fill="#be9a49"/>
    <path id="Pfad_116" data-name="Pfad 116" d="M258.991,423h0a.656.656,0,0,0-.656.659l.013,7.587a.657.657,0,0,0,.657.657h0a.656.656,0,0,0,.657-.659l-.013-7.587A.658.658,0,0,0,258.991,423Z" transform="translate(-154.822 -379.292)" fill="#be9a49"/>
    <path id="Pfad_117" data-name="Pfad 117" d="M259.009,432.261h0a.66.66,0,0,0-.657.661l.013,7.587a.66.66,0,0,0,.659.657h0a.66.66,0,0,0,.657-.661l-.015-7.587A.657.657,0,0,0,259.009,432.261Z" transform="translate(-154.801 -368.281)" fill="#be9a49"/>
  </g>
  <path id="Pfad_119" data-name="Pfad 119" d="M261.833,447.506c-7.23-1.449-14.941,2.468-18.929,8.67s-4.51,14.238-2.4,21.3,6.626,13.223,11.992,18.281a62.387,62.387,0,0,0,25.755,14.564,8.279,8.279,0,0,0,7.125-1.28l2.7-1.97a106.371,106.371,0,0,0,13.425-10.968,53.789,53.789,0,0,0,15.247-37.043c.02-4.528-.6-9.234-3.053-13.045-4.381-6.818-13.943-9.036-21.633-6.474-6.094,2.031-10.412,6.615-14.043,11.81-.636.911-2.095,3.052-3.265,3.235-1.264.2-3-1.983-3.916-2.68A22.34,22.34,0,0,0,261.833,447.506Z" transform="translate(-140.961 -335.597)" fill="#fff"/>
  <path id="Pfad_1067" data-name="Pfad 1067" d="M10.546-18.129c-6.77,0-9.654,2.884-9.654,6.394,0,2.048,1.128,3.886,3.719,3.886,2.09,0,3.678-1.3,3.678-3.26a4.886,4.886,0,0,0-.334-1.881H6.7A3.685,3.685,0,0,1,6.451-14.2a2.946,2.946,0,0,1,3.176-3.134c2.884,0,3.678,1.8,3.678,5.934,0,5.851-2.507,9.319-7.9,14.25L1.185,6.736v4.848H20.826L21.244.008h-.71C19.907,3.226,18.82,5.19,14.725,5.19H4.7L7.245,3.351C17.441-4,20.659-6.093,20.659-10.941,20.659-15.83,16.94-18.129,10.546-18.129Zm23.361,0c-6.436,0-9.654,2.884-9.654,6.394,0,2.048,1.128,3.886,3.719,3.886,2.09,0,3.678-1.3,3.678-3.26a4.886,4.886,0,0,0-.334-1.881H30.1a3.685,3.685,0,0,1-.251-1.212,2.889,2.889,0,0,1,2.925-3.176c2.424,0,3.092,2.34,3.092,5.976,0,5.558-1.087,6.77-5.976,7.271l.125.919a25.905,25.905,0,0,0,3.636-.543c2.048,1,3.385,2.716,3.385,7.188,0,4.848-.752,7.731-4.263,7.731-3.092,0-3.51-1.839-3.51-2.967a3.841,3.841,0,0,1,.251-1.379h1.3a4.886,4.886,0,0,0,.334-1.881,3.279,3.279,0,0,0-3.594-3.26c-2.591,0-3.8,1.839-3.8,4.012,0,4.973,5.182,6.31,9.194,6.31C40.718,12,45.19,8.575,45.19,3.309c0-4.137-2.884-7.23-10.113-7.731v-.084c5.558-.919,8.651-3.343,8.651-6.979C43.727-15.58,41.178-18.129,33.907-18.129Z" transform="translate(114.011 143.04)" fill="#be9a49"/>
</svg>
