<svg id="_24" data-name="24" xmlns="http://www.w3.org/2000/svg" width="389" height="389" viewBox="0 0 389 389">
  <rect id="Rechteck_8" data-name="Rechteck 8" width="389" height="389" transform="translate(0)" fill="#be9a49" opacity="0"/>
  <g id="Gruppe_17" data-name="Gruppe 17" transform="translate(0 5.358)">
    <path id="Pfad_185" data-name="Pfad 185" d="M454.058,417.978c-.695-1.374-2.286-2.455-4.806-2.455-2.542,0-4.146,1.1-4.828,2.5q-70.818.379-141.394,2.315v2.741q70.414-1.938,141.2-2.315c.529,1.616,2.188,2.983,5.021,2.983,2.86,0,4.523-1.394,5.034-3.028,79.362-.3,158.813.859,237.745,3.512v-2.741C613.023,418.834,533.5,417.671,454.058,417.978Z" transform="translate(-303.031 -371.859)" fill="#e0ca9f"/>
    <path id="Pfad_187" data-name="Pfad 187" d="M303.031,436.545v2.741c129.317-1.8,259.9.508,389,6.867v-2.745C562.934,437.053,432.348,434.748,303.031,436.545Z" transform="translate(-303.031 -292.15)" fill="#e0ca9f"/>
    <path id="Pfad_190" data-name="Pfad 190" d="M344.124,428.952a5.757,5.757,0,0,1,3.922,1.292c114.4-3.812,229.658-4.766,343.985-2.85v2.741c-113.9-1.913-228.721-.972-342.7,2.806.067,2.093-1.659,4.228-5.209,4.228-3.34,0-5.057-1.9-5.191-3.866q-17.966.624-35.9,1.33v-2.741q18.437-.736,36.911-1.364A5.514,5.514,0,0,1,344.124,428.952Z" transform="translate(-303.031 -145.128)" fill="#e0ca9f"/>
    <path id="Pfad_193" data-name="Pfad 193" d="M654.538,448.464a5.41,5.41,0,0,0-4.326,1.732l-300.126-.078a6.719,6.719,0,0,0-6.944,0l-40.111-.01v2.738l38.4.01c-.247,2.182,1.466,4.514,5.178,4.514s5.415-2.332,5.173-4.511l297.575.078c.193,1.926,1.9,3.747,5.177,3.747s4.985-1.817,5.182-3.743l32.311.01v-2.741l-33.163-.007A5.4,5.4,0,0,0,654.538,448.464Z" transform="translate(-303.031 -251.748)" fill="#e0ca9f"/>
    <path id="Pfad_196" data-name="Pfad 196" d="M631.577,477.273a5.451,5.451,0,0,0-4.245,1.65q-58.015-1.222-116.2-1.756c-.735-1.292-2.291-2.291-4.711-2.291a5.143,5.143,0,0,0-4.648,2.2q-67.926-.557-135.741-.15a6.1,6.1,0,0,0-9.158.044q-26.957.179-53.846.5V480.2q26.607-.327,53.3-.5c.358,1.786,2.066,3.386,5.141,3.386,3.093,0,4.806-1.626,5.146-3.433q67.247-.388,134.692.147c.4,1.746,2.107,3.287,5.119,3.287,2.95,0,4.64-1.48,5.088-3.184q57.49.527,114.874,1.735c.143,1.964,1.86,3.846,5.191,3.846,3.21,0,4.922-1.749,5.169-3.635q27.676.608,55.285,1.364v-2.741q-27.979-.777-56.038-1.378A5.372,5.372,0,0,0,631.577,477.273Z" transform="translate(-303.031 -146.955)" fill="#e0ca9f"/>
    <path id="Pfad_200" data-name="Pfad 200" d="M618.524,460.042c-2.578,0-4.2,1.128-4.864,2.55l-284.943-3.16A5.184,5.184,0,0,0,324.1,457.3a5.256,5.256,0,0,0-4.555,2.029l-16.514-.184v2.741l15.918.174c.332,1.817,2.04,3.461,5.151,3.461,3.044,0,4.756-1.575,5.137-3.345l284.284,3.154c.547,1.592,2.2,2.929,5,2.929,2.734,0,4.38-1.275,4.962-2.82l68.545.76v-2.738l-68.594-.76C622.8,461.229,621.169,460.042,618.524,460.042Z" transform="translate(-303.031 -215.803)" fill="#e0ca9f"/>
    <path id="Pfad_202" data-name="Pfad 202" d="M630.677,484.517c-2.47,0-4.044,1.043-4.761,2.383l-119.639,1.432c-.7-1.367-2.286-2.444-4.8-2.444-2.582,0-4.2,1.135-4.868,2.56l-105.482,1.265a5.977,5.977,0,0,0-6.352-2.349l-1.354.334a5.873,5.873,0,0,0-3.357,2.144l-77.031.924v2.741l76.574-.917c.018.054.018.109.04.164a5.857,5.857,0,0,0,6.648,2.867l1.354-.334a5.421,5.421,0,0,0,3.748-2.84l105.084-1.258c.547,1.585,2.2,2.915,5,2.915,2.86,0,4.528-1.4,5.034-3.034l119.114-1.429c.48,1.664,2.156,3.092,5.052,3.092,2.967,0,4.662-1.5,5.1-3.212l56.258-.675v-2.741l-56.652.682C634.635,485.506,633.083,484.517,630.677,484.517Z" transform="translate(-303.031 -394.709)" fill="#e0ca9f"/>
  </g>
  <g id="Gruppe_18" data-name="Gruppe 18" transform="translate(117.929 109.406)">
    <path id="Pfad_203" data-name="Pfad 203" d="M399.289,422.733l19.19,36.1a7.2,7.2,0,0,0,5.538,3.775l40.617,4.655a7.2,7.2,0,0,1,4.36,12.157l-28.4,29.407a7.2,7.2,0,0,0-1.878,6.431l8.122,40.069a7.2,7.2,0,0,1-10.212,7.9L399.877,545.3a7.187,7.187,0,0,0-6.7.2l-35.6,20.107a7.2,7.2,0,0,1-10.671-7.271l5.7-40.485a7.2,7.2,0,0,0-2.262-6.308L320.221,483.9a7.2,7.2,0,0,1,3.617-12.393l40.262-7.1a7.2,7.2,0,0,0,5.3-4.1l16.979-37.19A7.2,7.2,0,0,1,399.289,422.733Z" transform="translate(-317.882 -418.913)" fill="#fff"/>
    <path id="Pfad_1066" data-name="Pfad 1066" d="M14.186-15.4C4.769-15.4.758-11.393.758-6.51.758-3.662,2.328-1.1,5.932-1.1c2.907,0,5.115-1.8,5.115-4.534a6.8,6.8,0,0,0-.465-2.616H8.838A5.126,5.126,0,0,1,8.49-9.94a4.1,4.1,0,0,1,4.418-4.36c4.011,0,5.115,2.5,5.115,8.255,0,8.138-3.488,12.963-10.987,19.822L1.165,19.183v6.743H28.487l.581-16.1H28.08C27.208,14.3,25.7,17.033,20,17.033H6.048l3.546-2.558C23.778,4.244,28.254,1.337,28.254-5.406,28.254-12.207,23.08-15.4,14.186-15.4ZM41.391,25.927H61.563v-1.1H57.552v-9.3h5.755v4.3h1.1V9.069h-1.1v5.057H57.552V-14.765H47.5L31.1,14.417v1.1H46.856v9.3H41.391Zm-8.429-11.8L46.856-10.347V14.126Z" transform="translate(46.774 75.256)" fill="#be9a49"/>
  </g>
</svg>
