<svg id="_3" data-name="3" xmlns="http://www.w3.org/2000/svg" width="389" height="187" viewBox="0 0 389 187">
  <rect id="Rechteck_23" data-name="Rechteck 23" width="389" height="187" fill="#be9a49" opacity="0"/>
  <path id="Pfad_1047" data-name="Pfad 1047" d="M25.817-30.246c-15.552,0-23.329,6.968-23.329,15.451,0,4.948,2.727,9.392,8.988,9.392,5.049,0,8.887-3.131,8.887-7.877a11.808,11.808,0,0,0-.808-4.545H16.627a8.9,8.9,0,0,1-.606-2.929c0-3.232,1.616-7.675,7.069-7.675,5.857,0,7.473,5.655,7.473,14.442,0,13.432-2.626,16.36-14.442,17.572l.3,2.222a62.6,62.6,0,0,0,8.786-1.313c4.948,2.424,8.18,6.564,8.18,17.37,0,11.715-1.818,18.683-10.3,18.683-7.473,0-8.483-4.444-8.483-7.17a9.282,9.282,0,0,1,.606-3.333h3.131a11.808,11.808,0,0,0,.808-4.545c0-4.747-3.636-7.877-8.685-7.877-6.261,0-9.19,4.444-9.19,9.7,0,12.018,12.523,15.249,22.218,15.249,18.784,0,29.59-8.281,29.59-21.006,0-10-6.968-17.471-24.439-18.683v-.2C42.076.455,49.549-5.4,49.549-14.188,49.549-24.085,43.389-30.246,25.817-30.246Z" transform="translate(313.553 123.746)" fill="#fff"/>
  <g id="Gruppe_68" data-name="Gruppe 68" transform="translate(12.717 97.86)">
    <path id="Pfad_476" data-name="Pfad 476" d="M288.162,87.441q-1.7.31-3.417.487l2.227-2.488a.548.548,0,0,0-.818-.731l-1.878,2.1.085-2.8a.55.55,0,0,0-.533-.565.542.542,0,0,0-.565.533l-.1,3.222-1.726-2.231a.548.548,0,1,0-.867.67l1.909,2.47c-1.377.074-2.757.087-4.132.033a.537.537,0,0,0-.569.526.548.548,0,0,0,.526.57c.6.023,1.2.036,1.8.036q1,0,2-.046l-2.7,3.021a.548.548,0,1,0,.818.731l2.863-3.2-.162,5.364a.548.548,0,0,0,.531.565h.016a.549.549,0,0,0,.549-.531l.148-4.887,2.286,2.958a.549.549,0,0,0,.869-.672l-2.731-3.532c1.262-.125,2.519-.293,3.765-.521a.549.549,0,0,0-.2-1.08Z" transform="translate(-129.078 -16.464)" fill="#e0ca9f"/>
    <path id="Pfad_477" data-name="Pfad 477" d="M290.044,69q-1.7.31-3.417.485L288.854,67a.549.549,0,1,0-.818-.733l-1.878,2.1.085-2.8A.55.55,0,0,0,285.71,65a.54.54,0,0,0-.564.533l-.1,3.222-1.724-2.232a.549.549,0,0,0-.869.672l1.909,2.47c-1.377.072-2.755.087-4.13.031a.539.539,0,0,0-.57.528.547.547,0,0,0,.526.569c.6.025,1.2.036,1.8.036.667,0,1.334-.016,2-.044l-2.7,3.019a.549.549,0,0,0,.818.733l2.863-3.2-.162,5.364a.549.549,0,0,0,.531.565h.018a.548.548,0,0,0,.547-.533l.149-4.887,2.286,2.958a.548.548,0,1,0,.867-.67L286.476,70.6c1.262-.123,2.519-.293,3.765-.52a.549.549,0,1,0-.2-1.08Z" transform="translate(-100.876 -52.725)" fill="#e0ca9f"/>
    <path id="Pfad_478" data-name="Pfad 478" d="M257.84,84.439q-1.7.31-3.417.485l2.227-2.486a.549.549,0,1,0-.818-.733l-1.878,2.1.085-2.8a.548.548,0,0,0-.531-.565.541.541,0,0,0-.565.531l-.1,3.224-1.724-2.232a.549.549,0,0,0-.869.672l1.909,2.47c-1.377.072-2.755.085-4.13.031a.54.54,0,0,0-.57.528.549.549,0,0,0,.526.569c.6.025,1.2.036,1.8.036.667,0,1.334-.016,2-.044l-2.706,3.019a.549.549,0,0,0,.818.733l2.865-3.2-.164,5.364a.55.55,0,0,0,.533.565h.016a.548.548,0,0,0,.547-.533l.149-4.887,2.286,2.958a.549.549,0,0,0,.869-.67l-2.731-3.534c1.26-.123,2.517-.293,3.765-.521a.548.548,0,1,0-.2-1.078Z" transform="translate(-170.536 -18.382)" fill="#e0ca9f"/>
    <path id="Pfad_479" data-name="Pfad 479" d="M253.23,55.556q-1.7.31-3.417.487l2.227-2.488a.548.548,0,0,0-.818-.731l-1.878,2.1.085-2.8a.55.55,0,0,0-.533-.565.542.542,0,0,0-.565.533l-.1,3.222-1.726-2.231a.548.548,0,1,0-.867.67l1.908,2.47c-1.375.074-2.755.087-4.13.033a.539.539,0,0,0-.57.526.551.551,0,0,0,.528.57c.6.023,1.2.036,1.8.036q1,0,2-.046l-2.7,3.021a.546.546,0,0,0,.043.774.539.539,0,0,0,.365.141.545.545,0,0,0,.408-.184l2.865-3.2-.164,5.364a.55.55,0,0,0,.533.565h.016a.55.55,0,0,0,.549-.533l.147-4.887,2.286,2.96a.549.549,0,0,0,.869-.672l-2.731-3.532c1.262-.125,2.519-.293,3.765-.521a.549.549,0,0,0-.2-1.08Z" transform="translate(-176.644 -36.838)" fill="#e0ca9f"/>
    <path id="Pfad_1084" data-name="Pfad 1084" d="M253.23,55.556q-1.7.31-3.417.487l2.227-2.488a.548.548,0,0,0-.818-.731l-1.878,2.1.085-2.8a.55.55,0,0,0-.533-.565.542.542,0,0,0-.565.533l-.1,3.222-1.726-2.231a.548.548,0,1,0-.867.67l1.908,2.47c-1.375.074-2.755.087-4.13.033a.539.539,0,0,0-.57.526.551.551,0,0,0,.528.57c.6.023,1.2.036,1.8.036q1,0,2-.046l-2.7,3.021a.546.546,0,0,0,.043.774.539.539,0,0,0,.365.141.545.545,0,0,0,.408-.184l2.865-3.2-.164,5.364a.55.55,0,0,0,.533.565h.016a.55.55,0,0,0,.549-.533l.147-4.887,2.286,2.96a.549.549,0,0,0,.869-.672l-2.731-3.532c1.262-.125,2.519-.293,3.765-.521a.549.549,0,0,0-.2-1.08Z" transform="translate(-219.644 -1.768)" fill="#e0ca9f"/>
    <path id="Pfad_480" data-name="Pfad 480" d="M224.751,46.579q-1.7.31-3.419.485l2.227-2.486a.548.548,0,1,0-.816-.733l-1.88,2.1.085-2.8a.549.549,0,0,0-.531-.567.542.542,0,0,0-.565.533l-.1,3.224L218.03,44.1a.549.549,0,0,0-.869.67l1.909,2.472c-1.377.072-2.755.085-4.13.031a.539.539,0,0,0-.57.528.549.549,0,0,0,.526.569c.6.023,1.2.036,1.8.036q1,0,2-.046l-2.706,3.021a.55.55,0,0,0,.044.775.549.549,0,0,0,.774-.043l2.865-3.2-.164,5.364a.551.551,0,0,0,.533.565h.016a.551.551,0,0,0,.549-.533l.148-4.887,2.286,2.958a.549.549,0,0,0,.869-.67l-2.731-3.534c1.26-.123,2.519-.293,3.765-.521a.548.548,0,1,0-.2-1.078Z" transform="translate(-214.37 -42.575)" fill="#e0ca9f"/>
  </g>
  <g id="Gruppe_286" data-name="Gruppe 286" transform="translate(204.717 25.611)">
    <path id="Pfad_476-2" data-name="Pfad 476" d="M278.429,91.7q1.7-.31,3.417-.487L279.619,93.7a.548.548,0,0,0,.818.731l1.878-2.1-.085,2.8a.55.55,0,0,0,.533.565.542.542,0,0,0,.565-.533l.1-3.222,1.726,2.231a.548.548,0,1,0,.867-.67l-1.909-2.47c1.377-.074,2.757-.087,4.132-.033a.537.537,0,0,0,.569-.526.548.548,0,0,0-.526-.57c-.6-.023-1.2-.036-1.8-.036q-1,0-2,.046l2.7-3.021a.548.548,0,1,0-.818-.731l-2.863,3.2L283.665,84a.548.548,0,0,0-.531-.565h-.016a.549.549,0,0,0-.549.531l-.148,4.887L280.135,85.9a.549.549,0,0,0-.869.672L282,90.1c-1.262.125-2.519.293-3.765.521a.549.549,0,0,0,.2,1.08Z" transform="translate(-274.696 -83.438)" fill="#e0ca9f"/>
    <path id="Pfad_477-2" data-name="Pfad 477" d="M280.312,73.26q1.7-.31,3.417-.485L281.5,75.261a.549.549,0,1,0,.818.733l1.878-2.1-.085,2.8a.55.55,0,0,0,.533.565.54.54,0,0,0,.564-.533l.1-3.222,1.724,2.232a.549.549,0,0,0,.869-.672l-1.909-2.47c1.377-.072,2.755-.087,4.13-.031a.539.539,0,0,0,.57-.528.547.547,0,0,0-.526-.569c-.6-.025-1.2-.036-1.8-.036-.667,0-1.334.016-2,.044l2.7-3.019a.549.549,0,0,0-.818-.733l-2.863,3.2.162-5.364a.549.549,0,0,0-.531-.565H285a.548.548,0,0,0-.547.533l-.149,4.887-2.286-2.958a.548.548,0,1,0-.867.67l2.731,3.534c-1.262.123-2.519.293-3.765.52a.549.549,0,1,0,.2,1.08Z" transform="translate(-262.664 -28.767)" fill="#e0ca9f"/>
    <path id="Pfad_1082" data-name="Pfad 1082" d="M280.312,73.26q1.7-.31,3.417-.485L281.5,75.261a.549.549,0,1,0,.818.733l1.878-2.1-.085,2.8a.55.55,0,0,0,.533.565.54.54,0,0,0,.564-.533l.1-3.222,1.724,2.232a.549.549,0,0,0,.869-.672l-1.909-2.47c1.377-.072,2.755-.087,4.13-.031a.539.539,0,0,0,.57-.528.547.547,0,0,0-.526-.569c-.6-.025-1.2-.036-1.8-.036-.667,0-1.334.016-2,.044l2.7-3.019a.549.549,0,0,0-.818-.733l-2.863,3.2.162-5.364a.549.549,0,0,0-.531-.565H285a.548.548,0,0,0-.547.533l-.149,4.887-2.286-2.958a.548.548,0,1,0-.867.67l2.731,3.534c-1.262.123-2.519.293-3.765.52a.549.549,0,1,0,.2,1.08Z" transform="translate(-205.664 33.233)" fill="#e0ca9f"/>
    <path id="Pfad_478-2" data-name="Pfad 478" d="M248.108,88.7q1.7-.31,3.417-.485L249.3,90.7a.549.549,0,1,0,.818.733l1.878-2.1-.085,2.8a.548.548,0,0,0,.531.565.541.541,0,0,0,.565-.531l.1-3.224,1.724,2.232a.549.549,0,0,0,.869-.672l-1.909-2.47c1.377-.072,2.755-.085,4.13-.031a.54.54,0,0,0,.57-.528.549.549,0,0,0-.526-.569c-.6-.025-1.2-.036-1.8-.036-.667,0-1.334.016-2,.044l2.706-3.019a.549.549,0,0,0-.818-.733l-2.865,3.2L253.344,81a.55.55,0,0,0-.533-.565H252.8a.548.548,0,0,0-.547.533l-.149,4.887L249.812,82.9a.549.549,0,0,0-.869.67l2.731,3.534c-1.26.123-2.517.293-3.765.521a.548.548,0,1,0,.2,1.078Z" transform="translate(-153.946 -86.57)" fill="#e0ca9f"/>
    <path id="Pfad_479-2" data-name="Pfad 479" d="M243.5,59.818q1.7-.31,3.417-.487l-2.227,2.488a.548.548,0,0,0,.818.731l1.878-2.1-.085,2.8a.55.55,0,0,0,.533.565.542.542,0,0,0,.565-.533l.1-3.222,1.726,2.231a.548.548,0,1,0,.867-.67l-1.908-2.47c1.375-.074,2.755-.087,4.13-.033a.539.539,0,0,0,.57-.526.551.551,0,0,0-.528-.57c-.6-.023-1.2-.036-1.8-.036q-1,0-2,.046l2.7-3.021a.546.546,0,0,0-.043-.774.539.539,0,0,0-.365-.141.545.545,0,0,0-.408.184l-2.865,3.2.164-5.364a.55.55,0,0,0-.533-.565h-.016a.55.55,0,0,0-.549.533l-.147,4.887-2.286-2.96a.549.549,0,0,0-.869.672l2.731,3.532c-1.262.125-2.519.293-3.765.521a.549.549,0,0,0,.2,1.08Z" transform="translate(-125.266 -21.459)" fill="#e0ca9f"/>
    <path id="Pfad_1081" data-name="Pfad 1081" d="M243.5,59.818q1.7-.31,3.417-.487l-2.227,2.488a.548.548,0,0,0,.818.731l1.878-2.1-.085,2.8a.55.55,0,0,0,.533.565.542.542,0,0,0,.565-.533l.1-3.222,1.726,2.231a.548.548,0,1,0,.867-.67l-1.908-2.47c1.375-.074,2.755-.087,4.13-.033a.539.539,0,0,0,.57-.526.551.551,0,0,0-.528-.57c-.6-.023-1.2-.036-1.8-.036q-1,0-2,.046l2.7-3.021a.546.546,0,0,0-.043-.774.539.539,0,0,0-.365-.141.545.545,0,0,0-.408.184l-2.865,3.2.164-5.364a.55.55,0,0,0-.533-.565h-.016a.55.55,0,0,0-.549.533l-.147,4.887-2.286-2.96a.549.549,0,0,0-.869.672l2.731,3.532c-1.262.125-2.519.293-3.765.521a.549.549,0,0,0,.2,1.08Z" transform="translate(-168.849 1.689)" fill="#e0ca9f"/>
    <path id="Pfad_1083" data-name="Pfad 1083" d="M243.5,59.818q1.7-.31,3.417-.487l-2.227,2.488a.548.548,0,0,0,.818.731l1.878-2.1-.085,2.8a.55.55,0,0,0,.533.565.542.542,0,0,0,.565-.533l.1-3.222,1.726,2.231a.548.548,0,1,0,.867-.67l-1.908-2.47c1.375-.074,2.755-.087,4.13-.033a.539.539,0,0,0,.57-.526.551.551,0,0,0-.528-.57c-.6-.023-1.2-.036-1.8-.036q-1,0-2,.046l2.7-3.021a.546.546,0,0,0-.043-.774.539.539,0,0,0-.365-.141.545.545,0,0,0-.408.184l-2.865,3.2.164-5.364a.55.55,0,0,0-.533-.565h-.016a.55.55,0,0,0-.549.533l-.147,4.887-2.286-2.96a.549.549,0,0,0-.869.672l2.731,3.532c-1.262.125-2.519.293-3.765.521a.549.549,0,0,0,.2,1.08Z" transform="translate(-207.335 72.689)" fill="#e0ca9f"/>
    <path id="Pfad_480-2" data-name="Pfad 480" d="M215.016,50.84q1.7-.31,3.419-.485l-2.227,2.486a.548.548,0,1,0,.816.733l1.88-2.1-.085,2.8a.549.549,0,0,0,.531.567.542.542,0,0,0,.565-.533l.1-3.224,1.724,2.232a.549.549,0,0,0,.869-.67L220.7,50.178c1.377-.072,2.755-.085,4.13-.031a.539.539,0,0,0,.57-.528.549.549,0,0,0-.526-.569c-.6-.023-1.2-.036-1.8-.036q-1,0-2,.046l2.706-3.021a.55.55,0,0,0-.044-.775.549.549,0,0,0-.774.043l-2.865,3.2.164-5.364a.551.551,0,0,0-.533-.565h-.016a.551.551,0,0,0-.549.533l-.148,4.887-2.286-2.958a.549.549,0,0,0-.869.67l2.731,3.534c-1.26.123-2.519.293-3.765.521a.548.548,0,1,0,.2,1.078Z" transform="translate(-57.582 -4.751)" fill="#e0ca9f"/>
  </g>
  <g id="Gruppe_77" data-name="Gruppe 77">
    <g id="Gruppe_285" data-name="Gruppe 285">
      <g id="Gruppe_75" data-name="Gruppe 75" transform="translate(2 2.097)">
        <g id="Gruppe_74" data-name="Gruppe 74" transform="translate(92.097 19.909)">
          <path id="Pfad_481" data-name="Pfad 481" d="M260.156,35.321a1.139,1.139,0,0,1-.9-.6c-.791-1.138-.925-3.207-1.035-4.873-.024-.376-.048-.724-.076-1.022a36.159,36.159,0,0,1-.115-6.013,8.152,8.152,0,0,1,.631-3.039,3.419,3.419,0,0,1,2.557-2.013c1.8-.212,3.249,1.423,3.551,3.063a9.5,9.5,0,0,1-.7,4.629l-1.957,5.91c-.056.168-.121.438-.2.754-.419,1.715-.8,3.039-1.611,3.188A.92.92,0,0,1,260.156,35.321Zm1.372-16.709a1.67,1.67,0,0,0-.207.013,2.586,2.586,0,0,0-1.877,1.525,7.378,7.378,0,0,0-.547,2.719v.006a35.158,35.158,0,0,0,.112,5.871c.03.3.052.661.078,1.048.1,1.475.229,3.493.881,4.434.136.2.214.225.214.225.311-.156.75-1.95.894-2.54.084-.346.155-.637.218-.821l1.957-5.91a8.734,8.734,0,0,0,.665-4.2A2.767,2.767,0,0,0,261.528,18.612Z" transform="translate(-232.594 -17.744)" fill="#fff"/>
          <g id="Gruppe_73" data-name="Gruppe 73" transform="translate(0 14.275)">
            <path id="Pfad_482" data-name="Pfad 482" d="M312.558,73.394a518.5,518.5,0,0,0-35.721-45.27L249.521,49.077q9.153,11.7,18.3,23.4c2.207,2.821,4.529,6,4.3,9.571-.212,3.253-2.495,5.948-4.672,8.374-4.076,4.544-8.24,9.149-10.847,14.668s-3.471,12.2-.8,17.688c1.572,3.223,4.536,5.964,8.1,6.4s6.94-1.4,9.974-3.287A150.133,150.133,0,0,0,312.569,91.31c1.868-2.369,3.732-4.974,3.961-7.983C316.807,79.7,314.651,76.374,312.558,73.394Z" transform="translate(-242.376 -19.98)" fill="#fff"/>
            <g id="Gruppe_70" data-name="Gruppe 70">
              <path id="Pfad_483" data-name="Pfad 483" d="M256.522,63.509c1.14,1.464,2.4,3.013,4.186,3.516,2.421.685,4.881-.771,6.957-2.192a259.111,259.111,0,0,0,21.958-16.813c1.547-1.322,3.179-2.84,3.46-4.853.3-2.121-1-4.112-2.3-5.814a82.015,82.015,0,0,0-9.37-10.331c-1.309-1.218-2.78-2.447-4.56-2.642-1.886-.205-3.674.8-5.279,1.816A111.125,111.125,0,0,0,254.466,39.5a64.5,64.5,0,0,0-7.57,7.927c-1.775,2.393.3,4.1,1.832,6.063Z" transform="translate(-246.213 -24.354)" fill="#e0ca9f"/>
              <g id="Gruppe_69" data-name="Gruppe 69" transform="translate(1.391 0.621)">
                <path id="Pfad_484" data-name="Pfad 484" d="M248.83,32.834c-.205.2-.413.406-.616.611a187.525,187.525,0,0,1,16.564,21.93c.19-.127.382-.253.566-.378.052-.035.1-.073.153-.108A188.42,188.42,0,0,0,248.83,32.834Z" transform="translate(-245.283 -15.138)" fill="#e0ca9f"/>
                <path id="Pfad_485" data-name="Pfad 485" d="M247.419,34.306c-.19.222-.378.445-.562.672a205.17,205.17,0,0,1,16.3,20.329c.281-.093.559-.2.834-.32A205.951,205.951,0,0,0,247.419,34.306Z" transform="translate(-246.857 -13.43)" fill="#e0ca9f"/>
                <path id="Pfad_486" data-name="Pfad 486" d="M257.949,25.476c-.253.164-.508.326-.758.492a116.164,116.164,0,0,1,19.137,21.217c.186-.158.376-.309.562-.467l.11-.1A116.943,116.943,0,0,0,257.949,25.476Z" transform="translate(-234.87 -23.672)" fill="#e0ca9f"/>
                <path id="Pfad_487" data-name="Pfad 487" d="M253.22,28.88c-.227.184-.447.376-.672.562a102.369,102.369,0,0,1,18.716,22.221c.231-.177.46-.356.689-.533A103.219,103.219,0,0,0,253.22,28.88Z" transform="translate(-240.256 -19.724)" fill="#e0ca9f"/>
                <path id="Pfad_488" data-name="Pfad 488" d="M251.782,30.095c-.216.192-.436.38-.652.575a154.574,154.574,0,0,1,18.39,22.107l.7-.518A155.346,155.346,0,0,0,251.782,30.095Z" transform="translate(-241.901 -18.315)" fill="#e0ca9f"/>
                <path id="Pfad_489" data-name="Pfad 489" d="M277.968,44.825A104.168,104.168,0,0,0,259.44,24.641c-.289.13-.575.268-.855.421a103.248,103.248,0,0,1,18.848,20.511A8.008,8.008,0,0,0,277.968,44.825Z" transform="translate(-233.253 -24.641)" fill="#e0ca9f"/>
                <path id="Pfad_490" data-name="Pfad 490" d="M275.438,48.207a141.93,141.93,0,0,0-19.087-21.673c-.242.168-.482.341-.724.512A141.207,141.207,0,0,1,274.775,48.76C275,48.576,275.217,48.39,275.438,48.207Z" transform="translate(-236.685 -22.445)" fill="#e0ca9f"/>
                <path id="Pfad_491" data-name="Pfad 491" d="M250.413,31.33l-.086.08c-.179.171-.363.343-.544.514a162.087,162.087,0,0,1,17.99,21.828c.233-.166.471-.328.7-.495A162.629,162.629,0,0,0,250.413,31.33Z" transform="translate(-243.464 -16.882)" fill="#e0ca9f"/>
                <path id="Pfad_492" data-name="Pfad 492" d="M254.846,27.626c-.24.179-.477.359-.715.54a84.468,84.468,0,0,1,19.355,21.768c.229-.184.462-.363.691-.544A85.275,85.275,0,0,0,254.846,27.626Z" transform="translate(-238.42 -21.179)" fill="#e0ca9f"/>
              </g>
            </g>
            <g id="Gruppe_71" data-name="Gruppe 71" transform="translate(11.799 45.178)">
              <path id="Pfad_493" data-name="Pfad 493" d="M279.3,45.27a13.969,13.969,0,0,0-1.935,2.575,29.9,29.9,0,0,0,.719,31.975q3.726-4.069,7.149-8.4c1.868-2.369,3.732-4.974,3.961-7.983.276-3.631-1.879-6.953-3.972-9.933Q282.3,49.355,279.3,45.27Z" transform="translate(-226.837 -45.27)"/>
              <path id="Pfad_494" data-name="Pfad 494" d="M254.479,65.2c-.521-.041-1.043-.06-1.566-.067-1.609,4.836-1.819,10.182.391,14.718,1.572,3.223,4.536,5.964,8.1,6.4s6.94-1.4,9.974-3.285c1.307-.812,2.6-1.65,3.879-2.5a17.719,17.719,0,0,0-3.009-5.7A25.392,25.392,0,0,0,254.479,65.2Z" transform="translate(-251.676 -22.232)"/>
            </g>
            <g id="Gruppe_72" data-name="Gruppe 72" transform="translate(21.942 27.232)">
              <path id="Pfad_495" data-name="Pfad 495" d="M288.681,41.449c-.389-.505-.784-1.007-1.175-1.512-.708.134-1.445.212-2.21.287-.363.037-.726.071-1.084.114a8.762,8.762,0,0,0-5.417,2.218,9.887,9.887,0,0,0-1.968,3.81,7.714,7.714,0,0,1-1.739,3.311c-1.212,1.115-3.028,1.19-4.948,1.274s-3.9.175-5.564,1.277a10.394,10.394,0,0,0-3.115,4c-.231.426-.46.851-.7,1.259a13.978,13.978,0,0,1-2.229,2.8c.348.473.685.957,1,1.449a15.778,15.778,0,0,0,2.713-3.357c.257-.43.5-.879.743-1.328a8.833,8.833,0,0,1,2.547-3.378c1.264-.836,2.924-.911,4.683-.989,2.143-.1,4.359-.194,6.039-1.726a9.092,9.092,0,0,0,2.212-4.033,8.486,8.486,0,0,1,1.583-3.175c.873-.924,2.218-1.441,4.361-1.691.35-.041.7-.076,1.052-.11A19.7,19.7,0,0,0,288.681,41.449Z" transform="translate(-253.87 -33.51)" fill="#e0ca9f"/>
              <path id="Pfad_496" data-name="Pfad 496" d="M259.083,61.212a15.87,15.87,0,0,0,2.665-3.745c.151-.3.3-.611.441-.922a5.741,5.741,0,0,1,1.423-2.218,5.643,5.643,0,0,1,2.784-.454c.57-.013,1.158-.024,1.763-.082a11.516,11.516,0,0,0,5.8-2.29,11.4,11.4,0,0,0,2.616-2.78,20.207,20.207,0,0,0,1.637-3.21,22.234,22.234,0,0,1,.983-2.067c.579-1.022,1.564-2.121,2.592-2.143a5.756,5.756,0,0,1,1.03.132,8.348,8.348,0,0,0,2.164.194,5.87,5.87,0,0,0,2.864-1.019c-.9-1.147-1.816-2.285-2.728-3.423a1.328,1.328,0,0,1-.43.114,4.975,4.975,0,0,1-1.084-.132,9.16,9.16,0,0,0-1.912-.205c-2.452.056-4.737,1.637-6.272,4.344a25.371,25.371,0,0,0-1.184,2.473,16.976,16.976,0,0,1-1.276,2.547,7.261,7.261,0,0,1-5.225,3.147c-.436.043-.916.052-1.421.06a9.02,9.02,0,0,0-5.149,1.21,9.025,9.025,0,0,0-2.905,3.963c-.125.27-.253.54-.384.8a11.512,11.512,0,0,1-1.5,2.236Z" transform="translate(-256.372 -36.961)" fill="#e0ca9f"/>
            </g>
          </g>
        </g>
        <path id="Pfad_497" data-name="Pfad 497" d="M384.061,49.172l-5.544.862a1.4,1.4,0,0,1-1.233-.421l-3.853-4.08a1.37,1.37,0,0,0-1.274-.4c-2.382-7.929-4.987-17.953-5.562-20.178,15.515-2.477,30.018-6.722,42.25-15.728l-.514-.7c-17.588,12.951-40.019,15.962-63.385,18.12-26.591,2.46-48.92,3.86-71.469,2.7C247.2,27.988,223.8,23,203.915,14.521l-.341.8a182.917,182.917,0,0,0,40.932,11.741c-.337,1.516-1.559,6.877-2.961,11.409a1.359,1.359,0,0,0-1.248.235l-4.411,3.467a1.4,1.4,0,0,1-1.281.238l-5.357-1.667a1.4,1.4,0,0,0-1.73,1.819l1.935,5.268a1.394,1.394,0,0,1-.171,1.289L226.041,53.7a1.4,1.4,0,0,0,1.2,2.207l5.607-.214a1.4,1.4,0,0,1,1.175.562l3.354,4.5a1.4,1.4,0,0,0,2.469-.456l1.529-5.4a1.4,1.4,0,0,1,.9-.944l5.316-1.8a1.4,1.4,0,0,0,.328-2.488l-4.661-3.121a1.4,1.4,0,0,1-.62-1.147l-.071-5.609a1.37,1.37,0,0,0-.263-.8c1.467-4.676,2.732-10.266,3.067-11.784a247.071,247.071,0,0,0,28.068,3.007c.644.032,1.287.056,1.931.086-.143,2.823-.875,18.176-.607,28.926a1.365,1.365,0,0,0-.5.587l-2.289,5.123a1.4,1.4,0,0,1-1.024.8l-5.519,1.017a1.4,1.4,0,0,0-.685,2.415l4.164,3.763a1.4,1.4,0,0,1,.449,1.22l-.739,5.564a1.4,1.4,0,0,0,2.086,1.4l4.864-2.8a1.4,1.4,0,0,1,1.3-.05l5.063,2.421a1.4,1.4,0,0,0,1.972-1.551l-1.158-5.491a1.4,1.4,0,0,1,.356-1.253l3.866-4.067a1.4,1.4,0,0,0-.866-2.354l-5.579-.6a1.4,1.4,0,0,1-1.082-.726l-2.674-4.933A1.365,1.365,0,0,0,275.624,59c-.246-10.685.471-25.951.6-28.66,4.59.192,9.175.289,13.8.289,17.193,0,34.88-1.255,55-3.115,7.022-.648,13.957-1.376,20.707-2.423.534,2.069,3.21,12.378,5.646,20.463a1.371,1.371,0,0,0-.346.721l-.894,5.54a1.4,1.4,0,0,1-.782,1.041l-5.069,2.4a1.4,1.4,0,0,0-.039,2.51l4.992,2.562a1.4,1.4,0,0,1,.749,1.065l.719,5.566a1.4,1.4,0,0,0,2.376.812l3.979-3.957a1.4,1.4,0,0,1,1.244-.382l5.514,1.035a1.4,1.4,0,0,0,1.508-2.009l-2.534-5.007a1.4,1.4,0,0,1,.019-1.3l2.689-4.925A1.4,1.4,0,0,0,384.061,49.172Z" transform="translate(-203.574 -8.527)" fill="#fff"/>
      </g>
    </g>
  </g>
</svg>
