<svg id="_4" data-name="4" xmlns="http://www.w3.org/2000/svg" width="187" height="187" viewBox="0 0 187 187">
  <rect id="Rechteck_12" data-name="Rechteck 12" width="187" height="187" transform="translate(0 0)" opacity="0"/>
  <path id="Pfad_1048" data-name="Pfad 1048" d="M13.215,20.03H38.683V18.635H33.618V6.892h7.266v5.431h1.394V-1.255H40.885V5.131H33.618V-31.347h-12.7L.224,5.5V6.892h19.89V18.635h-6.9ZM2.573,5.131l17.541-30.9v30.9Z" transform="translate(17.538 138.305)" fill="#be9a49"/>
  <g id="Gruppe_31" data-name="Gruppe 31">
    <path id="Pfad_267" data-name="Pfad 267" d="M341.808,10.184H315.136c-3.986,5.553-8.311,11.912-12.105,17.773V55.779c1.362.013,2.827.02,4.355.02,7.349,0,15.87-.107,19.917-.321-.213,6.179-.426,11.4-.426,13.74,0,3.834.213,6.39.426,6.708a8.328,8.328,0,0,0,2.875.321c4.153,0,12.461-1.918,12.461-3.409-.746-3.407-1.172-14.164-1.172-17.68a19.513,19.513,0,0,0,3.727-.318c.533-.533,3.94-6.179,3.94-10.863,0-.639-.531-.426-.531-.426a47.593,47.593,0,0,1-7.243.318V39.822C341.36,27.577,341.657,15.514,341.808,10.184Zm-14.079,33.9c-2.45,0-7.243.107-11.5.107s-7.882-.107-7.882-.533c0-4.26,17.253-28.862,19.171-31.206,0,0,.424-.639.639-.639.318,0,.318,3.3.318,4.794C328.473,22.675,328.155,33.859,327.729,44.083Z" transform="translate(-303.031 -10.184)" fill="#fff"/>
    <path id="Pfad_268" data-name="Pfad 268" d="M364.2,84.219c0-.339,3.486-4.676,5.273-6.718a.308.308,0,0,0,.085-.254c0-.595-2.552-.765-2.976-.765-5.1,0-8.078,1.019-8.333,1.275-5.25,5.812-16.734,22.587-22.461,32.293h11.114a226.666,226.666,0,0,1,13.472-20.474s.339-.51.51-.51c.256,0,.256,2.635.256,3.827,0,3.911-.167,10.478-.41,17.157h10.7c.028-12.6.423-24.555.423-24.555C371.857,84.389,364.2,84.219,364.2,84.219Z" transform="translate(-259.452 76.951)" fill="#fff"/>
    <path id="Pfad_269" data-name="Pfad 269" d="M355.892,10.184c-6.566,9.695-12.669,19.655-12.669,21.4,0,0,.17,5.1,1.955,6.887.256.256,4.678.341,9.949.341,5.868,0,12.669-.085,15.9-.256-.169,4.933-.339,9.1-.339,10.97a23.635,23.635,0,0,0,.339,5.356,6.681,6.681,0,0,0,2.3.256c3.317,0,9.949-1.531,9.949-2.721-.595-2.721-.936-11.309-.936-14.115a15.613,15.613,0,0,0,2.976-.256c.426-.424,3.147-4.932,3.147-8.672,0-.511-.426-.341-.426-.341a37.945,37.945,0,0,1-5.781.254v-3.23c0-5.684.079-11.317.17-15.875h-10.48c-.066,5.064-.29,12.435-.575,19.276-1.955,0-5.782.085-9.183.085s-6.292-.085-6.292-.424c0-2.332,6.474-12.3,11.038-18.937Z" transform="translate(-246.941 -10.184)" fill="#fff"/>
    <path id="Pfad_270" data-name="Pfad 270" d="M407.044,43.832c-2.249-.2-4.376-.243-4.376-.243a49.709,49.709,0,0,1,4.376-5.774V34c-.631-.075-1.2-.1-1.393-.1-6.39,0-10.119,1.278-10.439,1.6-8.945,9.9-32.376,45.264-32.376,49.1,0,0,.215,6.39,2.45,8.626.32.32,5.858.426,12.461.426,7.349,0,15.869-.107,19.915-.32-.213,6.177-.426,11.4-.426,13.74,0,3.834.213,6.389.426,6.708a8.374,8.374,0,0,0,2.876.32,33.315,33.315,0,0,0,6.505-.841Zm-8.955,38.1c-2.45,0-7.243.1-11.5.1s-7.88-.1-7.88-.533c0-4.26,17.252-28.861,19.169-31.2,0,0,.426-.639.639-.639.32,0,.32,3.3.32,4.792C398.834,60.523,398.515,71.706,398.089,81.931Z" transform="translate(-220.045 33.021)" fill="#fff"/>
  </g>
  <path id="Pfad_271" data-name="Pfad 271" d="M361,41.467q-1.945.354-3.912.559l2.55-2.849a.659.659,0,0,0-.982-.878l-2.144,2.393.1-3.2a.659.659,0,0,0-1.318-.039l-.111,3.684L353.21,38.6a.658.658,0,0,0-1.042.8l2.195,2.839c-1.585.082-3.173.1-4.756.034a.646.646,0,0,0-.685.633.66.66,0,0,0,.633.683q1.045.039,2.093.041c.759,0,1.518-.02,2.277-.052l-3.109,3.473a.659.659,0,0,0,.982.878l3.288-3.671-.188,6.172a.66.66,0,0,0,.639.679h.02a.657.657,0,0,0,.657-.638l.17-5.618L359,48.243a.659.659,0,0,0,.521.256.648.648,0,0,0,.4-.138.658.658,0,0,0,.12-.923l-3.15-4.074c1.454-.144,2.9-.339,4.338-.6A.658.658,0,1,0,361,41.467Z" transform="translate(-247.68 22.109)" fill="#e0ca9f"/>
  <path id="Pfad_272" data-name="Pfad 272" d="M349.213,59.946q-1.945.354-3.914.557l2.55-2.847a.658.658,0,1,0-.98-.878l-2.144,2.393.1-3.2a.658.658,0,1,0-1.316-.039l-.112,3.684-1.967-2.545a.658.658,0,0,0-1.042.8l2.193,2.837q-2.375.125-4.756.036a.645.645,0,0,0-.683.631.657.657,0,0,0,.631.683q1.047.042,2.095.041,1.138,0,2.277-.051l-3.111,3.471a.659.659,0,1,0,.982.878l3.288-3.67-.187,6.172a.658.658,0,0,0,.638.679h.02a.659.659,0,0,0,.659-.639l.17-5.618,2.619,3.391a.658.658,0,0,0,1.042-.8l-3.148-4.074c1.454-.144,2.9-.339,4.337-.6a.658.658,0,1,0-.236-1.295Z" transform="translate(-261.893 44.516)" fill="#e0ca9f"/>
  <path id="Pfad_273" data-name="Pfad 273" d="M362.031,66.071q-1.945.354-3.912.559l2.55-2.849a.659.659,0,0,0-.982-.878L357.543,65.3l.1-3.2a.659.659,0,0,0-1.318-.039l-.111,3.684L354.245,63.2a.658.658,0,0,0-1.042.8l2.195,2.839c-1.585.082-3.173.1-4.756.034a.646.646,0,0,0-.685.633.66.66,0,0,0,.633.683q1.045.039,2.093.041c.759,0,1.518-.02,2.277-.052l-3.109,3.473a.658.658,0,0,0,.982.877l3.288-3.67-.188,6.172a.66.66,0,0,0,.639.679h.02a.657.657,0,0,0,.657-.638l.17-5.62,2.621,3.391a.659.659,0,0,0,.521.256.648.648,0,0,0,.4-.138.658.658,0,0,0,.12-.923l-3.15-4.074c1.454-.144,2.9-.339,4.338-.6a.658.658,0,1,0-.238-1.295Z" transform="translate(-246.432 51.943)" fill="#e0ca9f"/>
  <path id="Pfad_274" data-name="Pfad 274" d="M378.255,87.471q-1.942.354-3.912.557l2.55-2.847a.659.659,0,1,0-.982-.878L373.767,86.7l.1-3.2a.66.66,0,0,0-.639-.679.65.65,0,0,0-.677.638l-.113,3.684L370.469,84.6a.658.658,0,1,0-1.041.8l2.193,2.837c-1.585.084-3.173.1-4.756.034a.647.647,0,0,0-.685.633.659.659,0,0,0,.633.683q1.045.042,2.093.041,1.138,0,2.277-.051l-3.109,3.471a.659.659,0,1,0,.982.878l3.288-3.671-.188,6.174a.66.66,0,0,0,.639.679h.02a.658.658,0,0,0,.657-.639l.17-5.618,2.621,3.391a.659.659,0,0,0,1.042-.806l-3.15-4.074c1.454-.143,2.9-.338,4.338-.6a.658.658,0,1,0-.238-1.295Z" transform="translate(-226.863 81.001)" fill="#e0ca9f"/>
  <path id="Pfad_276" data-name="Pfad 276" d="M343.948,19.23c-1.3.238-2.6.421-3.914.559l2.55-2.849a.658.658,0,1,0-.98-.877l-2.144,2.393.1-3.2a.658.658,0,0,0-1.316-.039l-.111,3.684-1.967-2.545a.659.659,0,1,0-1.042.806L337.313,20c-1.583.084-3.171.1-4.756.034a.647.647,0,0,0-.684.633.659.659,0,0,0,.631.683q1.047.042,2.095.041c.759,0,1.518-.02,2.276-.051l-3.111,3.471a.659.659,0,1,0,.982.878l3.288-3.671-.187,6.174a.66.66,0,0,0,.638.679h.02a.659.659,0,0,0,.659-.639l.17-5.618,2.621,3.389a.657.657,0,0,0,.923.118A.658.658,0,0,0,343,25.2l-3.148-4.074c1.454-.143,2.9-.338,4.337-.6a.658.658,0,0,0-.236-1.295Z" transform="translate(-268.243 -7.374)" fill="#e0ca9f"/>
  <path id="Pfad_277" data-name="Pfad 277" d="M318.518,49.5q-1.945.354-3.914.559l2.55-2.849a.658.658,0,0,0-.98-.878l-2.144,2.393.1-3.2a.658.658,0,1,0-1.316-.039l-.111,3.684-1.967-2.545a.658.658,0,0,0-1.042.8l2.193,2.839c-1.583.082-3.171.1-4.756.034a.646.646,0,0,0-.683.633.659.659,0,0,0,.631.683q1.047.039,2.095.041c.759,0,1.518-.02,2.277-.052l-3.111,3.473a.659.659,0,0,0,.982.878l3.288-3.671-.187,6.172a.658.658,0,0,0,.638.679h.02a.659.659,0,0,0,.659-.638l.17-5.618,2.621,3.389a.658.658,0,1,0,1.041-.8L314.417,51.4c1.454-.144,2.9-.339,4.337-.6a.658.658,0,0,0-.236-1.295Z" transform="translate(-300.851 31.854)" fill="#e0ca9f"/>
  <path id="Pfad_278" data-name="Pfad 278" d="M320.618,90.208c-1.3.236-2.6.42-3.914.559l2.55-2.849a.658.658,0,0,0-.98-.878l-2.144,2.393.1-3.2a.658.658,0,1,0-1.316-.039l-.112,3.684-1.967-2.545a.658.658,0,0,0-1.042.8l2.193,2.839c-1.583.082-3.171.1-4.756.034a.645.645,0,0,0-.683.633.659.659,0,0,0,.631.683q1.047.039,2.095.041c.759,0,1.518-.02,2.277-.052l-3.111,3.473a.657.657,0,0,0,.052.929.648.648,0,0,0,.438.167.658.658,0,0,0,.492-.218L314.7,93l-.187,6.172a.658.658,0,0,0,.638.679h.02a.66.66,0,0,0,.659-.638l.17-5.62,2.619,3.391a.658.658,0,0,0,1.042-.8L316.517,92.1c1.454-.144,2.9-.339,4.337-.6a.658.658,0,1,0-.236-1.295Z" transform="translate(-299.509 82.75)" fill="#e0ca9f"/>
</svg>
