<svg id="_5" data-name="5" xmlns="http://www.w3.org/2000/svg" width="187" height="186.999" viewBox="0 0 187 186.999">
  <rect id="Rechteck_25" data-name="Rechteck 25" width="186.999" height="186.998" transform="translate(0.001 0)" fill="#393939" opacity="0.004"/>
  <path id="Pfad_1049" data-name="Pfad 1049" d="M12.762-7.749c4.821,0,5.424,3.134,5.424,10.667,0,8.256-.181,13.138-5.3,13.138-3.676,0-4.52-2.29-4.52-3.917a5.539,5.539,0,0,1,.362-1.989h1.989a9.05,9.05,0,0,0,.542-3.074c0-3.074-2.17-4.7-5.183-4.7C2.336,2.375.588,5.027.588,7.98c0,7.413,7.654,9.281,12.475,9.281,10.727,0,17.3-5.243,17.3-13.861,0-6.268-3.435-12.6-15.488-12.6A19.99,19.99,0,0,0,5.41-6.845l.3-11.692L18.849-15.1a22.249,22.249,0,0,0,5,1.025c2.35,0,3.435-2.049,4.4-11.872l-.9-.121c-.482,1.808-1.025,2.531-2.411,2.531-1.748,0-14.946-1.326-19.948-2.049l-.964.723V-5.64l1.025.482A15.109,15.109,0,0,1,12.762-7.749Z" transform="translate(78.026 97.904)" fill="#e0ca9f"/>
  <g id="Gruppe_79" data-name="Gruppe 79" transform="translate(47.33 47.33)">
    <path id="Pfad_498" data-name="Pfad 498" d="M440.78,27.693a3.8,3.8,0,0,0,1.11,4.214,3.742,3.742,0,0,0,4.1.352,3.651,3.651,0,0,0,1.76-3.706C447.128,25.008,442.149,24.2,440.78,27.693Z" transform="translate(-398.001 -25.446)" fill="#e0ca9f"/>
    <path id="Pfad_499" data-name="Pfad 499" d="M440.78,79.6a3.8,3.8,0,0,0,1.11,4.214,3.742,3.742,0,0,0,4.1.354,3.655,3.655,0,0,0,1.76-3.707C447.128,76.914,442.149,76.1,440.78,79.6Z" transform="translate(-398.001 7.72)" fill="#e0ca9f"/>
    <path id="Pfad_500" data-name="Pfad 500" d="M422.468,38.08a3.8,3.8,0,0,0,3.765,2.195,3.744,3.744,0,0,0,3.15-2.65A3.657,3.657,0,0,0,428,33.76C425.058,31.693,420.965,34.642,422.468,38.08Z" transform="translate(-409.754 -20.572)" fill="#e0ca9f"/>
    <path id="Pfad_501" data-name="Pfad 501" d="M459.171,74.783a3.8,3.8,0,0,0,3.765,2.195,3.741,3.741,0,0,0,3.15-2.65,3.658,3.658,0,0,0-1.378-3.865C461.761,68.4,457.668,71.346,459.171,74.783Z" transform="translate(-386.302 2.881)" fill="#e0ca9f"/>
    <path id="Pfad_502" data-name="Pfad 502" d="M416.832,58.422a3.8,3.8,0,0,0,4.214-1.111,3.739,3.739,0,0,0,.354-4.1,3.656,3.656,0,0,0-3.707-1.759C414.147,52.074,413.339,57.053,416.832,58.422Z" transform="translate(-414.586 -8.861)" fill="#e0ca9f"/>
    <path id="Pfad_503" data-name="Pfad 503" d="M468.737,58.422a3.8,3.8,0,0,0,4.215-1.111,3.742,3.742,0,0,0,.352-4.1,3.656,3.656,0,0,0-3.707-1.759C466.054,52.074,465.245,57.053,468.737,58.422Z" transform="translate(-381.419 -8.861)" fill="#e0ca9f"/>
    <path id="Pfad_504" data-name="Pfad 504" d="M427.219,76.772a3.8,3.8,0,0,0,2.195-3.765,3.741,3.741,0,0,0-2.65-3.15,3.652,3.652,0,0,0-3.865,1.378C420.834,74.181,423.782,78.275,427.219,76.772Z" transform="translate(-409.711 2.854)" fill="#e0ca9f"/>
    <path id="Pfad_505" data-name="Pfad 505" d="M463.922,40.067a3.8,3.8,0,0,0,2.2-3.765,3.746,3.746,0,0,0-2.65-3.148,3.656,3.656,0,0,0-3.866,1.377C457.537,37.478,460.485,41.572,463.922,40.067Z" transform="translate(-386.259 -20.599)" fill="#e0ca9f"/>
  </g>
  <g id="Gruppe_80" data-name="Gruppe 80" transform="translate(43.2 46.662)">
    <path id="Pfad_506" data-name="Pfad 506" d="M435.255,37.541a.721.721,0,0,1-.634-.374l-6-10.994a.721.721,0,1,1,1.265-.692l6,10.994a.72.72,0,0,1-.633,1.065Z" transform="translate(-403.146 -24.043)" fill="#fff"/>
    <path id="Pfad_507" data-name="Pfad 507" d="M452.612,36.908A.72.72,0,0,1,452,35.8l6.974-11.007a.72.72,0,1,1,1.218.77l-6.974,11.007A.718.718,0,0,1,452.612,36.908Z" transform="translate(-388.221 -24.458)" fill="#fff"/>
    <path id="Pfad_508" data-name="Pfad 508" d="M430.189,47.11a.755.755,0,0,1-.2-.028l-16.288-4.7A.721.721,0,1,1,414.1,41l16.286,4.7a.721.721,0,0,1-.2,1.414Z" transform="translate(-412.957 -13.906)" fill="#fff"/>
    <path id="Pfad_509" data-name="Pfad 509" d="M413.765,70.388a.721.721,0,0,1-.313-1.37L428.9,61.587a.721.721,0,0,1,.626,1.3l-15.449,7.431A.725.725,0,0,1,413.765,70.388Z" transform="translate(-413.044 -0.779)" fill="#fff"/>
    <path id="Pfad_510" data-name="Pfad 510" d="M430.972,87.329a.731.731,0,0,1-.336-.082.722.722,0,0,1-.3-.975l7.5-14.266a.721.721,0,0,1,1.277.67l-7.5,14.267A.721.721,0,0,1,430.972,87.329Z" transform="translate(-402.048 5.679)" fill="#fff"/>
    <path id="Pfad_511" data-name="Pfad 511" d="M460.013,85.062a.721.721,0,0,1-.508-.208,53.218,53.218,0,0,1-8.932-11.761.721.721,0,1,1,1.259-.7A51.771,51.771,0,0,0,460.187,83.5a.716.716,0,0,1,.321.277l.116.185a.721.721,0,0,1-.162.946A.711.711,0,0,1,460.013,85.062Z" transform="translate(-389.122 5.934)" fill="#fff"/>
    <path id="Pfad_512" data-name="Pfad 512" d="M477.157,67.86a.71.71,0,0,1-.275-.054L463.3,62.178a.721.721,0,0,1,.551-1.332l13.587,5.628a.721.721,0,0,1-.277,1.387Z" transform="translate(-381.218 -1.242)" fill="#fff"/>
    <path id="Pfad_513" data-name="Pfad 513" d="M464.783,46.491a.721.721,0,0,1-.166-1.423l15.541-3.676a.72.72,0,0,1,.333,1.4L464.95,46.471A.728.728,0,0,1,464.783,46.491Z" transform="translate(-380.444 -13.65)" fill="#fff"/>
  </g>
  <g id="Gruppe_81" data-name="Gruppe 81">
    <path id="Pfad_515" data-name="Pfad 515" d="M503.565,77.282a9.094,9.094,0,0,0-2.609.2c-4.174.952-7.413,5.471-6.338,9.616a20.67,20.67,0,0,0-2.08-6.223,6.989,6.989,0,0,0-5.2-3.624c-2.9-.215-5.494,2.113-6.558,4.814s-.941,5.705-.8,8.6a17.556,17.556,0,0,0-2.491-5.032,5.943,5.943,0,0,0-4.84-2.44c-3.253.231-5.205,4.12-4.63,7.331s2.86,5.805,5.053,8.221a8.566,8.566,0,0,0-12.891,10.819h43.385Z" transform="translate(-316.565 77.431)" fill="#e0ca9f"/>
    <path id="Pfad_516" data-name="Pfad 516" d="M434.21,14.05a8.592,8.592,0,0,0,1.151-3.866h-35.91V43a9.251,9.251,0,0,0,8.878.257,9.361,9.361,0,0,0,3.183-12.751c3.1,2.17,7.826.615,9.783-2.627s1.526-7.507-.225-10.865A9.653,9.653,0,0,0,434.21,14.05Z" transform="translate(-399.451 -10.184)" fill="#e0ca9f"/>
  </g>
  <g id="Gruppe_82" data-name="Gruppe 82">
    <path id="Pfad_519" data-name="Pfad 519" d="M418.026,14.068a6.89,6.89,0,0,0,2.6-3.884H399.451v19.3a4.268,4.268,0,0,0,3.381-1.921,7.3,7.3,0,0,0,.923-4.876,5.434,5.434,0,0,0,6.572-7.2A10.088,10.088,0,0,0,418.026,14.068Z" transform="translate(-399.451 -10.184)" fill="#be9a49"/>
    <path id="Pfad_521" data-name="Pfad 521" d="M499.3,84.181a10.547,10.547,0,0,0-6.461,8.411A8.513,8.513,0,0,0,488.384,86a6.37,6.37,0,0,0-7.546,1.46,5.285,5.285,0,0,0-.075,6.274,4,4,0,0,0-5.294,5.894,11.97,11.97,0,0,0-7.76,2.781,8.006,8.006,0,0,0-1.934,2.721H499.3Z" transform="translate(-312.301 81.869)" fill="#be9a49"/>
  </g>
</svg>
