<svg xmlns="http://www.w3.org/2000/svg" width="389" height="186.998" viewBox="0 0 389 186.998">
  <g id="_6" data-name="6" transform="translate(-998.501 -406.502)">
    <g id="Gruppe_288" data-name="Gruppe 288" transform="translate(998.501 406.502)">
      <rect id="Rechteck_26" data-name="Rechteck 26" width="389" height="186.998" transform="translate(0.001)" fill="#be9a49" opacity="0"/>
      <path id="Pfad_1054" data-name="Pfad 1054" d="M1.246,6.283c0,17.97,8.5,25.511,22.864,25.511,13.4,0,22.142-7.621,22.142-19.9,0-11.071-7.14-16.606-16.526-16.606-6.5,0-10.269,2.728-12.675,6.5.16-19.815,3.77-26.233,10.91-26.233,4.492,0,5.856,2.166,5.856,5.054a10.313,10.313,0,0,1-.481,2.888H30.768a10.125,10.125,0,0,0-.642,3.69c0,3.77,2.968,6.257,6.819,6.257a7.13,7.13,0,0,0,7.381-7.461c0-6.819-5.7-12.033-17.087-12.033C11.354-26.047,1.246-14.655,1.246,6.283ZM17.771,5.24c1.043-3.931,3.53-7.3,7.22-7.3,5.295,0,5.535,4.492,5.535,15.724,0,9.787-.321,16.446-6.739,16.446-6.5,0-6.578-6.177-6.578-17.007A32.13,32.13,0,0,1,17.771,5.24Z" transform="translate(163.252 90.624)" fill="#fff"/>
      <path id="Pfad_522" data-name="Pfad 522" d="M99.805,242.993a103.639,103.639,0,0,1-20.3-2.142c-13.779-2.752-23.292-7.228-29.941-14.083-5.449-5.618-9.256-13.271-11.319-22.744-3.963-18.2-.006-37.4,10.592-51.371h0a55.72,55.72,0,0,1,16.606-14.513c11.451-6.556,24.931-7.863,35.4-8.268,13.047-.5,27.25,5.633,36.2,15.636,8.731,9.755,14.737,23.641,16.912,39.1,1.474,10.482.225,21.431-3.43,30.035-5.007,11.8-16.462,21.374-30.642,25.607A69.991,69.991,0,0,1,99.805,242.993Zm2.55-109.717c-.464,0-.923.008-1.382.026-10.064.39-23,1.63-33.789,7.809a52.191,52.191,0,0,0-15.565,13.6h0c-10,13.185-13.733,31.348-9.978,48.588,1.927,8.843,5.437,15.94,10.433,21.094,6.132,6.322,15.066,10.482,28.115,13.094,14.671,2.929,27.685,2.755,38.678-.53,13.2-3.937,23.832-12.778,28.444-23.644,3.421-8.057,4.583-18.348,3.19-28.237-2.083-14.8-7.788-28.04-16.072-37.3A44.671,44.671,0,0,0,102.355,133.276Z" transform="translate(91.356 -92.921)" fill="#fff"/>
    </g>
    <g id="Gruppe_275" data-name="Gruppe 275" transform="translate(1232.295 460.167)">
      <path id="Pfad_1006" data-name="Pfad 1006" d="M408.04,445.83l4.42,93.594h70.278l4.358-89.519Z" transform="translate(-404.349 -423.084)" fill="#393939"/>
      <g id="Gruppe_274" data-name="Gruppe 274" transform="translate(5.019 31.96)">
        <path id="Pfad_1007" data-name="Pfad 1007" d="M434.3,473.053c-7.477,0-7.487,11.62,0,11.62S441.791,473.053,434.3,473.053Z" transform="translate(-387.354 -426.023)" fill="#e0ca9f"/>
        <path id="Pfad_1008" data-name="Pfad 1008" d="M419.841,486.682c7.475,0,7.487-11.62,0-11.62S412.351,486.682,419.841,486.682Z" transform="translate(-402.771 -423.881)" fill="#e0ca9f"/>
        <path id="Pfad_1009" data-name="Pfad 1009" d="M409.2,470.672a6.255,6.255,0,0,0,1.609.209c7.477,0,7.49-11.62,0-11.62a6,6,0,0,0-2.13.374Z" transform="translate(-408.683 -440.726)" fill="#e0ca9f"/>
        <path id="Pfad_1010" data-name="Pfad 1010" d="M443.94,487.381c-4.585,0-6.357,4.368-5.32,7.746h10.64C450.3,491.749,448.533,487.381,443.94,487.381Z" transform="translate(-377.073 -410.748)" fill="#e0ca9f"/>
        <path id="Pfad_1011" data-name="Pfad 1011" d="M438.989,462.981c7.477,0,7.49-11.62,0-11.62S431.5,462.981,438.989,462.981Z" transform="translate(-382.357 -449.148)" fill="#e0ca9f"/>
        <path id="Pfad_1012" data-name="Pfad 1012" d="M448.594,464.1c-.122-.008-.24-.019-.368-.019-7.409,0-7.483,11.4-.2,11.609Z" transform="translate(-372.506 -435.586)" fill="#e0ca9f"/>
        <path id="Pfad_1013" data-name="Pfad 1013" d="M427.338,488.318a5.5,5.5,0,0,0-5.612,5.81h11.225A5.493,5.493,0,0,0,427.338,488.318Z" transform="translate(-394.777 -409.749)" fill="#e0ca9f"/>
        <path id="Pfad_1014" data-name="Pfad 1014" d="M423.322,450.29c-7.477,0-7.49,11.62,0,11.62S430.812,450.29,423.322,450.29Z" transform="translate(-399.06 -450.29)" fill="#e0ca9f"/>
        <path id="Pfad_1015" data-name="Pfad 1015" d="M427.607,473.425c7.477,0,7.49-11.62,0-11.62S420.117,473.425,427.607,473.425Z" transform="translate(-394.492 -438.014)" fill="#e0ca9f"/>
        <path id="Pfad_1016" data-name="Pfad 1016" d="M411.889,487.381a6.153,6.153,0,0,0-1.88.281l.351,7.465h6.847C418.249,491.749,416.482,487.381,411.889,487.381Z" transform="translate(-407.269 -410.748)" fill="#e0ca9f"/>
      </g>
      <path id="Pfad_1017" data-name="Pfad 1017" d="M437.211,457.093a9.2,9.2,0,0,1-3.492-.934c-.167-.07-.322-.138-.465-.194a30.415,30.415,0,0,1-14.632-12.225c-1.473-2.4-1.769-4.506-.876-6.258a5.207,5.207,0,0,1,4.684-2.661h.07a9.439,9.439,0,0,1,4.174,1.219h0a27.958,27.958,0,0,1,8.44,6.686,28.293,28.293,0,0,1,4.969,8.341c.041.11.089.225.138.345,1.078,2.614.634,4.4-1.316,5.318A3.953,3.953,0,0,1,437.211,457.093Zm.029-4.155ZM422.433,438.97a1.208,1.208,0,0,0-.988.4c-.14.275-.027,1,.715,2.2a26.209,26.209,0,0,0,12.626,10.541c.169.068.357.147.558.233.219.093.576.244.93.372-.023-.058-.045-.114-.066-.167a24.13,24.13,0,0,0-4.244-7.122,23.763,23.763,0,0,0-7.171-5.686h0a5.811,5.811,0,0,0-2.341-.768Z" transform="translate(-394.538 -434.821)" fill="#fff"/>
      <path id="Pfad_1018" data-name="Pfad 1018" d="M430.493,457.754l-.725-2.105-2.95-.029A23.085,23.085,0,0,1,438.9,435.9c.729-.382,2.944-1.539,5.085-.483a5.228,5.228,0,0,1,2.63,4.169c.616,4.231-1.314,8.942-5.031,12.293C438.331,454.8,434.331,456.43,430.493,457.754Zm11.593-18.624a3.034,3.034,0,0,0-1.266.444,18.919,18.919,0,0,0-9.63,13.516,23.929,23.929,0,0,0,7.611-4.3c2.7-2.434,4.122-5.735,3.7-8.616a1.94,1.94,0,0,0-.37-1.05Z" transform="translate(-384.331 -434.649)" fill="#fff"/>
      <path id="Pfad_1019" data-name="Pfad 1019" d="M406.265,445.15l1.607,17.291a2.517,2.517,0,0,0,2.424,2.283l79.193,2.616a2.516,2.516,0,0,0,2.593-2.331l1.289-17.448a2.518,2.518,0,0,0-2.436-2.7L408.847,442.4A2.52,2.52,0,0,0,406.265,445.15Z" transform="translate(-406.254 -426.743)" fill="#393939"/>
      <path id="Pfad_1020" data-name="Pfad 1020" d="M436.524,542.556l1.491-99.243-14.048-.421,3.243,99.664Z" transform="translate(-387.37 -426.216)" fill="#fff"/>
    </g>
    <g id="Gruppe_277" data-name="Gruppe 277" transform="translate(1294.094 499.03)">
      <path id="Pfad_1021" data-name="Pfad 1021" d="M463.3,498.295l7.363-16.237a25.481,25.481,0,0,1-12.012-5.5c-2.732-2.276-3.918-4.887-3.338-7.357a6.23,6.23,0,0,1,5.788-4.5,10.051,10.051,0,0,1,6.044,1.927,18.185,18.185,0,0,1,3.045,2.53,34.08,34.08,0,0,1,2.136-8.9,9.966,9.966,0,0,1,1.821-3.2,5.413,5.413,0,0,1,4.327-1.868,5.289,5.289,0,0,1,4.012,2.569,8.429,8.429,0,0,1,1.14,3.685,18.593,18.593,0,0,1-.715,7.156,20.98,20.98,0,0,1,3.31-1.118,10.642,10.642,0,0,1,4.543-.265,6.134,6.134,0,0,1,4.4,3.206,6.255,6.255,0,0,1-.886,6.428,11.979,11.979,0,0,1-4.286,3.241,38.288,38.288,0,0,1-16.308,4.075Zm16.091-22.161c-.746,1.185-1.536,2.329-2.342,3.448a33.913,33.913,0,0,0,11-3.353,8.033,8.033,0,0,0,2.795-2.006,2.031,2.031,0,0,0,.429-1.911,1.9,1.9,0,0,0-1.336-.845,6.333,6.333,0,0,0-2.674.216A17.337,17.337,0,0,0,479.386,476.134Zm-17.892-7.113c-.056,0-.112,0-.168,0a1.978,1.978,0,0,0-1.8,1.164c-.179.756.547,1.92,1.892,3.041a21.124,21.124,0,0,0,8.939,4.364,14.431,14.431,0,0,0-5.6-7.353A6.18,6.18,0,0,0,461.494,469.02Zm16.632-9.514a1.266,1.266,0,0,0-.774.457,6.224,6.224,0,0,0-1,1.866,29.981,29.981,0,0,0-1.914,13.33,21.866,21.866,0,0,1,1.569-1.8c.528-.864,1.017-1.745,1.45-2.642a16.441,16.441,0,0,0,1.858-8.824,4.4,4.4,0,0,0-.509-1.851,1.089,1.089,0,0,0-.662-.537Z" transform="translate(-414.309 -455.177)" fill="#fff"/>
      <path id="Pfad_1022" data-name="Pfad 1022" d="M437.417,467.229l.063,1.231,2.937,57.061h71.157l4.617-55.661Z" transform="translate(-434.807 -441.258)" fill="#e0ca9f"/>
      <path id="Pfad_1023" data-name="Pfad 1023" d="M436.217,467.361l1.362,14.492a2.414,2.414,0,0,0,2.3,2.185l75.556,3.135a2.414,2.414,0,0,0,2.485-2.039l2.418-15.464a2.416,2.416,0,0,0-2.321-2.786l-79.333-2.164A2.415,2.415,0,0,0,436.217,467.361Z" transform="translate(-436.206 -444.155)" fill="#e0ca9f"/>
      <g id="Gruppe_276" data-name="Gruppe 276" transform="translate(3.53 43.859)">
        <path id="Pfad_1024" data-name="Pfad 1024" d="M438.259,483.586l.045.871c24.532,1.651,49.268,2.732,73.868,3.234l.071-.864C487.6,486.325,462.829,485.243,438.259,483.586Z" transform="translate(-437.365 -466.226)" fill="#fff"/>
        <path id="Pfad_1025" data-name="Pfad 1025" d="M510.222,494.69l.071-.866c-23.81,0-47.775-.478-71.58-1.4l.045.868C462.525,494.214,486.453,494.688,510.222,494.69Z" transform="translate(-436.841 -456.024)" fill="#fff"/>
        <path id="Pfad_1026" data-name="Pfad 1026" d="M438.465,487.6l.045.871q21.505,1.451,43.133,1.459,14.908,0,29.779-.7l.073-.875A640.124,640.124,0,0,1,438.465,487.6Z" transform="translate(-437.127 -461.59)" fill="#fff"/>
        <path id="Pfad_1027" data-name="Pfad 1027" d="M438.63,490.807l72.276.258.072-.865-72.393-.258Z" transform="translate(-436.988 -458.886)" fill="#fff"/>
        <path id="Pfad_1028" data-name="Pfad 1028" d="M437.889,476.4l76.265,2.491.072-.864-76.381-2.5Z" transform="translate(-437.844 -475.53)" fill="#fff"/>
        <path id="Pfad_1029" data-name="Pfad 1029" d="M465.533,483.412c15.839,0,31.695-.457,47.456-1.358l.073-.881c-24.876,1.424-49.986,1.743-74.9.922l.043.858Q451.837,483.4,465.533,483.412Z" transform="translate(-437.483 -469.013)" fill="#fff"/>
        <path id="Pfad_1030" data-name="Pfad 1030" d="M478.788,480.093q17.468,0,34.884-.646l.071-.871c-25.182.924-50.591.843-75.754-.237l.043.866Q458.344,480.078,478.788,480.093Z" transform="translate(-437.677 -472.286)" fill="#fff"/>
      </g>
      <path id="Pfad_1031" data-name="Pfad 1031" d="M460.941,527.649h8.2L473.4,465.68l-10.786-.294Z" transform="translate(-407.639 -443.387)" fill="#fff"/>
    </g>
    <g id="Gruppe_292" data-name="Gruppe 292" transform="translate(1004.192 417.912)">
      <path id="Pfad_997" data-name="Pfad 997" d="M406.142,425.3q2.4.436,4.821.661l-3.14-3.506a.482.482,0,1,1,.717-.644l2.726,3.045-.123-4.068a.482.482,0,0,1,.468-.5.5.5,0,0,1,.5.468l.138,4.605,2.51-3.245a.478.478,0,0,1,.674-.086.483.483,0,0,1,.088.677l-2.629,3.4c1.858.112,3.722.136,5.579.065l.019,0a.483.483,0,0,1,.019.965c-.748.03-1.5.043-2.245.043-1,0-1.993-.028-2.987-.08l3.713,4.146a.482.482,0,0,1-.718.644l-3.961-4.422.22,7.277a.482.482,0,0,1-.468.5h-.015a.481.481,0,0,1-.481-.468l-.2-6.689-3.213,4.155a.481.481,0,0,1-.381.187.487.487,0,0,1-.3-.1.482.482,0,0,1-.086-.677l3.642-4.711q-2.547-.233-5.062-.692a.482.482,0,1,1,.172-.948Z" transform="translate(-189.466 -423.391)" fill="#e0ca9f"/>
      <path id="Pfad_998" data-name="Pfad 998" d="M428.227,417.063q2.392.436,4.82.662l-3.142-3.506a.483.483,0,0,1,.72-.644l2.724,3.045-.123-4.068a.482.482,0,0,1,.468-.5.5.5,0,0,1,.5.468l.14,4.605,2.508-3.245a.482.482,0,0,1,.763.588l-2.627,3.4q2.786.168,5.579.062h.017a.483.483,0,0,1,.019.965q-1.122.042-2.245.043-1.493,0-2.987-.082l3.713,4.148a.482.482,0,0,1-.358.8.476.476,0,0,1-.36-.162l-3.961-4.42.222,7.277a.484.484,0,0,1-.468.5h-.015a.482.482,0,0,1-.483-.468l-.2-6.689L430.235,424a.48.48,0,0,1-.381.188.48.48,0,0,1-.381-.776l3.642-4.711q-2.547-.233-5.062-.692a.482.482,0,1,1,.175-.948Z" transform="translate(-308.136 -387.049)" fill="#e0ca9f"/>
      <path id="Pfad_1094" data-name="Pfad 1094" d="M428.227,417.063q2.392.436,4.82.662l-3.142-3.506a.483.483,0,0,1,.72-.644l2.724,3.045-.123-4.068a.482.482,0,0,1,.468-.5.5.5,0,0,1,.5.468l.14,4.605,2.508-3.245a.482.482,0,0,1,.763.588l-2.627,3.4q2.786.168,5.579.062h.017a.483.483,0,0,1,.019.965q-1.122.042-2.245.043-1.493,0-2.987-.082l3.713,4.148a.482.482,0,0,1-.358.8.476.476,0,0,1-.36-.162l-3.961-4.42.222,7.277a.484.484,0,0,1-.468.5h-.015a.482.482,0,0,1-.483-.468l-.2-6.689L430.235,424a.48.48,0,0,1-.381.188.48.48,0,0,1-.381-.776l3.642-4.711q-2.547-.233-5.062-.692a.482.482,0,1,1,.175-.948Z" transform="translate(-79.136 -373.947)" fill="#e0ca9f"/>
      <path id="Pfad_999" data-name="Pfad 999" d="M456.96,445.283q2.392.437,4.821.662l-3.14-3.506a.482.482,0,0,1,.718-.644l2.726,3.045-.123-4.069a.482.482,0,0,1,.468-.5.5.5,0,0,1,.5.468l.14,4.605,2.508-3.245a.482.482,0,0,1,.763.591l-2.627,3.4q2.786.168,5.579.065h.019a.482.482,0,0,1,.019.963c-.75.03-1.5.043-2.245.043q-1.5,0-2.989-.08l3.715,4.146a.483.483,0,0,1-.72.644l-3.959-4.422.22,7.277a.48.48,0,0,1-.468.5h-.015a.48.48,0,0,1-.481-.468l-.2-6.689-3.211,4.155a.476.476,0,0,1-.381.19.489.489,0,0,1-.3-.1.481.481,0,0,1-.086-.677l3.64-4.711q-2.544-.233-5.06-.692a.482.482,0,0,1,.172-.948Z" transform="translate(-398.788 -354.457)" fill="#e0ca9f"/>
      <path id="Pfad_1000" data-name="Pfad 1000" d="M475.831,438.988c1.595.293,3.2.511,4.821.664l-3.14-3.506a.482.482,0,0,1,.718-.644l2.726,3.043-.123-4.066a.482.482,0,0,1,.468-.5.506.506,0,0,1,.5.468l.14,4.607,2.508-3.245a.482.482,0,1,1,.763.588l-2.627,3.4c1.858.11,3.722.136,5.579.063h.019a.482.482,0,0,1,.019.963c-.748.03-1.5.045-2.246.045-1,0-1.993-.03-2.989-.082l3.715,4.148a.482.482,0,1,1-.72.642L482,441.156l.22,7.279a.482.482,0,0,1-.468.5h-.015a.481.481,0,0,1-.481-.468l-.2-6.691-3.211,4.157a.482.482,0,0,1-.763-.588l3.64-4.711q-2.544-.236-5.06-.692a.483.483,0,0,1,.172-.95Z" transform="translate(-458.327 -361.728)" fill="#e0ca9f"/>
      <path id="Pfad_1097" data-name="Pfad 1097" d="M475.831,438.988c1.595.293,3.2.511,4.821.664l-3.14-3.506a.482.482,0,0,1,.718-.644l2.726,3.043-.123-4.066a.482.482,0,0,1,.468-.5.506.506,0,0,1,.5.468l.14,4.607,2.508-3.245a.482.482,0,1,1,.763.588l-2.627,3.4c1.858.11,3.722.136,5.579.063h.019a.482.482,0,0,1,.019.963c-.748.03-1.5.045-2.246.045-1,0-1.993-.03-2.989-.082l3.715,4.148a.482.482,0,1,1-.72.642L482,441.156l.22,7.279a.482.482,0,0,1-.468.5h-.015a.481.481,0,0,1-.481-.468l-.2-6.691-3.211,4.157a.482.482,0,0,1-.763-.588l3.64-4.711q-2.544-.236-5.06-.692a.483.483,0,0,1,.172-.95Z" transform="translate(-198.327 -432.755)" fill="#e0ca9f"/>
      <path id="Pfad_1001" data-name="Pfad 1001" d="M483.691,458.842q2.392.436,4.82.661L485.37,456a.483.483,0,0,1,.72-.644l2.726,3.045-.125-4.069a.486.486,0,0,1,.468-.5.506.506,0,0,1,.5.468l.14,4.607,2.508-3.245a.482.482,0,1,1,.763.588l-2.627,3.4c1.858.11,3.719.136,5.579.063h.019a.483.483,0,0,1,.017.965q-1.122.042-2.245.043-1.493,0-2.987-.08l3.713,4.146a.482.482,0,0,1-.358.8.475.475,0,0,1-.36-.162l-3.961-4.42.222,7.277a.483.483,0,0,1-.468.5H489.6a.482.482,0,0,1-.483-.468l-.2-6.689-3.213,4.155a.481.481,0,0,1-.381.187.469.469,0,0,1-.293-.1.481.481,0,0,1-.088-.674l3.642-4.711c-1.7-.157-3.388-.386-5.062-.692a.482.482,0,1,1,.175-.948Z" transform="translate(-478.759 -450.875)" fill="#e0ca9f"/>
      <path id="Pfad_1002" data-name="Pfad 1002" d="M410.578,406.017q2.392.437,4.821.662l-3.142-3.506a.483.483,0,0,1,.72-.644l2.726,3.045-.123-4.069a.482.482,0,0,1,.468-.5.506.506,0,0,1,.5.468l.14,4.607,2.508-3.245a.482.482,0,0,1,.763.588l-2.627,3.4c1.857.11,3.719.136,5.579.065l.019,0a.483.483,0,0,1,.017.965q-1.122.042-2.243.043-1.5,0-2.989-.082l3.715,4.148a.483.483,0,0,1-.72.644l-3.959-4.422.22,7.277a.483.483,0,0,1-.468.5h-.015a.483.483,0,0,1-.483-.468l-.2-6.689-3.211,4.155a.488.488,0,0,1-.384.187.48.48,0,0,1-.379-.776l3.64-4.711q-2.544-.233-5.06-.692a.482.482,0,1,1,.172-.948Z" transform="translate(-252.457 -399.809)" fill="#e0ca9f"/>
      <path id="Pfad_1003" data-name="Pfad 1003" d="M396.911,438.988c1.595.293,3.2.511,4.821.664l-3.142-3.506a.483.483,0,0,1,.72-.644l2.726,3.043-.123-4.066a.482.482,0,0,1,.468-.5.506.506,0,0,1,.5.468l.14,4.607,2.508-3.245a.482.482,0,1,1,.763.588l-2.627,3.4c1.858.11,3.719.136,5.579.063h.019a.482.482,0,0,1,.017.963q-1.122.045-2.243.045c-1,0-1.993-.03-2.989-.082l3.715,4.148a.483.483,0,0,1-.36.8.476.476,0,0,1-.36-.162l-3.959-4.422.22,7.279a.483.483,0,0,1-.468.5h-.015a.485.485,0,0,1-.483-.468l-.2-6.691-3.211,4.157a.481.481,0,0,1-.384.187.47.47,0,0,1-.293-.1.479.479,0,0,1-.086-.674l3.64-4.711q-2.544-.236-5.06-.692a.483.483,0,0,1,.172-.95Z" transform="translate(-301.601 -326.424)" fill="#e0ca9f"/>
      <path id="Pfad_1086" data-name="Pfad 1086" d="M396.911,438.988c1.595.293,3.2.511,4.821.664l-3.142-3.506a.483.483,0,0,1,.72-.644l2.726,3.043-.123-4.066a.482.482,0,0,1,.468-.5.506.506,0,0,1,.5.468l.14,4.607,2.508-3.245a.482.482,0,1,1,.763.588l-2.627,3.4c1.858.11,3.719.136,5.579.063h.019a.482.482,0,0,1,.017.963q-1.122.045-2.243.045c-1,0-1.993-.03-2.989-.082l3.715,4.148a.483.483,0,0,1-.36.8.476.476,0,0,1-.36-.162l-3.959-4.422.22,7.279a.483.483,0,0,1-.468.5h-.015a.485.485,0,0,1-.483-.468l-.2-6.691-3.211,4.157a.481.481,0,0,1-.384.187.47.47,0,0,1-.293-.1.479.479,0,0,1-.086-.674l3.64-4.711q-2.544-.236-5.06-.692a.483.483,0,0,1,.172-.95Z" transform="translate(-357.868 -298.892)" fill="#e0ca9f"/>
      <path id="Pfad_1089" data-name="Pfad 1089" d="M396.911,438.988c1.595.293,3.2.511,4.821.664l-3.142-3.506a.483.483,0,0,1,.72-.644l2.726,3.043-.123-4.066a.482.482,0,0,1,.468-.5.506.506,0,0,1,.5.468l.14,4.607,2.508-3.245a.482.482,0,1,1,.763.588l-2.627,3.4c1.858.11,3.719.136,5.579.063h.019a.482.482,0,0,1,.017.963q-1.122.045-2.243.045c-1,0-1.993-.03-2.989-.082l3.715,4.148a.483.483,0,0,1-.36.8.476.476,0,0,1-.36-.162l-3.959-4.422.22,7.279a.483.483,0,0,1-.468.5h-.015a.485.485,0,0,1-.483-.468l-.2-6.691-3.211,4.157a.481.481,0,0,1-.384.187.47.47,0,0,1-.293-.1.479.479,0,0,1-.086-.674l3.64-4.711q-2.544-.236-5.06-.692a.483.483,0,0,1,.172-.95Z" transform="translate(-345.439 -395.872)" fill="#e0ca9f"/>
      <path id="Pfad_1095" data-name="Pfad 1095" d="M396.911,438.988c1.595.293,3.2.511,4.821.664l-3.142-3.506a.483.483,0,0,1,.72-.644l2.726,3.043-.123-4.066a.482.482,0,0,1,.468-.5.506.506,0,0,1,.5.468l.14,4.607,2.508-3.245a.482.482,0,1,1,.763.588l-2.627,3.4c1.858.11,3.719.136,5.579.063h.019a.482.482,0,0,1,.017.963q-1.122.045-2.243.045c-1,0-1.993-.03-2.989-.082l3.715,4.148a.483.483,0,0,1-.36.8.476.476,0,0,1-.36-.162l-3.959-4.422.22,7.279a.483.483,0,0,1-.468.5h-.015a.485.485,0,0,1-.483-.468l-.2-6.691-3.211,4.157a.481.481,0,0,1-.384.187.47.47,0,0,1-.293-.1.479.479,0,0,1-.086-.674l3.64-4.711q-2.544-.236-5.06-.692a.483.483,0,0,1,.172-.95Z" transform="translate(-93.439 -410.823)" fill="#e0ca9f"/>
      <path id="Pfad_1087" data-name="Pfad 1087" d="M396.911,438.988c1.595.293,3.2.511,4.821.664l-3.142-3.506a.483.483,0,0,1,.72-.644l2.726,3.043-.123-4.066a.482.482,0,0,1,.468-.5.506.506,0,0,1,.5.468l.14,4.607,2.508-3.245a.482.482,0,1,1,.763.588l-2.627,3.4c1.858.11,3.719.136,5.579.063h.019a.482.482,0,0,1,.017.963q-1.122.045-2.243.045c-1,0-1.993-.03-2.989-.082l3.715,4.148a.483.483,0,0,1-.36.8.476.476,0,0,1-.36-.162l-3.959-4.422.22,7.279a.483.483,0,0,1-.468.5h-.015a.485.485,0,0,1-.483-.468l-.2-6.691-3.211,4.157a.481.481,0,0,1-.384.187.47.47,0,0,1-.293-.1.479.479,0,0,1-.086-.674l3.64-4.711q-2.544-.236-5.06-.692a.483.483,0,0,1,.172-.95Z" transform="translate(-308.3 -291.779)" fill="#e0ca9f"/>
      <path id="Pfad_1004" data-name="Pfad 1004" d="M434.876,429.548q2.4.436,4.821.664l-3.14-3.508a.482.482,0,1,1,.718-.642L440,429.1l-.123-4.066a.484.484,0,0,1,.468-.5.5.5,0,0,1,.5.468l.138,4.607,2.51-3.247a.482.482,0,0,1,.763.59l-2.629,3.4c1.858.112,3.721.136,5.579.065h.019a.482.482,0,0,1,.019.963q-1.122.045-2.245.045c-1,0-1.993-.03-2.987-.082l3.713,4.146a.482.482,0,1,1-.718.644l-3.961-4.422.22,7.277a.482.482,0,0,1-.468.5h-.015a.483.483,0,0,1-.481-.468l-.2-6.691-3.213,4.157a.482.482,0,0,1-.763-.59l3.642-4.711q-2.547-.233-5.062-.692a.482.482,0,1,1,.172-.948Z" transform="translate(-329.12 -372.63)" fill="#e0ca9f"/>
      <path id="Pfad_1005" data-name="Pfad 1005" d="M447.564,405.459q2.392.436,4.82.664l-3.142-3.508a.482.482,0,0,1,.72-.642l2.726,3.043-.125-4.066a.485.485,0,0,1,.468-.5.5.5,0,0,1,.5.468l.14,4.607,2.508-3.247a.482.482,0,1,1,.763.591l-2.627,3.4q2.786.168,5.579.065h.019a.482.482,0,0,1,.017.963q-1.122.045-2.243.045c-1,0-1.993-.03-2.989-.082l3.715,4.146a.483.483,0,1,1-.72.644l-3.961-4.422.222,7.277a.483.483,0,0,1-.468.5h-.015a.485.485,0,0,1-.483-.468l-.2-6.691-3.211,4.157a.488.488,0,0,1-.384.188.47.47,0,0,1-.293-.1.481.481,0,0,1-.086-.677l3.64-4.711q-2.544-.233-5.062-.692a.482.482,0,0,1,.175-.948Z" transform="translate(-369.148 -400.451)" fill="#e0ca9f"/>
      <path id="Pfad_1032" data-name="Pfad 1032" d="M406.578,409.163a1.732,1.732,0,0,1,0,3.463A1.732,1.732,0,0,1,406.578,409.163Z" transform="translate(-216.305 -399.389)" fill="#fff"/>
      <path id="Pfad_1034" data-name="Pfad 1034" d="M410.863,431.793a1.731,1.731,0,0,1,0,3.461A1.731,1.731,0,0,1,410.863,431.793Z" transform="translate(-239.823 -364.253)" fill="#fff"/>
      <path id="Pfad_1035" data-name="Pfad 1035" d="M432.957,404.209a1.731,1.731,0,0,1,0,3.461A1.731,1.731,0,0,1,432.957,404.209Z" transform="translate(-309.528 -396.111)" fill="#fff"/>
      <path id="Pfad_1036" data-name="Pfad 1036" d="M443.937,416.528a1.733,1.733,0,0,1,0,3.463A1.733,1.733,0,0,1,443.937,416.528Z" transform="translate(-344.169 -381.883)" fill="#fff"/>
      <path id="Pfad_1037" data-name="Pfad 1037" d="M448.758,437.551a1.731,1.731,0,0,1,0,3.461A1.731,1.731,0,0,1,448.758,437.551Z" transform="translate(-359.377 -357.603)" fill="#fff"/>
      <path id="Pfad_1038" data-name="Pfad 1038" d="M458,454.422a1.732,1.732,0,0,1,0,3.463A1.732,1.732,0,0,1,458,454.422Z" transform="translate(-388.527 -338.119)" fill="#fff"/>
      <path id="Pfad_1088" data-name="Pfad 1088" d="M458,454.422a1.732,1.732,0,0,1,0,3.463A1.732,1.732,0,0,1,458,454.422Z" transform="translate(-326.75 -308.209)" fill="#fff"/>
      <path id="Pfad_1039" data-name="Pfad 1039" d="M470.049,436.479a1.733,1.733,0,0,1,0,3.463A1.733,1.733,0,0,1,470.049,436.479Z" transform="translate(-426.548 -358.842)" fill="#fff"/>
      <path id="Pfad_1040" data-name="Pfad 1040" d="M473.53,447.727a1.733,1.733,0,0,1,0,3.463A1.733,1.733,0,0,1,473.53,447.727Z" transform="translate(-437.531 -345.851)" fill="#fff"/>
      <path id="Pfad_1085" data-name="Pfad 1085" d="M473.53,447.727a1.733,1.733,0,0,1,0,3.463A1.733,1.733,0,0,1,473.53,447.727Z" transform="translate(-402.53 -290.851)" fill="#fff"/>
      <path id="Pfad_1041" data-name="Pfad 1041" d="M482.769,465a1.732,1.732,0,0,1,0,3.463A1.732,1.732,0,0,1,482.769,465Z" transform="translate(-466.681 -325.901)" fill="#fff"/>
      <path id="Pfad_1042" data-name="Pfad 1042" d="M483.037,426.3a1.731,1.731,0,0,1,0,3.461A1.731,1.731,0,0,1,483.037,426.3Z" transform="translate(-467.526 -370.594)" fill="#fff"/>
      <path id="Pfad_1093" data-name="Pfad 1093" d="M483.037,426.3a1.731,1.731,0,0,1,0,3.461A1.731,1.731,0,0,1,483.037,426.3Z" transform="translate(-145.526 -366.918)" fill="#fff"/>
      <path id="Pfad_1043" data-name="Pfad 1043" d="M482.1,407.154a1.733,1.733,0,0,1,0,3.463A1.733,1.733,0,0,1,482.1,407.154Z" transform="translate(-454.568 -382.71)" fill="#fff"/>
      <path id="Pfad_1092" data-name="Pfad 1092" d="M482.1,407.154a1.733,1.733,0,0,1,0,3.463A1.733,1.733,0,0,1,482.1,407.154Z" transform="translate(-110.568 -349.715)" fill="#fff"/>
      <path id="Pfad_1090" data-name="Pfad 1090" d="M482.1,407.154a1.733,1.733,0,0,1,0,3.463A1.733,1.733,0,0,1,482.1,407.154Z" transform="translate(-231.568 -389.246)" fill="#fff"/>
      <path id="Pfad_1044" data-name="Pfad 1044" d="M463.353,405.949a1.733,1.733,0,0,1,0,3.463A1.733,1.733,0,0,1,463.353,405.949Z" transform="translate(-405.425 -394.101)" fill="#fff"/>
      <path id="Pfad_1091" data-name="Pfad 1091" d="M463.353,405.949a1.733,1.733,0,0,1,0,3.463A1.733,1.733,0,0,1,463.353,405.949Z" transform="translate(-140.425 -401.314)" fill="#fff"/>
    </g>
  </g>
</svg>
