<svg id="_7" data-name="7" xmlns="http://www.w3.org/2000/svg" width="187" height="187" viewBox="0 0 187 187">
  <rect id="Rechteck_27" data-name="Rechteck 27" width="187" height="187" opacity="0"/>
  <path id="Pfad_1053" data-name="Pfad 1053" d="M7.642,13.718c0,3.561,2.893,7.27,8.606,7.27a21.3,21.3,0,0,0,4.6-.519l.519-.89A10.792,10.792,0,0,1,19.141,12.9c0-4.971.668-8.383,8.532-22.182l8.235-14.392v-8.012H2.672L1.856-12.842H3.043c1.261-6.528,2.6-7.493,9.57-7.493H31.6L19.364-6.165C8.978,5.854,7.642,9.266,7.642,13.718Z" transform="translate(140.625 150.967)" fill="#fff"/>
  <g id="Gruppe_88" data-name="Gruppe 88" transform="translate(14.85 90.325)">
    <path id="Pfad_560" data-name="Pfad 560" d="M178.134,148.571c-1.957-1.393-4.55-1.5-6.934-1.211a25.472,25.472,0,0,0-14.015,6.425,13.824,13.824,0,0,0-5.132-15.131,14.549,14.549,0,0,0-16.09-.072,15.367,15.367,0,0,0-6.34,14.9,16.234,16.234,0,0,0,7.88,11.179l-.048-.023a46.212,46.212,0,0,0-11.068,3.178c-3.089,1.436-5.861,3.925-6.825,7.2s.333,7.289,3.412,8.747c2.988,1.418,6.566.167,9.363-1.6s5.346-4.073,8.521-5a227.962,227.962,0,0,0,.569,29.3c.4,4.725,1.251,10,5.076,12.8,3.666,2.685,9.123,1.968,12.62-.931s5.21-7.526,5.489-12.061-.2-6.939-1.319-11.343-2.868-8.537-4.1-13.917c3.63,5.505,5.55,9.514,9.116,14.29,2.708,3.624,6.067,7.023,10.376,8.4s9.7.156,11.986-3.748c1.642-2.809,1.387-6.423.075-9.4a26.89,26.89,0,0,0-5.841-7.751,131.525,131.525,0,0,0-20.391-16.85,36.369,36.369,0,0,0,9.191-2.344,12.24,12.24,0,0,0,6.63-6.479C181.452,154.169,180.719,150.409,178.134,148.571Z" transform="translate(-119.251 -136.19)" fill="#e0ca9f"/>
    <g id="Gruppe_87" data-name="Gruppe 87" transform="translate(1.668 11.705)">
      <path id="Pfad_561" data-name="Pfad 561" d="M157.538,154.528a6.616,6.616,0,0,0-3.571-1.695,2.983,2.983,0,0,0-.529-5.356,3.007,3.007,0,0,0-2.023.007,3.41,3.41,0,0,0-.126-2.236,4.1,4.1,0,0,0-1.768-1.916c-.313.075-.624.159-.934.247a3.636,3.636,0,0,1,2.131,1.909,2.765,2.765,0,0,1-.161,2.45,2.834,2.834,0,0,0-.7.757.309.309,0,0,0,.438.42,2.74,2.74,0,0,0,.721-.746,2.379,2.379,0,1,1,1.531,4.306.309.309,0,0,0,0,.618,6.832,6.832,0,0,1,4.555,1.677,3.927,3.927,0,0,1,1.082,2.116c.179-.144.352-.3.523-.447A4.553,4.553,0,0,0,157.538,154.528Z" transform="translate(-102.175 -143.332)" fill="#fff"/>
      <path id="Pfad_562" data-name="Pfad 562" d="M167.482,167.62a6.885,6.885,0,0,1-3.166,2.691,16.744,16.744,0,0,1-4.492,1.149.31.31,0,0,0-.026.608,1.5,1.5,0,0,1,.929.726,1.9,1.9,0,0,1,.211,1.444,2.627,2.627,0,0,1-2.1,1.752,4.869,4.869,0,0,1-2.935-.541.31.31,0,0,0-.372.48,3.346,3.346,0,0,1,.264,3.684,4.6,4.6,0,0,1-2.676,2.075c.213.144.428.28.646.415.139-.057.282-.11.415-.177a5.008,5.008,0,0,0,2.159-2.014,4.062,4.062,0,0,0,.2-3.534,4.906,4.906,0,0,0,2.416.221,3.258,3.258,0,0,0,2.588-2.2,2.531,2.531,0,0,0-.277-1.923,2.3,2.3,0,0,0-.446-.549,15.208,15.208,0,0,0,3.757-1.054,7.562,7.562,0,0,0,3.294-2.688C167.741,168,167.611,167.808,167.482,167.62Z" transform="translate(-99.281 -127.813)" fill="#fff"/>
      <path id="Pfad_563" data-name="Pfad 563" d="M155.577,181.508a8.728,8.728,0,0,1-2,.76,5.972,5.972,0,0,1-3.935-.257,3.575,3.575,0,0,1-2.073-2.794c0-.089,0-.177-.01-.264a.31.31,0,0,0-.62.023c0,.087,0,.175.01.264a3.591,3.591,0,0,1-.916,2.319,3.537,3.537,0,0,1-6.156-2.141.31.31,0,0,0-.62-.007,3.792,3.792,0,0,1-3.1,3.293,4.466,4.466,0,0,1-3.206-.76c.034.266.074.529.116.795a5.017,5.017,0,0,0,3.194.577,4.493,4.493,0,0,0,3.293-2.565,4.386,4.386,0,0,0,1.111,1.562,3.961,3.961,0,0,0,5.836-.346,4.432,4.432,0,0,0,.826-1.391,4.422,4.422,0,0,0,2.049,1.995,6.584,6.584,0,0,0,4.348.3,9.435,9.435,0,0,0,1.7-.6C155.484,182.014,155.533,181.762,155.577,181.508Z" transform="translate(-112.164 -120.755)" fill="#fff"/>
      <path id="Pfad_564" data-name="Pfad 564" d="M127.005,169.792a3.873,3.873,0,0,1-.441-2.9,12.3,12.3,0,0,1,1.136-2.955.31.31,0,0,0-.516-.334,1.839,1.839,0,0,1-2.37.236,2.413,2.413,0,0,1-.875-2.416,3.457,3.457,0,0,1,1.647-2.19.31.31,0,0,0-.316-.534,3.792,3.792,0,0,1-4.625-.819c-.129.166-.256.333-.375.5a4.449,4.449,0,0,0,3.8,1.359,3.693,3.693,0,0,0-.739,1.557,3.008,3.008,0,0,0,1.126,3.045,2.524,2.524,0,0,0,2.216.311,9.713,9.713,0,0,0-.718,2.118,4.488,4.488,0,0,0,.534,3.366,3.029,3.029,0,0,0,.185.241c.233-.041.465-.092.7-.149A2.751,2.751,0,0,1,127.005,169.792Z" transform="translate(-120.269 -134.039)" fill="#fff"/>
    </g>
    <path id="Pfad_565" data-name="Pfad 565" d="M131.383,145.471a1.116,1.116,0,1,1-1.6-.795A1.289,1.289,0,0,1,131.383,145.471Z" transform="translate(-112.848 -130.824)" fill="#be9a49"/>
    <path id="Pfad_566" data-name="Pfad 566" d="M137.692,141.844a1.116,1.116,0,1,1-1.6-.793A1.289,1.289,0,0,1,137.692,141.844Z" transform="translate(-108.816 -133.142)" fill="#be9a49"/>
    <path id="Pfad_567" data-name="Pfad 567" d="M139,151.922a7.593,7.593,0,0,1-3.145.813,4.375,4.375,0,0,1-3.842-1.611.31.31,0,0,1,.08-.431.3.3,0,0,1,.431.08,3.771,3.771,0,0,0,3.309,1.342,6.931,6.931,0,0,0,6.69-6.677.31.31,0,1,1,.62.023,7.631,7.631,0,0,1-2.213,5.071A7.481,7.481,0,0,1,139,151.922Z" transform="translate(-111.129 -130.472)" fill="#be9a49"/>
    <path id="Pfad_568" data-name="Pfad 568" d="M141.353,155.229a1.576,1.576,0,1,1-2.116-.7A1.576,1.576,0,0,1,141.353,155.229Z" transform="translate(-107.035 -124.579)" fill="#be9a49"/>
    <path id="Pfad_569" data-name="Pfad 569" d="M142.814,158.129a1.576,1.576,0,1,1-2.116-.7A1.574,1.574,0,0,1,142.814,158.129Z" transform="translate(-106.101 -122.726)" fill="#393939"/>
    <path id="Pfad_570" data-name="Pfad 570" d="M144.372,160.689a1.576,1.576,0,1,1-2.116-.7A1.577,1.577,0,0,1,144.372,160.689Z" transform="translate(-105.105 -121.09)" fill="#fff"/>
    <path id="Pfad_571" data-name="Pfad 571" d="M131.39,146.651a11.592,11.592,0,0,0,5.168-7.931,21.35,21.35,0,0,0,12.115-.549c-.2-.159-.395-.318-.6-.464a20.7,20.7,0,0,1-11.692.326.3.3,0,0,0-.254.043.314.314,0,0,0-.134.22,10.793,10.793,0,0,1-10.367,9.506c-.033.21-.067.42-.092.631A11.525,11.525,0,0,0,131.39,146.651Z" transform="translate(-115.238 -135.221)" fill="#fff"/>
  </g>
  <g id="Gruppe_90" data-name="Gruppe 90" transform="translate(77.538 36.915)">
    <path id="Pfad_572" data-name="Pfad 572" d="M201.922,144.923a6.558,6.558,0,0,0-1.336-4.481,16.92,16.92,0,0,0-7.972-6.428,9.18,9.18,0,0,0,7.474-7.533,9.664,9.664,0,0,0-4.725-9.586,10.205,10.205,0,0,0-10.739.647,10.783,10.783,0,0,0-4.309,8l0-.034a30.69,30.69,0,0,0-5.168-5.636,8.114,8.114,0,0,0-6.3-1.926,4.961,4.961,0,0,0-4.189,4.62c.044,2.2,1.847,3.953,3.725,5.092s4.006,1.972,5.5,3.584a151.442,151.442,0,0,0-17.25,9.021c-2.691,1.636-5.574,3.707-6.107,6.812-.51,2.975,1.532,6.005,4.292,7.225a11.228,11.228,0,0,0,8.8-.31,20.788,20.788,0,0,0,6.351-4.147c2.288-1.968,4.227-4.233,7.057-6.562-2.2,3.789-4.011,6.12-5.792,9.655-1.352,2.683-2.378,5.687-1.919,8.657s2.781,5.812,5.781,6.013a6.989,6.989,0,0,0,5.61-2.74,17.892,17.892,0,0,0,2.876-5.769,87.365,87.365,0,0,0,3.975-17.114,24.149,24.149,0,0,0,4.117,4.769,8.126,8.126,0,0,0,5.815,2.021A4.963,4.963,0,0,0,201.922,144.923Z" transform="translate(-150.442 -115.667)" fill="#e0ca9f"/>
    <g id="Gruppe_89" data-name="Gruppe 89" transform="translate(4.274 2.257)">
      <path id="Pfad_573" data-name="Pfad 573" d="M178.219,138.086a4.394,4.394,0,0,0-.051-2.626,1.981,1.981,0,0,0,3.027-1.9,2,2,0,0,0-.6-1.2,2.262,2.262,0,0,0,1.292-.738A2.719,2.719,0,0,0,182.5,130q-.207-.246-.423-.482a2.419,2.419,0,0,1-.5,1.832,1.841,1.841,0,0,1-1.5.631,1.878,1.878,0,0,0-.657-.193.206.206,0,0,0-.12.385,1.812,1.812,0,0,0,.657.206,1.58,1.58,0,1,1-2.106,2.186.206.206,0,0,0-.367.185,4.546,4.546,0,0,1,.354,3.2,2.621,2.621,0,0,1-.937,1.27c.139.064.279.121.421.179A3.031,3.031,0,0,0,178.219,138.086Z" transform="translate(-137.816 -109.071)" fill="#fff"/>
      <path id="Pfad_574" data-name="Pfad 574" d="M174.587,146.435a4.574,4.574,0,0,1-2.539-1.083,11.182,11.182,0,0,1-2.014-2.331.205.205,0,0,0-.369.164,1,1,0,0,1-.157.767,1.261,1.261,0,0,1-.793.554,1.746,1.746,0,0,1-1.665-.729,3.248,3.248,0,0,1-.549-1.9.205.205,0,0,0-.395-.079,2.223,2.223,0,0,1-2.113,1.247,3.058,3.058,0,0,1-2.026-.975c-.023.169-.041.336-.056.5.075.067.149.136.228.2a3.334,3.334,0,0,0,1.837.687,2.7,2.7,0,0,0,2.159-.929,3.267,3.267,0,0,0,.585,1.5,2.165,2.165,0,0,0,2.073.887,1.69,1.69,0,0,0,1.06-.734,1.588,1.588,0,0,0,.2-.428,10.106,10.106,0,0,0,1.739,1.921,5.029,5.029,0,0,0,2.573,1.162C174.439,146.7,174.513,146.568,174.587,146.435Z" transform="translate(-147.388 -101.311)" fill="#fff"/>
      <path id="Pfad_575" data-name="Pfad 575" d="M160.452,144.566a5.865,5.865,0,0,1-1.044-.962,3.97,3.97,0,0,1-1.013-2.414,2.38,2.38,0,0,1,1.047-2.062c.052-.026.1-.054.154-.084a.206.206,0,0,0-.2-.362,1.746,1.746,0,0,0-.154.085,2.39,2.39,0,0,1-1.65.143,2.35,2.35,0,0,1-.552-4.294.207.207,0,0,0,.085-.27.2.2,0,0,0-.264-.1,2.521,2.521,0,0,1-2.878-.869,2.97,2.97,0,0,1-.5-2.131c-.147.1-.293.2-.438.3a3.323,3.323,0,0,0,.6,2.072,2.986,2.986,0,0,0,2.5,1.2,2.917,2.917,0,0,0-.6,1.124,2.631,2.631,0,0,0,1.936,3.366,2.945,2.945,0,0,0,1.072.079,2.948,2.948,0,0,0-.58,1.809,4.378,4.378,0,0,0,1.11,2.673,6.189,6.189,0,0,0,.864.833C160.122,144.659,160.288,144.615,160.452,144.566Z" transform="translate(-153.05 -107.969)" fill="#fff"/>
      <path id="Pfad_576" data-name="Pfad 576" d="M160.177,124.429a2.581,2.581,0,0,1,1.595-1.123,8.225,8.225,0,0,1,2.095-.2.206.206,0,0,0,.046-.406,1.221,1.221,0,0,1-.842-1.339,1.6,1.6,0,0,1,1.175-1.236,2.306,2.306,0,0,1,1.791.331.206.206,0,0,0,.223-.347,2.517,2.517,0,0,1-.883-2.991c-.136-.029-.274-.054-.411-.074a2.953,2.953,0,0,0,.32,2.662,2.477,2.477,0,0,0-1.146.021,2,2,0,0,0-1.477,1.573,1.674,1.674,0,0,0,.472,1.408,6.443,6.443,0,0,0-1.472.2,2.971,2.971,0,0,0-1.842,1.316,1.839,1.839,0,0,0-.09.18c.1.126.193.251.3.37A1.857,1.857,0,0,1,160.177,124.429Z" transform="translate(-148.781 -117.044)" fill="#fff"/>
    </g>
    <path id="Pfad_577" data-name="Pfad 577" d="M174.271,119.8a.741.741,0,1,1,0-1.187A.859.859,0,0,1,174.271,119.8Z" transform="translate(-136.095 -113.857)" fill="#be9a49"/>
    <path id="Pfad_578" data-name="Pfad 578" d="M178.3,122.474a.742.742,0,1,1,0-1.187A.855.855,0,0,1,178.3,122.474Z" transform="translate(-133.523 -112.147)" fill="#be9a49"/>
    <path id="Pfad_579" data-name="Pfad 579" d="M173.682,125.663a5.06,5.06,0,0,1-1.414-1.629,2.908,2.908,0,0,1-.18-2.762.206.206,0,0,1,.28-.079.2.2,0,0,1,.08.279,2.5,2.5,0,0,0,.182,2.365,4.6,4.6,0,0,0,5.951,2,.209.209,0,0,1,.274.1.207.207,0,0,1-.1.272,5,5,0,0,1-5.069-.547Z" transform="translate(-136.784 -112.153)" fill="#be9a49"/>
    <path id="Pfad_580" data-name="Pfad 580" d="M171.519,128.563a1.047,1.047,0,1,1-.213-1.465A1.048,1.048,0,0,1,171.519,128.563Z" transform="translate(-138.179 -108.496)" fill="#be9a49"/>
    <path id="Pfad_581" data-name="Pfad 581" d="M170.228,130.29a1.046,1.046,0,1,1-.211-1.464A1.047,1.047,0,0,1,170.228,130.29Z" transform="translate(-139.004 -107.392)" fill="#393939"/>
    <path id="Pfad_582" data-name="Pfad 582" d="M169.168,131.975a1.046,1.046,0,1,1-.213-1.465A1.046,1.046,0,0,1,169.168,131.975Z" transform="translate(-139.682 -106.316)" fill="#fff"/>
    <path id="Pfad_583" data-name="Pfad 583" d="M175.56,119.049a7.688,7.688,0,0,0,6.245.723,14.192,14.192,0,0,0,3.917,7.039c.036-.164.072-.329.1-.495a13.759,13.759,0,0,1-3.658-6.854.194.194,0,0,0-.1-.138.207.207,0,0,0-.17-.015,7.168,7.168,0,0,1-8.723-3.347c-.134.043-.269.085-.4.133A7.633,7.633,0,0,0,175.56,119.049Z" transform="translate(-136.178 -115.478)" fill="#fff"/>
  </g>
  <g id="Gruppe_91" data-name="Gruppe 91" transform="translate(12.729 6.942)">
    <path id="Pfad_584" data-name="Pfad 584" d="M126.376,123.48a1.647,1.647,0,0,0,0,3.291A1.647,1.647,0,0,0,126.376,123.48Z" transform="translate(-113.594 -105.702)" fill="#fff"/>
    <path id="Pfad_585" data-name="Pfad 585" d="M141.039,127.9a1.646,1.646,0,0,0,0,3.291A1.646,1.646,0,0,0,141.039,127.9Z" transform="translate(-90.576 -93.504)" fill="#be9a49"/>
    <path id="Pfad_586" data-name="Pfad 586" d="M148.069,114.843a1.646,1.646,0,0,0,0,3.291A1.646,1.646,0,0,0,148.069,114.843Z" transform="translate(-81.62 -111.221)" fill="#fff"/>
    <path id="Pfad_587" data-name="Pfad 587" d="M119.547,135.732a1.647,1.647,0,0,0,0,3.291A1.647,1.647,0,0,0,119.547,135.732Z" transform="translate(-117.957 -83.689)" fill="#be9a49"/>
    <path id="Pfad_588" data-name="Pfad 588" d="M120.15,170.48a1.646,1.646,0,0,0,0,3.291A1.646,1.646,0,0,0,120.15,170.48Z" transform="translate(-117.572 -40.148)" fill="#be9a49"/>
    <path id="Pfad_589" data-name="Pfad 589" d="M121.355,184.74a1.647,1.647,0,0,0,0,3.293A1.647,1.647,0,0,0,121.355,184.74Z" transform="translate(-116.802 -21.786)" fill="#fff"/>
    <path id="Pfad_590" data-name="Pfad 590" d="M153.693,185.544a1.647,1.647,0,0,0,0,3.293A1.647,1.647,0,0,0,153.693,185.544Z" transform="translate(-74.455 -21.272)" fill="#be9a49"/>
    <path id="Pfad_591" data-name="Pfad 591" d="M173.176,149.792a1.646,1.646,0,0,0,0,3.291A1.646,1.646,0,0,0,173.176,149.792Z" transform="translate(-49.632 -66.071)" fill="#fff"/>
    <path id="Pfad_592" data-name="Pfad 592" d="M186.834,140.753a1.647,1.647,0,0,0,0,3.293A1.647,1.647,0,0,0,186.834,140.753Z" transform="translate(-30.19 -77.397)" fill="#be9a49"/>
    <path id="Pfad_593" data-name="Pfad 593" d="M188.842,149.591a1.647,1.647,0,0,0,0,3.291A1.647,1.647,0,0,0,188.842,149.591Z" transform="translate(-28.907 -66.323)" fill="#be9a49"/>
    <path id="Pfad_594" data-name="Pfad 594" d="M190.047,120.467a1.647,1.647,0,0,0,0,3.291A1.647,1.647,0,0,0,190.047,120.467Z" transform="translate(-47.137 -65.133)" fill="#fff"/>
    <path id="Pfad_595" data-name="Pfad 595" d="M188.039,112.633a1.647,1.647,0,0,0,0,3.293A1.647,1.647,0,0,0,188.039,112.633Z" transform="translate(-59.42 -72.633)" fill="#be9a49"/>
    <path id="Pfad_596" data-name="Pfad 596" d="M132.6,114.039a1.647,1.647,0,0,0,0,3.293A1.647,1.647,0,0,0,132.6,114.039Z" transform="translate(-101.324 -111.735)" fill="#be9a49"/>
    <path id="Pfad_597" data-name="Pfad 597" d="M121.355,114.039a1.647,1.647,0,0,0,0,3.293A1.647,1.647,0,0,0,121.355,114.039Z" transform="translate(-16.802 8.265)" fill="#be9a49"/>
  </g>
</svg>
