<svg id="_8" data-name="8" xmlns="http://www.w3.org/2000/svg" xmlns:xlink="http://www.w3.org/1999/xlink" width="187" height="187" viewBox="0 0 187 187">
  <defs>
    <clipPath id="clip-path">
      <rect id="Rechteck_10" data-name="Rechteck 10" width="187" height="187" fill="none"/>
    </clipPath>
  </defs>
  <rect id="Rechteck_9" data-name="Rechteck 9" width="187" height="187" fill="#393939" opacity="0"/>
  <path id="Pfad_1052" data-name="Pfad 1052" d="M16.419-6.232v.206C5.919-5.339,1.047-.742,1.047,6.6c0,8.441,6.039,13.107,19.421,13.107,13.244,0,19.078-4.529,19.078-13.176,0-7-4.255-11.666-14.823-12.558v-.206c8.99-.686,13.588-5.078,13.588-11.46,0-7.549-5.9-12.078-17.842-12.078-12.215,0-18.117,5.01-18.117,12.49C2.351-11.1,7.36-6.712,16.419-6.232Zm4.049.892c4.872,0,5.97,3.912,5.97,11.735,0,7.96-.892,11.872-5.97,11.872-5.147,0-6.039-3.843-6.039-11.666C14.428-1.359,15.458-5.339,20.467-5.339ZM15.732-17.692c0-6.725.343-10.637,4.735-10.637S25.2-24.417,25.2-17.692c0,7.206-.069,10.774-4.529,10.774C15.938-6.918,15.732-10.486,15.732-17.692Z" transform="translate(73.204 98.531)" fill="#be9a49"/>
  <g id="Gruppe_25" data-name="Gruppe 25">
    <g id="Gruppe_24" data-name="Gruppe 24" clip-path="url(#clip-path)">
      <g id="Gruppe_23" data-name="Gruppe 23" transform="translate(-8.613 -14.043)">
        <g id="Gruppe_20" data-name="Gruppe 20">
          <path id="Pfad_205" data-name="Pfad 205" d="M309.837,159.866l.056,0a.779.779,0,0,0,.054-1.556l-3.553-.25,3.661-2.071a.779.779,0,1,0-.767-1.355l-3.347,1.894,1.388-2.575a.78.78,0,0,0-1.373-.739l-2.562,4.754-1.946,1.1c.131-.379.263-.761.392-1.131.347-1,.7-2.023,1.047-3.084a.78.78,0,0,0-1.485-.478c-.336,1.043-.692,2.062-1.034,3.049-.315.9-.638,1.838-.95,2.793l-3.1,1.756-4.452-3.017.032-3.614a29.582,29.582,0,0,0,4.562-4.726.778.778,0,1,0-1.233-.95,27.944,27.944,0,0,1-3.312,3.59l.015-1.575a29.734,29.734,0,0,0,4.446-6.04.779.779,0,0,0-1.362-.759,28.1,28.1,0,0,1-3.064,4.441l.045-5.081a.781.781,0,0,0-.774-.787h-.006a.781.781,0,0,0-.78.774l-.041,4.756-2.631-4.161a.779.779,0,0,0-1.317.834l3.924,6.2-.007.709-2.8-3.334a.779.779,0,0,0-1.194,1l3.974,4.728-.035,3.967-4.6,2.888-3.353-1.974a29.649,29.649,0,0,0-1.81-6.316.78.78,0,0,0-1.442.595,27.966,27.966,0,0,1,1.455,4.663l-1.358-.8a29.769,29.769,0,0,0-3.006-6.87.779.779,0,0,0-1.338.8,28.336,28.336,0,0,1,2.314,4.874l-4.379-2.579a.78.78,0,0,0-.791,1.345l4.1,2.413-4.92.2a.778.778,0,0,0,.03,1.556h.032l7.335-.3.61.36-4.286.759a.78.78,0,0,0,.134,1.547.765.765,0,0,0,.138-.013l6.081-1.075,3.689,2.172v5.23l-3.459,1.957a29.652,29.652,0,0,0-6.374-1.588.779.779,0,1,0-.207,1.545,27.979,27.979,0,0,1,4.767,1.071l-1.373.776a30.018,30.018,0,0,0-7.454-.832.779.779,0,1,0,.024,1.558,28.145,28.145,0,0,1,5.381.433l-4.426,2.5a.779.779,0,0,0,.769,1.355l4.14-2.342-2.288,4.359a.777.777,0,0,0,.328,1.052.758.758,0,0,0,.362.091.778.778,0,0,0,.69-.418l3.413-6.5.616-.349-1.487,4.092a.779.779,0,0,0,.468,1,.756.756,0,0,0,.265.047.78.78,0,0,0,.733-.513l2.107-5.805,3.78-2.138,4.478,2.607-.032,3.48-4.67,5.3a.78.78,0,0,0,1.17,1.032l3.48-3.948-.017,2.019-3.308,4.9a.78.78,0,0,0,.209,1.082.791.791,0,0,0,.435.131.778.778,0,0,0,.646-.343l1.991-2.952-.037,4.206a.778.778,0,0,0,.774.784h.006a.776.776,0,0,0,.778-.771l.034-3.844,1.536,2.489a.781.781,0,0,0,.664.369.778.778,0,0,0,.661-1.187l-2.836-4.6.019-2.237.784.905c.687.8,1.4,1.623,2.146,2.448a.779.779,0,1,0,1.155-1.045c-.733-.812-1.439-1.629-2.123-2.42-.625-.724-1.271-1.472-1.944-2.22l.032-3.571,4.521-2.528,2.974,1.752,2.252,6.693a.78.78,0,0,0,.739.53.767.767,0,0,0,.248-.041.78.78,0,0,0,.491-.987l-1.679-4.989,1.739,1.026,2.595,5.316a.779.779,0,0,0,1.4-.683l-1.562-3.2,3.625,2.133a.779.779,0,0,0,1.067-.276.78.78,0,0,0-.276-1.067l-3.312-1.95,2.922-.086a.78.78,0,0,0,.756-.8.768.768,0,0,0-.8-.756l-5.4.159L302.12,171.5c.392-.078.784-.153,1.168-.226,1.039-.2,2.11-.4,3.2-.636a.779.779,0,1,0-.328-1.524c-1.071.231-2.135.433-3.163.629-.937.179-1.9.366-2.888.573l-3.054-1.8v-5.168l3.051-1.726,6.924,1.4a.752.752,0,0,0,.153.015.779.779,0,0,0,.155-1.543l-5.161-1.041,1.758-.993ZM295.5,168.5l-4.519,2.528-4.484-2.612v-5.249l4.568-2.868,4.435,3Z" transform="translate(-124.708 -53.863)" fill="#e0ca9f"/>
          <path id="Pfad_207" data-name="Pfad 207" d="M249.923,159.866l.056,0a.779.779,0,0,0,.052-1.556l-3.551-.25,3.661-2.071a.779.779,0,0,0-.767-1.355l-3.349,1.894,1.388-2.575a.779.779,0,1,0-1.371-.739l-2.562,4.754-1.946,1.1c.131-.379.261-.761.39-1.131.347-1,.707-2.023,1.047-3.084a.779.779,0,0,0-1.483-.478c-.336,1.043-.692,2.062-1.036,3.049-.312.9-.636,1.838-.948,2.793l-3.1,1.756-4.452-3.017.03-3.614a29.593,29.593,0,0,0,4.564-4.726.779.779,0,1,0-1.235-.95,27.775,27.775,0,0,1-3.31,3.59l.013-1.575a29.743,29.743,0,0,0,4.448-6.04.779.779,0,0,0-1.362-.759,28.1,28.1,0,0,1-3.064,4.441l.043-5.081a.78.78,0,0,0-.771-.787H231.3a.779.779,0,0,0-.778.774l-.041,4.756-2.631-4.161a.779.779,0,0,0-1.317.834l3.922,6.2-.007.709-2.8-3.334a.779.779,0,0,0-1.194,1l3.974,4.728-.034,3.967-4.6,2.888-3.353-1.974a29.523,29.523,0,0,0-1.812-6.316.779.779,0,1,0-1.44.595,27.977,27.977,0,0,1,1.455,4.663l-1.358-.8a29.777,29.777,0,0,0-3.008-6.87.778.778,0,1,0-1.336.8,28.327,28.327,0,0,1,2.312,4.874l-4.379-2.579a.78.78,0,0,0-.791,1.345l4.1,2.413-4.918.2a.778.778,0,0,0,.03,1.556h.032l7.333-.3.61.36-4.286.759a.78.78,0,0,0,.136,1.547.726.726,0,0,0,.136-.013l6.081-1.075,3.689,2.172v5.23l-3.457,1.957a29.671,29.671,0,0,0-6.376-1.588.779.779,0,0,0-.207,1.545,27.98,27.98,0,0,1,4.767,1.071l-1.371.776a30.023,30.023,0,0,0-7.456-.832.779.779,0,0,0,.026,1.558,28.123,28.123,0,0,1,5.379.433l-4.424,2.5a.778.778,0,0,0,.384,1.457.768.768,0,0,0,.384-.1l4.142-2.342-2.289,4.359a.777.777,0,0,0,.328,1.052.752.752,0,0,0,.362.091.78.78,0,0,0,.69-.418l3.413-6.5.614-.349-1.485,4.092a.776.776,0,0,0,.465,1,.767.767,0,0,0,.267.047.777.777,0,0,0,.73-.513l2.11-5.805,3.778-2.138,4.478,2.607-.03,3.48-4.67,5.3a.779.779,0,0,0,1.168,1.032l3.48-3.948-.017,2.019-3.308,4.9a.779.779,0,0,0,1.293.871l1.991-2.952-.037,4.206a.778.778,0,0,0,.771.784h.007a.778.778,0,0,0,.78-.771l.034-3.844,1.536,2.489a.778.778,0,0,0,.664.369.765.765,0,0,0,.407-.116.777.777,0,0,0,.254-1.071l-2.838-4.6.019-2.237c.265.3.528.608.784.905.69.8,1.4,1.623,2.148,2.448a.773.773,0,0,0,.578.256.779.779,0,0,0,.578-1.3c-.735-.812-1.44-1.629-2.123-2.42-.625-.724-1.274-1.472-1.944-2.22l.03-3.571,4.523-2.528,2.974,1.752,2.252,6.693a.78.78,0,0,0,.739.53.766.766,0,0,0,.248-.041.779.779,0,0,0,.489-.987l-1.679-4.989,1.741,1.026,2.592,5.316a.784.784,0,0,0,.7.437.78.78,0,0,0,.7-1.121l-1.56-3.2,3.622,2.133a.779.779,0,1,0,.791-1.343l-3.312-1.95,2.924-.086a.779.779,0,0,0,.754-.8.767.767,0,0,0-.8-.756l-5.4.159L242.2,171.5c.392-.078.787-.153,1.17-.226,1.037-.2,2.11-.4,3.2-.636a.779.779,0,0,0-.328-1.524c-1.073.231-2.136.433-3.166.629-.935.179-1.9.366-2.885.573l-3.053-1.8v-5.168l3.049-1.726,6.924,1.4a.757.757,0,0,0,.155.015.779.779,0,0,0,.153-1.543l-5.159-1.041,1.758-.993ZM235.584,168.5l-4.521,2.528-4.482-2.612v-5.249l4.568-2.868,4.435,3Z" transform="translate(-193.904 -53.863)" fill="#e0ca9f"/>
          <path id="Pfad_208" data-name="Pfad 208" d="M283.547,118.289l.054,0a.78.78,0,0,0,.054-1.558l-3.551-.248,3.661-2.071a.779.779,0,1,0-.769-1.355l-3.347,1.894,1.388-2.575a.78.78,0,0,0-1.373-.739l-2.56,4.754-1.946,1.1c.129-.379.261-.761.39-1.131.347-1,.707-2.026,1.047-3.084a.779.779,0,1,0-1.483-.478c-.336,1.043-.692,2.062-1.037,3.049-.315.9-.636,1.838-.948,2.793l-3.1,1.756-4.452-3.017.03-3.614a29.589,29.589,0,0,0,4.564-4.726.779.779,0,1,0-1.235-.95,28.069,28.069,0,0,1-3.31,3.59l.013-1.575a29.743,29.743,0,0,0,4.448-6.04.779.779,0,0,0-1.362-.759,28.1,28.1,0,0,1-3.064,4.441l.043-5.081a.78.78,0,0,0-.772-.787h-.009a.779.779,0,0,0-.778.774l-.041,4.756-2.631-4.161a.779.779,0,0,0-1.317.834l3.922,6.2-.007.709-2.8-3.334a.779.779,0,0,0-1.194,1l3.972,4.728-.034,3.967-4.6,2.888-3.353-1.974a29.524,29.524,0,0,0-1.812-6.316.78.78,0,0,0-1.442.595,27.982,27.982,0,0,1,1.457,4.663l-1.358-.8a29.737,29.737,0,0,0-3.008-6.87.778.778,0,1,0-1.336.8,28.255,28.255,0,0,1,2.312,4.874l-4.379-2.579a.78.78,0,0,0-.791,1.345l4.1,2.413-4.92.2a.778.778,0,0,0,.032,1.556h.032l7.333-.3.61.36-4.286.759a.78.78,0,0,0,.136,1.547.725.725,0,0,0,.136-.013l6.081-1.075,3.689,2.172v5.23l-3.456,1.957a29.673,29.673,0,0,0-6.376-1.588.779.779,0,0,0-.207,1.545,27.977,27.977,0,0,1,4.767,1.071L252,130.6a30.024,30.024,0,0,0-7.456-.832.779.779,0,0,0,.026,1.558,28.121,28.121,0,0,1,5.379.433l-4.424,2.5a.778.778,0,0,0,.384,1.457.769.769,0,0,0,.384-.1l4.14-2.342-2.286,4.359a.777.777,0,0,0,.328,1.052.752.752,0,0,0,.362.091.78.78,0,0,0,.69-.418l3.411-6.5.616-.349-1.485,4.092a.776.776,0,0,0,.465,1,.766.766,0,0,0,.265.047.778.778,0,0,0,.733-.513l2.11-5.805,3.778-2.138L263.9,130.8l-.03,3.48-4.67,5.3a.779.779,0,0,0,1.168,1.032l3.48-3.948-.017,2.019-3.308,4.9a.78.78,0,0,0,1.293.873L263.8,141.5l-.037,4.206a.776.776,0,0,0,.771.784h.007a.778.778,0,0,0,.78-.771l.032-3.844,1.536,2.489a.783.783,0,0,0,.664.368.768.768,0,0,0,.409-.116.777.777,0,0,0,.254-1.071l-2.838-4.6.019-2.237c.265.3.528.608.784.905.69.8,1.4,1.623,2.148,2.448a.779.779,0,1,0,1.155-1.045c-.735-.812-1.442-1.629-2.123-2.42-.625-.724-1.274-1.472-1.944-2.22l.03-3.571,4.523-2.528,2.974,1.752,2.252,6.693a.778.778,0,0,0,.737.53.768.768,0,0,0,.25-.041.779.779,0,0,0,.489-.987L275,131.24l1.741,1.026,2.592,5.316a.783.783,0,0,0,.7.437.78.78,0,0,0,.7-1.121l-1.56-3.2,3.622,2.133a.779.779,0,1,0,.791-1.343l-3.312-1.95,2.924-.086a.779.779,0,0,0,.754-.8.768.768,0,0,0-.8-.756l-5.4.159-1.926-1.136c.392-.078.786-.153,1.17-.226,1.036-.2,2.11-.4,3.2-.636a.779.779,0,1,0-.33-1.523c-1.071.231-2.133.433-3.163.629-.935.179-1.9.366-2.885.573l-3.054-1.8v-5.167l3.049-1.726,6.924,1.4a.758.758,0,0,0,.155.015.779.779,0,0,0,.153-1.543l-5.159-1.041,1.756-1Zm-14.339,8.637-4.521,2.526-4.484-2.61v-5.249l4.571-2.868,4.435,3Z" transform="translate(-155.071 -101.881)" fill="#e0ca9f"/>
          <path id="Pfad_209" data-name="Pfad 209" d="M304.347,195.126l.056,0a.779.779,0,0,0,.054-1.556l-3.553-.248,3.661-2.071a.779.779,0,1,0-.767-1.355l-3.347,1.892,1.388-2.575a.78.78,0,1,0-1.373-.739l-2.562,4.756-1.946,1.1c.132-.381.263-.761.392-1.131.347-1,.7-2.026,1.045-3.084a.779.779,0,1,0-1.483-.478c-.336,1.041-.692,2.062-1.034,3.049-.315.9-.638,1.836-.95,2.793l-3.1,1.756-4.452-3.017.032-3.614a29.5,29.5,0,0,0,4.562-4.728.779.779,0,1,0-1.235-.95,27.8,27.8,0,0,1-3.31,3.592l.013-1.575a29.719,29.719,0,0,0,4.448-6.04.779.779,0,0,0-1.362-.759,28.2,28.2,0,0,1-3.064,4.441l.045-5.081a.78.78,0,0,0-.774-.787h-.007a.781.781,0,0,0-.78.771l-.041,4.758-2.631-4.161a.779.779,0,1,0-1.317.832l3.922,6.206,0,.707-2.8-3.331a.779.779,0,1,0-1.194,1l3.974,4.728-.034,3.967-4.6,2.888-3.353-1.974a29.642,29.642,0,0,0-1.81-6.316.779.779,0,1,0-1.442.593,27.976,27.976,0,0,1,1.455,4.663l-1.358-.8a29.7,29.7,0,0,0-3.008-6.872.779.779,0,0,0-1.336.8,28.189,28.189,0,0,1,2.314,4.874l-4.379-2.579a.78.78,0,1,0-.793,1.343l4.1,2.416-4.917.2a.779.779,0,0,0,.03,1.558h.032l7.335-.3.61.36-4.286.759a.78.78,0,0,0,.134,1.547.763.763,0,0,0,.138-.013l6.081-1.077,3.689,2.174v5.23l-3.459,1.957a29.534,29.534,0,0,0-6.374-1.59.779.779,0,1,0-.207,1.545,27.981,27.981,0,0,1,4.767,1.073l-1.373.776a29.82,29.82,0,0,0-7.454-.832.779.779,0,1,0,.024,1.558,27.8,27.8,0,0,1,5.381.433l-4.426,2.5a.779.779,0,0,0,.769,1.355l4.14-2.342-2.289,4.359a.779.779,0,0,0,1.379.724l3.413-6.5.616-.347-1.487,4.092a.779.779,0,1,0,1.465.53l2.108-5.8,3.78-2.138,4.476,2.605-.03,3.482-4.67,5.3a.779.779,0,1,0,1.17,1.03l3.48-3.948-.017,2.021-3.308,4.9a.779.779,0,0,0,1.291.873l1.991-2.952-.037,4.2a.78.78,0,0,0,.774.787h.007a.778.778,0,0,0,.778-.771l.034-3.847L287.7,221.2a.778.778,0,0,0,.664.371.793.793,0,0,0,.409-.116.781.781,0,0,0,.252-1.073l-2.836-4.594.019-2.237.784.905c.687.8,1.4,1.623,2.146,2.448a.779.779,0,0,0,1.155-1.045c-.733-.812-1.439-1.631-2.123-2.422-.625-.724-1.271-1.47-1.944-2.217l.032-3.571,4.521-2.53,2.974,1.752L296,213.564a.782.782,0,0,0,.739.532.828.828,0,0,0,.248-.041.78.78,0,0,0,.491-.987L295.8,208.08l1.739,1.026,2.594,5.314a.779.779,0,1,0,1.4-.683l-1.562-3.2,3.625,2.133a.771.771,0,0,0,.394.108.779.779,0,0,0,.4-1.45l-3.312-1.952,2.922-.086a.778.778,0,0,0,.756-.8.77.77,0,0,0-.8-.756l-5.4.159-1.926-1.136,1.168-.224c1.039-.2,2.11-.4,3.2-.638a.779.779,0,0,0-.328-1.524c-1.073.231-2.136.433-3.163.629-.937.179-1.9.366-2.888.573l-3.053-1.8v-5.17l3.051-1.724,6.924,1.394a.752.752,0,0,0,.153.015.779.779,0,0,0,.153-1.543l-5.159-1.039,1.758-1Zm-14.339,8.637-4.519,2.528L281,203.681V198.43l4.568-2.868,4.435,3Z" transform="translate(-131.048 -13.137)" fill="#e0ca9f"/>
          <path id="Pfad_210" data-name="Pfad 210" d="M258.049,195.4l.054,0a.779.779,0,0,0,.054-1.556l-3.551-.248,3.659-2.071a.78.78,0,0,0-.767-1.358l-3.347,1.894,1.388-2.575a.78.78,0,0,0-1.373-.739l-2.562,4.756-1.946,1.1c.131-.381.263-.761.392-1.131.347-1,.7-2.026,1.047-3.086a.78.78,0,1,0-1.485-.476c-.334,1.041-.69,2.062-1.034,3.049-.315.9-.638,1.836-.948,2.791l-3.105,1.756-4.452-3.015.032-3.616a29.5,29.5,0,0,0,4.564-4.726.779.779,0,0,0-1.235-.95,28.106,28.106,0,0,1-3.312,3.592l.015-1.575a29.793,29.793,0,0,0,4.446-6.04.779.779,0,1,0-1.36-.759,28.456,28.456,0,0,1-3.066,4.441l.045-5.083a.778.778,0,0,0-.774-.784h-.006a.776.776,0,0,0-.778.771l-.043,4.758-2.629-4.161a.78.78,0,0,0-1.319.832l3.924,6.2-.007.709-2.8-3.334a.778.778,0,0,0-1.192,1l3.972,4.73-.035,3.965-4.6,2.89-3.353-1.976a29.669,29.669,0,0,0-1.812-6.314.779.779,0,0,0-1.442.593,28.184,28.184,0,0,1,1.457,4.663l-1.36-.8a29.786,29.786,0,0,0-3.006-6.872.78.78,0,0,0-1.338.8,28.191,28.191,0,0,1,2.314,4.874L221,189.755a.779.779,0,1,0-.791,1.343l4.1,2.413-4.92.2a.779.779,0,0,0,.03,1.558h.032l7.335-.3.61.36-4.286.759a.778.778,0,0,0,.134,1.545.746.746,0,0,0,.138-.011l6.081-1.077,3.689,2.174v5.23l-3.459,1.957a29.532,29.532,0,0,0-6.374-1.59.779.779,0,0,0-.207,1.545,27.98,27.98,0,0,1,4.767,1.071l-1.371.776a29.932,29.932,0,0,0-7.456-.83.779.779,0,1,0,.026,1.558,27.8,27.8,0,0,1,5.379.433l-4.424,2.5a.78.78,0,1,0,.767,1.358l4.14-2.342-2.289,4.359a.78.78,0,0,0,1.381.724l3.411-6.5.616-.349-1.487,4.092a.782.782,0,0,0,.468,1,.81.81,0,0,0,.265.047.78.78,0,0,0,.733-.515l2.11-5.805,3.778-2.136,4.478,2.605-.03,3.482-4.672,5.3a.778.778,0,0,0,.071,1.1.767.767,0,0,0,.513.194.779.779,0,0,0,.586-.263l3.48-3.948-.017,2.019-3.308,4.9a.779.779,0,1,0,1.293.871l1.989-2.95-.037,4.2a.781.781,0,0,0,.774.787h.007a.781.781,0,0,0,.78-.774l.032-3.844,1.536,2.489a.78.78,0,0,0,1.327-.819l-2.838-4.6.019-2.235c.263.3.528.608.784.905.687.8,1.4,1.623,2.146,2.448a.781.781,0,0,0,.58.256.772.772,0,0,0,.521-.2.78.78,0,0,0,.056-1.1c-.735-.81-1.442-1.629-2.125-2.42-.623-.724-1.271-1.47-1.942-2.217l.03-3.573,4.521-2.528,2.974,1.752,2.254,6.693a.775.775,0,0,0,.737.53.788.788,0,0,0,.25-.041.777.777,0,0,0,.489-.987l-1.679-4.987,1.741,1.024,2.592,5.316a.779.779,0,1,0,1.4-.683l-1.56-3.2,3.622,2.136a.78.78,0,0,0,.791-1.345l-3.312-1.95,2.922-.086a.778.778,0,0,0,.756-.8.769.769,0,0,0-.8-.756l-5.4.159-1.926-1.136,1.17-.224c1.037-.2,2.11-.4,3.2-.638a.779.779,0,1,0-.328-1.524c-1.071.231-2.135.433-3.163.629-.937.179-1.9.366-2.888.573l-3.051-1.8v-5.167l3.049-1.726,6.924,1.4a.756.756,0,0,0,.155.015.779.779,0,0,0,.153-1.543l-5.159-1.041,1.756-.993Zm-14.341,8.637-4.519,2.528-4.484-2.61v-5.252l4.571-2.868,4.433,3Z" transform="translate(-184.521 -12.817)" fill="#e0ca9f"/>
        </g>
        <g id="Gruppe_22" data-name="Gruppe 22" transform="translate(18.288 33.559)">
          <g id="Gruppe_21" data-name="Gruppe 21">
            <path id="Pfad_211" data-name="Pfad 211" d="M234.783,118.391c-3.9,0-3.9,6.06,0,6.06S238.687,118.391,234.783,118.391Z" transform="translate(-187.13 -116.372)" fill="#be9a49"/>
            <path id="Pfad_212" data-name="Pfad 212" d="M217.776,133.522c-3.9,0-3.9,6.06,0,6.06S221.681,133.522,217.776,133.522Z" transform="translate(-206.77 -98.897)" fill="#be9a49"/>
            <path id="Pfad_213" data-name="Pfad 213" d="M233.309,131.916c-3.9,0-3.9,6.057,0,6.057S237.214,131.916,233.309,131.916Z" transform="translate(-188.83 -100.752)" fill="#be9a49"/>
            <path id="Pfad_214" data-name="Pfad 214" d="M215.288,173.828a3.082,3.082,0,0,0-3.03,3.03v.289a3.03,3.03,0,0,0,6.06,0v-.289A3.065,3.065,0,0,0,215.288,173.828Z" transform="translate(-209.763 -52.349)" fill="#be9a49"/>
            <path id="Pfad_215" data-name="Pfad 215" d="M222.864,167.534c-3.9,0-3.9,6.06,0,6.06S226.771,167.534,222.864,167.534Z" transform="translate(-200.893 -59.616)" fill="#be9a49"/>
            <path id="Pfad_216" data-name="Pfad 216" d="M238.129,172.354c-3.9,0-3.9,6.06,0,6.06S242.036,172.354,238.129,172.354Z" transform="translate(-183.264 -54.049)" fill="#be9a49"/>
            <path id="Pfad_217" data-name="Pfad 217" d="M254.064,183.334c-3.9,0-3.9,6.062,0,6.062S257.969,183.334,254.064,183.334Z" transform="translate(-164.86 -41.368)" fill="#be9a49"/>
            <path id="Pfad_218" data-name="Pfad 218" d="M267.454,170.748c-3.9,0-3.9,6.06,0,6.06S271.361,170.748,267.454,170.748Z" transform="translate(-149.396 -55.904)" fill="#be9a49"/>
            <path id="Pfad_219" data-name="Pfad 219" d="M282.719,172.087c-3.9,0-3.9,6.06,0,6.06S286.626,172.087,282.719,172.087Z" transform="translate(-131.766 -54.357)" fill="#be9a49"/>
            <path id="Pfad_221" data-name="Pfad 221" d="M265.715,127.229c-3.9,0-3.907,6.06,0,6.06S269.62,127.229,265.715,127.229Z" transform="translate(-151.406 -106.165)" fill="#be9a49"/>
            <path id="Pfad_222" data-name="Pfad 222" d="M279.507,133.389c-3.9,0-3.907,6.057,0,6.057S283.412,133.389,279.507,133.389Z" transform="translate(-136.477 -91.05)" fill="#be9a49"/>
            <path id="Pfad_223" data-name="Pfad 223" d="M287.809,128.7c-3.9,0-3.907,6.06,0,6.06S291.714,128.7,287.809,128.7Z" transform="translate(-161.889 -88.017)" fill="#be9a49"/>
            <path id="Pfad_224" data-name="Pfad 224" d="M253.128,128.568c-3.9,0-3.907,6.06,0,6.06S257.033,128.568,253.128,128.568Z" transform="translate(-165.943 -104.618)" fill="#be9a49"/>
            <path id="Pfad_225" data-name="Pfad 225" d="M214.028,186.28c-3.9,0-3.907,6.06,0,6.06S217.933,186.28,214.028,186.28Z" transform="translate(-211.1 -37.966)" fill="#be9a49"/>
            <path id="Pfad_226" data-name="Pfad 226" d="M292.9,184.272c-3.9,0-3.9,6.06,0,6.06S296.8,184.272,292.9,184.272Z" transform="translate(-120.012 -40.285)" fill="#be9a49"/>
          </g>
        </g>
      </g>
    </g>
  </g>
</svg>
