<svg id="_9" data-name="9" xmlns="http://www.w3.org/2000/svg" width="187" height="187" viewBox="0 0 187 187">
  <rect id="Rechteck_2" data-name="Rechteck 2" width="187" height="187" transform="translate(0)" fill="#e0ca9f" opacity="0"/>
  <g id="Gruppe_1" data-name="Gruppe 1" transform="translate(0 0.001)">
    <path id="Pfad_1" data-name="Pfad 1" d="M352,113.236c-5.082,0-5.091,7.9,0,7.9S357.093,113.236,352,113.236Z" transform="translate(-249.561 -105.307)" fill="#be9a49"/>
    <path id="Pfad_2" data-name="Pfad 2" d="M356.42,191.034c5.084,0,5.092-7.9,0-7.9S351.328,191.034,356.42,191.034Z" transform="translate(-244.328 -15.871)" fill="#be9a49"/>
    <path id="Pfad_3" data-name="Pfad 3" d="M317.252,183.8c5.084,0,5.092-7.9,0-7.9S312.162,183.8,317.252,183.8Z" transform="translate(-296.382 -28.387)" fill="#fff"/>
    <path id="Pfad_4" data-name="Pfad 4" d="M337.539,113.694c3.13,0,4.333-2.994,3.609-5.3h-7.216C333.2,110.7,334.4,113.694,337.539,113.694Z" transform="translate(-292.684 -108.398)" fill="#fff"/>
    <path id="Pfad_5" data-name="Pfad 5" d="M367.668,122.544c5.084,0,5.092-7.9,0-7.9S362.576,122.544,367.668,122.544Z" transform="translate(-234.009 -106.713)" fill="#fff"/>
    <path id="Pfad_6" data-name="Pfad 6" d="M330.309,190.232c5.084,0,5.092-7.9,0-7.9S325.216,190.232,330.309,190.232Z" transform="translate(-275.248 -16.385)" fill="#be9a49"/>
    <path id="Pfad_7" data-name="Pfad 7" d="M376.906,126.493c-5.082,0-5.091,7.9,0,7.9S382,126.493,376.906,126.493Z" transform="translate(-214.481 -81.253)" fill="#be9a49"/>
    <path id="Pfad_9" data-name="Pfad 9" d="M377.51,183.6c5.084,0,5.092-7.9,0-7.9S372.417,183.6,377.51,183.6Z" transform="translate(-213.107 -28.625)" fill="#fff"/>
    <path id="Pfad_10" data-name="Pfad 10" d="M313.034,161.642c-5.082,0-5.091,7.9,0,7.9S318.127,161.642,313.034,161.642Z" transform="translate(-299.077 -45.29)" fill="#be9a49"/>
    <path id="Pfad_1099" data-name="Pfad 1099" d="M313.034,161.642c-5.082,0-5.091,7.9,0,7.9S318.127,161.642,313.034,161.642Z" transform="translate(-265.606 -138.24)" fill="#be9a49"/>
    <path id="Pfad_11" data-name="Pfad 11" d="M383.936,163.115c5.084,0,5.092-7.9,0-7.9S378.846,163.115,383.936,163.115Z" transform="translate(-209 -52.908)" fill="#be9a49"/>
    <path id="Pfad_13" data-name="Pfad 13" d="M381.728,146.043c5.084,0,5.092-7.9,0-7.9S376.635,146.043,381.728,146.043Z" transform="translate(-210.412 -73.143)" fill="#fff"/>
    <path id="Pfad_14" data-name="Pfad 14" d="M376.3,192.373a3.813,3.813,0,0,0-3.768,4.594h7.536A3.81,3.81,0,0,0,376.3,192.373Z" transform="translate(-213.876 -9.967)" fill="#be9a49"/>
    <path id="Pfad_17" data-name="Pfad 17" d="M336.715,193.177a3.661,3.661,0,0,0-3.763,3.276h7.528A3.657,3.657,0,0,0,336.715,193.177Z" transform="translate(-267.612 -9.454)" fill="#fff"/>
    <path id="Pfad_18" data-name="Pfad 18" d="M392.4,193.589a3.633,3.633,0,0,0-2.845-1.216,3.813,3.813,0,0,0-3.768,4.594H392.4Z" transform="translate(-205.405 -9.967)" fill="#fff"/>
    <path id="Pfad_19" data-name="Pfad 19" d="M390.967,173.894c-5.083,0-5.092,7.9,0,7.9a4.766,4.766,0,0,0,.541-.034V173.93A4.4,4.4,0,0,0,390.967,173.894Z" transform="translate(-204.508 -30.768)" fill="#be9a49"/>
    <path id="Pfad_21" data-name="Pfad 21" d="M317.252,127.7c-5.082,0-5.091,7.9,0,7.9S322.345,127.7,317.252,127.7Z" transform="translate(-296.382 -85.522)" fill="#fff"/>
    <path id="Pfad_24" data-name="Pfad 24" d="M303.821,151.4a4.343,4.343,0,0,0-.79.072v7.756a4.493,4.493,0,0,0,.79.072C308.905,159.3,308.913,151.4,303.821,151.4Z" transform="translate(-303.031 -57.431)" fill="#fff"/>
    <path id="Pfad_25" data-name="Pfad 25" d="M303.031,178.721V186.6C307.848,186.4,307.854,178.923,303.031,178.721Z" transform="translate(-303.031 -18.691)" fill="#be9a49"/>
  </g>
  <path id="Pfad_26" data-name="Pfad 26" d="M453.178,199.822c0,37-29.99,58.723-66.984,58.723s-66.984-21.727-66.984-58.723,29.99-75.246,66.984-75.246S453.178,162.828,453.178,199.822Z" transform="translate(-292.694 -98.06)" fill="#be9a49"/>
  <path id="Pfad_1051" data-name="Pfad 1051" d="M41.752-8.408c0-16.264-7.7-23.089-20.185-23.089C10.53-31.5,1.019-26.56,1.019-14.217,1.019-4.2,7.481,1.539,15.976,1.539c5.881,0,9.294-2.469,11.472-5.881C27.3,13.592,24.4,19.4,18.082,19.4c-4.356,0-6.172-2.323-6.172-4.574a7.52,7.52,0,0,1,.508-2.614H14.6a9.164,9.164,0,0,0,.581-3.34c0-3.413-2.541-5.663-6.172-5.663-4.429,0-6.68,3.63-6.68,7.188,0,6.1,5.954,10.455,16.264,10.455C32.966,20.852,41.752,10.542,41.752-8.408Zm-14.957.944C25.851-3.907,23.6-.857,20.26-.857c-4.792,0-5.01-4.066-5.01-14.231,0-8.858.29-14.885,6.389-14.885,5.591,0,5.663,5.591,5.663,15.393A29.079,29.079,0,0,1,26.795-7.465Z" transform="translate(72.115 98.823)" fill="#fff"/>
</svg>
