<svg xmlns="http://www.w3.org/2000/svg" width="40" height="40" viewBox="0 0 40 40">
  <g id="Gruppe_400" data-name="Gruppe 400" transform="translate(-1359 -2418)">
    <circle id="Ellipse_1" data-name="Ellipse 1" cx="20" cy="20" r="20" transform="translate(1359 2418)" fill="#2572b2"/>
    <path id="Pfad_3879" data-name="Pfad 3879" d="M-.981-11.165a.7.7,0,0,0,.012,1L2.561-6.8h-8.42a.7.7,0,0,0-.7.7v.937a.7.7,0,0,0,.7.7h8.42L-.97-1.09a.7.7,0,0,0-.012,1l.65.65a.7.7,0,0,0,.993,0l5.7-5.7a.7.7,0,0,0,0-.993l-5.7-5.692a.7.7,0,0,0-.993,0Z" transform="translate(1379 2444)" fill="#fff"/>
  </g>
</svg>
