<?xml version="1.0" encoding="utf-8"?>
<!-- Generator: Adobe Illustrator 26.0.1, SVG Export Plug-In . SVG Version: 6.00 Build 0)  -->
<svg version="1.1" id="Ebene_1" xmlns="http://www.w3.org/2000/svg" xmlns:xlink="http://www.w3.org/1999/xlink" x="0px" y="0px"
	 viewBox="0 0 792 176" style="enable-background:new 0 0 792 176;" xml:space="preserve">
<style type="text/css">
	.st0{fill:#D8DF21;}
	.st1{fill:#CCCCCC;}
</style>
<path class="st0" d="M205,23.7v80.1h43.4v7h-50.9V23.7H205z"/>
<path class="st0" d="M267.9,69.5v34.2h40.2v7h-47.5v-87h44.3v7H268v31.9h31.1v6.9H267.9z"/>
<path class="st0" d="M335.2,23.7l30.1,52.9l30.1-52.9h9.5v87.2h-7v-77L367.3,89h-4l-30.4-54.7v76.5h-7V23.7H335.2z"/>
<path class="st0" d="M572.7,23.7h7v87.2h-9.9l-51.5-77.7v77.7h-7V23.7h9.7l51.6,77.5V23.7H572.7z"/>
<path class="st1" d="M593.8,30.8v-7h65.1v7h-29v80h-7.6v-80C622.3,30.8,593.8,30.8,593.8,30.8z"/>
<path class="st1" d="M679.5,69.5v34.2h40.1v7h-47.5v-87h44.3v7h-36.9v31.9h31.1v6.9H679.5z"/>
<path class="st1" d="M741.4,49.5v35.4c0,13.3,10.1,20.1,23.5,20.1c9,0,17.4-2.3,23.5-7.6l3.6,5.9c-7.4,6.5-16.5,8.7-27,8.7
	c-17.7,0-31-9.5-31-27.2V49.5c0-16.7,14-27.2,30.9-27.2c11.7,0,20.4,3.5,27,10.8l-4.5,5.5c-5.4-5.8-13.3-9.2-22.6-9.2
	C752.1,29.4,741.4,37.1,741.4,49.5z"/>
<path class="st0" d="M454,105.4c-13.3,0-25.4-7-25.4-20.4V49.5c0-12.4,12.6-20.6,25.3-20.6h0.6v-6.4h-0.6c-16.9,0-32.8,10.3-32.8,27
	V85c0,17.7,15.2,26.8,32.9,26.8h0.5v-6.5L454,105.4L454,105.4z"/>
<path class="st0" d="M462.5,22.5h-1.6V29h1.6c12.4,0,25.3,8.2,25.3,20.7v35.4c0,13.2-12.3,20.4-25.3,20.4h-1.6v6.5h1.6
	c17.3,0,32.9-9.4,32.9-26.8V49.5C495.4,32.9,479.2,22.5,462.5,22.5z"/>
<g>
	<path class="st1" d="M88,176c-48.5,0-88-39.5-88-88S39.5,0,88,0s88,39.5,88,88C176.1,136.5,136.6,176,88,176z M88,6.3
		C43,6.3,6.4,42.9,6.4,87.9S43,169.5,88,169.5s81.6-36.6,81.6-81.6C169.7,42.9,133.1,6.3,88,6.3z"/>
</g>
<g>
	<g>
		<path class="st0" d="M66.3,26c10.8,35.3,19.4,56.9,21.4,56.9S98.8,58.3,109.1,26C115.4,6.4,60.1,5.8,66.3,26z"/>
	</g>
	<g>
		<path class="st0" d="M116.4,29C99.1,61.6,89.9,83,91.3,84.4s25.2-9.5,55.4-25.1C165,49.8,126.3,10.4,116.4,29z"/>
	</g>
	<g>
		<path class="st0" d="M149.7,66.6C114.4,77.4,92.8,86,92.8,88s24.6,11.1,56.9,21.4C169.3,115.6,169.9,60.4,149.7,66.6z"/>
	</g>
	<g>
		<path class="st0" d="M146.7,116.7c-32.6-17.3-54-26.5-55.4-25.1s9.5,25.2,25.1,55.4C125.9,165.3,165.3,126.6,146.7,116.7z"/>
	</g>
	<g>
		<path class="st0" d="M109.1,150c-10.8-35.3-19.4-56.9-21.4-56.9S76.6,117.7,66.3,150C60.1,169.6,115.3,170.1,109.1,150z"/>
	</g>
	<g>
		<path class="st0" d="M59,147c17.3-32.6,26.5-54,25.1-55.4s-25.2,9.5-55.4,25.1C10.4,126.2,49.1,165.6,59,147z"/>
	</g>
	<g>
		<path class="st0" d="M25.7,109.4C61,98.6,82.6,90,82.6,88S58,76.9,25.7,66.6C6.1,60.3,5.6,115.6,25.7,109.4z"/>
	</g>
	<g>
		<path class="st0" d="M28.7,59.3c32.6,17.3,54,26.5,55.4,25.1S74.6,59.2,59,29C49.6,10.7,10.1,49.4,28.7,59.3z"/>
	</g>
</g>
<g>
	<path class="st1" d="M204.8,129.4c1.2,0,2.4,0.1,3.4,0.4c1,0.3,1.9,0.7,2.7,1.3c0.8,0.6,1.3,1.3,1.8,2.2c0.4,0.9,0.6,2,0.6,3.2v8.1
		c0,1.2-0.2,2.3-0.7,3.2s-1.1,1.6-1.9,2.2c-0.8,0.6-1.7,1-2.8,1.3s-2.2,0.4-3.4,0.4h-6.9v-22.4h7.2V129.4z M209.8,136.6
		c0-0.7-0.1-1.3-0.4-1.8s-0.6-0.9-1.1-1.3c-0.5-0.3-1-0.6-1.6-0.8s-1.3-0.2-2-0.2h-3.8v16.3h3.6c0.7,0,1.4-0.1,2-0.2
		c0.6-0.2,1.2-0.4,1.7-0.7s0.9-0.8,1.2-1.3c0.3-0.5,0.4-1.1,0.4-1.9V136.6L209.8,136.6z"/>
	<path class="st1" d="M218.6,129.4h3.4v22.4h-3.4V129.4z"/>
	<path class="st1" d="M231.6,141.8v7h9.5v3.1h-12.9v-22.4h12.2v3.1h-8.8v6.3h7.4v3h-7.4V141.8z"/>
	<path class="st1" d="M259.8,129.4c1.2,0,2.4,0.1,3.4,0.4c1,0.3,1.9,0.7,2.7,1.3c0.8,0.6,1.3,1.3,1.8,2.2c0.4,0.9,0.6,2,0.6,3.2v8.1
		c0,1.2-0.2,2.3-0.7,3.2s-1.1,1.6-1.9,2.2c-0.8,0.6-1.7,1-2.8,1.3c-1.1,0.3-2.2,0.4-3.4,0.4h-6.9v-22.4h7.2V129.4z M264.9,136.6
		c0-0.7-0.1-1.3-0.4-1.8s-0.6-0.9-1.1-1.3c-0.5-0.3-1-0.6-1.6-0.8s-1.3-0.2-2-0.2H256v16.3h3.6c0.7,0,1.4-0.1,2-0.2
		c0.6-0.2,1.2-0.4,1.7-0.7s0.9-0.8,1.2-1.3c0.3-0.5,0.4-1.1,0.4-1.9L264.9,136.6L264.9,136.6z"/>
	<path class="st1" d="M273.6,129.4h3.4v22.4h-3.4V129.4z"/>
	<path class="st1" d="M291,139.7h8.3v9.7c-0.7,0.4-1.3,0.8-1.9,1.1s-1.2,0.6-1.8,0.8c-0.6,0.2-1.3,0.4-2,0.6
		c-0.7,0.1-1.5,0.2-2.4,0.2c-1.2,0-2.4-0.2-3.4-0.5c-1.1-0.3-2-0.8-2.8-1.4c-0.8-0.6-1.4-1.4-1.8-2.3c-0.4-0.9-0.7-1.9-0.7-3.1v-8.7
		c0-1.1,0.2-2.1,0.7-3s1.1-1.6,1.9-2.3c0.8-0.6,1.7-1.1,2.8-1.4c1.1-0.3,2.2-0.5,3.4-0.5c1.4,0,2.8,0.2,4,0.7
		c1.3,0.4,2.4,1.1,3.4,2.1l-1.6,2.5c-0.8-0.7-1.7-1.2-2.7-1.6c-1-0.4-2-0.6-3.1-0.6c-0.7,0-1.3,0.1-2,0.3c-0.6,0.2-1.2,0.5-1.7,0.8
		c-0.5,0.4-0.9,0.8-1.2,1.3c-0.3,0.5-0.4,1.1-0.4,1.7v8.7c0,0.7,0.1,1.3,0.4,1.8s0.7,0.9,1.1,1.3c0.5,0.3,1,0.6,1.7,0.8
		c0.6,0.2,1.3,0.3,2.1,0.3c1,0,1.8-0.1,2.5-0.3s1.4-0.5,2.2-0.9v-5.3h-4.8v-2.8H291z"/>
	<path class="st1" d="M304.9,129.4h3.4v22.4h-3.4V129.4z"/>
	<path class="st1" d="M312.4,132.5v-3.1h17.2v3.1h-6.9v19.3h-3.4v-19.3H312.4z"/>
	<path class="st1" d="M341.2,129.2l7.5,22.6h-3.6l-1.9-5.9H335l-1.9,5.9h-3.7l7.7-22.6H341.2z M342.3,143.1l-3.2-10.1l-3.2,10.1
		H342.3z"/>
	<path class="st1" d="M355.5,129.4v19.3h10.3v3.1H352v-22.4L355.5,129.4L355.5,129.4z"/>
	<path class="st1" d="M379.2,129.2l7.5,22.6h-3.6l-1.9-5.9H373l-1.9,5.9h-3.7l7.7-22.6H379.2z M380.3,143.1l-3.2-10.1l-3.2,10.1
		H380.3z"/>
	<path class="st1" d="M397.9,139.7h8.3v9.7c-0.7,0.4-1.3,0.8-1.9,1.1s-1.2,0.6-1.8,0.8c-0.6,0.2-1.3,0.4-2,0.6
		c-0.7,0.1-1.5,0.2-2.4,0.2c-1.2,0-2.4-0.2-3.4-0.5c-1.1-0.3-2-0.8-2.8-1.4c-0.8-0.6-1.4-1.4-1.8-2.3c-0.4-0.9-0.7-1.9-0.7-3.1v-8.7
		c0-1.1,0.2-2.1,0.7-3s1.1-1.6,1.9-2.3c0.8-0.6,1.7-1.1,2.8-1.4c1.1-0.3,2.2-0.5,3.4-0.5c1.4,0,2.8,0.2,4,0.7
		c1.3,0.4,2.4,1.1,3.4,2.1l-1.6,2.5c-0.8-0.7-1.7-1.2-2.7-1.6c-1-0.4-2-0.6-3.1-0.6c-0.7,0-1.3,0.1-2,0.3c-0.6,0.2-1.2,0.5-1.7,0.8
		c-0.5,0.4-0.9,0.8-1.2,1.3c-0.3,0.5-0.4,1.1-0.4,1.7v8.7c0,0.7,0.1,1.3,0.4,1.8s0.7,0.9,1.1,1.3c0.5,0.3,1,0.6,1.7,0.8
		c0.6,0.2,1.3,0.3,2.1,0.3c1,0,1.8-0.1,2.5-0.3s1.4-0.5,2.2-0.9v-5.3h-4.8v-2.8H397.9z"/>
	<path class="st1" d="M414.1,141.8v7h9.5v3.1h-12.9v-22.4h12.2v3.1h-8.8v6.3h7.4v3h-7.4V141.8z"/>
	<path class="st1" d="M442.8,129.4h3.1v22.4h-4.8l-10.4-18.4v18.4h-3.1v-22.4h4.5l10.6,18.7v-18.7H442.8z"/>
	<path class="st1" d="M448.8,132.5v-3.1H466v3.1h-6.9v19.3h-3.4v-19.3H448.8z"/>
	<path class="st1" d="M483.1,129.4h3.4v15.3c0,1.2-0.2,2.3-0.7,3.2c-0.4,0.9-1.1,1.7-1.9,2.3s-1.7,1.1-2.8,1.4
		c-1.1,0.3-2.2,0.5-3.4,0.5c-1.2,0-2.4-0.2-3.5-0.5s-2-0.8-2.8-1.4c-0.8-0.6-1.4-1.4-1.9-2.3c-0.4-0.9-0.7-2-0.7-3.2v-15.3h3.4v15.3
		c0,0.7,0.1,1.4,0.4,1.9s0.7,1,1.2,1.3c0.5,0.4,1,0.6,1.7,0.8c0.6,0.2,1.3,0.3,2.1,0.3c0.7,0,1.4-0.1,2-0.3s1.2-0.4,1.7-0.8
		c0.5-0.4,0.9-0.8,1.2-1.3c0.3-0.5,0.4-1.2,0.4-1.9v-15.3H483.1z"/>
	<path class="st1" d="M505.4,140.4c-0.8,0.9-1.9,1.4-3.3,1.7l5.4,9.7h-3.8l-5.1-9.3H495v9.3h-3.4v-22.4h8.5c1,0,1.9,0.1,2.7,0.4
		c0.8,0.2,1.5,0.6,2.1,1.1s1,1.1,1.4,1.8c0.3,0.7,0.5,1.6,0.5,2.6v1.7C506.7,138.4,506.3,139.5,505.4,140.4z M495,139.4h5
		c0.4,0,0.8,0,1.2-0.1s0.7-0.2,1-0.4s0.5-0.4,0.7-0.8c0.2-0.3,0.3-0.7,0.3-1.1v-1.7c0-0.9-0.3-1.6-1-2.1c-0.6-0.5-1.4-0.7-2.3-0.7
		h-5L495,139.4L495,139.4z"/>
	<path class="st1" d="M530.9,132.5h-8.8v6.4h7.4v2.9h-7.4v10h-3.4v-22.4h12.2V132.5z"/>
	<path class="st1" d="M548.5,129.4h3.4v15.3c0,1.2-0.2,2.3-0.7,3.2c-0.4,0.9-1.1,1.7-1.9,2.3c-0.8,0.6-1.7,1.1-2.8,1.4
		c-1.1,0.3-2.2,0.5-3.4,0.5s-2.4-0.2-3.5-0.5s-2-0.8-2.8-1.4c-0.8-0.6-1.4-1.4-1.9-2.3c-0.4-0.9-0.7-2-0.7-3.2v-15.3h3.4v15.3
		c0,0.7,0.1,1.4,0.4,1.9s0.7,1,1.2,1.3c0.5,0.4,1,0.6,1.7,0.8c0.6,0.2,1.3,0.3,2.1,0.3c0.7,0,1.4-0.1,2-0.3s1.2-0.4,1.7-0.8
		c0.5-0.4,0.9-0.8,1.2-1.3s0.4-1.2,0.4-1.9v-15.3H548.5z M541.5,126.8h-3.2v-3.2h3.2V126.8z M547.8,126.8h-3.1v-3.2h3.1V126.8z"/>
	<path class="st1" d="M570.8,140.4c-0.8,0.9-1.9,1.4-3.3,1.7l5.4,9.7h-3.8l-5.1-9.3h-3.6v9.3H557v-22.4h8.5c1,0,1.9,0.1,2.7,0.4
		c0.8,0.2,1.5,0.6,2.1,1.1s1,1.1,1.4,1.8c0.3,0.7,0.5,1.6,0.5,2.6v1.7C572,138.4,571.6,139.5,570.8,140.4z M560.3,139.4h5
		c0.4,0,0.8,0,1.2-0.1s0.7-0.2,1-0.4s0.5-0.4,0.7-0.8c0.2-0.3,0.3-0.7,0.3-1.1v-1.7c0-0.9-0.3-1.6-1-2.1c-0.6-0.5-1.4-0.7-2.3-0.7
		h-5L560.3,139.4L560.3,139.4z"/>
	<path class="st1" d="M585,129.4h3.4v22.4H585V129.4z"/>
	<path class="st1" d="M609.1,129.4h3.4v22.4h-3.4v-9.3h-10.3v9.3h-3.4v-22.4h3.4v10h10.3V129.4z"/>
	<path class="st1" d="M631.4,140.4c-0.8,0.9-1.9,1.4-3.3,1.7l5.4,9.7h-3.8l-5.1-9.3H621v9.3h-3.4v-22.4h8.5c1,0,1.9,0.1,2.7,0.4
		c0.8,0.2,1.5,0.6,2.1,1.1s1,1.1,1.4,1.8c0.3,0.7,0.5,1.6,0.5,2.6v1.7C632.6,138.4,632.2,139.5,631.4,140.4z M620.9,139.4h5
		c0.4,0,0.8,0,1.2-0.1s0.7-0.2,1-0.4s0.5-0.4,0.7-0.8c0.2-0.3,0.3-0.7,0.3-1.1v-1.7c0-0.9-0.3-1.6-1-2.1c-0.6-0.5-1.4-0.7-2.3-0.7
		h-5L620.9,139.4L620.9,139.4z"/>
	<path class="st1" d="M640.5,141.8v7h9.5v3.1h-12.9v-22.4h12.2v3.1h-8.8v6.3h7.4v3h-7.4V141.8z"/>
	<path class="st1" d="M669.1,129.4h3.1v22.4h-4.7l-10.4-18.4v18.4h-3v-22.4h4.5l10.6,18.7L669.1,129.4L669.1,129.4z"/>
	<path class="st1" d="M688.2,141.8v7h9.5v3.1h-12.9v-22.4H697v3.1h-8.8v6.3h7.4v3h-7.4V141.8z"/>
	<path class="st1" d="M715.6,140.4c-0.8,0.9-1.9,1.4-3.3,1.7l5.4,9.7h-3.8l-5.1-9.3h-3.7v9.3h-3.4v-22.4h8.5c1,0,1.9,0.1,2.7,0.4
		c0.8,0.2,1.5,0.6,2.1,1.1s1,1.1,1.4,1.8c0.3,0.7,0.5,1.6,0.5,2.6v1.7C716.8,138.4,716.4,139.5,715.6,140.4z M705.1,139.4h5
		c0.4,0,0.8,0,1.2-0.1s0.7-0.2,1-0.4s0.5-0.4,0.7-0.8c0.2-0.3,0.3-0.7,0.3-1.1v-1.7c0-0.9-0.3-1.6-1-2.1c-0.6-0.5-1.4-0.7-2.3-0.7
		h-5L705.1,139.4L705.1,139.4z"/>
	<path class="st1" d="M733.5,132.5h-8.8v6.4h7.4v2.9h-7.4v10h-3.4v-22.4h12.2V132.5z"/>
	<path class="st1" d="M748.8,129.6c1.1,0.3,2,0.8,2.8,1.4c0.8,0.6,1.4,1.4,1.9,2.3c0.5,0.9,0.7,1.9,0.7,3v8.7c0,1.2-0.2,2.2-0.7,3.1
		c-0.5,0.9-1.1,1.7-1.9,2.3c-0.8,0.6-1.7,1.1-2.8,1.4c-1.1,0.3-2.2,0.5-3.3,0.5H745c-1.2,0-2.3-0.2-3.4-0.5c-1.1-0.3-2-0.8-2.8-1.3
		c-0.8-0.6-1.4-1.3-1.9-2.2s-0.7-1.9-0.7-3.1v-8.7c0-1.1,0.2-2.2,0.7-3c0.5-0.9,1.1-1.6,1.9-2.3s1.7-1.1,2.8-1.4
		c1-0.3,2.1-0.5,3.3-0.5h0.5C746.6,129.1,747.7,129.3,748.8,129.6z M750.8,136.3c0-0.7-0.2-1.2-0.5-1.7s-0.7-0.9-1.2-1.3
		c-0.5-0.3-1.1-0.6-1.7-0.8c-0.6-0.2-1.3-0.3-1.9-0.3H745c-0.7,0-1.3,0.1-1.9,0.3c-0.6,0.2-1.2,0.5-1.7,0.8
		c-0.5,0.4-0.9,0.8-1.2,1.3s-0.5,1.1-0.5,1.7v8.7c0,0.7,0.1,1.3,0.4,1.8c0.3,0.5,0.7,0.9,1.2,1.3c0.5,0.3,1.1,0.6,1.7,0.8
		c0.6,0.2,1.3,0.2,2,0.2h0.5c0.7,0,1.4-0.1,2-0.2c0.6-0.2,1.2-0.4,1.7-0.8c0.5-0.4,0.9-0.8,1.2-1.3s0.4-1.1,0.4-1.8V136.3z"/>
	<path class="st1" d="M762,129.4v19.3h10.3v3.1h-13.8v-22.4L762,129.4L762,129.4z"/>
	<path class="st1" d="M783.1,139.7h8.3v9.7c-0.7,0.4-1.3,0.8-1.9,1.1c-0.6,0.3-1.2,0.6-1.8,0.8s-1.3,0.4-2,0.6
		c-0.7,0.1-1.5,0.2-2.4,0.2c-1.2,0-2.4-0.2-3.4-0.5c-1.1-0.3-2-0.8-2.8-1.4c-0.8-0.6-1.4-1.4-1.8-2.3c-0.4-0.9-0.7-1.9-0.7-3.1v-8.7
		c0-1.1,0.2-2.1,0.7-3s1.1-1.6,1.9-2.3c0.8-0.6,1.7-1.1,2.8-1.4c1.1-0.3,2.2-0.5,3.4-0.5c1.4,0,2.8,0.2,4,0.7
		c1.3,0.4,2.4,1.1,3.4,2.1l-1.6,2.5c-0.8-0.7-1.7-1.2-2.7-1.6c-1-0.4-2-0.6-3.1-0.6c-0.7,0-1.3,0.1-2,0.3c-0.6,0.2-1.2,0.5-1.7,0.8
		c-0.5,0.4-0.9,0.8-1.2,1.3s-0.4,1.1-0.4,1.7v8.7c0,0.7,0.1,1.3,0.4,1.8c0.3,0.5,0.7,0.9,1.1,1.3c0.5,0.3,1,0.6,1.7,0.8
		c0.6,0.2,1.3,0.3,2.1,0.3c1,0,1.8-0.1,2.5-0.3s1.4-0.5,2.2-0.9v-5.3h-5V139.7z"/>
</g>
</svg>
