<svg xmlns="http://www.w3.org/2000/svg" width="59.246" height="69.69" viewBox="0 0 59.246 69.69">
  <path id="Pfad_3887" data-name="Pfad 3887" d="M641.657,286.049a19.249,19.249,0,0,0-3.235-7.674c-1.339-2.106-3.084-5.315-5.991-4.752a14.306,14.306,0,0,0-5.293,2.765,44.882,44.882,0,0,0-5.893,5.138c-3.391,3.507-7.357,8.241-7.84,13.359-.044-.008-.086-.021-.13-.027a12.37,12.37,0,0,0-3.144-.078,2.233,2.233,0,0,0-.475.1c-.248-4.468-3.105-8.61-5.87-11.939-2.9-3.493-6.449-7.041-10.528-9.149a5.524,5.524,0,0,0-2.933-.78,4.937,4.937,0,0,0-3.417,2.276,23.554,23.554,0,0,0-3.737,7.332c-1.561,4.909-.658,10.428,4.265,12.931,5.744,2.92,12.77,3.579,19.129,4,.006.082.007.167.016.249a3.038,3.038,0,0,0,.07.395,130.406,130.406,0,0,0-14.422-.107,7.5,7.5,0,0,0-1.44.221,1.422,1.422,0,0,0-1.817.563,94.626,94.626,0,0,0-4.165,18.905c-.763,6.135-1.221,12.634.061,18.739-.438.5-.223.912.539,1.075a143,143,0,0,0,40.769,2.664c.9-.07,2.315-.284,2.869-1.114a.708.708,0,0,0,.135-.407,108.809,108.809,0,0,0,1.776-11.605c.74-5.752,1.4-11.52,1.853-17.3.191-2.433.371-4.88.337-7.321,0-.051-.03-.082-.04-.126.474-.488.285-.9-.558-1.009-5.887-.789-11.755-1.728-17.655-2.426a6.8,6.8,0,0,0,.487-.866c.063,0,.1.013.175.009a68.907,68.907,0,0,0,17.747-3.338c2.345-.81,4.905-1.823,6.51-3.807A9.813,9.813,0,0,0,641.657,286.049ZM631,275.638a3.483,3.483,0,0,1,1.309-.57c-.013.031-.045.062-.047.094-.315,4.339-3.27,8.145-6.091,11.241a67.2,67.2,0,0,1-9.425,8.408c-.311.233-.628.457-.943.684.056-4.248,2.783-8.173,5.4-11.307A36.89,36.89,0,0,1,631,275.638ZM629.162,322.8c-5.832-.117-11.666-.2-17.488-.562a3.476,3.476,0,0,0-.559.018q.279-1.937.549-3.876l17.509,2.221a2.174,2.174,0,0,0,.24,0C629.334,321.34,629.245,322.072,629.162,322.8Zm-19.272-7c-.832,6.049-1.722,12.089-2.631,18.126q-.466,3.1-.941,6.19c-.976-.075-1.953-.148-2.928-.244a124.318,124.318,0,0,1,1.441-15.617c.789-6.015,1.68-12.039,2.94-17.975.236-1.111.455-2.308.786-3.449q1.446.141,2.89.3C611.1,307.369,610.47,311.6,609.891,315.8Zm-22.2-.458,16.016,2.032q-.317,2.031-.6,4.067a135.326,135.326,0,0,1-15.865-3C587.377,317.408,587.526,316.374,587.692,315.342Zm13.186-32.182c2.765,3.183,5.924,7.352,6.31,11.758-.172-.126-.343-.253-.512-.375-1.483-1.074-2.917-2.219-4.3-3.417a43.1,43.1,0,0,1-9.059-10.168,15.1,15.1,0,0,1-2.22-6.077c.2.1.4.216.589.32A35.645,35.645,0,0,1,600.877,283.16ZM586.3,291.771a10.021,10.021,0,0,1-1.373-6.4,20.833,20.833,0,0,1,2.489-7.227,18.549,18.549,0,0,1,1.871-2.882c.069-.083.122-.144.18-.214.346,4.3,3.153,8.141,5.911,11.27a59.892,59.892,0,0,0,9.446,8.548c.671.494,1.36,1.021,2.085,1.465a7.761,7.761,0,0,0-.2.9c-.045.272-.08.55-.109.828a56.97,56.97,0,0,1-14.74-2.667C589.771,294.654,587.556,293.686,586.3,291.771ZM609.224,300c.079.085,0,0-.012-.025s-.038-.067-.054-.1a1.313,1.313,0,0,1-.078-.217,3.224,3.224,0,0,1-.1-.6A8.882,8.882,0,0,1,609,297.5c.031-.354.083-.715.146-1.058a1.512,1.512,0,0,0,.727.109c.252-.024.5-.042.754-.05l.159-.006c.106,0,.213,0,.318.009.252.01.5.029.754.057.17.02.364.032.54.071.056.013.111.026.166.041s.109.032.162.051c.037.016.043.017.054.021.054.032.114.076.142.1l.011.009c.032.032.063.066.092.1a2.029,2.029,0,0,1,.14.19c.014.022.1.168.111.189a3,3,0,0,1,.181.413c.011.033.015.069.024.1-.007.1-.008.207-.022.31a5.68,5.68,0,0,1-.189.865c-.014.046-.114.344-.029.1-.024.068-.047.136-.072.2-.059.157-.122.313-.19.466s-.137.3-.215.44c-.042.078-.086.155-.132.23s-.213.313-.017.039c-.041.057-.08.116-.117.174-1.145-.12-2.293-.216-3.44-.306C609.233,300.264,609.348,300.134,609.224,300Zm-2.662,2.647c-.328,1.025-.539,2.111-.764,3.125-.594,2.673-1.075,5.372-1.526,8.071-.124.746-.238,1.494-.358,2.241l-16-2.03a85.824,85.824,0,0,1,2.869-11.844A121.3,121.3,0,0,1,606.561,302.646ZM587.037,337.52c-1.122-5.719-.7-11.769,0-17.515a133.752,133.752,0,0,0,15.864,2.852c-.467,3.413-.878,6.834-1.208,10.261-.208,2.163-.394,4.337-.446,6.512-4.4-.5-8.782-1.2-13.127-2.12A3.123,3.123,0,0,0,587.037,337.52Zm21.353,2.752c.01-.026.034-.049.038-.075.851-5.557,1.7-11.115,2.509-16.679,6.017.345,12.044.436,18.069.56h.01c-.455,3.942-.945,7.881-1.528,11.8-.214,1.436-.413,2.889-.707,4.315A140.671,140.671,0,0,1,608.39,340.272Zm22.168-34.8a130.873,130.873,0,0,1-1,13.862L612.694,317.2a2.509,2.509,0,0,0-.872.073c.423-3.065.834-6.132,1.213-9.2.192-1.561.37-3.126.52-4.691,5.3.634,10.592,1.414,15.917,2.128A4.167,4.167,0,0,0,630.558,305.474Zm7.71-13.743c-1,2.023-3.13,2.94-5.142,3.681a62.561,62.561,0,0,1-17.225,3.273,4.683,4.683,0,0,0,.176-.939,2.217,2.217,0,0,0-.117-.848,56.863,56.863,0,0,0,6.464-4.908,47.487,47.487,0,0,0,9.75-10.577,16.967,16.967,0,0,0,2.146-4.692c.365.469.706.957,1.038,1.432a23.465,23.465,0,0,1,3.524,6.969A9.387,9.387,0,0,1,638.268,291.731Z" transform="translate(-582.472 -273.005)" fill="#fff"/>
</svg>
