<svg id="Komponente_2_1" data-name="Komponente 2 – 1" xmlns="http://www.w3.org/2000/svg" xmlns:xlink="http://www.w3.org/1999/xlink" width="17.5" height="17.5" viewBox="0 0 17.5 17.5">
  <defs>
    <linearGradient id="linear-gradient" x1="1" x2="0" y2="1" gradientUnits="objectBoundingBox">
      <stop offset="0" stop-color="#541dd0"/>
      <stop offset="0.365" stop-color="#f500ff"/>
      <stop offset="0.581" stop-color="red"/>
      <stop offset="0.764" stop-color="#ff8900"/>
      <stop offset="1" stop-color="#ffe200"/>
    </linearGradient>
  </defs>
  <path id="Pfad_103" data-name="Pfad 103" d="M0-11.992a4.371,4.371,0,0,1,2.246.605A4.505,4.505,0,0,1,3.887-9.746,4.371,4.371,0,0,1,4.492-7.5a4.371,4.371,0,0,1-.605,2.246A4.505,4.505,0,0,1,2.246-3.613,4.371,4.371,0,0,1,0-3.008a4.371,4.371,0,0,1-2.246-.605A4.505,4.505,0,0,1-3.887-5.254,4.371,4.371,0,0,1-4.492-7.5a4.371,4.371,0,0,1,.605-2.246,4.505,4.505,0,0,1,1.641-1.641A4.371,4.371,0,0,1,0-11.992ZM0-4.57A2.822,2.822,0,0,0,2.07-5.43,2.822,2.822,0,0,0,2.93-7.5,2.822,2.822,0,0,0,2.07-9.57,2.822,2.822,0,0,0,0-10.43a2.822,2.822,0,0,0-2.07.859A2.822,2.822,0,0,0-2.93-7.5,2.822,2.822,0,0,0-2.07-5.43,2.822,2.822,0,0,0,0-4.57Zm5.742-7.617a1.217,1.217,0,0,1-.332.742.951.951,0,0,1-.723.312,1.014,1.014,0,0,1-.742-.312,1.014,1.014,0,0,1-.312-.742,1.014,1.014,0,0,1,.313-.742,1.014,1.014,0,0,1,.742-.312,1.014,1.014,0,0,1,.742.313A1.014,1.014,0,0,1,5.742-12.187Zm2.969,1.055Q8.75-10.039,8.75-7.5T8.691-3.848a7.367,7.367,0,0,1-.332,1.934,4.553,4.553,0,0,1-1.074,1.7A4.553,4.553,0,0,1,5.586.859a7.367,7.367,0,0,1-1.934.332Q2.539,1.25,0,1.25t-3.652-.059A6.379,6.379,0,0,1-5.586.82a4.164,4.164,0,0,1-1.7-1.035,4.553,4.553,0,0,1-1.074-1.7,7.367,7.367,0,0,1-.332-1.934Q-8.75-4.961-8.75-7.5t.059-3.652a7.367,7.367,0,0,1,.332-1.934,4.553,4.553,0,0,1,1.074-1.7,4.553,4.553,0,0,1,1.7-1.074,7.367,7.367,0,0,1,1.934-.332Q-2.539-16.25,0-16.25t3.652.059a7.367,7.367,0,0,1,1.934.332,4.553,4.553,0,0,1,1.7,1.074,4.553,4.553,0,0,1,1.074,1.7A7.947,7.947,0,0,1,8.711-11.133ZM6.836-2.344a8.225,8.225,0,0,0,.312-2.109q.039-.859.039-2.422v-1.25q0-1.6-.039-2.422a7.838,7.838,0,0,0-.312-2.109,2.819,2.819,0,0,0-1.68-1.68,7.838,7.838,0,0,0-2.109-.312q-.859-.039-2.422-.039H-.625q-1.562,0-2.422.039a8.225,8.225,0,0,0-2.109.313,2.819,2.819,0,0,0-1.68,1.68,7.838,7.838,0,0,0-.312,2.109q-.039.859-.039,2.422v1.25q0,1.562.039,2.422a8.225,8.225,0,0,0,.312,2.109,2.961,2.961,0,0,0,1.68,1.68,8.225,8.225,0,0,0,2.109.312q.859.039,2.422.039H.625q1.6,0,2.422-.039A7.838,7.838,0,0,0,5.156-.664,2.961,2.961,0,0,0,6.836-2.344Z" transform="translate(8.75 16.25)" fill="url(#linear-gradient)"/>
</svg>
