<svg xmlns="http://www.w3.org/2000/svg" width="18.345" height="18.345" viewBox="0 0 18.345 18.345">
  <path id="Pfad_3894" data-name="Pfad 3894" d="M61.7,6.892a6.582,6.582,0,0,0-.735-.616.576.576,0,0,0-.738.062l-.754.754a1.427,1.427,0,0,0-.419,1.068.647.647,0,0,0,.249.452,2.686,2.686,0,0,1,.37.307,2.579,2.579,0,0,1,0,3.649l-2.408,2.407A2.58,2.58,0,1,1,53.643,11.3l.469-.469a.577.577,0,0,0,.136-.6A6.6,6.6,0,0,1,53.9,8.351a.573.573,0,0,0-.978-.38L51.593,9.3a5.446,5.446,0,0,0,7.7,7.7L61.7,14.594l.013-.013A5.443,5.443,0,0,0,61.7,6.892Zm5.05-5.05a5.452,5.452,0,0,0-7.7,0L56.642,4.25l-.013.013a5.443,5.443,0,0,0,.013,7.689,6.581,6.581,0,0,0,.735.616.576.576,0,0,0,.738-.062l.754-.754a1.427,1.427,0,0,0,.419-1.068.647.647,0,0,0-.249-.452,2.686,2.686,0,0,1-.371-.307,2.579,2.579,0,0,1,0-3.649l2.408-2.407A2.58,2.58,0,1,1,64.7,7.541l-.469.469a.577.577,0,0,0-.136.6,6.6,6.6,0,0,1,.347,1.889.573.573,0,0,0,.978.38l1.329-1.329A5.452,5.452,0,0,0,66.752,1.843Z" transform="translate(-50 -0.25)"/>
</svg>
