<svg xmlns="http://www.w3.org/2000/svg" width="22.026" height="16.519" viewBox="0 0 22.026 16.519">
  <path id="Pfad_3895" data-name="Pfad 3895" d="M71.608,9.955c-.964.749-2.237,1.7-6.625,4.891-.873.637-2.435,2.061-3.971,2.048-1.527.009-3.059-1.385-3.966-2.048-4.388-3.188-5.666-4.138-6.629-4.887a.257.257,0,0,0-.417.2v8.793a2.065,2.065,0,0,0,2.065,2.065h17.9a2.065,2.065,0,0,0,2.065-2.065v-8.8A.259.259,0,0,0,71.608,9.955Zm-10.6,5.558c1,.017,2.435-1.256,3.158-1.781,5.709-4.143,6.143-4.5,7.459-5.537a1.029,1.029,0,0,0,.4-.813V6.565A2.065,2.065,0,0,0,69.961,4.5h-17.9A2.065,2.065,0,0,0,50,6.565v.817a1.036,1.036,0,0,0,.4.813c1.316,1.028,1.751,1.394,7.459,5.537C58.578,14.257,60.015,15.53,61.013,15.513Z" transform="translate(-50 -4.5)"/>
</svg>
