<svg id="Komponente_9_1" data-name="Komponente 9 – 1" xmlns="http://www.w3.org/2000/svg" width="19.375" height="19.375" viewBox="0 0 19.375 19.375">
  <path id="Pfad_107" data-name="Pfad 107" d="M9.687-7.5a9.391,9.391,0,0,0-1.309-4.844,9.789,9.789,0,0,0-3.535-3.535A9.391,9.391,0,0,0,0-17.187a9.391,9.391,0,0,0-4.844,1.309,9.789,9.789,0,0,0-3.535,3.535A9.391,9.391,0,0,0-9.687-7.5a9.471,9.471,0,0,0,1.7,5.508A9.367,9.367,0,0,0-3.516,1.523,8.589,8.589,0,0,1-3.477-1.25l1.094-4.8A3.408,3.408,0,0,1-2.656-7.5a2.685,2.685,0,0,1,.508-1.68A1.524,1.524,0,0,1-.9-9.844a1.109,1.109,0,0,1,.9.371,1.405,1.405,0,0,1,.312.937,8.5,8.5,0,0,1-.43,2.012,9.98,9.98,0,0,0-.352,1.25A1.378,1.378,0,0,0-.2-4.043a1.431,1.431,0,0,0,1.172.527,2.586,2.586,0,0,0,2.168-1.25,5.443,5.443,0,0,0,.879-3.2A3.8,3.8,0,0,0,2.891-10.8a4,4,0,0,0-2.93-1.113,4.38,4.38,0,0,0-2.344.625,4.069,4.069,0,0,0-1.5,1.543A4.183,4.183,0,0,0-4.414-7.7a3.985,3.985,0,0,0,.2,1.23,3.108,3.108,0,0,0,.508,1,.271.271,0,0,1,.078.273L-3.906-4.1q-.039.234-.312.117a3.1,3.1,0,0,1-1.426-1.5,4.909,4.909,0,0,1-.566-2.246,5.817,5.817,0,0,1,.762-2.91A5.573,5.573,0,0,1-3.32-12.773,7.3,7.3,0,0,1,.2-13.594a6.418,6.418,0,0,1,3.047.723,5.423,5.423,0,0,1,2.148,2.012,5.5,5.5,0,0,1,.781,2.91,6.919,6.919,0,0,1-.645,2.988,5.361,5.361,0,0,1-1.8,2.168,4.383,4.383,0,0,1-2.559.8A3.014,3.014,0,0,1-.2-2.3a1.819,1.819,0,0,1-.859-.781l-.625,2.3A9.786,9.786,0,0,1-2.852,1.758,9.454,9.454,0,0,0,0,2.187,9.391,9.391,0,0,0,4.844.879,9.789,9.789,0,0,0,8.379-2.656,9.391,9.391,0,0,0,9.687-7.5Z" transform="translate(9.688 17.188)" fill="#c32222"/>
</svg>
