<svg id="whatsapp_4_" data-name="whatsapp (4)" xmlns="http://www.w3.org/2000/svg" width="19.001" height="19.001" viewBox="0 0 19.001 19.001">
  <path id="Pfad_3896" data-name="Pfad 3896" d="M9.5,0h0a9.495,9.495,0,0,0-7.69,15.069L.625,18.6l3.652-1.167A9.5,9.5,0,1,0,9.5,0Z" fill="#4caf50"/>
  <path id="Pfad_3897" data-name="Pfad 3897" d="M118.314,126.159a2.681,2.681,0,0,1-1.865,1.341c-.5.106-1.145.19-3.328-.715a11.9,11.9,0,0,1-4.73-4.178,5.426,5.426,0,0,1-1.128-2.866,3.033,3.033,0,0,1,.971-2.312,1.38,1.38,0,0,1,.971-.341c.118,0,.223.006.318.011.279.012.419.028.6.469.229.552.787,1.916.854,2.056a.565.565,0,0,1,.04.514,1.642,1.642,0,0,1-.308.436c-.14.162-.273.285-.413.458-.128.151-.273.312-.112.591a8.433,8.433,0,0,0,1.541,1.916,6.985,6.985,0,0,0,2.228,1.374.6.6,0,0,0,.67-.106,11.5,11.5,0,0,0,.742-.983.53.53,0,0,1,.682-.207c.257.089,1.614.76,1.893.9s.463.207.531.324A2.366,2.366,0,0,1,118.314,126.159Z" transform="translate(-103.283 -112.743)" fill="#fafafa"/>
</svg>
